G04 #@! TF.GenerationSoftware,KiCad,Pcbnew,5.1.6-c6e7f7d~86~ubuntu18.04.1*
G04 #@! TF.CreationDate,2020-08-05T17:06:35-04:00*
G04 #@! TF.ProjectId,busboard10,62757362-6f61-4726-9431-302e6b696361,rev?*
G04 #@! TF.SameCoordinates,Original*
G04 #@! TF.FileFunction,Soldermask,Top*
G04 #@! TF.FilePolarity,Negative*
%FSLAX46Y46*%
G04 Gerber Fmt 4.6, Leading zero omitted, Abs format (unit mm)*
G04 Created by KiCad (PCBNEW 5.1.6-c6e7f7d~86~ubuntu18.04.1) date 2020-08-05 17:06:35*
%MOMM*%
%LPD*%
G01*
G04 APERTURE LIST*
%ADD10C,0.100000*%
G04 APERTURE END LIST*
D10*
G36*
X238125256Y-69641298D02*
G01*
X238231579Y-69662447D01*
X238532042Y-69786903D01*
X238802451Y-69967585D01*
X239032415Y-70197549D01*
X239213097Y-70467958D01*
X239337553Y-70768421D01*
X239401000Y-71087391D01*
X239401000Y-71412609D01*
X239337553Y-71731579D01*
X239213097Y-72032042D01*
X239032415Y-72302451D01*
X238802451Y-72532415D01*
X238532042Y-72713097D01*
X238231579Y-72837553D01*
X238125256Y-72858702D01*
X237912611Y-72901000D01*
X237587389Y-72901000D01*
X237374744Y-72858702D01*
X237268421Y-72837553D01*
X236967958Y-72713097D01*
X236697549Y-72532415D01*
X236467585Y-72302451D01*
X236286903Y-72032042D01*
X236162447Y-71731579D01*
X236099000Y-71412609D01*
X236099000Y-71087391D01*
X236162447Y-70768421D01*
X236286903Y-70467958D01*
X236467585Y-70197549D01*
X236697549Y-69967585D01*
X236967958Y-69786903D01*
X237268421Y-69662447D01*
X237374744Y-69641298D01*
X237587389Y-69599000D01*
X237912611Y-69599000D01*
X238125256Y-69641298D01*
G37*
G36*
X58125256Y-69641298D02*
G01*
X58231579Y-69662447D01*
X58532042Y-69786903D01*
X58802451Y-69967585D01*
X59032415Y-70197549D01*
X59213097Y-70467958D01*
X59337553Y-70768421D01*
X59401000Y-71087391D01*
X59401000Y-71412609D01*
X59337553Y-71731579D01*
X59213097Y-72032042D01*
X59032415Y-72302451D01*
X58802451Y-72532415D01*
X58532042Y-72713097D01*
X58231579Y-72837553D01*
X58125256Y-72858702D01*
X57912611Y-72901000D01*
X57587389Y-72901000D01*
X57374744Y-72858702D01*
X57268421Y-72837553D01*
X56967958Y-72713097D01*
X56697549Y-72532415D01*
X56467585Y-72302451D01*
X56286903Y-72032042D01*
X56162447Y-71731579D01*
X56099000Y-71412609D01*
X56099000Y-71087391D01*
X56162447Y-70768421D01*
X56286903Y-70467958D01*
X56467585Y-70197549D01*
X56697549Y-69967585D01*
X56967958Y-69786903D01*
X57268421Y-69662447D01*
X57374744Y-69641298D01*
X57587389Y-69599000D01*
X57912611Y-69599000D01*
X58125256Y-69641298D01*
G37*
G36*
X148125256Y-69641298D02*
G01*
X148231579Y-69662447D01*
X148532042Y-69786903D01*
X148802451Y-69967585D01*
X149032415Y-70197549D01*
X149213097Y-70467958D01*
X149337553Y-70768421D01*
X149401000Y-71087391D01*
X149401000Y-71412609D01*
X149337553Y-71731579D01*
X149213097Y-72032042D01*
X149032415Y-72302451D01*
X148802451Y-72532415D01*
X148532042Y-72713097D01*
X148231579Y-72837553D01*
X148125256Y-72858702D01*
X147912611Y-72901000D01*
X147587389Y-72901000D01*
X147374744Y-72858702D01*
X147268421Y-72837553D01*
X146967958Y-72713097D01*
X146697549Y-72532415D01*
X146467585Y-72302451D01*
X146286903Y-72032042D01*
X146162447Y-71731579D01*
X146099000Y-71412609D01*
X146099000Y-71087391D01*
X146162447Y-70768421D01*
X146286903Y-70467958D01*
X146467585Y-70197549D01*
X146697549Y-69967585D01*
X146967958Y-69786903D01*
X147268421Y-69662447D01*
X147374744Y-69641298D01*
X147587389Y-69599000D01*
X147912611Y-69599000D01*
X148125256Y-69641298D01*
G37*
G36*
X103125256Y-69641298D02*
G01*
X103231579Y-69662447D01*
X103532042Y-69786903D01*
X103802451Y-69967585D01*
X104032415Y-70197549D01*
X104213097Y-70467958D01*
X104337553Y-70768421D01*
X104401000Y-71087391D01*
X104401000Y-71412609D01*
X104337553Y-71731579D01*
X104213097Y-72032042D01*
X104032415Y-72302451D01*
X103802451Y-72532415D01*
X103532042Y-72713097D01*
X103231579Y-72837553D01*
X103125256Y-72858702D01*
X102912611Y-72901000D01*
X102587389Y-72901000D01*
X102374744Y-72858702D01*
X102268421Y-72837553D01*
X101967958Y-72713097D01*
X101697549Y-72532415D01*
X101467585Y-72302451D01*
X101286903Y-72032042D01*
X101162447Y-71731579D01*
X101099000Y-71412609D01*
X101099000Y-71087391D01*
X101162447Y-70768421D01*
X101286903Y-70467958D01*
X101467585Y-70197549D01*
X101697549Y-69967585D01*
X101967958Y-69786903D01*
X102268421Y-69662447D01*
X102374744Y-69641298D01*
X102587389Y-69599000D01*
X102912611Y-69599000D01*
X103125256Y-69641298D01*
G37*
G36*
X193125256Y-69641298D02*
G01*
X193231579Y-69662447D01*
X193532042Y-69786903D01*
X193802451Y-69967585D01*
X194032415Y-70197549D01*
X194213097Y-70467958D01*
X194337553Y-70768421D01*
X194401000Y-71087391D01*
X194401000Y-71412609D01*
X194337553Y-71731579D01*
X194213097Y-72032042D01*
X194032415Y-72302451D01*
X193802451Y-72532415D01*
X193532042Y-72713097D01*
X193231579Y-72837553D01*
X193125256Y-72858702D01*
X192912611Y-72901000D01*
X192587389Y-72901000D01*
X192374744Y-72858702D01*
X192268421Y-72837553D01*
X191967958Y-72713097D01*
X191697549Y-72532415D01*
X191467585Y-72302451D01*
X191286903Y-72032042D01*
X191162447Y-71731579D01*
X191099000Y-71412609D01*
X191099000Y-71087391D01*
X191162447Y-70768421D01*
X191286903Y-70467958D01*
X191467585Y-70197549D01*
X191697549Y-69967585D01*
X191967958Y-69786903D01*
X192268421Y-69662447D01*
X192374744Y-69641298D01*
X192587389Y-69599000D01*
X192912611Y-69599000D01*
X193125256Y-69641298D01*
G37*
G36*
X47879487Y-66248996D02*
G01*
X48116253Y-66347068D01*
X48116255Y-66347069D01*
X48329339Y-66489447D01*
X48510553Y-66670661D01*
X48598114Y-66801705D01*
X48652932Y-66883747D01*
X48751004Y-67120513D01*
X48801000Y-67371861D01*
X48801000Y-67628139D01*
X48751004Y-67879487D01*
X48652932Y-68116253D01*
X48652931Y-68116255D01*
X48510553Y-68329339D01*
X48329339Y-68510553D01*
X48116255Y-68652931D01*
X48116254Y-68652932D01*
X48116253Y-68652932D01*
X47879487Y-68751004D01*
X47628139Y-68801000D01*
X47371861Y-68801000D01*
X47120513Y-68751004D01*
X46883747Y-68652932D01*
X46883746Y-68652932D01*
X46883745Y-68652931D01*
X46670661Y-68510553D01*
X46489447Y-68329339D01*
X46347069Y-68116255D01*
X46347068Y-68116253D01*
X46248996Y-67879487D01*
X46199000Y-67628139D01*
X46199000Y-67371861D01*
X46248996Y-67120513D01*
X46347068Y-66883747D01*
X46401887Y-66801705D01*
X46489447Y-66670661D01*
X46670661Y-66489447D01*
X46883745Y-66347069D01*
X46883747Y-66347068D01*
X47120513Y-66248996D01*
X47371861Y-66199000D01*
X47628139Y-66199000D01*
X47879487Y-66248996D01*
G37*
G36*
X216806778Y-66780547D02*
G01*
X216973224Y-66849491D01*
X217123022Y-66949583D01*
X217250417Y-67076978D01*
X217350509Y-67226776D01*
X217419453Y-67393222D01*
X217454600Y-67569918D01*
X217454600Y-67750082D01*
X217419453Y-67926778D01*
X217350509Y-68093224D01*
X217250417Y-68243022D01*
X217123022Y-68370417D01*
X216973224Y-68470509D01*
X216806778Y-68539453D01*
X216630082Y-68574600D01*
X216449918Y-68574600D01*
X216273222Y-68539453D01*
X216106776Y-68470509D01*
X215956978Y-68370417D01*
X215829583Y-68243022D01*
X215729491Y-68093224D01*
X215660547Y-67926778D01*
X215625400Y-67750082D01*
X215625400Y-67569918D01*
X215660547Y-67393222D01*
X215729491Y-67226776D01*
X215829583Y-67076978D01*
X215956978Y-66949583D01*
X216106776Y-66849491D01*
X216273222Y-66780547D01*
X216449918Y-66745400D01*
X216630082Y-66745400D01*
X216806778Y-66780547D01*
G37*
G36*
X186806778Y-66780547D02*
G01*
X186973224Y-66849491D01*
X187123022Y-66949583D01*
X187250417Y-67076978D01*
X187350509Y-67226776D01*
X187419453Y-67393222D01*
X187454600Y-67569918D01*
X187454600Y-67750082D01*
X187419453Y-67926778D01*
X187350509Y-68093224D01*
X187250417Y-68243022D01*
X187123022Y-68370417D01*
X186973224Y-68470509D01*
X186806778Y-68539453D01*
X186630082Y-68574600D01*
X186449918Y-68574600D01*
X186273222Y-68539453D01*
X186106776Y-68470509D01*
X185956978Y-68370417D01*
X185829583Y-68243022D01*
X185729491Y-68093224D01*
X185660547Y-67926778D01*
X185625400Y-67750082D01*
X185625400Y-67569918D01*
X185660547Y-67393222D01*
X185729491Y-67226776D01*
X185829583Y-67076978D01*
X185956978Y-66949583D01*
X186106776Y-66849491D01*
X186273222Y-66780547D01*
X186449918Y-66745400D01*
X186630082Y-66745400D01*
X186806778Y-66780547D01*
G37*
G36*
X214266778Y-66780547D02*
G01*
X214433224Y-66849491D01*
X214583022Y-66949583D01*
X214710417Y-67076978D01*
X214810509Y-67226776D01*
X214879453Y-67393222D01*
X214914600Y-67569918D01*
X214914600Y-67750082D01*
X214879453Y-67926778D01*
X214810509Y-68093224D01*
X214710417Y-68243022D01*
X214583022Y-68370417D01*
X214433224Y-68470509D01*
X214266778Y-68539453D01*
X214090082Y-68574600D01*
X213909918Y-68574600D01*
X213733222Y-68539453D01*
X213566776Y-68470509D01*
X213416978Y-68370417D01*
X213289583Y-68243022D01*
X213189491Y-68093224D01*
X213120547Y-67926778D01*
X213085400Y-67750082D01*
X213085400Y-67569918D01*
X213120547Y-67393222D01*
X213189491Y-67226776D01*
X213289583Y-67076978D01*
X213416978Y-66949583D01*
X213566776Y-66849491D01*
X213733222Y-66780547D01*
X213909918Y-66745400D01*
X214090082Y-66745400D01*
X214266778Y-66780547D01*
G37*
G36*
X126806778Y-66780547D02*
G01*
X126973224Y-66849491D01*
X127123022Y-66949583D01*
X127250417Y-67076978D01*
X127350509Y-67226776D01*
X127419453Y-67393222D01*
X127454600Y-67569918D01*
X127454600Y-67750082D01*
X127419453Y-67926778D01*
X127350509Y-68093224D01*
X127250417Y-68243022D01*
X127123022Y-68370417D01*
X126973224Y-68470509D01*
X126806778Y-68539453D01*
X126630082Y-68574600D01*
X126449918Y-68574600D01*
X126273222Y-68539453D01*
X126106776Y-68470509D01*
X125956978Y-68370417D01*
X125829583Y-68243022D01*
X125729491Y-68093224D01*
X125660547Y-67926778D01*
X125625400Y-67750082D01*
X125625400Y-67569918D01*
X125660547Y-67393222D01*
X125729491Y-67226776D01*
X125829583Y-67076978D01*
X125956978Y-66949583D01*
X126106776Y-66849491D01*
X126273222Y-66780547D01*
X126449918Y-66745400D01*
X126630082Y-66745400D01*
X126806778Y-66780547D01*
G37*
G36*
X124266778Y-66780547D02*
G01*
X124433224Y-66849491D01*
X124583022Y-66949583D01*
X124710417Y-67076978D01*
X124810509Y-67226776D01*
X124879453Y-67393222D01*
X124914600Y-67569918D01*
X124914600Y-67750082D01*
X124879453Y-67926778D01*
X124810509Y-68093224D01*
X124710417Y-68243022D01*
X124583022Y-68370417D01*
X124433224Y-68470509D01*
X124266778Y-68539453D01*
X124090082Y-68574600D01*
X123909918Y-68574600D01*
X123733222Y-68539453D01*
X123566776Y-68470509D01*
X123416978Y-68370417D01*
X123289583Y-68243022D01*
X123189491Y-68093224D01*
X123120547Y-67926778D01*
X123085400Y-67750082D01*
X123085400Y-67569918D01*
X123120547Y-67393222D01*
X123189491Y-67226776D01*
X123289583Y-67076978D01*
X123416978Y-66949583D01*
X123566776Y-66849491D01*
X123733222Y-66780547D01*
X123909918Y-66745400D01*
X124090082Y-66745400D01*
X124266778Y-66780547D01*
G37*
G36*
X184266778Y-66780547D02*
G01*
X184433224Y-66849491D01*
X184583022Y-66949583D01*
X184710417Y-67076978D01*
X184810509Y-67226776D01*
X184879453Y-67393222D01*
X184914600Y-67569918D01*
X184914600Y-67750082D01*
X184879453Y-67926778D01*
X184810509Y-68093224D01*
X184710417Y-68243022D01*
X184583022Y-68370417D01*
X184433224Y-68470509D01*
X184266778Y-68539453D01*
X184090082Y-68574600D01*
X183909918Y-68574600D01*
X183733222Y-68539453D01*
X183566776Y-68470509D01*
X183416978Y-68370417D01*
X183289583Y-68243022D01*
X183189491Y-68093224D01*
X183120547Y-67926778D01*
X183085400Y-67750082D01*
X183085400Y-67569918D01*
X183120547Y-67393222D01*
X183189491Y-67226776D01*
X183289583Y-67076978D01*
X183416978Y-66949583D01*
X183566776Y-66849491D01*
X183733222Y-66780547D01*
X183909918Y-66745400D01*
X184090082Y-66745400D01*
X184266778Y-66780547D01*
G37*
G36*
X96806778Y-66780547D02*
G01*
X96973224Y-66849491D01*
X97123022Y-66949583D01*
X97250417Y-67076978D01*
X97350509Y-67226776D01*
X97419453Y-67393222D01*
X97454600Y-67569918D01*
X97454600Y-67750082D01*
X97419453Y-67926778D01*
X97350509Y-68093224D01*
X97250417Y-68243022D01*
X97123022Y-68370417D01*
X96973224Y-68470509D01*
X96806778Y-68539453D01*
X96630082Y-68574600D01*
X96449918Y-68574600D01*
X96273222Y-68539453D01*
X96106776Y-68470509D01*
X95956978Y-68370417D01*
X95829583Y-68243022D01*
X95729491Y-68093224D01*
X95660547Y-67926778D01*
X95625400Y-67750082D01*
X95625400Y-67569918D01*
X95660547Y-67393222D01*
X95729491Y-67226776D01*
X95829583Y-67076978D01*
X95956978Y-66949583D01*
X96106776Y-66849491D01*
X96273222Y-66780547D01*
X96449918Y-66745400D01*
X96630082Y-66745400D01*
X96806778Y-66780547D01*
G37*
G36*
X94266778Y-66780547D02*
G01*
X94433224Y-66849491D01*
X94583022Y-66949583D01*
X94710417Y-67076978D01*
X94810509Y-67226776D01*
X94879453Y-67393222D01*
X94914600Y-67569918D01*
X94914600Y-67750082D01*
X94879453Y-67926778D01*
X94810509Y-68093224D01*
X94710417Y-68243022D01*
X94583022Y-68370417D01*
X94433224Y-68470509D01*
X94266778Y-68539453D01*
X94090082Y-68574600D01*
X93909918Y-68574600D01*
X93733222Y-68539453D01*
X93566776Y-68470509D01*
X93416978Y-68370417D01*
X93289583Y-68243022D01*
X93189491Y-68093224D01*
X93120547Y-67926778D01*
X93085400Y-67750082D01*
X93085400Y-67569918D01*
X93120547Y-67393222D01*
X93189491Y-67226776D01*
X93289583Y-67076978D01*
X93416978Y-66949583D01*
X93566776Y-66849491D01*
X93733222Y-66780547D01*
X93909918Y-66745400D01*
X94090082Y-66745400D01*
X94266778Y-66780547D01*
G37*
G36*
X156806778Y-66780547D02*
G01*
X156973224Y-66849491D01*
X157123022Y-66949583D01*
X157250417Y-67076978D01*
X157350509Y-67226776D01*
X157419453Y-67393222D01*
X157454600Y-67569918D01*
X157454600Y-67750082D01*
X157419453Y-67926778D01*
X157350509Y-68093224D01*
X157250417Y-68243022D01*
X157123022Y-68370417D01*
X156973224Y-68470509D01*
X156806778Y-68539453D01*
X156630082Y-68574600D01*
X156449918Y-68574600D01*
X156273222Y-68539453D01*
X156106776Y-68470509D01*
X155956978Y-68370417D01*
X155829583Y-68243022D01*
X155729491Y-68093224D01*
X155660547Y-67926778D01*
X155625400Y-67750082D01*
X155625400Y-67569918D01*
X155660547Y-67393222D01*
X155729491Y-67226776D01*
X155829583Y-67076978D01*
X155956978Y-66949583D01*
X156106776Y-66849491D01*
X156273222Y-66780547D01*
X156449918Y-66745400D01*
X156630082Y-66745400D01*
X156806778Y-66780547D01*
G37*
G36*
X154266778Y-66780547D02*
G01*
X154433224Y-66849491D01*
X154583022Y-66949583D01*
X154710417Y-67076978D01*
X154810509Y-67226776D01*
X154879453Y-67393222D01*
X154914600Y-67569918D01*
X154914600Y-67750082D01*
X154879453Y-67926778D01*
X154810509Y-68093224D01*
X154710417Y-68243022D01*
X154583022Y-68370417D01*
X154433224Y-68470509D01*
X154266778Y-68539453D01*
X154090082Y-68574600D01*
X153909918Y-68574600D01*
X153733222Y-68539453D01*
X153566776Y-68470509D01*
X153416978Y-68370417D01*
X153289583Y-68243022D01*
X153189491Y-68093224D01*
X153120547Y-67926778D01*
X153085400Y-67750082D01*
X153085400Y-67569918D01*
X153120547Y-67393222D01*
X153189491Y-67226776D01*
X153289583Y-67076978D01*
X153416978Y-66949583D01*
X153566776Y-66849491D01*
X153733222Y-66780547D01*
X153909918Y-66745400D01*
X154090082Y-66745400D01*
X154266778Y-66780547D01*
G37*
G36*
X66806778Y-66780547D02*
G01*
X66973224Y-66849491D01*
X67123022Y-66949583D01*
X67250417Y-67076978D01*
X67350509Y-67226776D01*
X67419453Y-67393222D01*
X67454600Y-67569918D01*
X67454600Y-67750082D01*
X67419453Y-67926778D01*
X67350509Y-68093224D01*
X67250417Y-68243022D01*
X67123022Y-68370417D01*
X66973224Y-68470509D01*
X66806778Y-68539453D01*
X66630082Y-68574600D01*
X66449918Y-68574600D01*
X66273222Y-68539453D01*
X66106776Y-68470509D01*
X65956978Y-68370417D01*
X65829583Y-68243022D01*
X65729491Y-68093224D01*
X65660547Y-67926778D01*
X65625400Y-67750082D01*
X65625400Y-67569918D01*
X65660547Y-67393222D01*
X65729491Y-67226776D01*
X65829583Y-67076978D01*
X65956978Y-66949583D01*
X66106776Y-66849491D01*
X66273222Y-66780547D01*
X66449918Y-66745400D01*
X66630082Y-66745400D01*
X66806778Y-66780547D01*
G37*
G36*
X64266778Y-66780547D02*
G01*
X64433224Y-66849491D01*
X64583022Y-66949583D01*
X64710417Y-67076978D01*
X64810509Y-67226776D01*
X64879453Y-67393222D01*
X64914600Y-67569918D01*
X64914600Y-67750082D01*
X64879453Y-67926778D01*
X64810509Y-68093224D01*
X64710417Y-68243022D01*
X64583022Y-68370417D01*
X64433224Y-68470509D01*
X64266778Y-68539453D01*
X64090082Y-68574600D01*
X63909918Y-68574600D01*
X63733222Y-68539453D01*
X63566776Y-68470509D01*
X63416978Y-68370417D01*
X63289583Y-68243022D01*
X63189491Y-68093224D01*
X63120547Y-67926778D01*
X63085400Y-67750082D01*
X63085400Y-67569918D01*
X63120547Y-67393222D01*
X63189491Y-67226776D01*
X63289583Y-67076978D01*
X63416978Y-66949583D01*
X63566776Y-66849491D01*
X63733222Y-66780547D01*
X63909918Y-66745400D01*
X64090082Y-66745400D01*
X64266778Y-66780547D01*
G37*
G36*
X81806778Y-66780547D02*
G01*
X81973224Y-66849491D01*
X82123022Y-66949583D01*
X82250417Y-67076978D01*
X82350509Y-67226776D01*
X82419453Y-67393222D01*
X82454600Y-67569918D01*
X82454600Y-67750082D01*
X82419453Y-67926778D01*
X82350509Y-68093224D01*
X82250417Y-68243022D01*
X82123022Y-68370417D01*
X81973224Y-68470509D01*
X81806778Y-68539453D01*
X81630082Y-68574600D01*
X81449918Y-68574600D01*
X81273222Y-68539453D01*
X81106776Y-68470509D01*
X80956978Y-68370417D01*
X80829583Y-68243022D01*
X80729491Y-68093224D01*
X80660547Y-67926778D01*
X80625400Y-67750082D01*
X80625400Y-67569918D01*
X80660547Y-67393222D01*
X80729491Y-67226776D01*
X80829583Y-67076978D01*
X80956978Y-66949583D01*
X81106776Y-66849491D01*
X81273222Y-66780547D01*
X81449918Y-66745400D01*
X81630082Y-66745400D01*
X81806778Y-66780547D01*
G37*
G36*
X171806778Y-66780547D02*
G01*
X171973224Y-66849491D01*
X172123022Y-66949583D01*
X172250417Y-67076978D01*
X172350509Y-67226776D01*
X172419453Y-67393222D01*
X172454600Y-67569918D01*
X172454600Y-67750082D01*
X172419453Y-67926778D01*
X172350509Y-68093224D01*
X172250417Y-68243022D01*
X172123022Y-68370417D01*
X171973224Y-68470509D01*
X171806778Y-68539453D01*
X171630082Y-68574600D01*
X171449918Y-68574600D01*
X171273222Y-68539453D01*
X171106776Y-68470509D01*
X170956978Y-68370417D01*
X170829583Y-68243022D01*
X170729491Y-68093224D01*
X170660547Y-67926778D01*
X170625400Y-67750082D01*
X170625400Y-67569918D01*
X170660547Y-67393222D01*
X170729491Y-67226776D01*
X170829583Y-67076978D01*
X170956978Y-66949583D01*
X171106776Y-66849491D01*
X171273222Y-66780547D01*
X171449918Y-66745400D01*
X171630082Y-66745400D01*
X171806778Y-66780547D01*
G37*
G36*
X109266778Y-66780547D02*
G01*
X109433224Y-66849491D01*
X109583022Y-66949583D01*
X109710417Y-67076978D01*
X109810509Y-67226776D01*
X109879453Y-67393222D01*
X109914600Y-67569918D01*
X109914600Y-67750082D01*
X109879453Y-67926778D01*
X109810509Y-68093224D01*
X109710417Y-68243022D01*
X109583022Y-68370417D01*
X109433224Y-68470509D01*
X109266778Y-68539453D01*
X109090082Y-68574600D01*
X108909918Y-68574600D01*
X108733222Y-68539453D01*
X108566776Y-68470509D01*
X108416978Y-68370417D01*
X108289583Y-68243022D01*
X108189491Y-68093224D01*
X108120547Y-67926778D01*
X108085400Y-67750082D01*
X108085400Y-67569918D01*
X108120547Y-67393222D01*
X108189491Y-67226776D01*
X108289583Y-67076978D01*
X108416978Y-66949583D01*
X108566776Y-66849491D01*
X108733222Y-66780547D01*
X108909918Y-66745400D01*
X109090082Y-66745400D01*
X109266778Y-66780547D01*
G37*
G36*
X169266778Y-66780547D02*
G01*
X169433224Y-66849491D01*
X169583022Y-66949583D01*
X169710417Y-67076978D01*
X169810509Y-67226776D01*
X169879453Y-67393222D01*
X169914600Y-67569918D01*
X169914600Y-67750082D01*
X169879453Y-67926778D01*
X169810509Y-68093224D01*
X169710417Y-68243022D01*
X169583022Y-68370417D01*
X169433224Y-68470509D01*
X169266778Y-68539453D01*
X169090082Y-68574600D01*
X168909918Y-68574600D01*
X168733222Y-68539453D01*
X168566776Y-68470509D01*
X168416978Y-68370417D01*
X168289583Y-68243022D01*
X168189491Y-68093224D01*
X168120547Y-67926778D01*
X168085400Y-67750082D01*
X168085400Y-67569918D01*
X168120547Y-67393222D01*
X168189491Y-67226776D01*
X168289583Y-67076978D01*
X168416978Y-66949583D01*
X168566776Y-66849491D01*
X168733222Y-66780547D01*
X168909918Y-66745400D01*
X169090082Y-66745400D01*
X169266778Y-66780547D01*
G37*
G36*
X111806778Y-66780547D02*
G01*
X111973224Y-66849491D01*
X112123022Y-66949583D01*
X112250417Y-67076978D01*
X112350509Y-67226776D01*
X112419453Y-67393222D01*
X112454600Y-67569918D01*
X112454600Y-67750082D01*
X112419453Y-67926778D01*
X112350509Y-68093224D01*
X112250417Y-68243022D01*
X112123022Y-68370417D01*
X111973224Y-68470509D01*
X111806778Y-68539453D01*
X111630082Y-68574600D01*
X111449918Y-68574600D01*
X111273222Y-68539453D01*
X111106776Y-68470509D01*
X110956978Y-68370417D01*
X110829583Y-68243022D01*
X110729491Y-68093224D01*
X110660547Y-67926778D01*
X110625400Y-67750082D01*
X110625400Y-67569918D01*
X110660547Y-67393222D01*
X110729491Y-67226776D01*
X110829583Y-67076978D01*
X110956978Y-66949583D01*
X111106776Y-66849491D01*
X111273222Y-66780547D01*
X111449918Y-66745400D01*
X111630082Y-66745400D01*
X111806778Y-66780547D01*
G37*
G36*
X199266778Y-66780547D02*
G01*
X199433224Y-66849491D01*
X199583022Y-66949583D01*
X199710417Y-67076978D01*
X199810509Y-67226776D01*
X199879453Y-67393222D01*
X199914600Y-67569918D01*
X199914600Y-67750082D01*
X199879453Y-67926778D01*
X199810509Y-68093224D01*
X199710417Y-68243022D01*
X199583022Y-68370417D01*
X199433224Y-68470509D01*
X199266778Y-68539453D01*
X199090082Y-68574600D01*
X198909918Y-68574600D01*
X198733222Y-68539453D01*
X198566776Y-68470509D01*
X198416978Y-68370417D01*
X198289583Y-68243022D01*
X198189491Y-68093224D01*
X198120547Y-67926778D01*
X198085400Y-67750082D01*
X198085400Y-67569918D01*
X198120547Y-67393222D01*
X198189491Y-67226776D01*
X198289583Y-67076978D01*
X198416978Y-66949583D01*
X198566776Y-66849491D01*
X198733222Y-66780547D01*
X198909918Y-66745400D01*
X199090082Y-66745400D01*
X199266778Y-66780547D01*
G37*
G36*
X201806778Y-66780547D02*
G01*
X201973224Y-66849491D01*
X202123022Y-66949583D01*
X202250417Y-67076978D01*
X202350509Y-67226776D01*
X202419453Y-67393222D01*
X202454600Y-67569918D01*
X202454600Y-67750082D01*
X202419453Y-67926778D01*
X202350509Y-68093224D01*
X202250417Y-68243022D01*
X202123022Y-68370417D01*
X201973224Y-68470509D01*
X201806778Y-68539453D01*
X201630082Y-68574600D01*
X201449918Y-68574600D01*
X201273222Y-68539453D01*
X201106776Y-68470509D01*
X200956978Y-68370417D01*
X200829583Y-68243022D01*
X200729491Y-68093224D01*
X200660547Y-67926778D01*
X200625400Y-67750082D01*
X200625400Y-67569918D01*
X200660547Y-67393222D01*
X200729491Y-67226776D01*
X200829583Y-67076978D01*
X200956978Y-66949583D01*
X201106776Y-66849491D01*
X201273222Y-66780547D01*
X201449918Y-66745400D01*
X201630082Y-66745400D01*
X201806778Y-66780547D01*
G37*
G36*
X139266778Y-66780547D02*
G01*
X139433224Y-66849491D01*
X139583022Y-66949583D01*
X139710417Y-67076978D01*
X139810509Y-67226776D01*
X139879453Y-67393222D01*
X139914600Y-67569918D01*
X139914600Y-67750082D01*
X139879453Y-67926778D01*
X139810509Y-68093224D01*
X139710417Y-68243022D01*
X139583022Y-68370417D01*
X139433224Y-68470509D01*
X139266778Y-68539453D01*
X139090082Y-68574600D01*
X138909918Y-68574600D01*
X138733222Y-68539453D01*
X138566776Y-68470509D01*
X138416978Y-68370417D01*
X138289583Y-68243022D01*
X138189491Y-68093224D01*
X138120547Y-67926778D01*
X138085400Y-67750082D01*
X138085400Y-67569918D01*
X138120547Y-67393222D01*
X138189491Y-67226776D01*
X138289583Y-67076978D01*
X138416978Y-66949583D01*
X138566776Y-66849491D01*
X138733222Y-66780547D01*
X138909918Y-66745400D01*
X139090082Y-66745400D01*
X139266778Y-66780547D01*
G37*
G36*
X141806778Y-66780547D02*
G01*
X141973224Y-66849491D01*
X142123022Y-66949583D01*
X142250417Y-67076978D01*
X142350509Y-67226776D01*
X142419453Y-67393222D01*
X142454600Y-67569918D01*
X142454600Y-67750082D01*
X142419453Y-67926778D01*
X142350509Y-68093224D01*
X142250417Y-68243022D01*
X142123022Y-68370417D01*
X141973224Y-68470509D01*
X141806778Y-68539453D01*
X141630082Y-68574600D01*
X141449918Y-68574600D01*
X141273222Y-68539453D01*
X141106776Y-68470509D01*
X140956978Y-68370417D01*
X140829583Y-68243022D01*
X140729491Y-68093224D01*
X140660547Y-67926778D01*
X140625400Y-67750082D01*
X140625400Y-67569918D01*
X140660547Y-67393222D01*
X140729491Y-67226776D01*
X140829583Y-67076978D01*
X140956978Y-66949583D01*
X141106776Y-66849491D01*
X141273222Y-66780547D01*
X141449918Y-66745400D01*
X141630082Y-66745400D01*
X141806778Y-66780547D01*
G37*
G36*
X229266778Y-66780547D02*
G01*
X229433224Y-66849491D01*
X229583022Y-66949583D01*
X229710417Y-67076978D01*
X229810509Y-67226776D01*
X229879453Y-67393222D01*
X229914600Y-67569918D01*
X229914600Y-67750082D01*
X229879453Y-67926778D01*
X229810509Y-68093224D01*
X229710417Y-68243022D01*
X229583022Y-68370417D01*
X229433224Y-68470509D01*
X229266778Y-68539453D01*
X229090082Y-68574600D01*
X228909918Y-68574600D01*
X228733222Y-68539453D01*
X228566776Y-68470509D01*
X228416978Y-68370417D01*
X228289583Y-68243022D01*
X228189491Y-68093224D01*
X228120547Y-67926778D01*
X228085400Y-67750082D01*
X228085400Y-67569918D01*
X228120547Y-67393222D01*
X228189491Y-67226776D01*
X228289583Y-67076978D01*
X228416978Y-66949583D01*
X228566776Y-66849491D01*
X228733222Y-66780547D01*
X228909918Y-66745400D01*
X229090082Y-66745400D01*
X229266778Y-66780547D01*
G37*
G36*
X231806778Y-66780547D02*
G01*
X231973224Y-66849491D01*
X232123022Y-66949583D01*
X232250417Y-67076978D01*
X232350509Y-67226776D01*
X232419453Y-67393222D01*
X232454600Y-67569918D01*
X232454600Y-67750082D01*
X232419453Y-67926778D01*
X232350509Y-68093224D01*
X232250417Y-68243022D01*
X232123022Y-68370417D01*
X231973224Y-68470509D01*
X231806778Y-68539453D01*
X231630082Y-68574600D01*
X231449918Y-68574600D01*
X231273222Y-68539453D01*
X231106776Y-68470509D01*
X230956978Y-68370417D01*
X230829583Y-68243022D01*
X230729491Y-68093224D01*
X230660547Y-67926778D01*
X230625400Y-67750082D01*
X230625400Y-67569918D01*
X230660547Y-67393222D01*
X230729491Y-67226776D01*
X230829583Y-67076978D01*
X230956978Y-66949583D01*
X231106776Y-66849491D01*
X231273222Y-66780547D01*
X231449918Y-66745400D01*
X231630082Y-66745400D01*
X231806778Y-66780547D01*
G37*
G36*
X79266778Y-66780547D02*
G01*
X79433224Y-66849491D01*
X79583022Y-66949583D01*
X79710417Y-67076978D01*
X79810509Y-67226776D01*
X79879453Y-67393222D01*
X79914600Y-67569918D01*
X79914600Y-67750082D01*
X79879453Y-67926778D01*
X79810509Y-68093224D01*
X79710417Y-68243022D01*
X79583022Y-68370417D01*
X79433224Y-68470509D01*
X79266778Y-68539453D01*
X79090082Y-68574600D01*
X78909918Y-68574600D01*
X78733222Y-68539453D01*
X78566776Y-68470509D01*
X78416978Y-68370417D01*
X78289583Y-68243022D01*
X78189491Y-68093224D01*
X78120547Y-67926778D01*
X78085400Y-67750082D01*
X78085400Y-67569918D01*
X78120547Y-67393222D01*
X78189491Y-67226776D01*
X78289583Y-67076978D01*
X78416978Y-66949583D01*
X78566776Y-66849491D01*
X78733222Y-66780547D01*
X78909918Y-66745400D01*
X79090082Y-66745400D01*
X79266778Y-66780547D01*
G37*
G36*
X87738228Y-66821703D02*
G01*
X87893100Y-66885853D01*
X88032481Y-66978985D01*
X88151015Y-67097519D01*
X88244147Y-67236900D01*
X88308297Y-67391772D01*
X88341000Y-67556184D01*
X88341000Y-67723816D01*
X88308297Y-67888228D01*
X88244147Y-68043100D01*
X88151015Y-68182481D01*
X88032481Y-68301015D01*
X87893100Y-68394147D01*
X87738228Y-68458297D01*
X87573816Y-68491000D01*
X87406184Y-68491000D01*
X87241772Y-68458297D01*
X87086900Y-68394147D01*
X86947519Y-68301015D01*
X86828985Y-68182481D01*
X86735853Y-68043100D01*
X86671703Y-67888228D01*
X86639000Y-67723816D01*
X86639000Y-67556184D01*
X86671703Y-67391772D01*
X86735853Y-67236900D01*
X86828985Y-67097519D01*
X86947519Y-66978985D01*
X87086900Y-66885853D01*
X87241772Y-66821703D01*
X87406184Y-66789000D01*
X87573816Y-66789000D01*
X87738228Y-66821703D01*
G37*
G36*
X72748228Y-66801703D02*
G01*
X72903100Y-66865853D01*
X73042481Y-66958985D01*
X73161015Y-67077519D01*
X73254147Y-67216900D01*
X73318297Y-67371772D01*
X73351000Y-67536184D01*
X73351000Y-67703816D01*
X73318297Y-67868228D01*
X73254147Y-68023100D01*
X73161015Y-68162481D01*
X73042481Y-68281015D01*
X72903100Y-68374147D01*
X72748228Y-68438297D01*
X72583816Y-68471000D01*
X72416184Y-68471000D01*
X72251772Y-68438297D01*
X72096900Y-68374147D01*
X71957519Y-68281015D01*
X71838985Y-68162481D01*
X71745853Y-68023100D01*
X71681703Y-67868228D01*
X71649000Y-67703816D01*
X71649000Y-67536184D01*
X71681703Y-67371772D01*
X71745853Y-67216900D01*
X71838985Y-67077519D01*
X71957519Y-66958985D01*
X72096900Y-66865853D01*
X72251772Y-66801703D01*
X72416184Y-66769000D01*
X72583816Y-66769000D01*
X72748228Y-66801703D01*
G37*
G36*
X214266778Y-64240547D02*
G01*
X214433224Y-64309491D01*
X214583022Y-64409583D01*
X214710417Y-64536978D01*
X214810509Y-64686776D01*
X214879453Y-64853222D01*
X214914600Y-65029918D01*
X214914600Y-65210082D01*
X214879453Y-65386778D01*
X214810509Y-65553224D01*
X214710417Y-65703022D01*
X214583022Y-65830417D01*
X214433224Y-65930509D01*
X214266778Y-65999453D01*
X214090082Y-66034600D01*
X213909918Y-66034600D01*
X213733222Y-65999453D01*
X213566776Y-65930509D01*
X213416978Y-65830417D01*
X213289583Y-65703022D01*
X213189491Y-65553224D01*
X213120547Y-65386778D01*
X213085400Y-65210082D01*
X213085400Y-65029918D01*
X213120547Y-64853222D01*
X213189491Y-64686776D01*
X213289583Y-64536978D01*
X213416978Y-64409583D01*
X213566776Y-64309491D01*
X213733222Y-64240547D01*
X213909918Y-64205400D01*
X214090082Y-64205400D01*
X214266778Y-64240547D01*
G37*
G36*
X79266778Y-64240547D02*
G01*
X79433224Y-64309491D01*
X79583022Y-64409583D01*
X79710417Y-64536978D01*
X79810509Y-64686776D01*
X79879453Y-64853222D01*
X79914600Y-65029918D01*
X79914600Y-65210082D01*
X79879453Y-65386778D01*
X79810509Y-65553224D01*
X79710417Y-65703022D01*
X79583022Y-65830417D01*
X79433224Y-65930509D01*
X79266778Y-65999453D01*
X79090082Y-66034600D01*
X78909918Y-66034600D01*
X78733222Y-65999453D01*
X78566776Y-65930509D01*
X78416978Y-65830417D01*
X78289583Y-65703022D01*
X78189491Y-65553224D01*
X78120547Y-65386778D01*
X78085400Y-65210082D01*
X78085400Y-65029918D01*
X78120547Y-64853222D01*
X78189491Y-64686776D01*
X78289583Y-64536978D01*
X78416978Y-64409583D01*
X78566776Y-64309491D01*
X78733222Y-64240547D01*
X78909918Y-64205400D01*
X79090082Y-64205400D01*
X79266778Y-64240547D01*
G37*
G36*
X169266778Y-64240547D02*
G01*
X169433224Y-64309491D01*
X169583022Y-64409583D01*
X169710417Y-64536978D01*
X169810509Y-64686776D01*
X169879453Y-64853222D01*
X169914600Y-65029918D01*
X169914600Y-65210082D01*
X169879453Y-65386778D01*
X169810509Y-65553224D01*
X169710417Y-65703022D01*
X169583022Y-65830417D01*
X169433224Y-65930509D01*
X169266778Y-65999453D01*
X169090082Y-66034600D01*
X168909918Y-66034600D01*
X168733222Y-65999453D01*
X168566776Y-65930509D01*
X168416978Y-65830417D01*
X168289583Y-65703022D01*
X168189491Y-65553224D01*
X168120547Y-65386778D01*
X168085400Y-65210082D01*
X168085400Y-65029918D01*
X168120547Y-64853222D01*
X168189491Y-64686776D01*
X168289583Y-64536978D01*
X168416978Y-64409583D01*
X168566776Y-64309491D01*
X168733222Y-64240547D01*
X168909918Y-64205400D01*
X169090082Y-64205400D01*
X169266778Y-64240547D01*
G37*
G36*
X171806778Y-64240547D02*
G01*
X171973224Y-64309491D01*
X172123022Y-64409583D01*
X172250417Y-64536978D01*
X172350509Y-64686776D01*
X172419453Y-64853222D01*
X172454600Y-65029918D01*
X172454600Y-65210082D01*
X172419453Y-65386778D01*
X172350509Y-65553224D01*
X172250417Y-65703022D01*
X172123022Y-65830417D01*
X171973224Y-65930509D01*
X171806778Y-65999453D01*
X171630082Y-66034600D01*
X171449918Y-66034600D01*
X171273222Y-65999453D01*
X171106776Y-65930509D01*
X170956978Y-65830417D01*
X170829583Y-65703022D01*
X170729491Y-65553224D01*
X170660547Y-65386778D01*
X170625400Y-65210082D01*
X170625400Y-65029918D01*
X170660547Y-64853222D01*
X170729491Y-64686776D01*
X170829583Y-64536978D01*
X170956978Y-64409583D01*
X171106776Y-64309491D01*
X171273222Y-64240547D01*
X171449918Y-64205400D01*
X171630082Y-64205400D01*
X171806778Y-64240547D01*
G37*
G36*
X126806778Y-64240547D02*
G01*
X126973224Y-64309491D01*
X127123022Y-64409583D01*
X127250417Y-64536978D01*
X127350509Y-64686776D01*
X127419453Y-64853222D01*
X127454600Y-65029918D01*
X127454600Y-65210082D01*
X127419453Y-65386778D01*
X127350509Y-65553224D01*
X127250417Y-65703022D01*
X127123022Y-65830417D01*
X126973224Y-65930509D01*
X126806778Y-65999453D01*
X126630082Y-66034600D01*
X126449918Y-66034600D01*
X126273222Y-65999453D01*
X126106776Y-65930509D01*
X125956978Y-65830417D01*
X125829583Y-65703022D01*
X125729491Y-65553224D01*
X125660547Y-65386778D01*
X125625400Y-65210082D01*
X125625400Y-65029918D01*
X125660547Y-64853222D01*
X125729491Y-64686776D01*
X125829583Y-64536978D01*
X125956978Y-64409583D01*
X126106776Y-64309491D01*
X126273222Y-64240547D01*
X126449918Y-64205400D01*
X126630082Y-64205400D01*
X126806778Y-64240547D01*
G37*
G36*
X109266778Y-64240547D02*
G01*
X109433224Y-64309491D01*
X109583022Y-64409583D01*
X109710417Y-64536978D01*
X109810509Y-64686776D01*
X109879453Y-64853222D01*
X109914600Y-65029918D01*
X109914600Y-65210082D01*
X109879453Y-65386778D01*
X109810509Y-65553224D01*
X109710417Y-65703022D01*
X109583022Y-65830417D01*
X109433224Y-65930509D01*
X109266778Y-65999453D01*
X109090082Y-66034600D01*
X108909918Y-66034600D01*
X108733222Y-65999453D01*
X108566776Y-65930509D01*
X108416978Y-65830417D01*
X108289583Y-65703022D01*
X108189491Y-65553224D01*
X108120547Y-65386778D01*
X108085400Y-65210082D01*
X108085400Y-65029918D01*
X108120547Y-64853222D01*
X108189491Y-64686776D01*
X108289583Y-64536978D01*
X108416978Y-64409583D01*
X108566776Y-64309491D01*
X108733222Y-64240547D01*
X108909918Y-64205400D01*
X109090082Y-64205400D01*
X109266778Y-64240547D01*
G37*
G36*
X111806778Y-64240547D02*
G01*
X111973224Y-64309491D01*
X112123022Y-64409583D01*
X112250417Y-64536978D01*
X112350509Y-64686776D01*
X112419453Y-64853222D01*
X112454600Y-65029918D01*
X112454600Y-65210082D01*
X112419453Y-65386778D01*
X112350509Y-65553224D01*
X112250417Y-65703022D01*
X112123022Y-65830417D01*
X111973224Y-65930509D01*
X111806778Y-65999453D01*
X111630082Y-66034600D01*
X111449918Y-66034600D01*
X111273222Y-65999453D01*
X111106776Y-65930509D01*
X110956978Y-65830417D01*
X110829583Y-65703022D01*
X110729491Y-65553224D01*
X110660547Y-65386778D01*
X110625400Y-65210082D01*
X110625400Y-65029918D01*
X110660547Y-64853222D01*
X110729491Y-64686776D01*
X110829583Y-64536978D01*
X110956978Y-64409583D01*
X111106776Y-64309491D01*
X111273222Y-64240547D01*
X111449918Y-64205400D01*
X111630082Y-64205400D01*
X111806778Y-64240547D01*
G37*
G36*
X124266778Y-64240547D02*
G01*
X124433224Y-64309491D01*
X124583022Y-64409583D01*
X124710417Y-64536978D01*
X124810509Y-64686776D01*
X124879453Y-64853222D01*
X124914600Y-65029918D01*
X124914600Y-65210082D01*
X124879453Y-65386778D01*
X124810509Y-65553224D01*
X124710417Y-65703022D01*
X124583022Y-65830417D01*
X124433224Y-65930509D01*
X124266778Y-65999453D01*
X124090082Y-66034600D01*
X123909918Y-66034600D01*
X123733222Y-65999453D01*
X123566776Y-65930509D01*
X123416978Y-65830417D01*
X123289583Y-65703022D01*
X123189491Y-65553224D01*
X123120547Y-65386778D01*
X123085400Y-65210082D01*
X123085400Y-65029918D01*
X123120547Y-64853222D01*
X123189491Y-64686776D01*
X123289583Y-64536978D01*
X123416978Y-64409583D01*
X123566776Y-64309491D01*
X123733222Y-64240547D01*
X123909918Y-64205400D01*
X124090082Y-64205400D01*
X124266778Y-64240547D01*
G37*
G36*
X199266778Y-64240547D02*
G01*
X199433224Y-64309491D01*
X199583022Y-64409583D01*
X199710417Y-64536978D01*
X199810509Y-64686776D01*
X199879453Y-64853222D01*
X199914600Y-65029918D01*
X199914600Y-65210082D01*
X199879453Y-65386778D01*
X199810509Y-65553224D01*
X199710417Y-65703022D01*
X199583022Y-65830417D01*
X199433224Y-65930509D01*
X199266778Y-65999453D01*
X199090082Y-66034600D01*
X198909918Y-66034600D01*
X198733222Y-65999453D01*
X198566776Y-65930509D01*
X198416978Y-65830417D01*
X198289583Y-65703022D01*
X198189491Y-65553224D01*
X198120547Y-65386778D01*
X198085400Y-65210082D01*
X198085400Y-65029918D01*
X198120547Y-64853222D01*
X198189491Y-64686776D01*
X198289583Y-64536978D01*
X198416978Y-64409583D01*
X198566776Y-64309491D01*
X198733222Y-64240547D01*
X198909918Y-64205400D01*
X199090082Y-64205400D01*
X199266778Y-64240547D01*
G37*
G36*
X184266778Y-64240547D02*
G01*
X184433224Y-64309491D01*
X184583022Y-64409583D01*
X184710417Y-64536978D01*
X184810509Y-64686776D01*
X184879453Y-64853222D01*
X184914600Y-65029918D01*
X184914600Y-65210082D01*
X184879453Y-65386778D01*
X184810509Y-65553224D01*
X184710417Y-65703022D01*
X184583022Y-65830417D01*
X184433224Y-65930509D01*
X184266778Y-65999453D01*
X184090082Y-66034600D01*
X183909918Y-66034600D01*
X183733222Y-65999453D01*
X183566776Y-65930509D01*
X183416978Y-65830417D01*
X183289583Y-65703022D01*
X183189491Y-65553224D01*
X183120547Y-65386778D01*
X183085400Y-65210082D01*
X183085400Y-65029918D01*
X183120547Y-64853222D01*
X183189491Y-64686776D01*
X183289583Y-64536978D01*
X183416978Y-64409583D01*
X183566776Y-64309491D01*
X183733222Y-64240547D01*
X183909918Y-64205400D01*
X184090082Y-64205400D01*
X184266778Y-64240547D01*
G37*
G36*
X96806778Y-64240547D02*
G01*
X96973224Y-64309491D01*
X97123022Y-64409583D01*
X97250417Y-64536978D01*
X97350509Y-64686776D01*
X97419453Y-64853222D01*
X97454600Y-65029918D01*
X97454600Y-65210082D01*
X97419453Y-65386778D01*
X97350509Y-65553224D01*
X97250417Y-65703022D01*
X97123022Y-65830417D01*
X96973224Y-65930509D01*
X96806778Y-65999453D01*
X96630082Y-66034600D01*
X96449918Y-66034600D01*
X96273222Y-65999453D01*
X96106776Y-65930509D01*
X95956978Y-65830417D01*
X95829583Y-65703022D01*
X95729491Y-65553224D01*
X95660547Y-65386778D01*
X95625400Y-65210082D01*
X95625400Y-65029918D01*
X95660547Y-64853222D01*
X95729491Y-64686776D01*
X95829583Y-64536978D01*
X95956978Y-64409583D01*
X96106776Y-64309491D01*
X96273222Y-64240547D01*
X96449918Y-64205400D01*
X96630082Y-64205400D01*
X96806778Y-64240547D01*
G37*
G36*
X81806778Y-64240547D02*
G01*
X81973224Y-64309491D01*
X82123022Y-64409583D01*
X82250417Y-64536978D01*
X82350509Y-64686776D01*
X82419453Y-64853222D01*
X82454600Y-65029918D01*
X82454600Y-65210082D01*
X82419453Y-65386778D01*
X82350509Y-65553224D01*
X82250417Y-65703022D01*
X82123022Y-65830417D01*
X81973224Y-65930509D01*
X81806778Y-65999453D01*
X81630082Y-66034600D01*
X81449918Y-66034600D01*
X81273222Y-65999453D01*
X81106776Y-65930509D01*
X80956978Y-65830417D01*
X80829583Y-65703022D01*
X80729491Y-65553224D01*
X80660547Y-65386778D01*
X80625400Y-65210082D01*
X80625400Y-65029918D01*
X80660547Y-64853222D01*
X80729491Y-64686776D01*
X80829583Y-64536978D01*
X80956978Y-64409583D01*
X81106776Y-64309491D01*
X81273222Y-64240547D01*
X81449918Y-64205400D01*
X81630082Y-64205400D01*
X81806778Y-64240547D01*
G37*
G36*
X94266778Y-64240547D02*
G01*
X94433224Y-64309491D01*
X94583022Y-64409583D01*
X94710417Y-64536978D01*
X94810509Y-64686776D01*
X94879453Y-64853222D01*
X94914600Y-65029918D01*
X94914600Y-65210082D01*
X94879453Y-65386778D01*
X94810509Y-65553224D01*
X94710417Y-65703022D01*
X94583022Y-65830417D01*
X94433224Y-65930509D01*
X94266778Y-65999453D01*
X94090082Y-66034600D01*
X93909918Y-66034600D01*
X93733222Y-65999453D01*
X93566776Y-65930509D01*
X93416978Y-65830417D01*
X93289583Y-65703022D01*
X93189491Y-65553224D01*
X93120547Y-65386778D01*
X93085400Y-65210082D01*
X93085400Y-65029918D01*
X93120547Y-64853222D01*
X93189491Y-64686776D01*
X93289583Y-64536978D01*
X93416978Y-64409583D01*
X93566776Y-64309491D01*
X93733222Y-64240547D01*
X93909918Y-64205400D01*
X94090082Y-64205400D01*
X94266778Y-64240547D01*
G37*
G36*
X156806778Y-64240547D02*
G01*
X156973224Y-64309491D01*
X157123022Y-64409583D01*
X157250417Y-64536978D01*
X157350509Y-64686776D01*
X157419453Y-64853222D01*
X157454600Y-65029918D01*
X157454600Y-65210082D01*
X157419453Y-65386778D01*
X157350509Y-65553224D01*
X157250417Y-65703022D01*
X157123022Y-65830417D01*
X156973224Y-65930509D01*
X156806778Y-65999453D01*
X156630082Y-66034600D01*
X156449918Y-66034600D01*
X156273222Y-65999453D01*
X156106776Y-65930509D01*
X155956978Y-65830417D01*
X155829583Y-65703022D01*
X155729491Y-65553224D01*
X155660547Y-65386778D01*
X155625400Y-65210082D01*
X155625400Y-65029918D01*
X155660547Y-64853222D01*
X155729491Y-64686776D01*
X155829583Y-64536978D01*
X155956978Y-64409583D01*
X156106776Y-64309491D01*
X156273222Y-64240547D01*
X156449918Y-64205400D01*
X156630082Y-64205400D01*
X156806778Y-64240547D01*
G37*
G36*
X154266778Y-64240547D02*
G01*
X154433224Y-64309491D01*
X154583022Y-64409583D01*
X154710417Y-64536978D01*
X154810509Y-64686776D01*
X154879453Y-64853222D01*
X154914600Y-65029918D01*
X154914600Y-65210082D01*
X154879453Y-65386778D01*
X154810509Y-65553224D01*
X154710417Y-65703022D01*
X154583022Y-65830417D01*
X154433224Y-65930509D01*
X154266778Y-65999453D01*
X154090082Y-66034600D01*
X153909918Y-66034600D01*
X153733222Y-65999453D01*
X153566776Y-65930509D01*
X153416978Y-65830417D01*
X153289583Y-65703022D01*
X153189491Y-65553224D01*
X153120547Y-65386778D01*
X153085400Y-65210082D01*
X153085400Y-65029918D01*
X153120547Y-64853222D01*
X153189491Y-64686776D01*
X153289583Y-64536978D01*
X153416978Y-64409583D01*
X153566776Y-64309491D01*
X153733222Y-64240547D01*
X153909918Y-64205400D01*
X154090082Y-64205400D01*
X154266778Y-64240547D01*
G37*
G36*
X66806778Y-64240547D02*
G01*
X66973224Y-64309491D01*
X67123022Y-64409583D01*
X67250417Y-64536978D01*
X67350509Y-64686776D01*
X67419453Y-64853222D01*
X67454600Y-65029918D01*
X67454600Y-65210082D01*
X67419453Y-65386778D01*
X67350509Y-65553224D01*
X67250417Y-65703022D01*
X67123022Y-65830417D01*
X66973224Y-65930509D01*
X66806778Y-65999453D01*
X66630082Y-66034600D01*
X66449918Y-66034600D01*
X66273222Y-65999453D01*
X66106776Y-65930509D01*
X65956978Y-65830417D01*
X65829583Y-65703022D01*
X65729491Y-65553224D01*
X65660547Y-65386778D01*
X65625400Y-65210082D01*
X65625400Y-65029918D01*
X65660547Y-64853222D01*
X65729491Y-64686776D01*
X65829583Y-64536978D01*
X65956978Y-64409583D01*
X66106776Y-64309491D01*
X66273222Y-64240547D01*
X66449918Y-64205400D01*
X66630082Y-64205400D01*
X66806778Y-64240547D01*
G37*
G36*
X64266778Y-64240547D02*
G01*
X64433224Y-64309491D01*
X64583022Y-64409583D01*
X64710417Y-64536978D01*
X64810509Y-64686776D01*
X64879453Y-64853222D01*
X64914600Y-65029918D01*
X64914600Y-65210082D01*
X64879453Y-65386778D01*
X64810509Y-65553224D01*
X64710417Y-65703022D01*
X64583022Y-65830417D01*
X64433224Y-65930509D01*
X64266778Y-65999453D01*
X64090082Y-66034600D01*
X63909918Y-66034600D01*
X63733222Y-65999453D01*
X63566776Y-65930509D01*
X63416978Y-65830417D01*
X63289583Y-65703022D01*
X63189491Y-65553224D01*
X63120547Y-65386778D01*
X63085400Y-65210082D01*
X63085400Y-65029918D01*
X63120547Y-64853222D01*
X63189491Y-64686776D01*
X63289583Y-64536978D01*
X63416978Y-64409583D01*
X63566776Y-64309491D01*
X63733222Y-64240547D01*
X63909918Y-64205400D01*
X64090082Y-64205400D01*
X64266778Y-64240547D01*
G37*
G36*
X186806778Y-64240547D02*
G01*
X186973224Y-64309491D01*
X187123022Y-64409583D01*
X187250417Y-64536978D01*
X187350509Y-64686776D01*
X187419453Y-64853222D01*
X187454600Y-65029918D01*
X187454600Y-65210082D01*
X187419453Y-65386778D01*
X187350509Y-65553224D01*
X187250417Y-65703022D01*
X187123022Y-65830417D01*
X186973224Y-65930509D01*
X186806778Y-65999453D01*
X186630082Y-66034600D01*
X186449918Y-66034600D01*
X186273222Y-65999453D01*
X186106776Y-65930509D01*
X185956978Y-65830417D01*
X185829583Y-65703022D01*
X185729491Y-65553224D01*
X185660547Y-65386778D01*
X185625400Y-65210082D01*
X185625400Y-65029918D01*
X185660547Y-64853222D01*
X185729491Y-64686776D01*
X185829583Y-64536978D01*
X185956978Y-64409583D01*
X186106776Y-64309491D01*
X186273222Y-64240547D01*
X186449918Y-64205400D01*
X186630082Y-64205400D01*
X186806778Y-64240547D01*
G37*
G36*
X231806778Y-64240547D02*
G01*
X231973224Y-64309491D01*
X232123022Y-64409583D01*
X232250417Y-64536978D01*
X232350509Y-64686776D01*
X232419453Y-64853222D01*
X232454600Y-65029918D01*
X232454600Y-65210082D01*
X232419453Y-65386778D01*
X232350509Y-65553224D01*
X232250417Y-65703022D01*
X232123022Y-65830417D01*
X231973224Y-65930509D01*
X231806778Y-65999453D01*
X231630082Y-66034600D01*
X231449918Y-66034600D01*
X231273222Y-65999453D01*
X231106776Y-65930509D01*
X230956978Y-65830417D01*
X230829583Y-65703022D01*
X230729491Y-65553224D01*
X230660547Y-65386778D01*
X230625400Y-65210082D01*
X230625400Y-65029918D01*
X230660547Y-64853222D01*
X230729491Y-64686776D01*
X230829583Y-64536978D01*
X230956978Y-64409583D01*
X231106776Y-64309491D01*
X231273222Y-64240547D01*
X231449918Y-64205400D01*
X231630082Y-64205400D01*
X231806778Y-64240547D01*
G37*
G36*
X229266778Y-64240547D02*
G01*
X229433224Y-64309491D01*
X229583022Y-64409583D01*
X229710417Y-64536978D01*
X229810509Y-64686776D01*
X229879453Y-64853222D01*
X229914600Y-65029918D01*
X229914600Y-65210082D01*
X229879453Y-65386778D01*
X229810509Y-65553224D01*
X229710417Y-65703022D01*
X229583022Y-65830417D01*
X229433224Y-65930509D01*
X229266778Y-65999453D01*
X229090082Y-66034600D01*
X228909918Y-66034600D01*
X228733222Y-65999453D01*
X228566776Y-65930509D01*
X228416978Y-65830417D01*
X228289583Y-65703022D01*
X228189491Y-65553224D01*
X228120547Y-65386778D01*
X228085400Y-65210082D01*
X228085400Y-65029918D01*
X228120547Y-64853222D01*
X228189491Y-64686776D01*
X228289583Y-64536978D01*
X228416978Y-64409583D01*
X228566776Y-64309491D01*
X228733222Y-64240547D01*
X228909918Y-64205400D01*
X229090082Y-64205400D01*
X229266778Y-64240547D01*
G37*
G36*
X216806778Y-64240547D02*
G01*
X216973224Y-64309491D01*
X217123022Y-64409583D01*
X217250417Y-64536978D01*
X217350509Y-64686776D01*
X217419453Y-64853222D01*
X217454600Y-65029918D01*
X217454600Y-65210082D01*
X217419453Y-65386778D01*
X217350509Y-65553224D01*
X217250417Y-65703022D01*
X217123022Y-65830417D01*
X216973224Y-65930509D01*
X216806778Y-65999453D01*
X216630082Y-66034600D01*
X216449918Y-66034600D01*
X216273222Y-65999453D01*
X216106776Y-65930509D01*
X215956978Y-65830417D01*
X215829583Y-65703022D01*
X215729491Y-65553224D01*
X215660547Y-65386778D01*
X215625400Y-65210082D01*
X215625400Y-65029918D01*
X215660547Y-64853222D01*
X215729491Y-64686776D01*
X215829583Y-64536978D01*
X215956978Y-64409583D01*
X216106776Y-64309491D01*
X216273222Y-64240547D01*
X216449918Y-64205400D01*
X216630082Y-64205400D01*
X216806778Y-64240547D01*
G37*
G36*
X139266778Y-64240547D02*
G01*
X139433224Y-64309491D01*
X139583022Y-64409583D01*
X139710417Y-64536978D01*
X139810509Y-64686776D01*
X139879453Y-64853222D01*
X139914600Y-65029918D01*
X139914600Y-65210082D01*
X139879453Y-65386778D01*
X139810509Y-65553224D01*
X139710417Y-65703022D01*
X139583022Y-65830417D01*
X139433224Y-65930509D01*
X139266778Y-65999453D01*
X139090082Y-66034600D01*
X138909918Y-66034600D01*
X138733222Y-65999453D01*
X138566776Y-65930509D01*
X138416978Y-65830417D01*
X138289583Y-65703022D01*
X138189491Y-65553224D01*
X138120547Y-65386778D01*
X138085400Y-65210082D01*
X138085400Y-65029918D01*
X138120547Y-64853222D01*
X138189491Y-64686776D01*
X138289583Y-64536978D01*
X138416978Y-64409583D01*
X138566776Y-64309491D01*
X138733222Y-64240547D01*
X138909918Y-64205400D01*
X139090082Y-64205400D01*
X139266778Y-64240547D01*
G37*
G36*
X201806778Y-64240547D02*
G01*
X201973224Y-64309491D01*
X202123022Y-64409583D01*
X202250417Y-64536978D01*
X202350509Y-64686776D01*
X202419453Y-64853222D01*
X202454600Y-65029918D01*
X202454600Y-65210082D01*
X202419453Y-65386778D01*
X202350509Y-65553224D01*
X202250417Y-65703022D01*
X202123022Y-65830417D01*
X201973224Y-65930509D01*
X201806778Y-65999453D01*
X201630082Y-66034600D01*
X201449918Y-66034600D01*
X201273222Y-65999453D01*
X201106776Y-65930509D01*
X200956978Y-65830417D01*
X200829583Y-65703022D01*
X200729491Y-65553224D01*
X200660547Y-65386778D01*
X200625400Y-65210082D01*
X200625400Y-65029918D01*
X200660547Y-64853222D01*
X200729491Y-64686776D01*
X200829583Y-64536978D01*
X200956978Y-64409583D01*
X201106776Y-64309491D01*
X201273222Y-64240547D01*
X201449918Y-64205400D01*
X201630082Y-64205400D01*
X201806778Y-64240547D01*
G37*
G36*
X141806778Y-64240547D02*
G01*
X141973224Y-64309491D01*
X142123022Y-64409583D01*
X142250417Y-64536978D01*
X142350509Y-64686776D01*
X142419453Y-64853222D01*
X142454600Y-65029918D01*
X142454600Y-65210082D01*
X142419453Y-65386778D01*
X142350509Y-65553224D01*
X142250417Y-65703022D01*
X142123022Y-65830417D01*
X141973224Y-65930509D01*
X141806778Y-65999453D01*
X141630082Y-66034600D01*
X141449918Y-66034600D01*
X141273222Y-65999453D01*
X141106776Y-65930509D01*
X140956978Y-65830417D01*
X140829583Y-65703022D01*
X140729491Y-65553224D01*
X140660547Y-65386778D01*
X140625400Y-65210082D01*
X140625400Y-65029918D01*
X140660547Y-64853222D01*
X140729491Y-64686776D01*
X140829583Y-64536978D01*
X140956978Y-64409583D01*
X141106776Y-64309491D01*
X141273222Y-64240547D01*
X141449918Y-64205400D01*
X141630082Y-64205400D01*
X141806778Y-64240547D01*
G37*
G36*
X47879487Y-61248996D02*
G01*
X48116253Y-61347068D01*
X48116255Y-61347069D01*
X48329339Y-61489447D01*
X48510553Y-61670661D01*
X48652932Y-61883747D01*
X48751004Y-62120513D01*
X48801000Y-62371861D01*
X48801000Y-62628139D01*
X48751004Y-62879487D01*
X48652932Y-63116253D01*
X48652931Y-63116255D01*
X48510553Y-63329339D01*
X48329339Y-63510553D01*
X48116255Y-63652931D01*
X48116254Y-63652932D01*
X48116253Y-63652932D01*
X47879487Y-63751004D01*
X47628139Y-63801000D01*
X47371861Y-63801000D01*
X47120513Y-63751004D01*
X46883747Y-63652932D01*
X46883746Y-63652932D01*
X46883745Y-63652931D01*
X46670661Y-63510553D01*
X46489447Y-63329339D01*
X46347069Y-63116255D01*
X46347068Y-63116253D01*
X46248996Y-62879487D01*
X46199000Y-62628139D01*
X46199000Y-62371861D01*
X46248996Y-62120513D01*
X46347068Y-61883747D01*
X46489447Y-61670661D01*
X46670661Y-61489447D01*
X46883745Y-61347069D01*
X46883747Y-61347068D01*
X47120513Y-61248996D01*
X47371861Y-61199000D01*
X47628139Y-61199000D01*
X47879487Y-61248996D01*
G37*
G36*
X216806778Y-61700547D02*
G01*
X216973224Y-61769491D01*
X217123022Y-61869583D01*
X217250417Y-61996978D01*
X217350509Y-62146776D01*
X217419453Y-62313222D01*
X217454600Y-62489918D01*
X217454600Y-62670082D01*
X217419453Y-62846778D01*
X217350509Y-63013224D01*
X217250417Y-63163022D01*
X217123022Y-63290417D01*
X216973224Y-63390509D01*
X216806778Y-63459453D01*
X216630082Y-63494600D01*
X216449918Y-63494600D01*
X216273222Y-63459453D01*
X216106776Y-63390509D01*
X215956978Y-63290417D01*
X215829583Y-63163022D01*
X215729491Y-63013224D01*
X215660547Y-62846778D01*
X215625400Y-62670082D01*
X215625400Y-62489918D01*
X215660547Y-62313222D01*
X215729491Y-62146776D01*
X215829583Y-61996978D01*
X215956978Y-61869583D01*
X216106776Y-61769491D01*
X216273222Y-61700547D01*
X216449918Y-61665400D01*
X216630082Y-61665400D01*
X216806778Y-61700547D01*
G37*
G36*
X214266778Y-61700547D02*
G01*
X214433224Y-61769491D01*
X214583022Y-61869583D01*
X214710417Y-61996978D01*
X214810509Y-62146776D01*
X214879453Y-62313222D01*
X214914600Y-62489918D01*
X214914600Y-62670082D01*
X214879453Y-62846778D01*
X214810509Y-63013224D01*
X214710417Y-63163022D01*
X214583022Y-63290417D01*
X214433224Y-63390509D01*
X214266778Y-63459453D01*
X214090082Y-63494600D01*
X213909918Y-63494600D01*
X213733222Y-63459453D01*
X213566776Y-63390509D01*
X213416978Y-63290417D01*
X213289583Y-63163022D01*
X213189491Y-63013224D01*
X213120547Y-62846778D01*
X213085400Y-62670082D01*
X213085400Y-62489918D01*
X213120547Y-62313222D01*
X213189491Y-62146776D01*
X213289583Y-61996978D01*
X213416978Y-61869583D01*
X213566776Y-61769491D01*
X213733222Y-61700547D01*
X213909918Y-61665400D01*
X214090082Y-61665400D01*
X214266778Y-61700547D01*
G37*
G36*
X66806778Y-61700547D02*
G01*
X66973224Y-61769491D01*
X67123022Y-61869583D01*
X67250417Y-61996978D01*
X67350509Y-62146776D01*
X67419453Y-62313222D01*
X67454600Y-62489918D01*
X67454600Y-62670082D01*
X67419453Y-62846778D01*
X67350509Y-63013224D01*
X67250417Y-63163022D01*
X67123022Y-63290417D01*
X66973224Y-63390509D01*
X66806778Y-63459453D01*
X66630082Y-63494600D01*
X66449918Y-63494600D01*
X66273222Y-63459453D01*
X66106776Y-63390509D01*
X65956978Y-63290417D01*
X65829583Y-63163022D01*
X65729491Y-63013224D01*
X65660547Y-62846778D01*
X65625400Y-62670082D01*
X65625400Y-62489918D01*
X65660547Y-62313222D01*
X65729491Y-62146776D01*
X65829583Y-61996978D01*
X65956978Y-61869583D01*
X66106776Y-61769491D01*
X66273222Y-61700547D01*
X66449918Y-61665400D01*
X66630082Y-61665400D01*
X66806778Y-61700547D01*
G37*
G36*
X64266778Y-61700547D02*
G01*
X64433224Y-61769491D01*
X64583022Y-61869583D01*
X64710417Y-61996978D01*
X64810509Y-62146776D01*
X64879453Y-62313222D01*
X64914600Y-62489918D01*
X64914600Y-62670082D01*
X64879453Y-62846778D01*
X64810509Y-63013224D01*
X64710417Y-63163022D01*
X64583022Y-63290417D01*
X64433224Y-63390509D01*
X64266778Y-63459453D01*
X64090082Y-63494600D01*
X63909918Y-63494600D01*
X63733222Y-63459453D01*
X63566776Y-63390509D01*
X63416978Y-63290417D01*
X63289583Y-63163022D01*
X63189491Y-63013224D01*
X63120547Y-62846778D01*
X63085400Y-62670082D01*
X63085400Y-62489918D01*
X63120547Y-62313222D01*
X63189491Y-62146776D01*
X63289583Y-61996978D01*
X63416978Y-61869583D01*
X63566776Y-61769491D01*
X63733222Y-61700547D01*
X63909918Y-61665400D01*
X64090082Y-61665400D01*
X64266778Y-61700547D01*
G37*
G36*
X126806778Y-61700547D02*
G01*
X126973224Y-61769491D01*
X127123022Y-61869583D01*
X127250417Y-61996978D01*
X127350509Y-62146776D01*
X127419453Y-62313222D01*
X127454600Y-62489918D01*
X127454600Y-62670082D01*
X127419453Y-62846778D01*
X127350509Y-63013224D01*
X127250417Y-63163022D01*
X127123022Y-63290417D01*
X126973224Y-63390509D01*
X126806778Y-63459453D01*
X126630082Y-63494600D01*
X126449918Y-63494600D01*
X126273222Y-63459453D01*
X126106776Y-63390509D01*
X125956978Y-63290417D01*
X125829583Y-63163022D01*
X125729491Y-63013224D01*
X125660547Y-62846778D01*
X125625400Y-62670082D01*
X125625400Y-62489918D01*
X125660547Y-62313222D01*
X125729491Y-62146776D01*
X125829583Y-61996978D01*
X125956978Y-61869583D01*
X126106776Y-61769491D01*
X126273222Y-61700547D01*
X126449918Y-61665400D01*
X126630082Y-61665400D01*
X126806778Y-61700547D01*
G37*
G36*
X111806778Y-61700547D02*
G01*
X111973224Y-61769491D01*
X112123022Y-61869583D01*
X112250417Y-61996978D01*
X112350509Y-62146776D01*
X112419453Y-62313222D01*
X112454600Y-62489918D01*
X112454600Y-62670082D01*
X112419453Y-62846778D01*
X112350509Y-63013224D01*
X112250417Y-63163022D01*
X112123022Y-63290417D01*
X111973224Y-63390509D01*
X111806778Y-63459453D01*
X111630082Y-63494600D01*
X111449918Y-63494600D01*
X111273222Y-63459453D01*
X111106776Y-63390509D01*
X110956978Y-63290417D01*
X110829583Y-63163022D01*
X110729491Y-63013224D01*
X110660547Y-62846778D01*
X110625400Y-62670082D01*
X110625400Y-62489918D01*
X110660547Y-62313222D01*
X110729491Y-62146776D01*
X110829583Y-61996978D01*
X110956978Y-61869583D01*
X111106776Y-61769491D01*
X111273222Y-61700547D01*
X111449918Y-61665400D01*
X111630082Y-61665400D01*
X111806778Y-61700547D01*
G37*
G36*
X109266778Y-61700547D02*
G01*
X109433224Y-61769491D01*
X109583022Y-61869583D01*
X109710417Y-61996978D01*
X109810509Y-62146776D01*
X109879453Y-62313222D01*
X109914600Y-62489918D01*
X109914600Y-62670082D01*
X109879453Y-62846778D01*
X109810509Y-63013224D01*
X109710417Y-63163022D01*
X109583022Y-63290417D01*
X109433224Y-63390509D01*
X109266778Y-63459453D01*
X109090082Y-63494600D01*
X108909918Y-63494600D01*
X108733222Y-63459453D01*
X108566776Y-63390509D01*
X108416978Y-63290417D01*
X108289583Y-63163022D01*
X108189491Y-63013224D01*
X108120547Y-62846778D01*
X108085400Y-62670082D01*
X108085400Y-62489918D01*
X108120547Y-62313222D01*
X108189491Y-62146776D01*
X108289583Y-61996978D01*
X108416978Y-61869583D01*
X108566776Y-61769491D01*
X108733222Y-61700547D01*
X108909918Y-61665400D01*
X109090082Y-61665400D01*
X109266778Y-61700547D01*
G37*
G36*
X139266778Y-61700547D02*
G01*
X139433224Y-61769491D01*
X139583022Y-61869583D01*
X139710417Y-61996978D01*
X139810509Y-62146776D01*
X139879453Y-62313222D01*
X139914600Y-62489918D01*
X139914600Y-62670082D01*
X139879453Y-62846778D01*
X139810509Y-63013224D01*
X139710417Y-63163022D01*
X139583022Y-63290417D01*
X139433224Y-63390509D01*
X139266778Y-63459453D01*
X139090082Y-63494600D01*
X138909918Y-63494600D01*
X138733222Y-63459453D01*
X138566776Y-63390509D01*
X138416978Y-63290417D01*
X138289583Y-63163022D01*
X138189491Y-63013224D01*
X138120547Y-62846778D01*
X138085400Y-62670082D01*
X138085400Y-62489918D01*
X138120547Y-62313222D01*
X138189491Y-62146776D01*
X138289583Y-61996978D01*
X138416978Y-61869583D01*
X138566776Y-61769491D01*
X138733222Y-61700547D01*
X138909918Y-61665400D01*
X139090082Y-61665400D01*
X139266778Y-61700547D01*
G37*
G36*
X94266778Y-61700547D02*
G01*
X94433224Y-61769491D01*
X94583022Y-61869583D01*
X94710417Y-61996978D01*
X94810509Y-62146776D01*
X94879453Y-62313222D01*
X94914600Y-62489918D01*
X94914600Y-62670082D01*
X94879453Y-62846778D01*
X94810509Y-63013224D01*
X94710417Y-63163022D01*
X94583022Y-63290417D01*
X94433224Y-63390509D01*
X94266778Y-63459453D01*
X94090082Y-63494600D01*
X93909918Y-63494600D01*
X93733222Y-63459453D01*
X93566776Y-63390509D01*
X93416978Y-63290417D01*
X93289583Y-63163022D01*
X93189491Y-63013224D01*
X93120547Y-62846778D01*
X93085400Y-62670082D01*
X93085400Y-62489918D01*
X93120547Y-62313222D01*
X93189491Y-62146776D01*
X93289583Y-61996978D01*
X93416978Y-61869583D01*
X93566776Y-61769491D01*
X93733222Y-61700547D01*
X93909918Y-61665400D01*
X94090082Y-61665400D01*
X94266778Y-61700547D01*
G37*
G36*
X124266778Y-61700547D02*
G01*
X124433224Y-61769491D01*
X124583022Y-61869583D01*
X124710417Y-61996978D01*
X124810509Y-62146776D01*
X124879453Y-62313222D01*
X124914600Y-62489918D01*
X124914600Y-62670082D01*
X124879453Y-62846778D01*
X124810509Y-63013224D01*
X124710417Y-63163022D01*
X124583022Y-63290417D01*
X124433224Y-63390509D01*
X124266778Y-63459453D01*
X124090082Y-63494600D01*
X123909918Y-63494600D01*
X123733222Y-63459453D01*
X123566776Y-63390509D01*
X123416978Y-63290417D01*
X123289583Y-63163022D01*
X123189491Y-63013224D01*
X123120547Y-62846778D01*
X123085400Y-62670082D01*
X123085400Y-62489918D01*
X123120547Y-62313222D01*
X123189491Y-62146776D01*
X123289583Y-61996978D01*
X123416978Y-61869583D01*
X123566776Y-61769491D01*
X123733222Y-61700547D01*
X123909918Y-61665400D01*
X124090082Y-61665400D01*
X124266778Y-61700547D01*
G37*
G36*
X201806778Y-61700547D02*
G01*
X201973224Y-61769491D01*
X202123022Y-61869583D01*
X202250417Y-61996978D01*
X202350509Y-62146776D01*
X202419453Y-62313222D01*
X202454600Y-62489918D01*
X202454600Y-62670082D01*
X202419453Y-62846778D01*
X202350509Y-63013224D01*
X202250417Y-63163022D01*
X202123022Y-63290417D01*
X201973224Y-63390509D01*
X201806778Y-63459453D01*
X201630082Y-63494600D01*
X201449918Y-63494600D01*
X201273222Y-63459453D01*
X201106776Y-63390509D01*
X200956978Y-63290417D01*
X200829583Y-63163022D01*
X200729491Y-63013224D01*
X200660547Y-62846778D01*
X200625400Y-62670082D01*
X200625400Y-62489918D01*
X200660547Y-62313222D01*
X200729491Y-62146776D01*
X200829583Y-61996978D01*
X200956978Y-61869583D01*
X201106776Y-61769491D01*
X201273222Y-61700547D01*
X201449918Y-61665400D01*
X201630082Y-61665400D01*
X201806778Y-61700547D01*
G37*
G36*
X229266778Y-61700547D02*
G01*
X229433224Y-61769491D01*
X229583022Y-61869583D01*
X229710417Y-61996978D01*
X229810509Y-62146776D01*
X229879453Y-62313222D01*
X229914600Y-62489918D01*
X229914600Y-62670082D01*
X229879453Y-62846778D01*
X229810509Y-63013224D01*
X229710417Y-63163022D01*
X229583022Y-63290417D01*
X229433224Y-63390509D01*
X229266778Y-63459453D01*
X229090082Y-63494600D01*
X228909918Y-63494600D01*
X228733222Y-63459453D01*
X228566776Y-63390509D01*
X228416978Y-63290417D01*
X228289583Y-63163022D01*
X228189491Y-63013224D01*
X228120547Y-62846778D01*
X228085400Y-62670082D01*
X228085400Y-62489918D01*
X228120547Y-62313222D01*
X228189491Y-62146776D01*
X228289583Y-61996978D01*
X228416978Y-61869583D01*
X228566776Y-61769491D01*
X228733222Y-61700547D01*
X228909918Y-61665400D01*
X229090082Y-61665400D01*
X229266778Y-61700547D01*
G37*
G36*
X81806778Y-61700547D02*
G01*
X81973224Y-61769491D01*
X82123022Y-61869583D01*
X82250417Y-61996978D01*
X82350509Y-62146776D01*
X82419453Y-62313222D01*
X82454600Y-62489918D01*
X82454600Y-62670082D01*
X82419453Y-62846778D01*
X82350509Y-63013224D01*
X82250417Y-63163022D01*
X82123022Y-63290417D01*
X81973224Y-63390509D01*
X81806778Y-63459453D01*
X81630082Y-63494600D01*
X81449918Y-63494600D01*
X81273222Y-63459453D01*
X81106776Y-63390509D01*
X80956978Y-63290417D01*
X80829583Y-63163022D01*
X80729491Y-63013224D01*
X80660547Y-62846778D01*
X80625400Y-62670082D01*
X80625400Y-62489918D01*
X80660547Y-62313222D01*
X80729491Y-62146776D01*
X80829583Y-61996978D01*
X80956978Y-61869583D01*
X81106776Y-61769491D01*
X81273222Y-61700547D01*
X81449918Y-61665400D01*
X81630082Y-61665400D01*
X81806778Y-61700547D01*
G37*
G36*
X79266778Y-61700547D02*
G01*
X79433224Y-61769491D01*
X79583022Y-61869583D01*
X79710417Y-61996978D01*
X79810509Y-62146776D01*
X79879453Y-62313222D01*
X79914600Y-62489918D01*
X79914600Y-62670082D01*
X79879453Y-62846778D01*
X79810509Y-63013224D01*
X79710417Y-63163022D01*
X79583022Y-63290417D01*
X79433224Y-63390509D01*
X79266778Y-63459453D01*
X79090082Y-63494600D01*
X78909918Y-63494600D01*
X78733222Y-63459453D01*
X78566776Y-63390509D01*
X78416978Y-63290417D01*
X78289583Y-63163022D01*
X78189491Y-63013224D01*
X78120547Y-62846778D01*
X78085400Y-62670082D01*
X78085400Y-62489918D01*
X78120547Y-62313222D01*
X78189491Y-62146776D01*
X78289583Y-61996978D01*
X78416978Y-61869583D01*
X78566776Y-61769491D01*
X78733222Y-61700547D01*
X78909918Y-61665400D01*
X79090082Y-61665400D01*
X79266778Y-61700547D01*
G37*
G36*
X231806778Y-61700547D02*
G01*
X231973224Y-61769491D01*
X232123022Y-61869583D01*
X232250417Y-61996978D01*
X232350509Y-62146776D01*
X232419453Y-62313222D01*
X232454600Y-62489918D01*
X232454600Y-62670082D01*
X232419453Y-62846778D01*
X232350509Y-63013224D01*
X232250417Y-63163022D01*
X232123022Y-63290417D01*
X231973224Y-63390509D01*
X231806778Y-63459453D01*
X231630082Y-63494600D01*
X231449918Y-63494600D01*
X231273222Y-63459453D01*
X231106776Y-63390509D01*
X230956978Y-63290417D01*
X230829583Y-63163022D01*
X230729491Y-63013224D01*
X230660547Y-62846778D01*
X230625400Y-62670082D01*
X230625400Y-62489918D01*
X230660547Y-62313222D01*
X230729491Y-62146776D01*
X230829583Y-61996978D01*
X230956978Y-61869583D01*
X231106776Y-61769491D01*
X231273222Y-61700547D01*
X231449918Y-61665400D01*
X231630082Y-61665400D01*
X231806778Y-61700547D01*
G37*
G36*
X96806778Y-61700547D02*
G01*
X96973224Y-61769491D01*
X97123022Y-61869583D01*
X97250417Y-61996978D01*
X97350509Y-62146776D01*
X97419453Y-62313222D01*
X97454600Y-62489918D01*
X97454600Y-62670082D01*
X97419453Y-62846778D01*
X97350509Y-63013224D01*
X97250417Y-63163022D01*
X97123022Y-63290417D01*
X96973224Y-63390509D01*
X96806778Y-63459453D01*
X96630082Y-63494600D01*
X96449918Y-63494600D01*
X96273222Y-63459453D01*
X96106776Y-63390509D01*
X95956978Y-63290417D01*
X95829583Y-63163022D01*
X95729491Y-63013224D01*
X95660547Y-62846778D01*
X95625400Y-62670082D01*
X95625400Y-62489918D01*
X95660547Y-62313222D01*
X95729491Y-62146776D01*
X95829583Y-61996978D01*
X95956978Y-61869583D01*
X96106776Y-61769491D01*
X96273222Y-61700547D01*
X96449918Y-61665400D01*
X96630082Y-61665400D01*
X96806778Y-61700547D01*
G37*
G36*
X141806778Y-61700547D02*
G01*
X141973224Y-61769491D01*
X142123022Y-61869583D01*
X142250417Y-61996978D01*
X142350509Y-62146776D01*
X142419453Y-62313222D01*
X142454600Y-62489918D01*
X142454600Y-62670082D01*
X142419453Y-62846778D01*
X142350509Y-63013224D01*
X142250417Y-63163022D01*
X142123022Y-63290417D01*
X141973224Y-63390509D01*
X141806778Y-63459453D01*
X141630082Y-63494600D01*
X141449918Y-63494600D01*
X141273222Y-63459453D01*
X141106776Y-63390509D01*
X140956978Y-63290417D01*
X140829583Y-63163022D01*
X140729491Y-63013224D01*
X140660547Y-62846778D01*
X140625400Y-62670082D01*
X140625400Y-62489918D01*
X140660547Y-62313222D01*
X140729491Y-62146776D01*
X140829583Y-61996978D01*
X140956978Y-61869583D01*
X141106776Y-61769491D01*
X141273222Y-61700547D01*
X141449918Y-61665400D01*
X141630082Y-61665400D01*
X141806778Y-61700547D01*
G37*
G36*
X154266778Y-61700547D02*
G01*
X154433224Y-61769491D01*
X154583022Y-61869583D01*
X154710417Y-61996978D01*
X154810509Y-62146776D01*
X154879453Y-62313222D01*
X154914600Y-62489918D01*
X154914600Y-62670082D01*
X154879453Y-62846778D01*
X154810509Y-63013224D01*
X154710417Y-63163022D01*
X154583022Y-63290417D01*
X154433224Y-63390509D01*
X154266778Y-63459453D01*
X154090082Y-63494600D01*
X153909918Y-63494600D01*
X153733222Y-63459453D01*
X153566776Y-63390509D01*
X153416978Y-63290417D01*
X153289583Y-63163022D01*
X153189491Y-63013224D01*
X153120547Y-62846778D01*
X153085400Y-62670082D01*
X153085400Y-62489918D01*
X153120547Y-62313222D01*
X153189491Y-62146776D01*
X153289583Y-61996978D01*
X153416978Y-61869583D01*
X153566776Y-61769491D01*
X153733222Y-61700547D01*
X153909918Y-61665400D01*
X154090082Y-61665400D01*
X154266778Y-61700547D01*
G37*
G36*
X199266778Y-61700547D02*
G01*
X199433224Y-61769491D01*
X199583022Y-61869583D01*
X199710417Y-61996978D01*
X199810509Y-62146776D01*
X199879453Y-62313222D01*
X199914600Y-62489918D01*
X199914600Y-62670082D01*
X199879453Y-62846778D01*
X199810509Y-63013224D01*
X199710417Y-63163022D01*
X199583022Y-63290417D01*
X199433224Y-63390509D01*
X199266778Y-63459453D01*
X199090082Y-63494600D01*
X198909918Y-63494600D01*
X198733222Y-63459453D01*
X198566776Y-63390509D01*
X198416978Y-63290417D01*
X198289583Y-63163022D01*
X198189491Y-63013224D01*
X198120547Y-62846778D01*
X198085400Y-62670082D01*
X198085400Y-62489918D01*
X198120547Y-62313222D01*
X198189491Y-62146776D01*
X198289583Y-61996978D01*
X198416978Y-61869583D01*
X198566776Y-61769491D01*
X198733222Y-61700547D01*
X198909918Y-61665400D01*
X199090082Y-61665400D01*
X199266778Y-61700547D01*
G37*
G36*
X171806778Y-61700547D02*
G01*
X171973224Y-61769491D01*
X172123022Y-61869583D01*
X172250417Y-61996978D01*
X172350509Y-62146776D01*
X172419453Y-62313222D01*
X172454600Y-62489918D01*
X172454600Y-62670082D01*
X172419453Y-62846778D01*
X172350509Y-63013224D01*
X172250417Y-63163022D01*
X172123022Y-63290417D01*
X171973224Y-63390509D01*
X171806778Y-63459453D01*
X171630082Y-63494600D01*
X171449918Y-63494600D01*
X171273222Y-63459453D01*
X171106776Y-63390509D01*
X170956978Y-63290417D01*
X170829583Y-63163022D01*
X170729491Y-63013224D01*
X170660547Y-62846778D01*
X170625400Y-62670082D01*
X170625400Y-62489918D01*
X170660547Y-62313222D01*
X170729491Y-62146776D01*
X170829583Y-61996978D01*
X170956978Y-61869583D01*
X171106776Y-61769491D01*
X171273222Y-61700547D01*
X171449918Y-61665400D01*
X171630082Y-61665400D01*
X171806778Y-61700547D01*
G37*
G36*
X169266778Y-61700547D02*
G01*
X169433224Y-61769491D01*
X169583022Y-61869583D01*
X169710417Y-61996978D01*
X169810509Y-62146776D01*
X169879453Y-62313222D01*
X169914600Y-62489918D01*
X169914600Y-62670082D01*
X169879453Y-62846778D01*
X169810509Y-63013224D01*
X169710417Y-63163022D01*
X169583022Y-63290417D01*
X169433224Y-63390509D01*
X169266778Y-63459453D01*
X169090082Y-63494600D01*
X168909918Y-63494600D01*
X168733222Y-63459453D01*
X168566776Y-63390509D01*
X168416978Y-63290417D01*
X168289583Y-63163022D01*
X168189491Y-63013224D01*
X168120547Y-62846778D01*
X168085400Y-62670082D01*
X168085400Y-62489918D01*
X168120547Y-62313222D01*
X168189491Y-62146776D01*
X168289583Y-61996978D01*
X168416978Y-61869583D01*
X168566776Y-61769491D01*
X168733222Y-61700547D01*
X168909918Y-61665400D01*
X169090082Y-61665400D01*
X169266778Y-61700547D01*
G37*
G36*
X184266778Y-61700547D02*
G01*
X184433224Y-61769491D01*
X184583022Y-61869583D01*
X184710417Y-61996978D01*
X184810509Y-62146776D01*
X184879453Y-62313222D01*
X184914600Y-62489918D01*
X184914600Y-62670082D01*
X184879453Y-62846778D01*
X184810509Y-63013224D01*
X184710417Y-63163022D01*
X184583022Y-63290417D01*
X184433224Y-63390509D01*
X184266778Y-63459453D01*
X184090082Y-63494600D01*
X183909918Y-63494600D01*
X183733222Y-63459453D01*
X183566776Y-63390509D01*
X183416978Y-63290417D01*
X183289583Y-63163022D01*
X183189491Y-63013224D01*
X183120547Y-62846778D01*
X183085400Y-62670082D01*
X183085400Y-62489918D01*
X183120547Y-62313222D01*
X183189491Y-62146776D01*
X183289583Y-61996978D01*
X183416978Y-61869583D01*
X183566776Y-61769491D01*
X183733222Y-61700547D01*
X183909918Y-61665400D01*
X184090082Y-61665400D01*
X184266778Y-61700547D01*
G37*
G36*
X186806778Y-61700547D02*
G01*
X186973224Y-61769491D01*
X187123022Y-61869583D01*
X187250417Y-61996978D01*
X187350509Y-62146776D01*
X187419453Y-62313222D01*
X187454600Y-62489918D01*
X187454600Y-62670082D01*
X187419453Y-62846778D01*
X187350509Y-63013224D01*
X187250417Y-63163022D01*
X187123022Y-63290417D01*
X186973224Y-63390509D01*
X186806778Y-63459453D01*
X186630082Y-63494600D01*
X186449918Y-63494600D01*
X186273222Y-63459453D01*
X186106776Y-63390509D01*
X185956978Y-63290417D01*
X185829583Y-63163022D01*
X185729491Y-63013224D01*
X185660547Y-62846778D01*
X185625400Y-62670082D01*
X185625400Y-62489918D01*
X185660547Y-62313222D01*
X185729491Y-62146776D01*
X185829583Y-61996978D01*
X185956978Y-61869583D01*
X186106776Y-61769491D01*
X186273222Y-61700547D01*
X186449918Y-61665400D01*
X186630082Y-61665400D01*
X186806778Y-61700547D01*
G37*
G36*
X156806778Y-61700547D02*
G01*
X156973224Y-61769491D01*
X157123022Y-61869583D01*
X157250417Y-61996978D01*
X157350509Y-62146776D01*
X157419453Y-62313222D01*
X157454600Y-62489918D01*
X157454600Y-62670082D01*
X157419453Y-62846778D01*
X157350509Y-63013224D01*
X157250417Y-63163022D01*
X157123022Y-63290417D01*
X156973224Y-63390509D01*
X156806778Y-63459453D01*
X156630082Y-63494600D01*
X156449918Y-63494600D01*
X156273222Y-63459453D01*
X156106776Y-63390509D01*
X155956978Y-63290417D01*
X155829583Y-63163022D01*
X155729491Y-63013224D01*
X155660547Y-62846778D01*
X155625400Y-62670082D01*
X155625400Y-62489918D01*
X155660547Y-62313222D01*
X155729491Y-62146776D01*
X155829583Y-61996978D01*
X155956978Y-61869583D01*
X156106776Y-61769491D01*
X156273222Y-61700547D01*
X156449918Y-61665400D01*
X156630082Y-61665400D01*
X156806778Y-61700547D01*
G37*
G36*
X124266778Y-59160547D02*
G01*
X124433224Y-59229491D01*
X124583022Y-59329583D01*
X124710417Y-59456978D01*
X124810509Y-59606776D01*
X124879453Y-59773222D01*
X124914600Y-59949918D01*
X124914600Y-60130082D01*
X124879453Y-60306778D01*
X124810509Y-60473224D01*
X124710417Y-60623022D01*
X124583022Y-60750417D01*
X124433224Y-60850509D01*
X124266778Y-60919453D01*
X124090082Y-60954600D01*
X123909918Y-60954600D01*
X123733222Y-60919453D01*
X123566776Y-60850509D01*
X123416978Y-60750417D01*
X123289583Y-60623022D01*
X123189491Y-60473224D01*
X123120547Y-60306778D01*
X123085400Y-60130082D01*
X123085400Y-59949918D01*
X123120547Y-59773222D01*
X123189491Y-59606776D01*
X123289583Y-59456978D01*
X123416978Y-59329583D01*
X123566776Y-59229491D01*
X123733222Y-59160547D01*
X123909918Y-59125400D01*
X124090082Y-59125400D01*
X124266778Y-59160547D01*
G37*
G36*
X186806778Y-59160547D02*
G01*
X186973224Y-59229491D01*
X187123022Y-59329583D01*
X187250417Y-59456978D01*
X187350509Y-59606776D01*
X187419453Y-59773222D01*
X187454600Y-59949918D01*
X187454600Y-60130082D01*
X187419453Y-60306778D01*
X187350509Y-60473224D01*
X187250417Y-60623022D01*
X187123022Y-60750417D01*
X186973224Y-60850509D01*
X186806778Y-60919453D01*
X186630082Y-60954600D01*
X186449918Y-60954600D01*
X186273222Y-60919453D01*
X186106776Y-60850509D01*
X185956978Y-60750417D01*
X185829583Y-60623022D01*
X185729491Y-60473224D01*
X185660547Y-60306778D01*
X185625400Y-60130082D01*
X185625400Y-59949918D01*
X185660547Y-59773222D01*
X185729491Y-59606776D01*
X185829583Y-59456978D01*
X185956978Y-59329583D01*
X186106776Y-59229491D01*
X186273222Y-59160547D01*
X186449918Y-59125400D01*
X186630082Y-59125400D01*
X186806778Y-59160547D01*
G37*
G36*
X214266778Y-59160547D02*
G01*
X214433224Y-59229491D01*
X214583022Y-59329583D01*
X214710417Y-59456978D01*
X214810509Y-59606776D01*
X214879453Y-59773222D01*
X214914600Y-59949918D01*
X214914600Y-60130082D01*
X214879453Y-60306778D01*
X214810509Y-60473224D01*
X214710417Y-60623022D01*
X214583022Y-60750417D01*
X214433224Y-60850509D01*
X214266778Y-60919453D01*
X214090082Y-60954600D01*
X213909918Y-60954600D01*
X213733222Y-60919453D01*
X213566776Y-60850509D01*
X213416978Y-60750417D01*
X213289583Y-60623022D01*
X213189491Y-60473224D01*
X213120547Y-60306778D01*
X213085400Y-60130082D01*
X213085400Y-59949918D01*
X213120547Y-59773222D01*
X213189491Y-59606776D01*
X213289583Y-59456978D01*
X213416978Y-59329583D01*
X213566776Y-59229491D01*
X213733222Y-59160547D01*
X213909918Y-59125400D01*
X214090082Y-59125400D01*
X214266778Y-59160547D01*
G37*
G36*
X171806778Y-59160547D02*
G01*
X171973224Y-59229491D01*
X172123022Y-59329583D01*
X172250417Y-59456978D01*
X172350509Y-59606776D01*
X172419453Y-59773222D01*
X172454600Y-59949918D01*
X172454600Y-60130082D01*
X172419453Y-60306778D01*
X172350509Y-60473224D01*
X172250417Y-60623022D01*
X172123022Y-60750417D01*
X171973224Y-60850509D01*
X171806778Y-60919453D01*
X171630082Y-60954600D01*
X171449918Y-60954600D01*
X171273222Y-60919453D01*
X171106776Y-60850509D01*
X170956978Y-60750417D01*
X170829583Y-60623022D01*
X170729491Y-60473224D01*
X170660547Y-60306778D01*
X170625400Y-60130082D01*
X170625400Y-59949918D01*
X170660547Y-59773222D01*
X170729491Y-59606776D01*
X170829583Y-59456978D01*
X170956978Y-59329583D01*
X171106776Y-59229491D01*
X171273222Y-59160547D01*
X171449918Y-59125400D01*
X171630082Y-59125400D01*
X171806778Y-59160547D01*
G37*
G36*
X169266778Y-59160547D02*
G01*
X169433224Y-59229491D01*
X169583022Y-59329583D01*
X169710417Y-59456978D01*
X169810509Y-59606776D01*
X169879453Y-59773222D01*
X169914600Y-59949918D01*
X169914600Y-60130082D01*
X169879453Y-60306778D01*
X169810509Y-60473224D01*
X169710417Y-60623022D01*
X169583022Y-60750417D01*
X169433224Y-60850509D01*
X169266778Y-60919453D01*
X169090082Y-60954600D01*
X168909918Y-60954600D01*
X168733222Y-60919453D01*
X168566776Y-60850509D01*
X168416978Y-60750417D01*
X168289583Y-60623022D01*
X168189491Y-60473224D01*
X168120547Y-60306778D01*
X168085400Y-60130082D01*
X168085400Y-59949918D01*
X168120547Y-59773222D01*
X168189491Y-59606776D01*
X168289583Y-59456978D01*
X168416978Y-59329583D01*
X168566776Y-59229491D01*
X168733222Y-59160547D01*
X168909918Y-59125400D01*
X169090082Y-59125400D01*
X169266778Y-59160547D01*
G37*
G36*
X216806778Y-59160547D02*
G01*
X216973224Y-59229491D01*
X217123022Y-59329583D01*
X217250417Y-59456978D01*
X217350509Y-59606776D01*
X217419453Y-59773222D01*
X217454600Y-59949918D01*
X217454600Y-60130082D01*
X217419453Y-60306778D01*
X217350509Y-60473224D01*
X217250417Y-60623022D01*
X217123022Y-60750417D01*
X216973224Y-60850509D01*
X216806778Y-60919453D01*
X216630082Y-60954600D01*
X216449918Y-60954600D01*
X216273222Y-60919453D01*
X216106776Y-60850509D01*
X215956978Y-60750417D01*
X215829583Y-60623022D01*
X215729491Y-60473224D01*
X215660547Y-60306778D01*
X215625400Y-60130082D01*
X215625400Y-59949918D01*
X215660547Y-59773222D01*
X215729491Y-59606776D01*
X215829583Y-59456978D01*
X215956978Y-59329583D01*
X216106776Y-59229491D01*
X216273222Y-59160547D01*
X216449918Y-59125400D01*
X216630082Y-59125400D01*
X216806778Y-59160547D01*
G37*
G36*
X81806778Y-59160547D02*
G01*
X81973224Y-59229491D01*
X82123022Y-59329583D01*
X82250417Y-59456978D01*
X82350509Y-59606776D01*
X82419453Y-59773222D01*
X82454600Y-59949918D01*
X82454600Y-60130082D01*
X82419453Y-60306778D01*
X82350509Y-60473224D01*
X82250417Y-60623022D01*
X82123022Y-60750417D01*
X81973224Y-60850509D01*
X81806778Y-60919453D01*
X81630082Y-60954600D01*
X81449918Y-60954600D01*
X81273222Y-60919453D01*
X81106776Y-60850509D01*
X80956978Y-60750417D01*
X80829583Y-60623022D01*
X80729491Y-60473224D01*
X80660547Y-60306778D01*
X80625400Y-60130082D01*
X80625400Y-59949918D01*
X80660547Y-59773222D01*
X80729491Y-59606776D01*
X80829583Y-59456978D01*
X80956978Y-59329583D01*
X81106776Y-59229491D01*
X81273222Y-59160547D01*
X81449918Y-59125400D01*
X81630082Y-59125400D01*
X81806778Y-59160547D01*
G37*
G36*
X201806778Y-59160547D02*
G01*
X201973224Y-59229491D01*
X202123022Y-59329583D01*
X202250417Y-59456978D01*
X202350509Y-59606776D01*
X202419453Y-59773222D01*
X202454600Y-59949918D01*
X202454600Y-60130082D01*
X202419453Y-60306778D01*
X202350509Y-60473224D01*
X202250417Y-60623022D01*
X202123022Y-60750417D01*
X201973224Y-60850509D01*
X201806778Y-60919453D01*
X201630082Y-60954600D01*
X201449918Y-60954600D01*
X201273222Y-60919453D01*
X201106776Y-60850509D01*
X200956978Y-60750417D01*
X200829583Y-60623022D01*
X200729491Y-60473224D01*
X200660547Y-60306778D01*
X200625400Y-60130082D01*
X200625400Y-59949918D01*
X200660547Y-59773222D01*
X200729491Y-59606776D01*
X200829583Y-59456978D01*
X200956978Y-59329583D01*
X201106776Y-59229491D01*
X201273222Y-59160547D01*
X201449918Y-59125400D01*
X201630082Y-59125400D01*
X201806778Y-59160547D01*
G37*
G36*
X231806778Y-59160547D02*
G01*
X231973224Y-59229491D01*
X232123022Y-59329583D01*
X232250417Y-59456978D01*
X232350509Y-59606776D01*
X232419453Y-59773222D01*
X232454600Y-59949918D01*
X232454600Y-60130082D01*
X232419453Y-60306778D01*
X232350509Y-60473224D01*
X232250417Y-60623022D01*
X232123022Y-60750417D01*
X231973224Y-60850509D01*
X231806778Y-60919453D01*
X231630082Y-60954600D01*
X231449918Y-60954600D01*
X231273222Y-60919453D01*
X231106776Y-60850509D01*
X230956978Y-60750417D01*
X230829583Y-60623022D01*
X230729491Y-60473224D01*
X230660547Y-60306778D01*
X230625400Y-60130082D01*
X230625400Y-59949918D01*
X230660547Y-59773222D01*
X230729491Y-59606776D01*
X230829583Y-59456978D01*
X230956978Y-59329583D01*
X231106776Y-59229491D01*
X231273222Y-59160547D01*
X231449918Y-59125400D01*
X231630082Y-59125400D01*
X231806778Y-59160547D01*
G37*
G36*
X139266778Y-59160547D02*
G01*
X139433224Y-59229491D01*
X139583022Y-59329583D01*
X139710417Y-59456978D01*
X139810509Y-59606776D01*
X139879453Y-59773222D01*
X139914600Y-59949918D01*
X139914600Y-60130082D01*
X139879453Y-60306778D01*
X139810509Y-60473224D01*
X139710417Y-60623022D01*
X139583022Y-60750417D01*
X139433224Y-60850509D01*
X139266778Y-60919453D01*
X139090082Y-60954600D01*
X138909918Y-60954600D01*
X138733222Y-60919453D01*
X138566776Y-60850509D01*
X138416978Y-60750417D01*
X138289583Y-60623022D01*
X138189491Y-60473224D01*
X138120547Y-60306778D01*
X138085400Y-60130082D01*
X138085400Y-59949918D01*
X138120547Y-59773222D01*
X138189491Y-59606776D01*
X138289583Y-59456978D01*
X138416978Y-59329583D01*
X138566776Y-59229491D01*
X138733222Y-59160547D01*
X138909918Y-59125400D01*
X139090082Y-59125400D01*
X139266778Y-59160547D01*
G37*
G36*
X141806778Y-59160547D02*
G01*
X141973224Y-59229491D01*
X142123022Y-59329583D01*
X142250417Y-59456978D01*
X142350509Y-59606776D01*
X142419453Y-59773222D01*
X142454600Y-59949918D01*
X142454600Y-60130082D01*
X142419453Y-60306778D01*
X142350509Y-60473224D01*
X142250417Y-60623022D01*
X142123022Y-60750417D01*
X141973224Y-60850509D01*
X141806778Y-60919453D01*
X141630082Y-60954600D01*
X141449918Y-60954600D01*
X141273222Y-60919453D01*
X141106776Y-60850509D01*
X140956978Y-60750417D01*
X140829583Y-60623022D01*
X140729491Y-60473224D01*
X140660547Y-60306778D01*
X140625400Y-60130082D01*
X140625400Y-59949918D01*
X140660547Y-59773222D01*
X140729491Y-59606776D01*
X140829583Y-59456978D01*
X140956978Y-59329583D01*
X141106776Y-59229491D01*
X141273222Y-59160547D01*
X141449918Y-59125400D01*
X141630082Y-59125400D01*
X141806778Y-59160547D01*
G37*
G36*
X229266778Y-59160547D02*
G01*
X229433224Y-59229491D01*
X229583022Y-59329583D01*
X229710417Y-59456978D01*
X229810509Y-59606776D01*
X229879453Y-59773222D01*
X229914600Y-59949918D01*
X229914600Y-60130082D01*
X229879453Y-60306778D01*
X229810509Y-60473224D01*
X229710417Y-60623022D01*
X229583022Y-60750417D01*
X229433224Y-60850509D01*
X229266778Y-60919453D01*
X229090082Y-60954600D01*
X228909918Y-60954600D01*
X228733222Y-60919453D01*
X228566776Y-60850509D01*
X228416978Y-60750417D01*
X228289583Y-60623022D01*
X228189491Y-60473224D01*
X228120547Y-60306778D01*
X228085400Y-60130082D01*
X228085400Y-59949918D01*
X228120547Y-59773222D01*
X228189491Y-59606776D01*
X228289583Y-59456978D01*
X228416978Y-59329583D01*
X228566776Y-59229491D01*
X228733222Y-59160547D01*
X228909918Y-59125400D01*
X229090082Y-59125400D01*
X229266778Y-59160547D01*
G37*
G36*
X79266778Y-59160547D02*
G01*
X79433224Y-59229491D01*
X79583022Y-59329583D01*
X79710417Y-59456978D01*
X79810509Y-59606776D01*
X79879453Y-59773222D01*
X79914600Y-59949918D01*
X79914600Y-60130082D01*
X79879453Y-60306778D01*
X79810509Y-60473224D01*
X79710417Y-60623022D01*
X79583022Y-60750417D01*
X79433224Y-60850509D01*
X79266778Y-60919453D01*
X79090082Y-60954600D01*
X78909918Y-60954600D01*
X78733222Y-60919453D01*
X78566776Y-60850509D01*
X78416978Y-60750417D01*
X78289583Y-60623022D01*
X78189491Y-60473224D01*
X78120547Y-60306778D01*
X78085400Y-60130082D01*
X78085400Y-59949918D01*
X78120547Y-59773222D01*
X78189491Y-59606776D01*
X78289583Y-59456978D01*
X78416978Y-59329583D01*
X78566776Y-59229491D01*
X78733222Y-59160547D01*
X78909918Y-59125400D01*
X79090082Y-59125400D01*
X79266778Y-59160547D01*
G37*
G36*
X111806778Y-59160547D02*
G01*
X111973224Y-59229491D01*
X112123022Y-59329583D01*
X112250417Y-59456978D01*
X112350509Y-59606776D01*
X112419453Y-59773222D01*
X112454600Y-59949918D01*
X112454600Y-60130082D01*
X112419453Y-60306778D01*
X112350509Y-60473224D01*
X112250417Y-60623022D01*
X112123022Y-60750417D01*
X111973224Y-60850509D01*
X111806778Y-60919453D01*
X111630082Y-60954600D01*
X111449918Y-60954600D01*
X111273222Y-60919453D01*
X111106776Y-60850509D01*
X110956978Y-60750417D01*
X110829583Y-60623022D01*
X110729491Y-60473224D01*
X110660547Y-60306778D01*
X110625400Y-60130082D01*
X110625400Y-59949918D01*
X110660547Y-59773222D01*
X110729491Y-59606776D01*
X110829583Y-59456978D01*
X110956978Y-59329583D01*
X111106776Y-59229491D01*
X111273222Y-59160547D01*
X111449918Y-59125400D01*
X111630082Y-59125400D01*
X111806778Y-59160547D01*
G37*
G36*
X184266778Y-59160547D02*
G01*
X184433224Y-59229491D01*
X184583022Y-59329583D01*
X184710417Y-59456978D01*
X184810509Y-59606776D01*
X184879453Y-59773222D01*
X184914600Y-59949918D01*
X184914600Y-60130082D01*
X184879453Y-60306778D01*
X184810509Y-60473224D01*
X184710417Y-60623022D01*
X184583022Y-60750417D01*
X184433224Y-60850509D01*
X184266778Y-60919453D01*
X184090082Y-60954600D01*
X183909918Y-60954600D01*
X183733222Y-60919453D01*
X183566776Y-60850509D01*
X183416978Y-60750417D01*
X183289583Y-60623022D01*
X183189491Y-60473224D01*
X183120547Y-60306778D01*
X183085400Y-60130082D01*
X183085400Y-59949918D01*
X183120547Y-59773222D01*
X183189491Y-59606776D01*
X183289583Y-59456978D01*
X183416978Y-59329583D01*
X183566776Y-59229491D01*
X183733222Y-59160547D01*
X183909918Y-59125400D01*
X184090082Y-59125400D01*
X184266778Y-59160547D01*
G37*
G36*
X96806778Y-59160547D02*
G01*
X96973224Y-59229491D01*
X97123022Y-59329583D01*
X97250417Y-59456978D01*
X97350509Y-59606776D01*
X97419453Y-59773222D01*
X97454600Y-59949918D01*
X97454600Y-60130082D01*
X97419453Y-60306778D01*
X97350509Y-60473224D01*
X97250417Y-60623022D01*
X97123022Y-60750417D01*
X96973224Y-60850509D01*
X96806778Y-60919453D01*
X96630082Y-60954600D01*
X96449918Y-60954600D01*
X96273222Y-60919453D01*
X96106776Y-60850509D01*
X95956978Y-60750417D01*
X95829583Y-60623022D01*
X95729491Y-60473224D01*
X95660547Y-60306778D01*
X95625400Y-60130082D01*
X95625400Y-59949918D01*
X95660547Y-59773222D01*
X95729491Y-59606776D01*
X95829583Y-59456978D01*
X95956978Y-59329583D01*
X96106776Y-59229491D01*
X96273222Y-59160547D01*
X96449918Y-59125400D01*
X96630082Y-59125400D01*
X96806778Y-59160547D01*
G37*
G36*
X126806778Y-59160547D02*
G01*
X126973224Y-59229491D01*
X127123022Y-59329583D01*
X127250417Y-59456978D01*
X127350509Y-59606776D01*
X127419453Y-59773222D01*
X127454600Y-59949918D01*
X127454600Y-60130082D01*
X127419453Y-60306778D01*
X127350509Y-60473224D01*
X127250417Y-60623022D01*
X127123022Y-60750417D01*
X126973224Y-60850509D01*
X126806778Y-60919453D01*
X126630082Y-60954600D01*
X126449918Y-60954600D01*
X126273222Y-60919453D01*
X126106776Y-60850509D01*
X125956978Y-60750417D01*
X125829583Y-60623022D01*
X125729491Y-60473224D01*
X125660547Y-60306778D01*
X125625400Y-60130082D01*
X125625400Y-59949918D01*
X125660547Y-59773222D01*
X125729491Y-59606776D01*
X125829583Y-59456978D01*
X125956978Y-59329583D01*
X126106776Y-59229491D01*
X126273222Y-59160547D01*
X126449918Y-59125400D01*
X126630082Y-59125400D01*
X126806778Y-59160547D01*
G37*
G36*
X94266778Y-59160547D02*
G01*
X94433224Y-59229491D01*
X94583022Y-59329583D01*
X94710417Y-59456978D01*
X94810509Y-59606776D01*
X94879453Y-59773222D01*
X94914600Y-59949918D01*
X94914600Y-60130082D01*
X94879453Y-60306778D01*
X94810509Y-60473224D01*
X94710417Y-60623022D01*
X94583022Y-60750417D01*
X94433224Y-60850509D01*
X94266778Y-60919453D01*
X94090082Y-60954600D01*
X93909918Y-60954600D01*
X93733222Y-60919453D01*
X93566776Y-60850509D01*
X93416978Y-60750417D01*
X93289583Y-60623022D01*
X93189491Y-60473224D01*
X93120547Y-60306778D01*
X93085400Y-60130082D01*
X93085400Y-59949918D01*
X93120547Y-59773222D01*
X93189491Y-59606776D01*
X93289583Y-59456978D01*
X93416978Y-59329583D01*
X93566776Y-59229491D01*
X93733222Y-59160547D01*
X93909918Y-59125400D01*
X94090082Y-59125400D01*
X94266778Y-59160547D01*
G37*
G36*
X156806778Y-59160547D02*
G01*
X156973224Y-59229491D01*
X157123022Y-59329583D01*
X157250417Y-59456978D01*
X157350509Y-59606776D01*
X157419453Y-59773222D01*
X157454600Y-59949918D01*
X157454600Y-60130082D01*
X157419453Y-60306778D01*
X157350509Y-60473224D01*
X157250417Y-60623022D01*
X157123022Y-60750417D01*
X156973224Y-60850509D01*
X156806778Y-60919453D01*
X156630082Y-60954600D01*
X156449918Y-60954600D01*
X156273222Y-60919453D01*
X156106776Y-60850509D01*
X155956978Y-60750417D01*
X155829583Y-60623022D01*
X155729491Y-60473224D01*
X155660547Y-60306778D01*
X155625400Y-60130082D01*
X155625400Y-59949918D01*
X155660547Y-59773222D01*
X155729491Y-59606776D01*
X155829583Y-59456978D01*
X155956978Y-59329583D01*
X156106776Y-59229491D01*
X156273222Y-59160547D01*
X156449918Y-59125400D01*
X156630082Y-59125400D01*
X156806778Y-59160547D01*
G37*
G36*
X199266778Y-59160547D02*
G01*
X199433224Y-59229491D01*
X199583022Y-59329583D01*
X199710417Y-59456978D01*
X199810509Y-59606776D01*
X199879453Y-59773222D01*
X199914600Y-59949918D01*
X199914600Y-60130082D01*
X199879453Y-60306778D01*
X199810509Y-60473224D01*
X199710417Y-60623022D01*
X199583022Y-60750417D01*
X199433224Y-60850509D01*
X199266778Y-60919453D01*
X199090082Y-60954600D01*
X198909918Y-60954600D01*
X198733222Y-60919453D01*
X198566776Y-60850509D01*
X198416978Y-60750417D01*
X198289583Y-60623022D01*
X198189491Y-60473224D01*
X198120547Y-60306778D01*
X198085400Y-60130082D01*
X198085400Y-59949918D01*
X198120547Y-59773222D01*
X198189491Y-59606776D01*
X198289583Y-59456978D01*
X198416978Y-59329583D01*
X198566776Y-59229491D01*
X198733222Y-59160547D01*
X198909918Y-59125400D01*
X199090082Y-59125400D01*
X199266778Y-59160547D01*
G37*
G36*
X154266778Y-59160547D02*
G01*
X154433224Y-59229491D01*
X154583022Y-59329583D01*
X154710417Y-59456978D01*
X154810509Y-59606776D01*
X154879453Y-59773222D01*
X154914600Y-59949918D01*
X154914600Y-60130082D01*
X154879453Y-60306778D01*
X154810509Y-60473224D01*
X154710417Y-60623022D01*
X154583022Y-60750417D01*
X154433224Y-60850509D01*
X154266778Y-60919453D01*
X154090082Y-60954600D01*
X153909918Y-60954600D01*
X153733222Y-60919453D01*
X153566776Y-60850509D01*
X153416978Y-60750417D01*
X153289583Y-60623022D01*
X153189491Y-60473224D01*
X153120547Y-60306778D01*
X153085400Y-60130082D01*
X153085400Y-59949918D01*
X153120547Y-59773222D01*
X153189491Y-59606776D01*
X153289583Y-59456978D01*
X153416978Y-59329583D01*
X153566776Y-59229491D01*
X153733222Y-59160547D01*
X153909918Y-59125400D01*
X154090082Y-59125400D01*
X154266778Y-59160547D01*
G37*
G36*
X64266778Y-59160547D02*
G01*
X64433224Y-59229491D01*
X64583022Y-59329583D01*
X64710417Y-59456978D01*
X64810509Y-59606776D01*
X64879453Y-59773222D01*
X64914600Y-59949918D01*
X64914600Y-60130082D01*
X64879453Y-60306778D01*
X64810509Y-60473224D01*
X64710417Y-60623022D01*
X64583022Y-60750417D01*
X64433224Y-60850509D01*
X64266778Y-60919453D01*
X64090082Y-60954600D01*
X63909918Y-60954600D01*
X63733222Y-60919453D01*
X63566776Y-60850509D01*
X63416978Y-60750417D01*
X63289583Y-60623022D01*
X63189491Y-60473224D01*
X63120547Y-60306778D01*
X63085400Y-60130082D01*
X63085400Y-59949918D01*
X63120547Y-59773222D01*
X63189491Y-59606776D01*
X63289583Y-59456978D01*
X63416978Y-59329583D01*
X63566776Y-59229491D01*
X63733222Y-59160547D01*
X63909918Y-59125400D01*
X64090082Y-59125400D01*
X64266778Y-59160547D01*
G37*
G36*
X109266778Y-59160547D02*
G01*
X109433224Y-59229491D01*
X109583022Y-59329583D01*
X109710417Y-59456978D01*
X109810509Y-59606776D01*
X109879453Y-59773222D01*
X109914600Y-59949918D01*
X109914600Y-60130082D01*
X109879453Y-60306778D01*
X109810509Y-60473224D01*
X109710417Y-60623022D01*
X109583022Y-60750417D01*
X109433224Y-60850509D01*
X109266778Y-60919453D01*
X109090082Y-60954600D01*
X108909918Y-60954600D01*
X108733222Y-60919453D01*
X108566776Y-60850509D01*
X108416978Y-60750417D01*
X108289583Y-60623022D01*
X108189491Y-60473224D01*
X108120547Y-60306778D01*
X108085400Y-60130082D01*
X108085400Y-59949918D01*
X108120547Y-59773222D01*
X108189491Y-59606776D01*
X108289583Y-59456978D01*
X108416978Y-59329583D01*
X108566776Y-59229491D01*
X108733222Y-59160547D01*
X108909918Y-59125400D01*
X109090082Y-59125400D01*
X109266778Y-59160547D01*
G37*
G36*
X66806778Y-59160547D02*
G01*
X66973224Y-59229491D01*
X67123022Y-59329583D01*
X67250417Y-59456978D01*
X67350509Y-59606776D01*
X67419453Y-59773222D01*
X67454600Y-59949918D01*
X67454600Y-60130082D01*
X67419453Y-60306778D01*
X67350509Y-60473224D01*
X67250417Y-60623022D01*
X67123022Y-60750417D01*
X66973224Y-60850509D01*
X66806778Y-60919453D01*
X66630082Y-60954600D01*
X66449918Y-60954600D01*
X66273222Y-60919453D01*
X66106776Y-60850509D01*
X65956978Y-60750417D01*
X65829583Y-60623022D01*
X65729491Y-60473224D01*
X65660547Y-60306778D01*
X65625400Y-60130082D01*
X65625400Y-59949918D01*
X65660547Y-59773222D01*
X65729491Y-59606776D01*
X65829583Y-59456978D01*
X65956978Y-59329583D01*
X66106776Y-59229491D01*
X66273222Y-59160547D01*
X66449918Y-59125400D01*
X66630082Y-59125400D01*
X66806778Y-59160547D01*
G37*
G36*
X87738228Y-59201703D02*
G01*
X87893100Y-59265853D01*
X88032481Y-59358985D01*
X88151015Y-59477519D01*
X88244147Y-59616900D01*
X88308297Y-59771772D01*
X88341000Y-59936184D01*
X88341000Y-60103816D01*
X88308297Y-60268228D01*
X88244147Y-60423100D01*
X88151015Y-60562481D01*
X88032481Y-60681015D01*
X87893100Y-60774147D01*
X87738228Y-60838297D01*
X87573816Y-60871000D01*
X87406184Y-60871000D01*
X87241772Y-60838297D01*
X87086900Y-60774147D01*
X86947519Y-60681015D01*
X86828985Y-60562481D01*
X86735853Y-60423100D01*
X86671703Y-60268228D01*
X86639000Y-60103816D01*
X86639000Y-59936184D01*
X86671703Y-59771772D01*
X86735853Y-59616900D01*
X86828985Y-59477519D01*
X86947519Y-59358985D01*
X87086900Y-59265853D01*
X87241772Y-59201703D01*
X87406184Y-59169000D01*
X87573816Y-59169000D01*
X87738228Y-59201703D01*
G37*
G36*
X72748228Y-59181703D02*
G01*
X72903100Y-59245853D01*
X73042481Y-59338985D01*
X73161015Y-59457519D01*
X73254147Y-59596900D01*
X73318297Y-59751772D01*
X73351000Y-59916184D01*
X73351000Y-60083816D01*
X73318297Y-60248228D01*
X73254147Y-60403100D01*
X73161015Y-60542481D01*
X73042481Y-60661015D01*
X72903100Y-60754147D01*
X72748228Y-60818297D01*
X72583816Y-60851000D01*
X72416184Y-60851000D01*
X72251772Y-60818297D01*
X72096900Y-60754147D01*
X71957519Y-60661015D01*
X71838985Y-60542481D01*
X71745853Y-60403100D01*
X71681703Y-60248228D01*
X71649000Y-60083816D01*
X71649000Y-59916184D01*
X71681703Y-59751772D01*
X71745853Y-59596900D01*
X71838985Y-59457519D01*
X71957519Y-59338985D01*
X72096900Y-59245853D01*
X72251772Y-59181703D01*
X72416184Y-59149000D01*
X72583816Y-59149000D01*
X72748228Y-59181703D01*
G37*
G36*
X48801000Y-58801000D02*
G01*
X46199000Y-58801000D01*
X46199000Y-56199000D01*
X48801000Y-56199000D01*
X48801000Y-58801000D01*
G37*
G36*
X216806778Y-56620547D02*
G01*
X216973224Y-56689491D01*
X217123022Y-56789583D01*
X217250417Y-56916978D01*
X217350509Y-57066776D01*
X217419453Y-57233222D01*
X217454600Y-57409918D01*
X217454600Y-57590082D01*
X217419453Y-57766778D01*
X217350509Y-57933224D01*
X217250417Y-58083022D01*
X217123022Y-58210417D01*
X216973224Y-58310509D01*
X216806778Y-58379453D01*
X216630082Y-58414600D01*
X216449918Y-58414600D01*
X216273222Y-58379453D01*
X216106776Y-58310509D01*
X215956978Y-58210417D01*
X215829583Y-58083022D01*
X215729491Y-57933224D01*
X215660547Y-57766778D01*
X215625400Y-57590082D01*
X215625400Y-57409918D01*
X215660547Y-57233222D01*
X215729491Y-57066776D01*
X215829583Y-56916978D01*
X215956978Y-56789583D01*
X216106776Y-56689491D01*
X216273222Y-56620547D01*
X216449918Y-56585400D01*
X216630082Y-56585400D01*
X216806778Y-56620547D01*
G37*
G36*
X124914600Y-58414600D02*
G01*
X123085400Y-58414600D01*
X123085400Y-56585400D01*
X124914600Y-56585400D01*
X124914600Y-58414600D01*
G37*
G36*
X81806778Y-56620547D02*
G01*
X81973224Y-56689491D01*
X82123022Y-56789583D01*
X82250417Y-56916978D01*
X82350509Y-57066776D01*
X82419453Y-57233222D01*
X82454600Y-57409918D01*
X82454600Y-57590082D01*
X82419453Y-57766778D01*
X82350509Y-57933224D01*
X82250417Y-58083022D01*
X82123022Y-58210417D01*
X81973224Y-58310509D01*
X81806778Y-58379453D01*
X81630082Y-58414600D01*
X81449918Y-58414600D01*
X81273222Y-58379453D01*
X81106776Y-58310509D01*
X80956978Y-58210417D01*
X80829583Y-58083022D01*
X80729491Y-57933224D01*
X80660547Y-57766778D01*
X80625400Y-57590082D01*
X80625400Y-57409918D01*
X80660547Y-57233222D01*
X80729491Y-57066776D01*
X80829583Y-56916978D01*
X80956978Y-56789583D01*
X81106776Y-56689491D01*
X81273222Y-56620547D01*
X81449918Y-56585400D01*
X81630082Y-56585400D01*
X81806778Y-56620547D01*
G37*
G36*
X109914600Y-58414600D02*
G01*
X108085400Y-58414600D01*
X108085400Y-56585400D01*
X109914600Y-56585400D01*
X109914600Y-58414600D01*
G37*
G36*
X111806778Y-56620547D02*
G01*
X111973224Y-56689491D01*
X112123022Y-56789583D01*
X112250417Y-56916978D01*
X112350509Y-57066776D01*
X112419453Y-57233222D01*
X112454600Y-57409918D01*
X112454600Y-57590082D01*
X112419453Y-57766778D01*
X112350509Y-57933224D01*
X112250417Y-58083022D01*
X112123022Y-58210417D01*
X111973224Y-58310509D01*
X111806778Y-58379453D01*
X111630082Y-58414600D01*
X111449918Y-58414600D01*
X111273222Y-58379453D01*
X111106776Y-58310509D01*
X110956978Y-58210417D01*
X110829583Y-58083022D01*
X110729491Y-57933224D01*
X110660547Y-57766778D01*
X110625400Y-57590082D01*
X110625400Y-57409918D01*
X110660547Y-57233222D01*
X110729491Y-57066776D01*
X110829583Y-56916978D01*
X110956978Y-56789583D01*
X111106776Y-56689491D01*
X111273222Y-56620547D01*
X111449918Y-56585400D01*
X111630082Y-56585400D01*
X111806778Y-56620547D01*
G37*
G36*
X66806778Y-56620547D02*
G01*
X66973224Y-56689491D01*
X67123022Y-56789583D01*
X67250417Y-56916978D01*
X67350509Y-57066776D01*
X67419453Y-57233222D01*
X67454600Y-57409918D01*
X67454600Y-57590082D01*
X67419453Y-57766778D01*
X67350509Y-57933224D01*
X67250417Y-58083022D01*
X67123022Y-58210417D01*
X66973224Y-58310509D01*
X66806778Y-58379453D01*
X66630082Y-58414600D01*
X66449918Y-58414600D01*
X66273222Y-58379453D01*
X66106776Y-58310509D01*
X65956978Y-58210417D01*
X65829583Y-58083022D01*
X65729491Y-57933224D01*
X65660547Y-57766778D01*
X65625400Y-57590082D01*
X65625400Y-57409918D01*
X65660547Y-57233222D01*
X65729491Y-57066776D01*
X65829583Y-56916978D01*
X65956978Y-56789583D01*
X66106776Y-56689491D01*
X66273222Y-56620547D01*
X66449918Y-56585400D01*
X66630082Y-56585400D01*
X66806778Y-56620547D01*
G37*
G36*
X64914600Y-58414600D02*
G01*
X63085400Y-58414600D01*
X63085400Y-56585400D01*
X64914600Y-56585400D01*
X64914600Y-58414600D01*
G37*
G36*
X231806778Y-56620547D02*
G01*
X231973224Y-56689491D01*
X232123022Y-56789583D01*
X232250417Y-56916978D01*
X232350509Y-57066776D01*
X232419453Y-57233222D01*
X232454600Y-57409918D01*
X232454600Y-57590082D01*
X232419453Y-57766778D01*
X232350509Y-57933224D01*
X232250417Y-58083022D01*
X232123022Y-58210417D01*
X231973224Y-58310509D01*
X231806778Y-58379453D01*
X231630082Y-58414600D01*
X231449918Y-58414600D01*
X231273222Y-58379453D01*
X231106776Y-58310509D01*
X230956978Y-58210417D01*
X230829583Y-58083022D01*
X230729491Y-57933224D01*
X230660547Y-57766778D01*
X230625400Y-57590082D01*
X230625400Y-57409918D01*
X230660547Y-57233222D01*
X230729491Y-57066776D01*
X230829583Y-56916978D01*
X230956978Y-56789583D01*
X231106776Y-56689491D01*
X231273222Y-56620547D01*
X231449918Y-56585400D01*
X231630082Y-56585400D01*
X231806778Y-56620547D01*
G37*
G36*
X229914600Y-58414600D02*
G01*
X228085400Y-58414600D01*
X228085400Y-56585400D01*
X229914600Y-56585400D01*
X229914600Y-58414600D01*
G37*
G36*
X214914600Y-58414600D02*
G01*
X213085400Y-58414600D01*
X213085400Y-56585400D01*
X214914600Y-56585400D01*
X214914600Y-58414600D01*
G37*
G36*
X94914600Y-58414600D02*
G01*
X93085400Y-58414600D01*
X93085400Y-56585400D01*
X94914600Y-56585400D01*
X94914600Y-58414600D01*
G37*
G36*
X96806778Y-56620547D02*
G01*
X96973224Y-56689491D01*
X97123022Y-56789583D01*
X97250417Y-56916978D01*
X97350509Y-57066776D01*
X97419453Y-57233222D01*
X97454600Y-57409918D01*
X97454600Y-57590082D01*
X97419453Y-57766778D01*
X97350509Y-57933224D01*
X97250417Y-58083022D01*
X97123022Y-58210417D01*
X96973224Y-58310509D01*
X96806778Y-58379453D01*
X96630082Y-58414600D01*
X96449918Y-58414600D01*
X96273222Y-58379453D01*
X96106776Y-58310509D01*
X95956978Y-58210417D01*
X95829583Y-58083022D01*
X95729491Y-57933224D01*
X95660547Y-57766778D01*
X95625400Y-57590082D01*
X95625400Y-57409918D01*
X95660547Y-57233222D01*
X95729491Y-57066776D01*
X95829583Y-56916978D01*
X95956978Y-56789583D01*
X96106776Y-56689491D01*
X96273222Y-56620547D01*
X96449918Y-56585400D01*
X96630082Y-56585400D01*
X96806778Y-56620547D01*
G37*
G36*
X171806778Y-56620547D02*
G01*
X171973224Y-56689491D01*
X172123022Y-56789583D01*
X172250417Y-56916978D01*
X172350509Y-57066776D01*
X172419453Y-57233222D01*
X172454600Y-57409918D01*
X172454600Y-57590082D01*
X172419453Y-57766778D01*
X172350509Y-57933224D01*
X172250417Y-58083022D01*
X172123022Y-58210417D01*
X171973224Y-58310509D01*
X171806778Y-58379453D01*
X171630082Y-58414600D01*
X171449918Y-58414600D01*
X171273222Y-58379453D01*
X171106776Y-58310509D01*
X170956978Y-58210417D01*
X170829583Y-58083022D01*
X170729491Y-57933224D01*
X170660547Y-57766778D01*
X170625400Y-57590082D01*
X170625400Y-57409918D01*
X170660547Y-57233222D01*
X170729491Y-57066776D01*
X170829583Y-56916978D01*
X170956978Y-56789583D01*
X171106776Y-56689491D01*
X171273222Y-56620547D01*
X171449918Y-56585400D01*
X171630082Y-56585400D01*
X171806778Y-56620547D01*
G37*
G36*
X199914600Y-58414600D02*
G01*
X198085400Y-58414600D01*
X198085400Y-56585400D01*
X199914600Y-56585400D01*
X199914600Y-58414600D01*
G37*
G36*
X126806778Y-56620547D02*
G01*
X126973224Y-56689491D01*
X127123022Y-56789583D01*
X127250417Y-56916978D01*
X127350509Y-57066776D01*
X127419453Y-57233222D01*
X127454600Y-57409918D01*
X127454600Y-57590082D01*
X127419453Y-57766778D01*
X127350509Y-57933224D01*
X127250417Y-58083022D01*
X127123022Y-58210417D01*
X126973224Y-58310509D01*
X126806778Y-58379453D01*
X126630082Y-58414600D01*
X126449918Y-58414600D01*
X126273222Y-58379453D01*
X126106776Y-58310509D01*
X125956978Y-58210417D01*
X125829583Y-58083022D01*
X125729491Y-57933224D01*
X125660547Y-57766778D01*
X125625400Y-57590082D01*
X125625400Y-57409918D01*
X125660547Y-57233222D01*
X125729491Y-57066776D01*
X125829583Y-56916978D01*
X125956978Y-56789583D01*
X126106776Y-56689491D01*
X126273222Y-56620547D01*
X126449918Y-56585400D01*
X126630082Y-56585400D01*
X126806778Y-56620547D01*
G37*
G36*
X139914600Y-58414600D02*
G01*
X138085400Y-58414600D01*
X138085400Y-56585400D01*
X139914600Y-56585400D01*
X139914600Y-58414600D01*
G37*
G36*
X141806778Y-56620547D02*
G01*
X141973224Y-56689491D01*
X142123022Y-56789583D01*
X142250417Y-56916978D01*
X142350509Y-57066776D01*
X142419453Y-57233222D01*
X142454600Y-57409918D01*
X142454600Y-57590082D01*
X142419453Y-57766778D01*
X142350509Y-57933224D01*
X142250417Y-58083022D01*
X142123022Y-58210417D01*
X141973224Y-58310509D01*
X141806778Y-58379453D01*
X141630082Y-58414600D01*
X141449918Y-58414600D01*
X141273222Y-58379453D01*
X141106776Y-58310509D01*
X140956978Y-58210417D01*
X140829583Y-58083022D01*
X140729491Y-57933224D01*
X140660547Y-57766778D01*
X140625400Y-57590082D01*
X140625400Y-57409918D01*
X140660547Y-57233222D01*
X140729491Y-57066776D01*
X140829583Y-56916978D01*
X140956978Y-56789583D01*
X141106776Y-56689491D01*
X141273222Y-56620547D01*
X141449918Y-56585400D01*
X141630082Y-56585400D01*
X141806778Y-56620547D01*
G37*
G36*
X186806778Y-56620547D02*
G01*
X186973224Y-56689491D01*
X187123022Y-56789583D01*
X187250417Y-56916978D01*
X187350509Y-57066776D01*
X187419453Y-57233222D01*
X187454600Y-57409918D01*
X187454600Y-57590082D01*
X187419453Y-57766778D01*
X187350509Y-57933224D01*
X187250417Y-58083022D01*
X187123022Y-58210417D01*
X186973224Y-58310509D01*
X186806778Y-58379453D01*
X186630082Y-58414600D01*
X186449918Y-58414600D01*
X186273222Y-58379453D01*
X186106776Y-58310509D01*
X185956978Y-58210417D01*
X185829583Y-58083022D01*
X185729491Y-57933224D01*
X185660547Y-57766778D01*
X185625400Y-57590082D01*
X185625400Y-57409918D01*
X185660547Y-57233222D01*
X185729491Y-57066776D01*
X185829583Y-56916978D01*
X185956978Y-56789583D01*
X186106776Y-56689491D01*
X186273222Y-56620547D01*
X186449918Y-56585400D01*
X186630082Y-56585400D01*
X186806778Y-56620547D01*
G37*
G36*
X184914600Y-58414600D02*
G01*
X183085400Y-58414600D01*
X183085400Y-56585400D01*
X184914600Y-56585400D01*
X184914600Y-58414600D01*
G37*
G36*
X154914600Y-58414600D02*
G01*
X153085400Y-58414600D01*
X153085400Y-56585400D01*
X154914600Y-56585400D01*
X154914600Y-58414600D01*
G37*
G36*
X156806778Y-56620547D02*
G01*
X156973224Y-56689491D01*
X157123022Y-56789583D01*
X157250417Y-56916978D01*
X157350509Y-57066776D01*
X157419453Y-57233222D01*
X157454600Y-57409918D01*
X157454600Y-57590082D01*
X157419453Y-57766778D01*
X157350509Y-57933224D01*
X157250417Y-58083022D01*
X157123022Y-58210417D01*
X156973224Y-58310509D01*
X156806778Y-58379453D01*
X156630082Y-58414600D01*
X156449918Y-58414600D01*
X156273222Y-58379453D01*
X156106776Y-58310509D01*
X155956978Y-58210417D01*
X155829583Y-58083022D01*
X155729491Y-57933224D01*
X155660547Y-57766778D01*
X155625400Y-57590082D01*
X155625400Y-57409918D01*
X155660547Y-57233222D01*
X155729491Y-57066776D01*
X155829583Y-56916978D01*
X155956978Y-56789583D01*
X156106776Y-56689491D01*
X156273222Y-56620547D01*
X156449918Y-56585400D01*
X156630082Y-56585400D01*
X156806778Y-56620547D01*
G37*
G36*
X79914600Y-58414600D02*
G01*
X78085400Y-58414600D01*
X78085400Y-56585400D01*
X79914600Y-56585400D01*
X79914600Y-58414600D01*
G37*
G36*
X169914600Y-58414600D02*
G01*
X168085400Y-58414600D01*
X168085400Y-56585400D01*
X169914600Y-56585400D01*
X169914600Y-58414600D01*
G37*
G36*
X201806778Y-56620547D02*
G01*
X201973224Y-56689491D01*
X202123022Y-56789583D01*
X202250417Y-56916978D01*
X202350509Y-57066776D01*
X202419453Y-57233222D01*
X202454600Y-57409918D01*
X202454600Y-57590082D01*
X202419453Y-57766778D01*
X202350509Y-57933224D01*
X202250417Y-58083022D01*
X202123022Y-58210417D01*
X201973224Y-58310509D01*
X201806778Y-58379453D01*
X201630082Y-58414600D01*
X201449918Y-58414600D01*
X201273222Y-58379453D01*
X201106776Y-58310509D01*
X200956978Y-58210417D01*
X200829583Y-58083022D01*
X200729491Y-57933224D01*
X200660547Y-57766778D01*
X200625400Y-57590082D01*
X200625400Y-57409918D01*
X200660547Y-57233222D01*
X200729491Y-57066776D01*
X200829583Y-56916978D01*
X200956978Y-56789583D01*
X201106776Y-56689491D01*
X201273222Y-56620547D01*
X201449918Y-56585400D01*
X201630082Y-56585400D01*
X201806778Y-56620547D01*
G37*
G36*
X89317395Y-55585546D02*
G01*
X89490466Y-55657234D01*
X89490467Y-55657235D01*
X89646227Y-55761310D01*
X89778690Y-55893773D01*
X89778691Y-55893775D01*
X89882766Y-56049534D01*
X89954454Y-56222605D01*
X89991000Y-56406333D01*
X89991000Y-56593667D01*
X89954454Y-56777395D01*
X89882766Y-56950466D01*
X89882765Y-56950467D01*
X89778690Y-57106227D01*
X89646227Y-57238690D01*
X89567818Y-57291081D01*
X89490466Y-57342766D01*
X89317395Y-57414454D01*
X89133667Y-57451000D01*
X88946333Y-57451000D01*
X88762605Y-57414454D01*
X88589534Y-57342766D01*
X88512182Y-57291081D01*
X88433773Y-57238690D01*
X88301310Y-57106227D01*
X88197235Y-56950467D01*
X88197234Y-56950466D01*
X88125546Y-56777395D01*
X88089000Y-56593667D01*
X88089000Y-56406333D01*
X88125546Y-56222605D01*
X88197234Y-56049534D01*
X88301309Y-55893775D01*
X88301310Y-55893773D01*
X88433773Y-55761310D01*
X88589533Y-55657235D01*
X88589534Y-55657234D01*
X88762605Y-55585546D01*
X88946333Y-55549000D01*
X89133667Y-55549000D01*
X89317395Y-55585546D01*
G37*
G36*
X87451000Y-57451000D02*
G01*
X85549000Y-57451000D01*
X85549000Y-55549000D01*
X87451000Y-55549000D01*
X87451000Y-57451000D01*
G37*
G36*
X72451000Y-57451000D02*
G01*
X70549000Y-57451000D01*
X70549000Y-55549000D01*
X72451000Y-55549000D01*
X72451000Y-57451000D01*
G37*
G36*
X74317395Y-55585546D02*
G01*
X74490466Y-55657234D01*
X74490467Y-55657235D01*
X74646227Y-55761310D01*
X74778690Y-55893773D01*
X74778691Y-55893775D01*
X74882766Y-56049534D01*
X74954454Y-56222605D01*
X74991000Y-56406333D01*
X74991000Y-56593667D01*
X74954454Y-56777395D01*
X74882766Y-56950466D01*
X74882765Y-56950467D01*
X74778690Y-57106227D01*
X74646227Y-57238690D01*
X74567818Y-57291081D01*
X74490466Y-57342766D01*
X74317395Y-57414454D01*
X74133667Y-57451000D01*
X73946333Y-57451000D01*
X73762605Y-57414454D01*
X73589534Y-57342766D01*
X73512182Y-57291081D01*
X73433773Y-57238690D01*
X73301310Y-57106227D01*
X73197235Y-56950467D01*
X73197234Y-56950466D01*
X73125546Y-56777395D01*
X73089000Y-56593667D01*
X73089000Y-56406333D01*
X73125546Y-56222605D01*
X73197234Y-56049534D01*
X73301309Y-55893775D01*
X73301310Y-55893773D01*
X73433773Y-55761310D01*
X73589533Y-55657235D01*
X73589534Y-55657234D01*
X73762605Y-55585546D01*
X73946333Y-55549000D01*
X74133667Y-55549000D01*
X74317395Y-55585546D01*
G37*
G36*
X103125256Y-52391298D02*
G01*
X103231579Y-52412447D01*
X103532042Y-52536903D01*
X103802451Y-52717585D01*
X104032415Y-52947549D01*
X104213097Y-53217958D01*
X104337553Y-53518421D01*
X104401000Y-53837391D01*
X104401000Y-54162609D01*
X104337553Y-54481579D01*
X104213097Y-54782042D01*
X104032415Y-55052451D01*
X103802451Y-55282415D01*
X103532042Y-55463097D01*
X103231579Y-55587553D01*
X103125256Y-55608702D01*
X102912611Y-55651000D01*
X102587389Y-55651000D01*
X102374744Y-55608702D01*
X102268421Y-55587553D01*
X101967958Y-55463097D01*
X101697549Y-55282415D01*
X101467585Y-55052451D01*
X101286903Y-54782042D01*
X101162447Y-54481579D01*
X101099000Y-54162609D01*
X101099000Y-53837391D01*
X101162447Y-53518421D01*
X101286903Y-53217958D01*
X101467585Y-52947549D01*
X101697549Y-52717585D01*
X101967958Y-52536903D01*
X102268421Y-52412447D01*
X102374744Y-52391298D01*
X102587389Y-52349000D01*
X102912611Y-52349000D01*
X103125256Y-52391298D01*
G37*
G36*
X148125256Y-52391298D02*
G01*
X148231579Y-52412447D01*
X148532042Y-52536903D01*
X148802451Y-52717585D01*
X149032415Y-52947549D01*
X149213097Y-53217958D01*
X149337553Y-53518421D01*
X149401000Y-53837391D01*
X149401000Y-54162609D01*
X149337553Y-54481579D01*
X149213097Y-54782042D01*
X149032415Y-55052451D01*
X148802451Y-55282415D01*
X148532042Y-55463097D01*
X148231579Y-55587553D01*
X148125256Y-55608702D01*
X147912611Y-55651000D01*
X147587389Y-55651000D01*
X147374744Y-55608702D01*
X147268421Y-55587553D01*
X146967958Y-55463097D01*
X146697549Y-55282415D01*
X146467585Y-55052451D01*
X146286903Y-54782042D01*
X146162447Y-54481579D01*
X146099000Y-54162609D01*
X146099000Y-53837391D01*
X146162447Y-53518421D01*
X146286903Y-53217958D01*
X146467585Y-52947549D01*
X146697549Y-52717585D01*
X146967958Y-52536903D01*
X147268421Y-52412447D01*
X147374744Y-52391298D01*
X147587389Y-52349000D01*
X147912611Y-52349000D01*
X148125256Y-52391298D01*
G37*
G36*
X193125256Y-52391298D02*
G01*
X193231579Y-52412447D01*
X193532042Y-52536903D01*
X193802451Y-52717585D01*
X194032415Y-52947549D01*
X194213097Y-53217958D01*
X194337553Y-53518421D01*
X194401000Y-53837391D01*
X194401000Y-54162609D01*
X194337553Y-54481579D01*
X194213097Y-54782042D01*
X194032415Y-55052451D01*
X193802451Y-55282415D01*
X193532042Y-55463097D01*
X193231579Y-55587553D01*
X193125256Y-55608702D01*
X192912611Y-55651000D01*
X192587389Y-55651000D01*
X192374744Y-55608702D01*
X192268421Y-55587553D01*
X191967958Y-55463097D01*
X191697549Y-55282415D01*
X191467585Y-55052451D01*
X191286903Y-54782042D01*
X191162447Y-54481579D01*
X191099000Y-54162609D01*
X191099000Y-53837391D01*
X191162447Y-53518421D01*
X191286903Y-53217958D01*
X191467585Y-52947549D01*
X191697549Y-52717585D01*
X191967958Y-52536903D01*
X192268421Y-52412447D01*
X192374744Y-52391298D01*
X192587389Y-52349000D01*
X192912611Y-52349000D01*
X193125256Y-52391298D01*
G37*
G36*
X238125256Y-52391298D02*
G01*
X238231579Y-52412447D01*
X238532042Y-52536903D01*
X238802451Y-52717585D01*
X239032415Y-52947549D01*
X239213097Y-53217958D01*
X239337553Y-53518421D01*
X239401000Y-53837391D01*
X239401000Y-54162609D01*
X239337553Y-54481579D01*
X239213097Y-54782042D01*
X239032415Y-55052451D01*
X238802451Y-55282415D01*
X238532042Y-55463097D01*
X238231579Y-55587553D01*
X238125256Y-55608702D01*
X237912611Y-55651000D01*
X237587389Y-55651000D01*
X237374744Y-55608702D01*
X237268421Y-55587553D01*
X236967958Y-55463097D01*
X236697549Y-55282415D01*
X236467585Y-55052451D01*
X236286903Y-54782042D01*
X236162447Y-54481579D01*
X236099000Y-54162609D01*
X236099000Y-53837391D01*
X236162447Y-53518421D01*
X236286903Y-53217958D01*
X236467585Y-52947549D01*
X236697549Y-52717585D01*
X236967958Y-52536903D01*
X237268421Y-52412447D01*
X237374744Y-52391298D01*
X237587389Y-52349000D01*
X237912611Y-52349000D01*
X238125256Y-52391298D01*
G37*
G36*
X58125256Y-52391298D02*
G01*
X58231579Y-52412447D01*
X58532042Y-52536903D01*
X58802451Y-52717585D01*
X59032415Y-52947549D01*
X59213097Y-53217958D01*
X59337553Y-53518421D01*
X59401000Y-53837391D01*
X59401000Y-54162609D01*
X59337553Y-54481579D01*
X59213097Y-54782042D01*
X59032415Y-55052451D01*
X58802451Y-55282415D01*
X58532042Y-55463097D01*
X58231579Y-55587553D01*
X58125256Y-55608702D01*
X57912611Y-55651000D01*
X57587389Y-55651000D01*
X57374744Y-55608702D01*
X57268421Y-55587553D01*
X56967958Y-55463097D01*
X56697549Y-55282415D01*
X56467585Y-55052451D01*
X56286903Y-54782042D01*
X56162447Y-54481579D01*
X56099000Y-54162609D01*
X56099000Y-53837391D01*
X56162447Y-53518421D01*
X56286903Y-53217958D01*
X56467585Y-52947549D01*
X56697549Y-52717585D01*
X56967958Y-52536903D01*
X57268421Y-52412447D01*
X57374744Y-52391298D01*
X57587389Y-52349000D01*
X57912611Y-52349000D01*
X58125256Y-52391298D01*
G37*
M02*
