G04 #@! TF.GenerationSoftware,KiCad,Pcbnew,5.1.6-c6e7f7d~86~ubuntu18.04.1*
G04 #@! TF.CreationDate,2020-08-05T17:06:35-04:00*
G04 #@! TF.ProjectId,busboard10,62757362-6f61-4726-9431-302e6b696361,rev?*
G04 #@! TF.SameCoordinates,Original*
G04 #@! TF.FileFunction,Copper,L1,Top*
G04 #@! TF.FilePolarity,Positive*
%FSLAX46Y46*%
G04 Gerber Fmt 4.6, Leading zero omitted, Abs format (unit mm)*
G04 Created by KiCad (PCBNEW 5.1.6-c6e7f7d~86~ubuntu18.04.1) date 2020-08-05 17:06:35*
%MOMM*%
%LPD*%
G01*
G04 APERTURE LIST*
G04 #@! TA.AperFunction,ComponentPad*
%ADD10C,2.500000*%
G04 #@! TD*
G04 #@! TA.AperFunction,ComponentPad*
%ADD11R,2.500000X2.500000*%
G04 #@! TD*
G04 #@! TA.AperFunction,ComponentPad*
%ADD12C,1.600000*%
G04 #@! TD*
G04 #@! TA.AperFunction,ComponentPad*
%ADD13O,1.600000X1.600000*%
G04 #@! TD*
G04 #@! TA.AperFunction,ComponentPad*
%ADD14O,1.727200X1.727200*%
G04 #@! TD*
G04 #@! TA.AperFunction,ComponentPad*
%ADD15R,1.727200X1.727200*%
G04 #@! TD*
G04 #@! TA.AperFunction,ComponentPad*
%ADD16C,1.800000*%
G04 #@! TD*
G04 #@! TA.AperFunction,ComponentPad*
%ADD17R,1.800000X1.800000*%
G04 #@! TD*
G04 #@! TA.AperFunction,Conductor*
%ADD18C,0.254000*%
G04 #@! TD*
G04 APERTURE END LIST*
D10*
X47500000Y-67500000D03*
X47500000Y-62500000D03*
D11*
X47500000Y-57500000D03*
D12*
X87490000Y-67640000D03*
D13*
X87490000Y-60020000D03*
D14*
X231540000Y-67660000D03*
X229000000Y-67660000D03*
X231540000Y-65120000D03*
X229000000Y-65120000D03*
X231540000Y-62580000D03*
X229000000Y-62580000D03*
X231540000Y-60040000D03*
X229000000Y-60040000D03*
X231540000Y-57500000D03*
D15*
X229000000Y-57500000D03*
D14*
X141540000Y-67660000D03*
X139000000Y-67660000D03*
X141540000Y-65120000D03*
X139000000Y-65120000D03*
X141540000Y-62580000D03*
X139000000Y-62580000D03*
X141540000Y-60040000D03*
X139000000Y-60040000D03*
X141540000Y-57500000D03*
D15*
X139000000Y-57500000D03*
D14*
X201540000Y-67660000D03*
X199000000Y-67660000D03*
X201540000Y-65120000D03*
X199000000Y-65120000D03*
X201540000Y-62580000D03*
X199000000Y-62580000D03*
X201540000Y-60040000D03*
X199000000Y-60040000D03*
X201540000Y-57500000D03*
D15*
X199000000Y-57500000D03*
D14*
X111540000Y-67660000D03*
X109000000Y-67660000D03*
X111540000Y-65120000D03*
X109000000Y-65120000D03*
X111540000Y-62580000D03*
X109000000Y-62580000D03*
X111540000Y-60040000D03*
X109000000Y-60040000D03*
X111540000Y-57500000D03*
D15*
X109000000Y-57500000D03*
D14*
X171540000Y-67660000D03*
X169000000Y-67660000D03*
X171540000Y-65120000D03*
X169000000Y-65120000D03*
X171540000Y-62580000D03*
X169000000Y-62580000D03*
X171540000Y-60040000D03*
X169000000Y-60040000D03*
X171540000Y-57500000D03*
D15*
X169000000Y-57500000D03*
D14*
X81540000Y-67660000D03*
X79000000Y-67660000D03*
X81540000Y-65120000D03*
X79000000Y-65120000D03*
X81540000Y-62580000D03*
X79000000Y-62580000D03*
X81540000Y-60040000D03*
X79000000Y-60040000D03*
X81540000Y-57500000D03*
D15*
X79000000Y-57500000D03*
D14*
X216540000Y-67660000D03*
X214000000Y-67660000D03*
X216540000Y-65120000D03*
X214000000Y-65120000D03*
X216540000Y-62580000D03*
X214000000Y-62580000D03*
X216540000Y-60040000D03*
X214000000Y-60040000D03*
X216540000Y-57500000D03*
D15*
X214000000Y-57500000D03*
D14*
X126540000Y-67660000D03*
X124000000Y-67660000D03*
X126540000Y-65120000D03*
X124000000Y-65120000D03*
X126540000Y-62580000D03*
X124000000Y-62580000D03*
X126540000Y-60040000D03*
X124000000Y-60040000D03*
X126540000Y-57500000D03*
D15*
X124000000Y-57500000D03*
D14*
X186540000Y-67660000D03*
X184000000Y-67660000D03*
X186540000Y-65120000D03*
X184000000Y-65120000D03*
X186540000Y-62580000D03*
X184000000Y-62580000D03*
X186540000Y-60040000D03*
X184000000Y-60040000D03*
X186540000Y-57500000D03*
D15*
X184000000Y-57500000D03*
D14*
X96540000Y-67660000D03*
X94000000Y-67660000D03*
X96540000Y-65120000D03*
X94000000Y-65120000D03*
X96540000Y-62580000D03*
X94000000Y-62580000D03*
X96540000Y-60040000D03*
X94000000Y-60040000D03*
X96540000Y-57500000D03*
D15*
X94000000Y-57500000D03*
D14*
X156540000Y-67660000D03*
X154000000Y-67660000D03*
X156540000Y-65120000D03*
X154000000Y-65120000D03*
X156540000Y-62580000D03*
X154000000Y-62580000D03*
X156540000Y-60040000D03*
X154000000Y-60040000D03*
X156540000Y-57500000D03*
D15*
X154000000Y-57500000D03*
D14*
X66540000Y-67660000D03*
X64000000Y-67660000D03*
X66540000Y-65120000D03*
X64000000Y-65120000D03*
X66540000Y-62580000D03*
X64000000Y-62580000D03*
X66540000Y-60040000D03*
X64000000Y-60040000D03*
X66540000Y-57500000D03*
D15*
X64000000Y-57500000D03*
D16*
X74040000Y-56500000D03*
D17*
X71500000Y-56500000D03*
X86500000Y-56500000D03*
D16*
X89040000Y-56500000D03*
D13*
X72500000Y-67620000D03*
D12*
X72500000Y-60000000D03*
D18*
G36*
X241290001Y-74290000D02*
G01*
X42710000Y-74290000D01*
X42710000Y-71029872D01*
X55515000Y-71029872D01*
X55515000Y-71470128D01*
X55600890Y-71901925D01*
X55769369Y-72308669D01*
X56013962Y-72674729D01*
X56325271Y-72986038D01*
X56691331Y-73230631D01*
X57098075Y-73399110D01*
X57529872Y-73485000D01*
X57970128Y-73485000D01*
X58401925Y-73399110D01*
X58808669Y-73230631D01*
X59174729Y-72986038D01*
X59486038Y-72674729D01*
X59730631Y-72308669D01*
X59899110Y-71901925D01*
X59985000Y-71470128D01*
X59985000Y-71029872D01*
X100515000Y-71029872D01*
X100515000Y-71470128D01*
X100600890Y-71901925D01*
X100769369Y-72308669D01*
X101013962Y-72674729D01*
X101325271Y-72986038D01*
X101691331Y-73230631D01*
X102098075Y-73399110D01*
X102529872Y-73485000D01*
X102970128Y-73485000D01*
X103401925Y-73399110D01*
X103808669Y-73230631D01*
X104174729Y-72986038D01*
X104486038Y-72674729D01*
X104730631Y-72308669D01*
X104899110Y-71901925D01*
X104985000Y-71470128D01*
X104985000Y-71029872D01*
X145515000Y-71029872D01*
X145515000Y-71470128D01*
X145600890Y-71901925D01*
X145769369Y-72308669D01*
X146013962Y-72674729D01*
X146325271Y-72986038D01*
X146691331Y-73230631D01*
X147098075Y-73399110D01*
X147529872Y-73485000D01*
X147970128Y-73485000D01*
X148401925Y-73399110D01*
X148808669Y-73230631D01*
X149174729Y-72986038D01*
X149486038Y-72674729D01*
X149730631Y-72308669D01*
X149899110Y-71901925D01*
X149985000Y-71470128D01*
X149985000Y-71029872D01*
X190515000Y-71029872D01*
X190515000Y-71470128D01*
X190600890Y-71901925D01*
X190769369Y-72308669D01*
X191013962Y-72674729D01*
X191325271Y-72986038D01*
X191691331Y-73230631D01*
X192098075Y-73399110D01*
X192529872Y-73485000D01*
X192970128Y-73485000D01*
X193401925Y-73399110D01*
X193808669Y-73230631D01*
X194174729Y-72986038D01*
X194486038Y-72674729D01*
X194730631Y-72308669D01*
X194899110Y-71901925D01*
X194985000Y-71470128D01*
X194985000Y-71029872D01*
X235515000Y-71029872D01*
X235515000Y-71470128D01*
X235600890Y-71901925D01*
X235769369Y-72308669D01*
X236013962Y-72674729D01*
X236325271Y-72986038D01*
X236691331Y-73230631D01*
X237098075Y-73399110D01*
X237529872Y-73485000D01*
X237970128Y-73485000D01*
X238401925Y-73399110D01*
X238808669Y-73230631D01*
X239174729Y-72986038D01*
X239486038Y-72674729D01*
X239730631Y-72308669D01*
X239899110Y-71901925D01*
X239985000Y-71470128D01*
X239985000Y-71029872D01*
X239899110Y-70598075D01*
X239730631Y-70191331D01*
X239486038Y-69825271D01*
X239174729Y-69513962D01*
X238808669Y-69269369D01*
X238401925Y-69100890D01*
X237970128Y-69015000D01*
X237529872Y-69015000D01*
X237098075Y-69100890D01*
X236691331Y-69269369D01*
X236325271Y-69513962D01*
X236013962Y-69825271D01*
X235769369Y-70191331D01*
X235600890Y-70598075D01*
X235515000Y-71029872D01*
X194985000Y-71029872D01*
X194899110Y-70598075D01*
X194730631Y-70191331D01*
X194486038Y-69825271D01*
X194174729Y-69513962D01*
X193808669Y-69269369D01*
X193401925Y-69100890D01*
X192970128Y-69015000D01*
X192529872Y-69015000D01*
X192098075Y-69100890D01*
X191691331Y-69269369D01*
X191325271Y-69513962D01*
X191013962Y-69825271D01*
X190769369Y-70191331D01*
X190600890Y-70598075D01*
X190515000Y-71029872D01*
X149985000Y-71029872D01*
X149899110Y-70598075D01*
X149730631Y-70191331D01*
X149486038Y-69825271D01*
X149174729Y-69513962D01*
X148808669Y-69269369D01*
X148401925Y-69100890D01*
X147970128Y-69015000D01*
X147529872Y-69015000D01*
X147098075Y-69100890D01*
X146691331Y-69269369D01*
X146325271Y-69513962D01*
X146013962Y-69825271D01*
X145769369Y-70191331D01*
X145600890Y-70598075D01*
X145515000Y-71029872D01*
X104985000Y-71029872D01*
X104899110Y-70598075D01*
X104730631Y-70191331D01*
X104486038Y-69825271D01*
X104174729Y-69513962D01*
X103808669Y-69269369D01*
X103401925Y-69100890D01*
X102970128Y-69015000D01*
X102529872Y-69015000D01*
X102098075Y-69100890D01*
X101691331Y-69269369D01*
X101325271Y-69513962D01*
X101013962Y-69825271D01*
X100769369Y-70191331D01*
X100600890Y-70598075D01*
X100515000Y-71029872D01*
X59985000Y-71029872D01*
X59899110Y-70598075D01*
X59730631Y-70191331D01*
X59486038Y-69825271D01*
X59174729Y-69513962D01*
X58808669Y-69269369D01*
X58401925Y-69100890D01*
X57970128Y-69015000D01*
X57529872Y-69015000D01*
X57098075Y-69100890D01*
X56691331Y-69269369D01*
X56325271Y-69513962D01*
X56013962Y-69825271D01*
X55769369Y-70191331D01*
X55600890Y-70598075D01*
X55515000Y-71029872D01*
X42710000Y-71029872D01*
X42710000Y-67314344D01*
X45615000Y-67314344D01*
X45615000Y-67685656D01*
X45687439Y-68049834D01*
X45829534Y-68392882D01*
X46035825Y-68701618D01*
X46298382Y-68964175D01*
X46607118Y-69170466D01*
X46950166Y-69312561D01*
X47314344Y-69385000D01*
X47685656Y-69385000D01*
X48049834Y-69312561D01*
X48392882Y-69170466D01*
X48701618Y-68964175D01*
X48964175Y-68701618D01*
X49170466Y-68392882D01*
X49312561Y-68049834D01*
X49385000Y-67685656D01*
X49385000Y-67512401D01*
X62501400Y-67512401D01*
X62501400Y-67807599D01*
X62558990Y-68097125D01*
X62671958Y-68369853D01*
X62835961Y-68615302D01*
X63044698Y-68824039D01*
X63290147Y-68988042D01*
X63562875Y-69101010D01*
X63852401Y-69158600D01*
X64147599Y-69158600D01*
X64437125Y-69101010D01*
X64709853Y-68988042D01*
X64955302Y-68824039D01*
X65164039Y-68615302D01*
X65270000Y-68456719D01*
X65375961Y-68615302D01*
X65584698Y-68824039D01*
X65830147Y-68988042D01*
X66102875Y-69101010D01*
X66392401Y-69158600D01*
X66687599Y-69158600D01*
X66977125Y-69101010D01*
X67249853Y-68988042D01*
X67495302Y-68824039D01*
X67704039Y-68615302D01*
X67868042Y-68369853D01*
X67981010Y-68097125D01*
X68038600Y-67807599D01*
X68038600Y-67512401D01*
X68031890Y-67478665D01*
X71065000Y-67478665D01*
X71065000Y-67761335D01*
X71120147Y-68038574D01*
X71228320Y-68299727D01*
X71385363Y-68534759D01*
X71585241Y-68734637D01*
X71820273Y-68891680D01*
X72081426Y-68999853D01*
X72358665Y-69055000D01*
X72641335Y-69055000D01*
X72918574Y-68999853D01*
X73179727Y-68891680D01*
X73414759Y-68734637D01*
X73614637Y-68534759D01*
X73771680Y-68299727D01*
X73879853Y-68038574D01*
X73935000Y-67761335D01*
X73935000Y-67512401D01*
X77501400Y-67512401D01*
X77501400Y-67807599D01*
X77558990Y-68097125D01*
X77671958Y-68369853D01*
X77835961Y-68615302D01*
X78044698Y-68824039D01*
X78290147Y-68988042D01*
X78562875Y-69101010D01*
X78852401Y-69158600D01*
X79147599Y-69158600D01*
X79437125Y-69101010D01*
X79709853Y-68988042D01*
X79955302Y-68824039D01*
X80164039Y-68615302D01*
X80270000Y-68456719D01*
X80375961Y-68615302D01*
X80584698Y-68824039D01*
X80830147Y-68988042D01*
X81102875Y-69101010D01*
X81392401Y-69158600D01*
X81687599Y-69158600D01*
X81977125Y-69101010D01*
X82249853Y-68988042D01*
X82495302Y-68824039D01*
X82686639Y-68632702D01*
X86676903Y-68632702D01*
X86748486Y-68876671D01*
X87003996Y-68997571D01*
X87278184Y-69066300D01*
X87560512Y-69080217D01*
X87840130Y-69038787D01*
X88106292Y-68943603D01*
X88231514Y-68876671D01*
X88303097Y-68632702D01*
X87490000Y-67819605D01*
X86676903Y-68632702D01*
X82686639Y-68632702D01*
X82704039Y-68615302D01*
X82868042Y-68369853D01*
X82981010Y-68097125D01*
X83038600Y-67807599D01*
X83038600Y-67710512D01*
X86049783Y-67710512D01*
X86091213Y-67990130D01*
X86186397Y-68256292D01*
X86253329Y-68381514D01*
X86497298Y-68453097D01*
X87310395Y-67640000D01*
X87669605Y-67640000D01*
X88482702Y-68453097D01*
X88726671Y-68381514D01*
X88847571Y-68126004D01*
X88916300Y-67851816D01*
X88930217Y-67569488D01*
X88921759Y-67512401D01*
X92501400Y-67512401D01*
X92501400Y-67807599D01*
X92558990Y-68097125D01*
X92671958Y-68369853D01*
X92835961Y-68615302D01*
X93044698Y-68824039D01*
X93290147Y-68988042D01*
X93562875Y-69101010D01*
X93852401Y-69158600D01*
X94147599Y-69158600D01*
X94437125Y-69101010D01*
X94709853Y-68988042D01*
X94955302Y-68824039D01*
X95164039Y-68615302D01*
X95270000Y-68456719D01*
X95375961Y-68615302D01*
X95584698Y-68824039D01*
X95830147Y-68988042D01*
X96102875Y-69101010D01*
X96392401Y-69158600D01*
X96687599Y-69158600D01*
X96977125Y-69101010D01*
X97249853Y-68988042D01*
X97495302Y-68824039D01*
X97704039Y-68615302D01*
X97868042Y-68369853D01*
X97981010Y-68097125D01*
X98038600Y-67807599D01*
X98038600Y-67512401D01*
X107501400Y-67512401D01*
X107501400Y-67807599D01*
X107558990Y-68097125D01*
X107671958Y-68369853D01*
X107835961Y-68615302D01*
X108044698Y-68824039D01*
X108290147Y-68988042D01*
X108562875Y-69101010D01*
X108852401Y-69158600D01*
X109147599Y-69158600D01*
X109437125Y-69101010D01*
X109709853Y-68988042D01*
X109955302Y-68824039D01*
X110164039Y-68615302D01*
X110270000Y-68456719D01*
X110375961Y-68615302D01*
X110584698Y-68824039D01*
X110830147Y-68988042D01*
X111102875Y-69101010D01*
X111392401Y-69158600D01*
X111687599Y-69158600D01*
X111977125Y-69101010D01*
X112249853Y-68988042D01*
X112495302Y-68824039D01*
X112704039Y-68615302D01*
X112868042Y-68369853D01*
X112981010Y-68097125D01*
X113038600Y-67807599D01*
X113038600Y-67512401D01*
X122501400Y-67512401D01*
X122501400Y-67807599D01*
X122558990Y-68097125D01*
X122671958Y-68369853D01*
X122835961Y-68615302D01*
X123044698Y-68824039D01*
X123290147Y-68988042D01*
X123562875Y-69101010D01*
X123852401Y-69158600D01*
X124147599Y-69158600D01*
X124437125Y-69101010D01*
X124709853Y-68988042D01*
X124955302Y-68824039D01*
X125164039Y-68615302D01*
X125270000Y-68456719D01*
X125375961Y-68615302D01*
X125584698Y-68824039D01*
X125830147Y-68988042D01*
X126102875Y-69101010D01*
X126392401Y-69158600D01*
X126687599Y-69158600D01*
X126977125Y-69101010D01*
X127249853Y-68988042D01*
X127495302Y-68824039D01*
X127704039Y-68615302D01*
X127868042Y-68369853D01*
X127981010Y-68097125D01*
X128038600Y-67807599D01*
X128038600Y-67512401D01*
X137501400Y-67512401D01*
X137501400Y-67807599D01*
X137558990Y-68097125D01*
X137671958Y-68369853D01*
X137835961Y-68615302D01*
X138044698Y-68824039D01*
X138290147Y-68988042D01*
X138562875Y-69101010D01*
X138852401Y-69158600D01*
X139147599Y-69158600D01*
X139437125Y-69101010D01*
X139709853Y-68988042D01*
X139955302Y-68824039D01*
X140164039Y-68615302D01*
X140270000Y-68456719D01*
X140375961Y-68615302D01*
X140584698Y-68824039D01*
X140830147Y-68988042D01*
X141102875Y-69101010D01*
X141392401Y-69158600D01*
X141687599Y-69158600D01*
X141977125Y-69101010D01*
X142249853Y-68988042D01*
X142495302Y-68824039D01*
X142704039Y-68615302D01*
X142868042Y-68369853D01*
X142981010Y-68097125D01*
X143038600Y-67807599D01*
X143038600Y-67512401D01*
X152501400Y-67512401D01*
X152501400Y-67807599D01*
X152558990Y-68097125D01*
X152671958Y-68369853D01*
X152835961Y-68615302D01*
X153044698Y-68824039D01*
X153290147Y-68988042D01*
X153562875Y-69101010D01*
X153852401Y-69158600D01*
X154147599Y-69158600D01*
X154437125Y-69101010D01*
X154709853Y-68988042D01*
X154955302Y-68824039D01*
X155164039Y-68615302D01*
X155270000Y-68456719D01*
X155375961Y-68615302D01*
X155584698Y-68824039D01*
X155830147Y-68988042D01*
X156102875Y-69101010D01*
X156392401Y-69158600D01*
X156687599Y-69158600D01*
X156977125Y-69101010D01*
X157249853Y-68988042D01*
X157495302Y-68824039D01*
X157704039Y-68615302D01*
X157868042Y-68369853D01*
X157981010Y-68097125D01*
X158038600Y-67807599D01*
X158038600Y-67512401D01*
X167501400Y-67512401D01*
X167501400Y-67807599D01*
X167558990Y-68097125D01*
X167671958Y-68369853D01*
X167835961Y-68615302D01*
X168044698Y-68824039D01*
X168290147Y-68988042D01*
X168562875Y-69101010D01*
X168852401Y-69158600D01*
X169147599Y-69158600D01*
X169437125Y-69101010D01*
X169709853Y-68988042D01*
X169955302Y-68824039D01*
X170164039Y-68615302D01*
X170270000Y-68456719D01*
X170375961Y-68615302D01*
X170584698Y-68824039D01*
X170830147Y-68988042D01*
X171102875Y-69101010D01*
X171392401Y-69158600D01*
X171687599Y-69158600D01*
X171977125Y-69101010D01*
X172249853Y-68988042D01*
X172495302Y-68824039D01*
X172704039Y-68615302D01*
X172868042Y-68369853D01*
X172981010Y-68097125D01*
X173038600Y-67807599D01*
X173038600Y-67512401D01*
X182501400Y-67512401D01*
X182501400Y-67807599D01*
X182558990Y-68097125D01*
X182671958Y-68369853D01*
X182835961Y-68615302D01*
X183044698Y-68824039D01*
X183290147Y-68988042D01*
X183562875Y-69101010D01*
X183852401Y-69158600D01*
X184147599Y-69158600D01*
X184437125Y-69101010D01*
X184709853Y-68988042D01*
X184955302Y-68824039D01*
X185164039Y-68615302D01*
X185270000Y-68456719D01*
X185375961Y-68615302D01*
X185584698Y-68824039D01*
X185830147Y-68988042D01*
X186102875Y-69101010D01*
X186392401Y-69158600D01*
X186687599Y-69158600D01*
X186977125Y-69101010D01*
X187249853Y-68988042D01*
X187495302Y-68824039D01*
X187704039Y-68615302D01*
X187868042Y-68369853D01*
X187981010Y-68097125D01*
X188038600Y-67807599D01*
X188038600Y-67512401D01*
X197501400Y-67512401D01*
X197501400Y-67807599D01*
X197558990Y-68097125D01*
X197671958Y-68369853D01*
X197835961Y-68615302D01*
X198044698Y-68824039D01*
X198290147Y-68988042D01*
X198562875Y-69101010D01*
X198852401Y-69158600D01*
X199147599Y-69158600D01*
X199437125Y-69101010D01*
X199709853Y-68988042D01*
X199955302Y-68824039D01*
X200164039Y-68615302D01*
X200270000Y-68456719D01*
X200375961Y-68615302D01*
X200584698Y-68824039D01*
X200830147Y-68988042D01*
X201102875Y-69101010D01*
X201392401Y-69158600D01*
X201687599Y-69158600D01*
X201977125Y-69101010D01*
X202249853Y-68988042D01*
X202495302Y-68824039D01*
X202704039Y-68615302D01*
X202868042Y-68369853D01*
X202981010Y-68097125D01*
X203038600Y-67807599D01*
X203038600Y-67512401D01*
X212501400Y-67512401D01*
X212501400Y-67807599D01*
X212558990Y-68097125D01*
X212671958Y-68369853D01*
X212835961Y-68615302D01*
X213044698Y-68824039D01*
X213290147Y-68988042D01*
X213562875Y-69101010D01*
X213852401Y-69158600D01*
X214147599Y-69158600D01*
X214437125Y-69101010D01*
X214709853Y-68988042D01*
X214955302Y-68824039D01*
X215164039Y-68615302D01*
X215270000Y-68456719D01*
X215375961Y-68615302D01*
X215584698Y-68824039D01*
X215830147Y-68988042D01*
X216102875Y-69101010D01*
X216392401Y-69158600D01*
X216687599Y-69158600D01*
X216977125Y-69101010D01*
X217249853Y-68988042D01*
X217495302Y-68824039D01*
X217704039Y-68615302D01*
X217868042Y-68369853D01*
X217981010Y-68097125D01*
X218038600Y-67807599D01*
X218038600Y-67512401D01*
X227501400Y-67512401D01*
X227501400Y-67807599D01*
X227558990Y-68097125D01*
X227671958Y-68369853D01*
X227835961Y-68615302D01*
X228044698Y-68824039D01*
X228290147Y-68988042D01*
X228562875Y-69101010D01*
X228852401Y-69158600D01*
X229147599Y-69158600D01*
X229437125Y-69101010D01*
X229709853Y-68988042D01*
X229955302Y-68824039D01*
X230164039Y-68615302D01*
X230270000Y-68456719D01*
X230375961Y-68615302D01*
X230584698Y-68824039D01*
X230830147Y-68988042D01*
X231102875Y-69101010D01*
X231392401Y-69158600D01*
X231687599Y-69158600D01*
X231977125Y-69101010D01*
X232249853Y-68988042D01*
X232495302Y-68824039D01*
X232704039Y-68615302D01*
X232868042Y-68369853D01*
X232981010Y-68097125D01*
X233038600Y-67807599D01*
X233038600Y-67512401D01*
X232981010Y-67222875D01*
X232868042Y-66950147D01*
X232704039Y-66704698D01*
X232495302Y-66495961D01*
X232329897Y-66385441D01*
X232428488Y-66326817D01*
X232646854Y-66130293D01*
X232822684Y-65894944D01*
X232949222Y-65629814D01*
X232994958Y-65479026D01*
X232873817Y-65247000D01*
X231667000Y-65247000D01*
X231667000Y-65267000D01*
X231413000Y-65267000D01*
X231413000Y-65247000D01*
X229127000Y-65247000D01*
X229127000Y-65267000D01*
X228873000Y-65267000D01*
X228873000Y-65247000D01*
X227666183Y-65247000D01*
X227545042Y-65479026D01*
X227590778Y-65629814D01*
X227717316Y-65894944D01*
X227893146Y-66130293D01*
X228111512Y-66326817D01*
X228210103Y-66385441D01*
X228044698Y-66495961D01*
X227835961Y-66704698D01*
X227671958Y-66950147D01*
X227558990Y-67222875D01*
X227501400Y-67512401D01*
X218038600Y-67512401D01*
X217981010Y-67222875D01*
X217868042Y-66950147D01*
X217704039Y-66704698D01*
X217495302Y-66495961D01*
X217329897Y-66385441D01*
X217428488Y-66326817D01*
X217646854Y-66130293D01*
X217822684Y-65894944D01*
X217949222Y-65629814D01*
X217994958Y-65479026D01*
X217873817Y-65247000D01*
X216667000Y-65247000D01*
X216667000Y-65267000D01*
X216413000Y-65267000D01*
X216413000Y-65247000D01*
X214127000Y-65247000D01*
X214127000Y-65267000D01*
X213873000Y-65267000D01*
X213873000Y-65247000D01*
X212666183Y-65247000D01*
X212545042Y-65479026D01*
X212590778Y-65629814D01*
X212717316Y-65894944D01*
X212893146Y-66130293D01*
X213111512Y-66326817D01*
X213210103Y-66385441D01*
X213044698Y-66495961D01*
X212835961Y-66704698D01*
X212671958Y-66950147D01*
X212558990Y-67222875D01*
X212501400Y-67512401D01*
X203038600Y-67512401D01*
X202981010Y-67222875D01*
X202868042Y-66950147D01*
X202704039Y-66704698D01*
X202495302Y-66495961D01*
X202329897Y-66385441D01*
X202428488Y-66326817D01*
X202646854Y-66130293D01*
X202822684Y-65894944D01*
X202949222Y-65629814D01*
X202994958Y-65479026D01*
X202873817Y-65247000D01*
X201667000Y-65247000D01*
X201667000Y-65267000D01*
X201413000Y-65267000D01*
X201413000Y-65247000D01*
X199127000Y-65247000D01*
X199127000Y-65267000D01*
X198873000Y-65267000D01*
X198873000Y-65247000D01*
X197666183Y-65247000D01*
X197545042Y-65479026D01*
X197590778Y-65629814D01*
X197717316Y-65894944D01*
X197893146Y-66130293D01*
X198111512Y-66326817D01*
X198210103Y-66385441D01*
X198044698Y-66495961D01*
X197835961Y-66704698D01*
X197671958Y-66950147D01*
X197558990Y-67222875D01*
X197501400Y-67512401D01*
X188038600Y-67512401D01*
X187981010Y-67222875D01*
X187868042Y-66950147D01*
X187704039Y-66704698D01*
X187495302Y-66495961D01*
X187329897Y-66385441D01*
X187428488Y-66326817D01*
X187646854Y-66130293D01*
X187822684Y-65894944D01*
X187949222Y-65629814D01*
X187994958Y-65479026D01*
X187873817Y-65247000D01*
X186667000Y-65247000D01*
X186667000Y-65267000D01*
X186413000Y-65267000D01*
X186413000Y-65247000D01*
X184127000Y-65247000D01*
X184127000Y-65267000D01*
X183873000Y-65267000D01*
X183873000Y-65247000D01*
X182666183Y-65247000D01*
X182545042Y-65479026D01*
X182590778Y-65629814D01*
X182717316Y-65894944D01*
X182893146Y-66130293D01*
X183111512Y-66326817D01*
X183210103Y-66385441D01*
X183044698Y-66495961D01*
X182835961Y-66704698D01*
X182671958Y-66950147D01*
X182558990Y-67222875D01*
X182501400Y-67512401D01*
X173038600Y-67512401D01*
X172981010Y-67222875D01*
X172868042Y-66950147D01*
X172704039Y-66704698D01*
X172495302Y-66495961D01*
X172329897Y-66385441D01*
X172428488Y-66326817D01*
X172646854Y-66130293D01*
X172822684Y-65894944D01*
X172949222Y-65629814D01*
X172994958Y-65479026D01*
X172873817Y-65247000D01*
X171667000Y-65247000D01*
X171667000Y-65267000D01*
X171413000Y-65267000D01*
X171413000Y-65247000D01*
X169127000Y-65247000D01*
X169127000Y-65267000D01*
X168873000Y-65267000D01*
X168873000Y-65247000D01*
X167666183Y-65247000D01*
X167545042Y-65479026D01*
X167590778Y-65629814D01*
X167717316Y-65894944D01*
X167893146Y-66130293D01*
X168111512Y-66326817D01*
X168210103Y-66385441D01*
X168044698Y-66495961D01*
X167835961Y-66704698D01*
X167671958Y-66950147D01*
X167558990Y-67222875D01*
X167501400Y-67512401D01*
X158038600Y-67512401D01*
X157981010Y-67222875D01*
X157868042Y-66950147D01*
X157704039Y-66704698D01*
X157495302Y-66495961D01*
X157329897Y-66385441D01*
X157428488Y-66326817D01*
X157646854Y-66130293D01*
X157822684Y-65894944D01*
X157949222Y-65629814D01*
X157994958Y-65479026D01*
X157873817Y-65247000D01*
X156667000Y-65247000D01*
X156667000Y-65267000D01*
X156413000Y-65267000D01*
X156413000Y-65247000D01*
X154127000Y-65247000D01*
X154127000Y-65267000D01*
X153873000Y-65267000D01*
X153873000Y-65247000D01*
X152666183Y-65247000D01*
X152545042Y-65479026D01*
X152590778Y-65629814D01*
X152717316Y-65894944D01*
X152893146Y-66130293D01*
X153111512Y-66326817D01*
X153210103Y-66385441D01*
X153044698Y-66495961D01*
X152835961Y-66704698D01*
X152671958Y-66950147D01*
X152558990Y-67222875D01*
X152501400Y-67512401D01*
X143038600Y-67512401D01*
X142981010Y-67222875D01*
X142868042Y-66950147D01*
X142704039Y-66704698D01*
X142495302Y-66495961D01*
X142329897Y-66385441D01*
X142428488Y-66326817D01*
X142646854Y-66130293D01*
X142822684Y-65894944D01*
X142949222Y-65629814D01*
X142994958Y-65479026D01*
X142873817Y-65247000D01*
X141667000Y-65247000D01*
X141667000Y-65267000D01*
X141413000Y-65267000D01*
X141413000Y-65247000D01*
X139127000Y-65247000D01*
X139127000Y-65267000D01*
X138873000Y-65267000D01*
X138873000Y-65247000D01*
X137666183Y-65247000D01*
X137545042Y-65479026D01*
X137590778Y-65629814D01*
X137717316Y-65894944D01*
X137893146Y-66130293D01*
X138111512Y-66326817D01*
X138210103Y-66385441D01*
X138044698Y-66495961D01*
X137835961Y-66704698D01*
X137671958Y-66950147D01*
X137558990Y-67222875D01*
X137501400Y-67512401D01*
X128038600Y-67512401D01*
X127981010Y-67222875D01*
X127868042Y-66950147D01*
X127704039Y-66704698D01*
X127495302Y-66495961D01*
X127329897Y-66385441D01*
X127428488Y-66326817D01*
X127646854Y-66130293D01*
X127822684Y-65894944D01*
X127949222Y-65629814D01*
X127994958Y-65479026D01*
X127873817Y-65247000D01*
X126667000Y-65247000D01*
X126667000Y-65267000D01*
X126413000Y-65267000D01*
X126413000Y-65247000D01*
X124127000Y-65247000D01*
X124127000Y-65267000D01*
X123873000Y-65267000D01*
X123873000Y-65247000D01*
X122666183Y-65247000D01*
X122545042Y-65479026D01*
X122590778Y-65629814D01*
X122717316Y-65894944D01*
X122893146Y-66130293D01*
X123111512Y-66326817D01*
X123210103Y-66385441D01*
X123044698Y-66495961D01*
X122835961Y-66704698D01*
X122671958Y-66950147D01*
X122558990Y-67222875D01*
X122501400Y-67512401D01*
X113038600Y-67512401D01*
X112981010Y-67222875D01*
X112868042Y-66950147D01*
X112704039Y-66704698D01*
X112495302Y-66495961D01*
X112329897Y-66385441D01*
X112428488Y-66326817D01*
X112646854Y-66130293D01*
X112822684Y-65894944D01*
X112949222Y-65629814D01*
X112994958Y-65479026D01*
X112873817Y-65247000D01*
X111667000Y-65247000D01*
X111667000Y-65267000D01*
X111413000Y-65267000D01*
X111413000Y-65247000D01*
X109127000Y-65247000D01*
X109127000Y-65267000D01*
X108873000Y-65267000D01*
X108873000Y-65247000D01*
X107666183Y-65247000D01*
X107545042Y-65479026D01*
X107590778Y-65629814D01*
X107717316Y-65894944D01*
X107893146Y-66130293D01*
X108111512Y-66326817D01*
X108210103Y-66385441D01*
X108044698Y-66495961D01*
X107835961Y-66704698D01*
X107671958Y-66950147D01*
X107558990Y-67222875D01*
X107501400Y-67512401D01*
X98038600Y-67512401D01*
X97981010Y-67222875D01*
X97868042Y-66950147D01*
X97704039Y-66704698D01*
X97495302Y-66495961D01*
X97329897Y-66385441D01*
X97428488Y-66326817D01*
X97646854Y-66130293D01*
X97822684Y-65894944D01*
X97949222Y-65629814D01*
X97994958Y-65479026D01*
X97873817Y-65247000D01*
X96667000Y-65247000D01*
X96667000Y-65267000D01*
X96413000Y-65267000D01*
X96413000Y-65247000D01*
X94127000Y-65247000D01*
X94127000Y-65267000D01*
X93873000Y-65267000D01*
X93873000Y-65247000D01*
X92666183Y-65247000D01*
X92545042Y-65479026D01*
X92590778Y-65629814D01*
X92717316Y-65894944D01*
X92893146Y-66130293D01*
X93111512Y-66326817D01*
X93210103Y-66385441D01*
X93044698Y-66495961D01*
X92835961Y-66704698D01*
X92671958Y-66950147D01*
X92558990Y-67222875D01*
X92501400Y-67512401D01*
X88921759Y-67512401D01*
X88888787Y-67289870D01*
X88793603Y-67023708D01*
X88726671Y-66898486D01*
X88482702Y-66826903D01*
X87669605Y-67640000D01*
X87310395Y-67640000D01*
X86497298Y-66826903D01*
X86253329Y-66898486D01*
X86132429Y-67153996D01*
X86063700Y-67428184D01*
X86049783Y-67710512D01*
X83038600Y-67710512D01*
X83038600Y-67512401D01*
X82981010Y-67222875D01*
X82868042Y-66950147D01*
X82704039Y-66704698D01*
X82646639Y-66647298D01*
X86676903Y-66647298D01*
X87490000Y-67460395D01*
X88303097Y-66647298D01*
X88231514Y-66403329D01*
X87976004Y-66282429D01*
X87701816Y-66213700D01*
X87419488Y-66199783D01*
X87139870Y-66241213D01*
X86873708Y-66336397D01*
X86748486Y-66403329D01*
X86676903Y-66647298D01*
X82646639Y-66647298D01*
X82495302Y-66495961D01*
X82329897Y-66385441D01*
X82428488Y-66326817D01*
X82646854Y-66130293D01*
X82822684Y-65894944D01*
X82949222Y-65629814D01*
X82994958Y-65479026D01*
X82873817Y-65247000D01*
X81667000Y-65247000D01*
X81667000Y-65267000D01*
X81413000Y-65267000D01*
X81413000Y-65247000D01*
X79127000Y-65247000D01*
X79127000Y-65267000D01*
X78873000Y-65267000D01*
X78873000Y-65247000D01*
X77666183Y-65247000D01*
X77545042Y-65479026D01*
X77590778Y-65629814D01*
X77717316Y-65894944D01*
X77893146Y-66130293D01*
X78111512Y-66326817D01*
X78210103Y-66385441D01*
X78044698Y-66495961D01*
X77835961Y-66704698D01*
X77671958Y-66950147D01*
X77558990Y-67222875D01*
X77501400Y-67512401D01*
X73935000Y-67512401D01*
X73935000Y-67478665D01*
X73879853Y-67201426D01*
X73771680Y-66940273D01*
X73614637Y-66705241D01*
X73414759Y-66505363D01*
X73179727Y-66348320D01*
X72918574Y-66240147D01*
X72641335Y-66185000D01*
X72358665Y-66185000D01*
X72081426Y-66240147D01*
X71820273Y-66348320D01*
X71585241Y-66505363D01*
X71385363Y-66705241D01*
X71228320Y-66940273D01*
X71120147Y-67201426D01*
X71065000Y-67478665D01*
X68031890Y-67478665D01*
X67981010Y-67222875D01*
X67868042Y-66950147D01*
X67704039Y-66704698D01*
X67495302Y-66495961D01*
X67329897Y-66385441D01*
X67428488Y-66326817D01*
X67646854Y-66130293D01*
X67822684Y-65894944D01*
X67949222Y-65629814D01*
X67994958Y-65479026D01*
X67873817Y-65247000D01*
X66667000Y-65247000D01*
X66667000Y-65267000D01*
X66413000Y-65267000D01*
X66413000Y-65247000D01*
X64127000Y-65247000D01*
X64127000Y-65267000D01*
X63873000Y-65267000D01*
X63873000Y-65247000D01*
X62666183Y-65247000D01*
X62545042Y-65479026D01*
X62590778Y-65629814D01*
X62717316Y-65894944D01*
X62893146Y-66130293D01*
X63111512Y-66326817D01*
X63210103Y-66385441D01*
X63044698Y-66495961D01*
X62835961Y-66704698D01*
X62671958Y-66950147D01*
X62558990Y-67222875D01*
X62501400Y-67512401D01*
X49385000Y-67512401D01*
X49385000Y-67314344D01*
X49312561Y-66950166D01*
X49170466Y-66607118D01*
X48964175Y-66298382D01*
X48701618Y-66035825D01*
X48392882Y-65829534D01*
X48049834Y-65687439D01*
X47685656Y-65615000D01*
X47314344Y-65615000D01*
X46950166Y-65687439D01*
X46607118Y-65829534D01*
X46298382Y-66035825D01*
X46035825Y-66298382D01*
X45829534Y-66607118D01*
X45687439Y-66950166D01*
X45615000Y-67314344D01*
X42710000Y-67314344D01*
X42710000Y-63813605D01*
X46366000Y-63813605D01*
X46491914Y-64103577D01*
X46824126Y-64269433D01*
X47182312Y-64367290D01*
X47552706Y-64393389D01*
X47921075Y-64346725D01*
X48273262Y-64229094D01*
X48508086Y-64103577D01*
X48634000Y-63813605D01*
X47500000Y-62679605D01*
X46366000Y-63813605D01*
X42710000Y-63813605D01*
X42710000Y-62552706D01*
X45606611Y-62552706D01*
X45653275Y-62921075D01*
X45770906Y-63273262D01*
X45896423Y-63508086D01*
X46186395Y-63634000D01*
X47320395Y-62500000D01*
X47679605Y-62500000D01*
X48813605Y-63634000D01*
X49103577Y-63508086D01*
X49269433Y-63175874D01*
X49334140Y-62939026D01*
X62545042Y-62939026D01*
X62590778Y-63089814D01*
X62717316Y-63354944D01*
X62893146Y-63590293D01*
X63111512Y-63786817D01*
X63217770Y-63850000D01*
X63111512Y-63913183D01*
X62893146Y-64109707D01*
X62717316Y-64345056D01*
X62590778Y-64610186D01*
X62545042Y-64760974D01*
X62666183Y-64993000D01*
X63873000Y-64993000D01*
X63873000Y-62707000D01*
X64127000Y-62707000D01*
X64127000Y-64993000D01*
X66413000Y-64993000D01*
X66413000Y-62707000D01*
X66667000Y-62707000D01*
X66667000Y-64993000D01*
X67873817Y-64993000D01*
X67994958Y-64760974D01*
X67949222Y-64610186D01*
X67822684Y-64345056D01*
X67646854Y-64109707D01*
X67428488Y-63913183D01*
X67322230Y-63850000D01*
X67428488Y-63786817D01*
X67646854Y-63590293D01*
X67822684Y-63354944D01*
X67949222Y-63089814D01*
X67994958Y-62939026D01*
X77545042Y-62939026D01*
X77590778Y-63089814D01*
X77717316Y-63354944D01*
X77893146Y-63590293D01*
X78111512Y-63786817D01*
X78217770Y-63850000D01*
X78111512Y-63913183D01*
X77893146Y-64109707D01*
X77717316Y-64345056D01*
X77590778Y-64610186D01*
X77545042Y-64760974D01*
X77666183Y-64993000D01*
X78873000Y-64993000D01*
X78873000Y-62707000D01*
X79127000Y-62707000D01*
X79127000Y-64993000D01*
X81413000Y-64993000D01*
X81413000Y-62707000D01*
X81667000Y-62707000D01*
X81667000Y-64993000D01*
X82873817Y-64993000D01*
X82994958Y-64760974D01*
X82949222Y-64610186D01*
X82822684Y-64345056D01*
X82646854Y-64109707D01*
X82428488Y-63913183D01*
X82322230Y-63850000D01*
X82428488Y-63786817D01*
X82646854Y-63590293D01*
X82822684Y-63354944D01*
X82949222Y-63089814D01*
X82994958Y-62939026D01*
X92545042Y-62939026D01*
X92590778Y-63089814D01*
X92717316Y-63354944D01*
X92893146Y-63590293D01*
X93111512Y-63786817D01*
X93217770Y-63850000D01*
X93111512Y-63913183D01*
X92893146Y-64109707D01*
X92717316Y-64345056D01*
X92590778Y-64610186D01*
X92545042Y-64760974D01*
X92666183Y-64993000D01*
X93873000Y-64993000D01*
X93873000Y-62707000D01*
X94127000Y-62707000D01*
X94127000Y-64993000D01*
X96413000Y-64993000D01*
X96413000Y-62707000D01*
X96667000Y-62707000D01*
X96667000Y-64993000D01*
X97873817Y-64993000D01*
X97994958Y-64760974D01*
X97949222Y-64610186D01*
X97822684Y-64345056D01*
X97646854Y-64109707D01*
X97428488Y-63913183D01*
X97322230Y-63850000D01*
X97428488Y-63786817D01*
X97646854Y-63590293D01*
X97822684Y-63354944D01*
X97949222Y-63089814D01*
X97994958Y-62939026D01*
X107545042Y-62939026D01*
X107590778Y-63089814D01*
X107717316Y-63354944D01*
X107893146Y-63590293D01*
X108111512Y-63786817D01*
X108217770Y-63850000D01*
X108111512Y-63913183D01*
X107893146Y-64109707D01*
X107717316Y-64345056D01*
X107590778Y-64610186D01*
X107545042Y-64760974D01*
X107666183Y-64993000D01*
X108873000Y-64993000D01*
X108873000Y-62707000D01*
X109127000Y-62707000D01*
X109127000Y-64993000D01*
X111413000Y-64993000D01*
X111413000Y-62707000D01*
X111667000Y-62707000D01*
X111667000Y-64993000D01*
X112873817Y-64993000D01*
X112994958Y-64760974D01*
X112949222Y-64610186D01*
X112822684Y-64345056D01*
X112646854Y-64109707D01*
X112428488Y-63913183D01*
X112322230Y-63850000D01*
X112428488Y-63786817D01*
X112646854Y-63590293D01*
X112822684Y-63354944D01*
X112949222Y-63089814D01*
X112994958Y-62939026D01*
X122545042Y-62939026D01*
X122590778Y-63089814D01*
X122717316Y-63354944D01*
X122893146Y-63590293D01*
X123111512Y-63786817D01*
X123217770Y-63850000D01*
X123111512Y-63913183D01*
X122893146Y-64109707D01*
X122717316Y-64345056D01*
X122590778Y-64610186D01*
X122545042Y-64760974D01*
X122666183Y-64993000D01*
X123873000Y-64993000D01*
X123873000Y-62707000D01*
X124127000Y-62707000D01*
X124127000Y-64993000D01*
X126413000Y-64993000D01*
X126413000Y-62707000D01*
X126667000Y-62707000D01*
X126667000Y-64993000D01*
X127873817Y-64993000D01*
X127994958Y-64760974D01*
X127949222Y-64610186D01*
X127822684Y-64345056D01*
X127646854Y-64109707D01*
X127428488Y-63913183D01*
X127322230Y-63850000D01*
X127428488Y-63786817D01*
X127646854Y-63590293D01*
X127822684Y-63354944D01*
X127949222Y-63089814D01*
X127994958Y-62939026D01*
X137545042Y-62939026D01*
X137590778Y-63089814D01*
X137717316Y-63354944D01*
X137893146Y-63590293D01*
X138111512Y-63786817D01*
X138217770Y-63850000D01*
X138111512Y-63913183D01*
X137893146Y-64109707D01*
X137717316Y-64345056D01*
X137590778Y-64610186D01*
X137545042Y-64760974D01*
X137666183Y-64993000D01*
X138873000Y-64993000D01*
X138873000Y-62707000D01*
X139127000Y-62707000D01*
X139127000Y-64993000D01*
X141413000Y-64993000D01*
X141413000Y-62707000D01*
X141667000Y-62707000D01*
X141667000Y-64993000D01*
X142873817Y-64993000D01*
X142994958Y-64760974D01*
X142949222Y-64610186D01*
X142822684Y-64345056D01*
X142646854Y-64109707D01*
X142428488Y-63913183D01*
X142322230Y-63850000D01*
X142428488Y-63786817D01*
X142646854Y-63590293D01*
X142822684Y-63354944D01*
X142949222Y-63089814D01*
X142994958Y-62939026D01*
X152545042Y-62939026D01*
X152590778Y-63089814D01*
X152717316Y-63354944D01*
X152893146Y-63590293D01*
X153111512Y-63786817D01*
X153217770Y-63850000D01*
X153111512Y-63913183D01*
X152893146Y-64109707D01*
X152717316Y-64345056D01*
X152590778Y-64610186D01*
X152545042Y-64760974D01*
X152666183Y-64993000D01*
X153873000Y-64993000D01*
X153873000Y-62707000D01*
X154127000Y-62707000D01*
X154127000Y-64993000D01*
X156413000Y-64993000D01*
X156413000Y-62707000D01*
X156667000Y-62707000D01*
X156667000Y-64993000D01*
X157873817Y-64993000D01*
X157994958Y-64760974D01*
X157949222Y-64610186D01*
X157822684Y-64345056D01*
X157646854Y-64109707D01*
X157428488Y-63913183D01*
X157322230Y-63850000D01*
X157428488Y-63786817D01*
X157646854Y-63590293D01*
X157822684Y-63354944D01*
X157949222Y-63089814D01*
X157994958Y-62939026D01*
X167545042Y-62939026D01*
X167590778Y-63089814D01*
X167717316Y-63354944D01*
X167893146Y-63590293D01*
X168111512Y-63786817D01*
X168217770Y-63850000D01*
X168111512Y-63913183D01*
X167893146Y-64109707D01*
X167717316Y-64345056D01*
X167590778Y-64610186D01*
X167545042Y-64760974D01*
X167666183Y-64993000D01*
X168873000Y-64993000D01*
X168873000Y-62707000D01*
X169127000Y-62707000D01*
X169127000Y-64993000D01*
X171413000Y-64993000D01*
X171413000Y-62707000D01*
X171667000Y-62707000D01*
X171667000Y-64993000D01*
X172873817Y-64993000D01*
X172994958Y-64760974D01*
X172949222Y-64610186D01*
X172822684Y-64345056D01*
X172646854Y-64109707D01*
X172428488Y-63913183D01*
X172322230Y-63850000D01*
X172428488Y-63786817D01*
X172646854Y-63590293D01*
X172822684Y-63354944D01*
X172949222Y-63089814D01*
X172994958Y-62939026D01*
X182545042Y-62939026D01*
X182590778Y-63089814D01*
X182717316Y-63354944D01*
X182893146Y-63590293D01*
X183111512Y-63786817D01*
X183217770Y-63850000D01*
X183111512Y-63913183D01*
X182893146Y-64109707D01*
X182717316Y-64345056D01*
X182590778Y-64610186D01*
X182545042Y-64760974D01*
X182666183Y-64993000D01*
X183873000Y-64993000D01*
X183873000Y-62707000D01*
X184127000Y-62707000D01*
X184127000Y-64993000D01*
X186413000Y-64993000D01*
X186413000Y-62707000D01*
X186667000Y-62707000D01*
X186667000Y-64993000D01*
X187873817Y-64993000D01*
X187994958Y-64760974D01*
X187949222Y-64610186D01*
X187822684Y-64345056D01*
X187646854Y-64109707D01*
X187428488Y-63913183D01*
X187322230Y-63850000D01*
X187428488Y-63786817D01*
X187646854Y-63590293D01*
X187822684Y-63354944D01*
X187949222Y-63089814D01*
X187994958Y-62939026D01*
X197545042Y-62939026D01*
X197590778Y-63089814D01*
X197717316Y-63354944D01*
X197893146Y-63590293D01*
X198111512Y-63786817D01*
X198217770Y-63850000D01*
X198111512Y-63913183D01*
X197893146Y-64109707D01*
X197717316Y-64345056D01*
X197590778Y-64610186D01*
X197545042Y-64760974D01*
X197666183Y-64993000D01*
X198873000Y-64993000D01*
X198873000Y-62707000D01*
X199127000Y-62707000D01*
X199127000Y-64993000D01*
X201413000Y-64993000D01*
X201413000Y-62707000D01*
X201667000Y-62707000D01*
X201667000Y-64993000D01*
X202873817Y-64993000D01*
X202994958Y-64760974D01*
X202949222Y-64610186D01*
X202822684Y-64345056D01*
X202646854Y-64109707D01*
X202428488Y-63913183D01*
X202322230Y-63850000D01*
X202428488Y-63786817D01*
X202646854Y-63590293D01*
X202822684Y-63354944D01*
X202949222Y-63089814D01*
X202994958Y-62939026D01*
X212545042Y-62939026D01*
X212590778Y-63089814D01*
X212717316Y-63354944D01*
X212893146Y-63590293D01*
X213111512Y-63786817D01*
X213217770Y-63850000D01*
X213111512Y-63913183D01*
X212893146Y-64109707D01*
X212717316Y-64345056D01*
X212590778Y-64610186D01*
X212545042Y-64760974D01*
X212666183Y-64993000D01*
X213873000Y-64993000D01*
X213873000Y-62707000D01*
X214127000Y-62707000D01*
X214127000Y-64993000D01*
X216413000Y-64993000D01*
X216413000Y-62707000D01*
X216667000Y-62707000D01*
X216667000Y-64993000D01*
X217873817Y-64993000D01*
X217994958Y-64760974D01*
X217949222Y-64610186D01*
X217822684Y-64345056D01*
X217646854Y-64109707D01*
X217428488Y-63913183D01*
X217322230Y-63850000D01*
X217428488Y-63786817D01*
X217646854Y-63590293D01*
X217822684Y-63354944D01*
X217949222Y-63089814D01*
X217994958Y-62939026D01*
X227545042Y-62939026D01*
X227590778Y-63089814D01*
X227717316Y-63354944D01*
X227893146Y-63590293D01*
X228111512Y-63786817D01*
X228217770Y-63850000D01*
X228111512Y-63913183D01*
X227893146Y-64109707D01*
X227717316Y-64345056D01*
X227590778Y-64610186D01*
X227545042Y-64760974D01*
X227666183Y-64993000D01*
X228873000Y-64993000D01*
X228873000Y-62707000D01*
X229127000Y-62707000D01*
X229127000Y-64993000D01*
X231413000Y-64993000D01*
X231413000Y-62707000D01*
X231667000Y-62707000D01*
X231667000Y-64993000D01*
X232873817Y-64993000D01*
X232994958Y-64760974D01*
X232949222Y-64610186D01*
X232822684Y-64345056D01*
X232646854Y-64109707D01*
X232428488Y-63913183D01*
X232322230Y-63850000D01*
X232428488Y-63786817D01*
X232646854Y-63590293D01*
X232822684Y-63354944D01*
X232949222Y-63089814D01*
X232994958Y-62939026D01*
X232873817Y-62707000D01*
X231667000Y-62707000D01*
X231413000Y-62707000D01*
X229127000Y-62707000D01*
X228873000Y-62707000D01*
X227666183Y-62707000D01*
X227545042Y-62939026D01*
X217994958Y-62939026D01*
X217873817Y-62707000D01*
X216667000Y-62707000D01*
X216413000Y-62707000D01*
X214127000Y-62707000D01*
X213873000Y-62707000D01*
X212666183Y-62707000D01*
X212545042Y-62939026D01*
X202994958Y-62939026D01*
X202873817Y-62707000D01*
X201667000Y-62707000D01*
X201413000Y-62707000D01*
X199127000Y-62707000D01*
X198873000Y-62707000D01*
X197666183Y-62707000D01*
X197545042Y-62939026D01*
X187994958Y-62939026D01*
X187873817Y-62707000D01*
X186667000Y-62707000D01*
X186413000Y-62707000D01*
X184127000Y-62707000D01*
X183873000Y-62707000D01*
X182666183Y-62707000D01*
X182545042Y-62939026D01*
X172994958Y-62939026D01*
X172873817Y-62707000D01*
X171667000Y-62707000D01*
X171413000Y-62707000D01*
X169127000Y-62707000D01*
X168873000Y-62707000D01*
X167666183Y-62707000D01*
X167545042Y-62939026D01*
X157994958Y-62939026D01*
X157873817Y-62707000D01*
X156667000Y-62707000D01*
X156413000Y-62707000D01*
X154127000Y-62707000D01*
X153873000Y-62707000D01*
X152666183Y-62707000D01*
X152545042Y-62939026D01*
X142994958Y-62939026D01*
X142873817Y-62707000D01*
X141667000Y-62707000D01*
X141413000Y-62707000D01*
X139127000Y-62707000D01*
X138873000Y-62707000D01*
X137666183Y-62707000D01*
X137545042Y-62939026D01*
X127994958Y-62939026D01*
X127873817Y-62707000D01*
X126667000Y-62707000D01*
X126413000Y-62707000D01*
X124127000Y-62707000D01*
X123873000Y-62707000D01*
X122666183Y-62707000D01*
X122545042Y-62939026D01*
X112994958Y-62939026D01*
X112873817Y-62707000D01*
X111667000Y-62707000D01*
X111413000Y-62707000D01*
X109127000Y-62707000D01*
X108873000Y-62707000D01*
X107666183Y-62707000D01*
X107545042Y-62939026D01*
X97994958Y-62939026D01*
X97873817Y-62707000D01*
X96667000Y-62707000D01*
X96413000Y-62707000D01*
X94127000Y-62707000D01*
X93873000Y-62707000D01*
X92666183Y-62707000D01*
X92545042Y-62939026D01*
X82994958Y-62939026D01*
X82873817Y-62707000D01*
X81667000Y-62707000D01*
X81413000Y-62707000D01*
X79127000Y-62707000D01*
X78873000Y-62707000D01*
X77666183Y-62707000D01*
X77545042Y-62939026D01*
X67994958Y-62939026D01*
X67873817Y-62707000D01*
X66667000Y-62707000D01*
X66413000Y-62707000D01*
X64127000Y-62707000D01*
X63873000Y-62707000D01*
X62666183Y-62707000D01*
X62545042Y-62939026D01*
X49334140Y-62939026D01*
X49367290Y-62817688D01*
X49393389Y-62447294D01*
X49346725Y-62078925D01*
X49229094Y-61726738D01*
X49103577Y-61491914D01*
X48813605Y-61366000D01*
X47679605Y-62500000D01*
X47320395Y-62500000D01*
X46186395Y-61366000D01*
X45896423Y-61491914D01*
X45730567Y-61824126D01*
X45632710Y-62182312D01*
X45606611Y-62552706D01*
X42710000Y-62552706D01*
X42710000Y-61186395D01*
X46366000Y-61186395D01*
X47500000Y-62320395D01*
X48634000Y-61186395D01*
X48508086Y-60896423D01*
X48175874Y-60730567D01*
X47817688Y-60632710D01*
X47447294Y-60606611D01*
X47078925Y-60653275D01*
X46726738Y-60770906D01*
X46491914Y-60896423D01*
X46366000Y-61186395D01*
X42710000Y-61186395D01*
X42710000Y-60399026D01*
X62545042Y-60399026D01*
X62590778Y-60549814D01*
X62717316Y-60814944D01*
X62893146Y-61050293D01*
X63111512Y-61246817D01*
X63217770Y-61310000D01*
X63111512Y-61373183D01*
X62893146Y-61569707D01*
X62717316Y-61805056D01*
X62590778Y-62070186D01*
X62545042Y-62220974D01*
X62666183Y-62453000D01*
X63873000Y-62453000D01*
X63873000Y-60167000D01*
X64127000Y-60167000D01*
X64127000Y-62453000D01*
X66413000Y-62453000D01*
X66413000Y-60167000D01*
X66667000Y-60167000D01*
X66667000Y-62453000D01*
X67873817Y-62453000D01*
X67994958Y-62220974D01*
X67949222Y-62070186D01*
X67822684Y-61805056D01*
X67646854Y-61569707D01*
X67428488Y-61373183D01*
X67322230Y-61310000D01*
X67428488Y-61246817D01*
X67646854Y-61050293D01*
X67822684Y-60814944D01*
X67949222Y-60549814D01*
X67994958Y-60399026D01*
X67873817Y-60167000D01*
X66667000Y-60167000D01*
X66413000Y-60167000D01*
X64127000Y-60167000D01*
X63873000Y-60167000D01*
X62666183Y-60167000D01*
X62545042Y-60399026D01*
X42710000Y-60399026D01*
X42710000Y-56250000D01*
X45611928Y-56250000D01*
X45611928Y-58750000D01*
X45624188Y-58874482D01*
X45660498Y-58994180D01*
X45719463Y-59104494D01*
X45798815Y-59201185D01*
X45895506Y-59280537D01*
X46005820Y-59339502D01*
X46125518Y-59375812D01*
X46250000Y-59388072D01*
X48750000Y-59388072D01*
X48874482Y-59375812D01*
X48994180Y-59339502D01*
X49104494Y-59280537D01*
X49201185Y-59201185D01*
X49280537Y-59104494D01*
X49339502Y-58994180D01*
X49375812Y-58874482D01*
X49388072Y-58750000D01*
X49388072Y-56636400D01*
X62498328Y-56636400D01*
X62498328Y-58363600D01*
X62510588Y-58488082D01*
X62546898Y-58607780D01*
X62605863Y-58718094D01*
X62685215Y-58814785D01*
X62781906Y-58894137D01*
X62892220Y-58953102D01*
X62956574Y-58972624D01*
X62893146Y-59029707D01*
X62717316Y-59265056D01*
X62590778Y-59530186D01*
X62545042Y-59680974D01*
X62666183Y-59913000D01*
X63873000Y-59913000D01*
X63873000Y-59893000D01*
X64127000Y-59893000D01*
X64127000Y-59913000D01*
X66413000Y-59913000D01*
X66413000Y-59893000D01*
X66667000Y-59893000D01*
X66667000Y-59913000D01*
X67873817Y-59913000D01*
X67902185Y-59858665D01*
X71065000Y-59858665D01*
X71065000Y-60141335D01*
X71120147Y-60418574D01*
X71228320Y-60679727D01*
X71385363Y-60914759D01*
X71585241Y-61114637D01*
X71820273Y-61271680D01*
X72081426Y-61379853D01*
X72358665Y-61435000D01*
X72641335Y-61435000D01*
X72918574Y-61379853D01*
X73179727Y-61271680D01*
X73414759Y-61114637D01*
X73614637Y-60914759D01*
X73771680Y-60679727D01*
X73879853Y-60418574D01*
X73883741Y-60399026D01*
X77545042Y-60399026D01*
X77590778Y-60549814D01*
X77717316Y-60814944D01*
X77893146Y-61050293D01*
X78111512Y-61246817D01*
X78217770Y-61310000D01*
X78111512Y-61373183D01*
X77893146Y-61569707D01*
X77717316Y-61805056D01*
X77590778Y-62070186D01*
X77545042Y-62220974D01*
X77666183Y-62453000D01*
X78873000Y-62453000D01*
X78873000Y-60167000D01*
X79127000Y-60167000D01*
X79127000Y-62453000D01*
X81413000Y-62453000D01*
X81413000Y-60167000D01*
X81667000Y-60167000D01*
X81667000Y-62453000D01*
X82873817Y-62453000D01*
X82994958Y-62220974D01*
X82949222Y-62070186D01*
X82822684Y-61805056D01*
X82646854Y-61569707D01*
X82428488Y-61373183D01*
X82322230Y-61310000D01*
X82428488Y-61246817D01*
X82646854Y-61050293D01*
X82822684Y-60814944D01*
X82949222Y-60549814D01*
X82994958Y-60399026D01*
X82873817Y-60167000D01*
X81667000Y-60167000D01*
X81413000Y-60167000D01*
X79127000Y-60167000D01*
X78873000Y-60167000D01*
X77666183Y-60167000D01*
X77545042Y-60399026D01*
X73883741Y-60399026D01*
X73935000Y-60141335D01*
X73935000Y-59858665D01*
X73879853Y-59581426D01*
X73771680Y-59320273D01*
X73614637Y-59085241D01*
X73414759Y-58885363D01*
X73179727Y-58728320D01*
X72918574Y-58620147D01*
X72641335Y-58565000D01*
X72358665Y-58565000D01*
X72081426Y-58620147D01*
X71820273Y-58728320D01*
X71585241Y-58885363D01*
X71385363Y-59085241D01*
X71228320Y-59320273D01*
X71120147Y-59581426D01*
X71065000Y-59858665D01*
X67902185Y-59858665D01*
X67994958Y-59680974D01*
X67949222Y-59530186D01*
X67822684Y-59265056D01*
X67646854Y-59029707D01*
X67428488Y-58833183D01*
X67329897Y-58774559D01*
X67495302Y-58664039D01*
X67704039Y-58455302D01*
X67868042Y-58209853D01*
X67981010Y-57937125D01*
X68038600Y-57647599D01*
X68038600Y-57400000D01*
X69961928Y-57400000D01*
X69974188Y-57524482D01*
X70010498Y-57644180D01*
X70069463Y-57754494D01*
X70148815Y-57851185D01*
X70245506Y-57930537D01*
X70355820Y-57989502D01*
X70475518Y-58025812D01*
X70600000Y-58038072D01*
X71214250Y-58035000D01*
X71373000Y-57876250D01*
X71373000Y-56627000D01*
X70123750Y-56627000D01*
X69965000Y-56785750D01*
X69961928Y-57400000D01*
X68038600Y-57400000D01*
X68038600Y-57352401D01*
X67981010Y-57062875D01*
X67868042Y-56790147D01*
X67704039Y-56544698D01*
X67495302Y-56335961D01*
X67249853Y-56171958D01*
X66977125Y-56058990D01*
X66687599Y-56001400D01*
X66392401Y-56001400D01*
X66102875Y-56058990D01*
X65830147Y-56171958D01*
X65584698Y-56335961D01*
X65470636Y-56450023D01*
X65453102Y-56392220D01*
X65394137Y-56281906D01*
X65314785Y-56185215D01*
X65218094Y-56105863D01*
X65107780Y-56046898D01*
X64988082Y-56010588D01*
X64863600Y-55998328D01*
X63136400Y-55998328D01*
X63011918Y-56010588D01*
X62892220Y-56046898D01*
X62781906Y-56105863D01*
X62685215Y-56185215D01*
X62605863Y-56281906D01*
X62546898Y-56392220D01*
X62510588Y-56511918D01*
X62498328Y-56636400D01*
X49388072Y-56636400D01*
X49388072Y-56250000D01*
X49375812Y-56125518D01*
X49339502Y-56005820D01*
X49280537Y-55895506D01*
X49201185Y-55798815D01*
X49104494Y-55719463D01*
X48994180Y-55660498D01*
X48874482Y-55624188D01*
X48750000Y-55611928D01*
X46250000Y-55611928D01*
X46125518Y-55624188D01*
X46005820Y-55660498D01*
X45895506Y-55719463D01*
X45798815Y-55798815D01*
X45719463Y-55895506D01*
X45660498Y-56005820D01*
X45624188Y-56125518D01*
X45611928Y-56250000D01*
X42710000Y-56250000D01*
X42710000Y-53779872D01*
X55515000Y-53779872D01*
X55515000Y-54220128D01*
X55600890Y-54651925D01*
X55769369Y-55058669D01*
X56013962Y-55424729D01*
X56325271Y-55736038D01*
X56691331Y-55980631D01*
X57098075Y-56149110D01*
X57529872Y-56235000D01*
X57970128Y-56235000D01*
X58401925Y-56149110D01*
X58808669Y-55980631D01*
X59174729Y-55736038D01*
X59310767Y-55600000D01*
X69961928Y-55600000D01*
X69965000Y-56214250D01*
X70123750Y-56373000D01*
X71373000Y-56373000D01*
X71373000Y-55123750D01*
X71627000Y-55123750D01*
X71627000Y-56373000D01*
X71647000Y-56373000D01*
X71647000Y-56627000D01*
X71627000Y-56627000D01*
X71627000Y-57876250D01*
X71785750Y-58035000D01*
X72400000Y-58038072D01*
X72524482Y-58025812D01*
X72644180Y-57989502D01*
X72754494Y-57930537D01*
X72851185Y-57851185D01*
X72930537Y-57754494D01*
X72989502Y-57644180D01*
X72995056Y-57625873D01*
X73061495Y-57692312D01*
X73312905Y-57860299D01*
X73592257Y-57976011D01*
X73888816Y-58035000D01*
X74191184Y-58035000D01*
X74487743Y-57976011D01*
X74767095Y-57860299D01*
X75018505Y-57692312D01*
X75232312Y-57478505D01*
X75400299Y-57227095D01*
X75516011Y-56947743D01*
X75575000Y-56651184D01*
X75575000Y-56636400D01*
X77498328Y-56636400D01*
X77498328Y-58363600D01*
X77510588Y-58488082D01*
X77546898Y-58607780D01*
X77605863Y-58718094D01*
X77685215Y-58814785D01*
X77781906Y-58894137D01*
X77892220Y-58953102D01*
X77956574Y-58972624D01*
X77893146Y-59029707D01*
X77717316Y-59265056D01*
X77590778Y-59530186D01*
X77545042Y-59680974D01*
X77666183Y-59913000D01*
X78873000Y-59913000D01*
X78873000Y-59893000D01*
X79127000Y-59893000D01*
X79127000Y-59913000D01*
X81413000Y-59913000D01*
X81413000Y-59893000D01*
X81667000Y-59893000D01*
X81667000Y-59913000D01*
X82873817Y-59913000D01*
X82891743Y-59878665D01*
X86055000Y-59878665D01*
X86055000Y-60161335D01*
X86110147Y-60438574D01*
X86218320Y-60699727D01*
X86375363Y-60934759D01*
X86575241Y-61134637D01*
X86810273Y-61291680D01*
X87071426Y-61399853D01*
X87348665Y-61455000D01*
X87631335Y-61455000D01*
X87908574Y-61399853D01*
X88169727Y-61291680D01*
X88404759Y-61134637D01*
X88604637Y-60934759D01*
X88761680Y-60699727D01*
X88869853Y-60438574D01*
X88877719Y-60399026D01*
X92545042Y-60399026D01*
X92590778Y-60549814D01*
X92717316Y-60814944D01*
X92893146Y-61050293D01*
X93111512Y-61246817D01*
X93217770Y-61310000D01*
X93111512Y-61373183D01*
X92893146Y-61569707D01*
X92717316Y-61805056D01*
X92590778Y-62070186D01*
X92545042Y-62220974D01*
X92666183Y-62453000D01*
X93873000Y-62453000D01*
X93873000Y-60167000D01*
X94127000Y-60167000D01*
X94127000Y-62453000D01*
X96413000Y-62453000D01*
X96413000Y-60167000D01*
X96667000Y-60167000D01*
X96667000Y-62453000D01*
X97873817Y-62453000D01*
X97994958Y-62220974D01*
X97949222Y-62070186D01*
X97822684Y-61805056D01*
X97646854Y-61569707D01*
X97428488Y-61373183D01*
X97322230Y-61310000D01*
X97428488Y-61246817D01*
X97646854Y-61050293D01*
X97822684Y-60814944D01*
X97949222Y-60549814D01*
X97994958Y-60399026D01*
X107545042Y-60399026D01*
X107590778Y-60549814D01*
X107717316Y-60814944D01*
X107893146Y-61050293D01*
X108111512Y-61246817D01*
X108217770Y-61310000D01*
X108111512Y-61373183D01*
X107893146Y-61569707D01*
X107717316Y-61805056D01*
X107590778Y-62070186D01*
X107545042Y-62220974D01*
X107666183Y-62453000D01*
X108873000Y-62453000D01*
X108873000Y-60167000D01*
X109127000Y-60167000D01*
X109127000Y-62453000D01*
X111413000Y-62453000D01*
X111413000Y-60167000D01*
X111667000Y-60167000D01*
X111667000Y-62453000D01*
X112873817Y-62453000D01*
X112994958Y-62220974D01*
X112949222Y-62070186D01*
X112822684Y-61805056D01*
X112646854Y-61569707D01*
X112428488Y-61373183D01*
X112322230Y-61310000D01*
X112428488Y-61246817D01*
X112646854Y-61050293D01*
X112822684Y-60814944D01*
X112949222Y-60549814D01*
X112994958Y-60399026D01*
X122545042Y-60399026D01*
X122590778Y-60549814D01*
X122717316Y-60814944D01*
X122893146Y-61050293D01*
X123111512Y-61246817D01*
X123217770Y-61310000D01*
X123111512Y-61373183D01*
X122893146Y-61569707D01*
X122717316Y-61805056D01*
X122590778Y-62070186D01*
X122545042Y-62220974D01*
X122666183Y-62453000D01*
X123873000Y-62453000D01*
X123873000Y-60167000D01*
X124127000Y-60167000D01*
X124127000Y-62453000D01*
X126413000Y-62453000D01*
X126413000Y-60167000D01*
X126667000Y-60167000D01*
X126667000Y-62453000D01*
X127873817Y-62453000D01*
X127994958Y-62220974D01*
X127949222Y-62070186D01*
X127822684Y-61805056D01*
X127646854Y-61569707D01*
X127428488Y-61373183D01*
X127322230Y-61310000D01*
X127428488Y-61246817D01*
X127646854Y-61050293D01*
X127822684Y-60814944D01*
X127949222Y-60549814D01*
X127994958Y-60399026D01*
X137545042Y-60399026D01*
X137590778Y-60549814D01*
X137717316Y-60814944D01*
X137893146Y-61050293D01*
X138111512Y-61246817D01*
X138217770Y-61310000D01*
X138111512Y-61373183D01*
X137893146Y-61569707D01*
X137717316Y-61805056D01*
X137590778Y-62070186D01*
X137545042Y-62220974D01*
X137666183Y-62453000D01*
X138873000Y-62453000D01*
X138873000Y-60167000D01*
X139127000Y-60167000D01*
X139127000Y-62453000D01*
X141413000Y-62453000D01*
X141413000Y-60167000D01*
X141667000Y-60167000D01*
X141667000Y-62453000D01*
X142873817Y-62453000D01*
X142994958Y-62220974D01*
X142949222Y-62070186D01*
X142822684Y-61805056D01*
X142646854Y-61569707D01*
X142428488Y-61373183D01*
X142322230Y-61310000D01*
X142428488Y-61246817D01*
X142646854Y-61050293D01*
X142822684Y-60814944D01*
X142949222Y-60549814D01*
X142994958Y-60399026D01*
X152545042Y-60399026D01*
X152590778Y-60549814D01*
X152717316Y-60814944D01*
X152893146Y-61050293D01*
X153111512Y-61246817D01*
X153217770Y-61310000D01*
X153111512Y-61373183D01*
X152893146Y-61569707D01*
X152717316Y-61805056D01*
X152590778Y-62070186D01*
X152545042Y-62220974D01*
X152666183Y-62453000D01*
X153873000Y-62453000D01*
X153873000Y-60167000D01*
X154127000Y-60167000D01*
X154127000Y-62453000D01*
X156413000Y-62453000D01*
X156413000Y-60167000D01*
X156667000Y-60167000D01*
X156667000Y-62453000D01*
X157873817Y-62453000D01*
X157994958Y-62220974D01*
X157949222Y-62070186D01*
X157822684Y-61805056D01*
X157646854Y-61569707D01*
X157428488Y-61373183D01*
X157322230Y-61310000D01*
X157428488Y-61246817D01*
X157646854Y-61050293D01*
X157822684Y-60814944D01*
X157949222Y-60549814D01*
X157994958Y-60399026D01*
X167545042Y-60399026D01*
X167590778Y-60549814D01*
X167717316Y-60814944D01*
X167893146Y-61050293D01*
X168111512Y-61246817D01*
X168217770Y-61310000D01*
X168111512Y-61373183D01*
X167893146Y-61569707D01*
X167717316Y-61805056D01*
X167590778Y-62070186D01*
X167545042Y-62220974D01*
X167666183Y-62453000D01*
X168873000Y-62453000D01*
X168873000Y-60167000D01*
X169127000Y-60167000D01*
X169127000Y-62453000D01*
X171413000Y-62453000D01*
X171413000Y-60167000D01*
X171667000Y-60167000D01*
X171667000Y-62453000D01*
X172873817Y-62453000D01*
X172994958Y-62220974D01*
X172949222Y-62070186D01*
X172822684Y-61805056D01*
X172646854Y-61569707D01*
X172428488Y-61373183D01*
X172322230Y-61310000D01*
X172428488Y-61246817D01*
X172646854Y-61050293D01*
X172822684Y-60814944D01*
X172949222Y-60549814D01*
X172994958Y-60399026D01*
X182545042Y-60399026D01*
X182590778Y-60549814D01*
X182717316Y-60814944D01*
X182893146Y-61050293D01*
X183111512Y-61246817D01*
X183217770Y-61310000D01*
X183111512Y-61373183D01*
X182893146Y-61569707D01*
X182717316Y-61805056D01*
X182590778Y-62070186D01*
X182545042Y-62220974D01*
X182666183Y-62453000D01*
X183873000Y-62453000D01*
X183873000Y-60167000D01*
X184127000Y-60167000D01*
X184127000Y-62453000D01*
X186413000Y-62453000D01*
X186413000Y-60167000D01*
X186667000Y-60167000D01*
X186667000Y-62453000D01*
X187873817Y-62453000D01*
X187994958Y-62220974D01*
X187949222Y-62070186D01*
X187822684Y-61805056D01*
X187646854Y-61569707D01*
X187428488Y-61373183D01*
X187322230Y-61310000D01*
X187428488Y-61246817D01*
X187646854Y-61050293D01*
X187822684Y-60814944D01*
X187949222Y-60549814D01*
X187994958Y-60399026D01*
X197545042Y-60399026D01*
X197590778Y-60549814D01*
X197717316Y-60814944D01*
X197893146Y-61050293D01*
X198111512Y-61246817D01*
X198217770Y-61310000D01*
X198111512Y-61373183D01*
X197893146Y-61569707D01*
X197717316Y-61805056D01*
X197590778Y-62070186D01*
X197545042Y-62220974D01*
X197666183Y-62453000D01*
X198873000Y-62453000D01*
X198873000Y-60167000D01*
X199127000Y-60167000D01*
X199127000Y-62453000D01*
X201413000Y-62453000D01*
X201413000Y-60167000D01*
X201667000Y-60167000D01*
X201667000Y-62453000D01*
X202873817Y-62453000D01*
X202994958Y-62220974D01*
X202949222Y-62070186D01*
X202822684Y-61805056D01*
X202646854Y-61569707D01*
X202428488Y-61373183D01*
X202322230Y-61310000D01*
X202428488Y-61246817D01*
X202646854Y-61050293D01*
X202822684Y-60814944D01*
X202949222Y-60549814D01*
X202994958Y-60399026D01*
X212545042Y-60399026D01*
X212590778Y-60549814D01*
X212717316Y-60814944D01*
X212893146Y-61050293D01*
X213111512Y-61246817D01*
X213217770Y-61310000D01*
X213111512Y-61373183D01*
X212893146Y-61569707D01*
X212717316Y-61805056D01*
X212590778Y-62070186D01*
X212545042Y-62220974D01*
X212666183Y-62453000D01*
X213873000Y-62453000D01*
X213873000Y-60167000D01*
X214127000Y-60167000D01*
X214127000Y-62453000D01*
X216413000Y-62453000D01*
X216413000Y-60167000D01*
X216667000Y-60167000D01*
X216667000Y-62453000D01*
X217873817Y-62453000D01*
X217994958Y-62220974D01*
X217949222Y-62070186D01*
X217822684Y-61805056D01*
X217646854Y-61569707D01*
X217428488Y-61373183D01*
X217322230Y-61310000D01*
X217428488Y-61246817D01*
X217646854Y-61050293D01*
X217822684Y-60814944D01*
X217949222Y-60549814D01*
X217994958Y-60399026D01*
X227545042Y-60399026D01*
X227590778Y-60549814D01*
X227717316Y-60814944D01*
X227893146Y-61050293D01*
X228111512Y-61246817D01*
X228217770Y-61310000D01*
X228111512Y-61373183D01*
X227893146Y-61569707D01*
X227717316Y-61805056D01*
X227590778Y-62070186D01*
X227545042Y-62220974D01*
X227666183Y-62453000D01*
X228873000Y-62453000D01*
X228873000Y-60167000D01*
X229127000Y-60167000D01*
X229127000Y-62453000D01*
X231413000Y-62453000D01*
X231413000Y-60167000D01*
X231667000Y-60167000D01*
X231667000Y-62453000D01*
X232873817Y-62453000D01*
X232994958Y-62220974D01*
X232949222Y-62070186D01*
X232822684Y-61805056D01*
X232646854Y-61569707D01*
X232428488Y-61373183D01*
X232322230Y-61310000D01*
X232428488Y-61246817D01*
X232646854Y-61050293D01*
X232822684Y-60814944D01*
X232949222Y-60549814D01*
X232994958Y-60399026D01*
X232873817Y-60167000D01*
X231667000Y-60167000D01*
X231413000Y-60167000D01*
X229127000Y-60167000D01*
X228873000Y-60167000D01*
X227666183Y-60167000D01*
X227545042Y-60399026D01*
X217994958Y-60399026D01*
X217873817Y-60167000D01*
X216667000Y-60167000D01*
X216413000Y-60167000D01*
X214127000Y-60167000D01*
X213873000Y-60167000D01*
X212666183Y-60167000D01*
X212545042Y-60399026D01*
X202994958Y-60399026D01*
X202873817Y-60167000D01*
X201667000Y-60167000D01*
X201413000Y-60167000D01*
X199127000Y-60167000D01*
X198873000Y-60167000D01*
X197666183Y-60167000D01*
X197545042Y-60399026D01*
X187994958Y-60399026D01*
X187873817Y-60167000D01*
X186667000Y-60167000D01*
X186413000Y-60167000D01*
X184127000Y-60167000D01*
X183873000Y-60167000D01*
X182666183Y-60167000D01*
X182545042Y-60399026D01*
X172994958Y-60399026D01*
X172873817Y-60167000D01*
X171667000Y-60167000D01*
X171413000Y-60167000D01*
X169127000Y-60167000D01*
X168873000Y-60167000D01*
X167666183Y-60167000D01*
X167545042Y-60399026D01*
X157994958Y-60399026D01*
X157873817Y-60167000D01*
X156667000Y-60167000D01*
X156413000Y-60167000D01*
X154127000Y-60167000D01*
X153873000Y-60167000D01*
X152666183Y-60167000D01*
X152545042Y-60399026D01*
X142994958Y-60399026D01*
X142873817Y-60167000D01*
X141667000Y-60167000D01*
X141413000Y-60167000D01*
X139127000Y-60167000D01*
X138873000Y-60167000D01*
X137666183Y-60167000D01*
X137545042Y-60399026D01*
X127994958Y-60399026D01*
X127873817Y-60167000D01*
X126667000Y-60167000D01*
X126413000Y-60167000D01*
X124127000Y-60167000D01*
X123873000Y-60167000D01*
X122666183Y-60167000D01*
X122545042Y-60399026D01*
X112994958Y-60399026D01*
X112873817Y-60167000D01*
X111667000Y-60167000D01*
X111413000Y-60167000D01*
X109127000Y-60167000D01*
X108873000Y-60167000D01*
X107666183Y-60167000D01*
X107545042Y-60399026D01*
X97994958Y-60399026D01*
X97873817Y-60167000D01*
X96667000Y-60167000D01*
X96413000Y-60167000D01*
X94127000Y-60167000D01*
X93873000Y-60167000D01*
X92666183Y-60167000D01*
X92545042Y-60399026D01*
X88877719Y-60399026D01*
X88925000Y-60161335D01*
X88925000Y-59878665D01*
X88869853Y-59601426D01*
X88761680Y-59340273D01*
X88604637Y-59105241D01*
X88404759Y-58905363D01*
X88169727Y-58748320D01*
X87908574Y-58640147D01*
X87631335Y-58585000D01*
X87348665Y-58585000D01*
X87071426Y-58640147D01*
X86810273Y-58748320D01*
X86575241Y-58905363D01*
X86375363Y-59105241D01*
X86218320Y-59340273D01*
X86110147Y-59601426D01*
X86055000Y-59878665D01*
X82891743Y-59878665D01*
X82994958Y-59680974D01*
X82949222Y-59530186D01*
X82822684Y-59265056D01*
X82646854Y-59029707D01*
X82428488Y-58833183D01*
X82329897Y-58774559D01*
X82495302Y-58664039D01*
X82704039Y-58455302D01*
X82868042Y-58209853D01*
X82981010Y-57937125D01*
X83038600Y-57647599D01*
X83038600Y-57352401D01*
X82981010Y-57062875D01*
X82868042Y-56790147D01*
X82704039Y-56544698D01*
X82495302Y-56335961D01*
X82249853Y-56171958D01*
X81977125Y-56058990D01*
X81687599Y-56001400D01*
X81392401Y-56001400D01*
X81102875Y-56058990D01*
X80830147Y-56171958D01*
X80584698Y-56335961D01*
X80470636Y-56450023D01*
X80453102Y-56392220D01*
X80394137Y-56281906D01*
X80314785Y-56185215D01*
X80218094Y-56105863D01*
X80107780Y-56046898D01*
X79988082Y-56010588D01*
X79863600Y-55998328D01*
X78136400Y-55998328D01*
X78011918Y-56010588D01*
X77892220Y-56046898D01*
X77781906Y-56105863D01*
X77685215Y-56185215D01*
X77605863Y-56281906D01*
X77546898Y-56392220D01*
X77510588Y-56511918D01*
X77498328Y-56636400D01*
X75575000Y-56636400D01*
X75575000Y-56348816D01*
X75516011Y-56052257D01*
X75400299Y-55772905D01*
X75284768Y-55600000D01*
X84961928Y-55600000D01*
X84961928Y-57400000D01*
X84974188Y-57524482D01*
X85010498Y-57644180D01*
X85069463Y-57754494D01*
X85148815Y-57851185D01*
X85245506Y-57930537D01*
X85355820Y-57989502D01*
X85475518Y-58025812D01*
X85600000Y-58038072D01*
X87400000Y-58038072D01*
X87524482Y-58025812D01*
X87644180Y-57989502D01*
X87754494Y-57930537D01*
X87851185Y-57851185D01*
X87930537Y-57754494D01*
X87989502Y-57644180D01*
X87995056Y-57625873D01*
X88061495Y-57692312D01*
X88312905Y-57860299D01*
X88592257Y-57976011D01*
X88888816Y-58035000D01*
X89191184Y-58035000D01*
X89487743Y-57976011D01*
X89767095Y-57860299D01*
X90018505Y-57692312D01*
X90232312Y-57478505D01*
X90400299Y-57227095D01*
X90516011Y-56947743D01*
X90575000Y-56651184D01*
X90575000Y-56636400D01*
X92498328Y-56636400D01*
X92498328Y-58363600D01*
X92510588Y-58488082D01*
X92546898Y-58607780D01*
X92605863Y-58718094D01*
X92685215Y-58814785D01*
X92781906Y-58894137D01*
X92892220Y-58953102D01*
X92956574Y-58972624D01*
X92893146Y-59029707D01*
X92717316Y-59265056D01*
X92590778Y-59530186D01*
X92545042Y-59680974D01*
X92666183Y-59913000D01*
X93873000Y-59913000D01*
X93873000Y-59893000D01*
X94127000Y-59893000D01*
X94127000Y-59913000D01*
X96413000Y-59913000D01*
X96413000Y-59893000D01*
X96667000Y-59893000D01*
X96667000Y-59913000D01*
X97873817Y-59913000D01*
X97994958Y-59680974D01*
X97949222Y-59530186D01*
X97822684Y-59265056D01*
X97646854Y-59029707D01*
X97428488Y-58833183D01*
X97329897Y-58774559D01*
X97495302Y-58664039D01*
X97704039Y-58455302D01*
X97868042Y-58209853D01*
X97981010Y-57937125D01*
X98038600Y-57647599D01*
X98038600Y-57352401D01*
X97981010Y-57062875D01*
X97868042Y-56790147D01*
X97765313Y-56636400D01*
X107498328Y-56636400D01*
X107498328Y-58363600D01*
X107510588Y-58488082D01*
X107546898Y-58607780D01*
X107605863Y-58718094D01*
X107685215Y-58814785D01*
X107781906Y-58894137D01*
X107892220Y-58953102D01*
X107956574Y-58972624D01*
X107893146Y-59029707D01*
X107717316Y-59265056D01*
X107590778Y-59530186D01*
X107545042Y-59680974D01*
X107666183Y-59913000D01*
X108873000Y-59913000D01*
X108873000Y-59893000D01*
X109127000Y-59893000D01*
X109127000Y-59913000D01*
X111413000Y-59913000D01*
X111413000Y-59893000D01*
X111667000Y-59893000D01*
X111667000Y-59913000D01*
X112873817Y-59913000D01*
X112994958Y-59680974D01*
X112949222Y-59530186D01*
X112822684Y-59265056D01*
X112646854Y-59029707D01*
X112428488Y-58833183D01*
X112329897Y-58774559D01*
X112495302Y-58664039D01*
X112704039Y-58455302D01*
X112868042Y-58209853D01*
X112981010Y-57937125D01*
X113038600Y-57647599D01*
X113038600Y-57352401D01*
X112981010Y-57062875D01*
X112868042Y-56790147D01*
X112765313Y-56636400D01*
X122498328Y-56636400D01*
X122498328Y-58363600D01*
X122510588Y-58488082D01*
X122546898Y-58607780D01*
X122605863Y-58718094D01*
X122685215Y-58814785D01*
X122781906Y-58894137D01*
X122892220Y-58953102D01*
X122956574Y-58972624D01*
X122893146Y-59029707D01*
X122717316Y-59265056D01*
X122590778Y-59530186D01*
X122545042Y-59680974D01*
X122666183Y-59913000D01*
X123873000Y-59913000D01*
X123873000Y-59893000D01*
X124127000Y-59893000D01*
X124127000Y-59913000D01*
X126413000Y-59913000D01*
X126413000Y-59893000D01*
X126667000Y-59893000D01*
X126667000Y-59913000D01*
X127873817Y-59913000D01*
X127994958Y-59680974D01*
X127949222Y-59530186D01*
X127822684Y-59265056D01*
X127646854Y-59029707D01*
X127428488Y-58833183D01*
X127329897Y-58774559D01*
X127495302Y-58664039D01*
X127704039Y-58455302D01*
X127868042Y-58209853D01*
X127981010Y-57937125D01*
X128038600Y-57647599D01*
X128038600Y-57352401D01*
X127981010Y-57062875D01*
X127868042Y-56790147D01*
X127765313Y-56636400D01*
X137498328Y-56636400D01*
X137498328Y-58363600D01*
X137510588Y-58488082D01*
X137546898Y-58607780D01*
X137605863Y-58718094D01*
X137685215Y-58814785D01*
X137781906Y-58894137D01*
X137892220Y-58953102D01*
X137956574Y-58972624D01*
X137893146Y-59029707D01*
X137717316Y-59265056D01*
X137590778Y-59530186D01*
X137545042Y-59680974D01*
X137666183Y-59913000D01*
X138873000Y-59913000D01*
X138873000Y-59893000D01*
X139127000Y-59893000D01*
X139127000Y-59913000D01*
X141413000Y-59913000D01*
X141413000Y-59893000D01*
X141667000Y-59893000D01*
X141667000Y-59913000D01*
X142873817Y-59913000D01*
X142994958Y-59680974D01*
X142949222Y-59530186D01*
X142822684Y-59265056D01*
X142646854Y-59029707D01*
X142428488Y-58833183D01*
X142329897Y-58774559D01*
X142495302Y-58664039D01*
X142704039Y-58455302D01*
X142868042Y-58209853D01*
X142981010Y-57937125D01*
X143038600Y-57647599D01*
X143038600Y-57352401D01*
X142981010Y-57062875D01*
X142868042Y-56790147D01*
X142765313Y-56636400D01*
X152498328Y-56636400D01*
X152498328Y-58363600D01*
X152510588Y-58488082D01*
X152546898Y-58607780D01*
X152605863Y-58718094D01*
X152685215Y-58814785D01*
X152781906Y-58894137D01*
X152892220Y-58953102D01*
X152956574Y-58972624D01*
X152893146Y-59029707D01*
X152717316Y-59265056D01*
X152590778Y-59530186D01*
X152545042Y-59680974D01*
X152666183Y-59913000D01*
X153873000Y-59913000D01*
X153873000Y-59893000D01*
X154127000Y-59893000D01*
X154127000Y-59913000D01*
X156413000Y-59913000D01*
X156413000Y-59893000D01*
X156667000Y-59893000D01*
X156667000Y-59913000D01*
X157873817Y-59913000D01*
X157994958Y-59680974D01*
X157949222Y-59530186D01*
X157822684Y-59265056D01*
X157646854Y-59029707D01*
X157428488Y-58833183D01*
X157329897Y-58774559D01*
X157495302Y-58664039D01*
X157704039Y-58455302D01*
X157868042Y-58209853D01*
X157981010Y-57937125D01*
X158038600Y-57647599D01*
X158038600Y-57352401D01*
X157981010Y-57062875D01*
X157868042Y-56790147D01*
X157765313Y-56636400D01*
X167498328Y-56636400D01*
X167498328Y-58363600D01*
X167510588Y-58488082D01*
X167546898Y-58607780D01*
X167605863Y-58718094D01*
X167685215Y-58814785D01*
X167781906Y-58894137D01*
X167892220Y-58953102D01*
X167956574Y-58972624D01*
X167893146Y-59029707D01*
X167717316Y-59265056D01*
X167590778Y-59530186D01*
X167545042Y-59680974D01*
X167666183Y-59913000D01*
X168873000Y-59913000D01*
X168873000Y-59893000D01*
X169127000Y-59893000D01*
X169127000Y-59913000D01*
X171413000Y-59913000D01*
X171413000Y-59893000D01*
X171667000Y-59893000D01*
X171667000Y-59913000D01*
X172873817Y-59913000D01*
X172994958Y-59680974D01*
X172949222Y-59530186D01*
X172822684Y-59265056D01*
X172646854Y-59029707D01*
X172428488Y-58833183D01*
X172329897Y-58774559D01*
X172495302Y-58664039D01*
X172704039Y-58455302D01*
X172868042Y-58209853D01*
X172981010Y-57937125D01*
X173038600Y-57647599D01*
X173038600Y-57352401D01*
X172981010Y-57062875D01*
X172868042Y-56790147D01*
X172765313Y-56636400D01*
X182498328Y-56636400D01*
X182498328Y-58363600D01*
X182510588Y-58488082D01*
X182546898Y-58607780D01*
X182605863Y-58718094D01*
X182685215Y-58814785D01*
X182781906Y-58894137D01*
X182892220Y-58953102D01*
X182956574Y-58972624D01*
X182893146Y-59029707D01*
X182717316Y-59265056D01*
X182590778Y-59530186D01*
X182545042Y-59680974D01*
X182666183Y-59913000D01*
X183873000Y-59913000D01*
X183873000Y-59893000D01*
X184127000Y-59893000D01*
X184127000Y-59913000D01*
X186413000Y-59913000D01*
X186413000Y-59893000D01*
X186667000Y-59893000D01*
X186667000Y-59913000D01*
X187873817Y-59913000D01*
X187994958Y-59680974D01*
X187949222Y-59530186D01*
X187822684Y-59265056D01*
X187646854Y-59029707D01*
X187428488Y-58833183D01*
X187329897Y-58774559D01*
X187495302Y-58664039D01*
X187704039Y-58455302D01*
X187868042Y-58209853D01*
X187981010Y-57937125D01*
X188038600Y-57647599D01*
X188038600Y-57352401D01*
X187981010Y-57062875D01*
X187868042Y-56790147D01*
X187765313Y-56636400D01*
X197498328Y-56636400D01*
X197498328Y-58363600D01*
X197510588Y-58488082D01*
X197546898Y-58607780D01*
X197605863Y-58718094D01*
X197685215Y-58814785D01*
X197781906Y-58894137D01*
X197892220Y-58953102D01*
X197956574Y-58972624D01*
X197893146Y-59029707D01*
X197717316Y-59265056D01*
X197590778Y-59530186D01*
X197545042Y-59680974D01*
X197666183Y-59913000D01*
X198873000Y-59913000D01*
X198873000Y-59893000D01*
X199127000Y-59893000D01*
X199127000Y-59913000D01*
X201413000Y-59913000D01*
X201413000Y-59893000D01*
X201667000Y-59893000D01*
X201667000Y-59913000D01*
X202873817Y-59913000D01*
X202994958Y-59680974D01*
X202949222Y-59530186D01*
X202822684Y-59265056D01*
X202646854Y-59029707D01*
X202428488Y-58833183D01*
X202329897Y-58774559D01*
X202495302Y-58664039D01*
X202704039Y-58455302D01*
X202868042Y-58209853D01*
X202981010Y-57937125D01*
X203038600Y-57647599D01*
X203038600Y-57352401D01*
X202981010Y-57062875D01*
X202868042Y-56790147D01*
X202765313Y-56636400D01*
X212498328Y-56636400D01*
X212498328Y-58363600D01*
X212510588Y-58488082D01*
X212546898Y-58607780D01*
X212605863Y-58718094D01*
X212685215Y-58814785D01*
X212781906Y-58894137D01*
X212892220Y-58953102D01*
X212956574Y-58972624D01*
X212893146Y-59029707D01*
X212717316Y-59265056D01*
X212590778Y-59530186D01*
X212545042Y-59680974D01*
X212666183Y-59913000D01*
X213873000Y-59913000D01*
X213873000Y-59893000D01*
X214127000Y-59893000D01*
X214127000Y-59913000D01*
X216413000Y-59913000D01*
X216413000Y-59893000D01*
X216667000Y-59893000D01*
X216667000Y-59913000D01*
X217873817Y-59913000D01*
X217994958Y-59680974D01*
X217949222Y-59530186D01*
X217822684Y-59265056D01*
X217646854Y-59029707D01*
X217428488Y-58833183D01*
X217329897Y-58774559D01*
X217495302Y-58664039D01*
X217704039Y-58455302D01*
X217868042Y-58209853D01*
X217981010Y-57937125D01*
X218038600Y-57647599D01*
X218038600Y-57352401D01*
X217981010Y-57062875D01*
X217868042Y-56790147D01*
X217765313Y-56636400D01*
X227498328Y-56636400D01*
X227498328Y-58363600D01*
X227510588Y-58488082D01*
X227546898Y-58607780D01*
X227605863Y-58718094D01*
X227685215Y-58814785D01*
X227781906Y-58894137D01*
X227892220Y-58953102D01*
X227956574Y-58972624D01*
X227893146Y-59029707D01*
X227717316Y-59265056D01*
X227590778Y-59530186D01*
X227545042Y-59680974D01*
X227666183Y-59913000D01*
X228873000Y-59913000D01*
X228873000Y-59893000D01*
X229127000Y-59893000D01*
X229127000Y-59913000D01*
X231413000Y-59913000D01*
X231413000Y-59893000D01*
X231667000Y-59893000D01*
X231667000Y-59913000D01*
X232873817Y-59913000D01*
X232994958Y-59680974D01*
X232949222Y-59530186D01*
X232822684Y-59265056D01*
X232646854Y-59029707D01*
X232428488Y-58833183D01*
X232329897Y-58774559D01*
X232495302Y-58664039D01*
X232704039Y-58455302D01*
X232868042Y-58209853D01*
X232981010Y-57937125D01*
X233038600Y-57647599D01*
X233038600Y-57352401D01*
X232981010Y-57062875D01*
X232868042Y-56790147D01*
X232704039Y-56544698D01*
X232495302Y-56335961D01*
X232249853Y-56171958D01*
X231977125Y-56058990D01*
X231687599Y-56001400D01*
X231392401Y-56001400D01*
X231102875Y-56058990D01*
X230830147Y-56171958D01*
X230584698Y-56335961D01*
X230470636Y-56450023D01*
X230453102Y-56392220D01*
X230394137Y-56281906D01*
X230314785Y-56185215D01*
X230218094Y-56105863D01*
X230107780Y-56046898D01*
X229988082Y-56010588D01*
X229863600Y-55998328D01*
X228136400Y-55998328D01*
X228011918Y-56010588D01*
X227892220Y-56046898D01*
X227781906Y-56105863D01*
X227685215Y-56185215D01*
X227605863Y-56281906D01*
X227546898Y-56392220D01*
X227510588Y-56511918D01*
X227498328Y-56636400D01*
X217765313Y-56636400D01*
X217704039Y-56544698D01*
X217495302Y-56335961D01*
X217249853Y-56171958D01*
X216977125Y-56058990D01*
X216687599Y-56001400D01*
X216392401Y-56001400D01*
X216102875Y-56058990D01*
X215830147Y-56171958D01*
X215584698Y-56335961D01*
X215470636Y-56450023D01*
X215453102Y-56392220D01*
X215394137Y-56281906D01*
X215314785Y-56185215D01*
X215218094Y-56105863D01*
X215107780Y-56046898D01*
X214988082Y-56010588D01*
X214863600Y-55998328D01*
X213136400Y-55998328D01*
X213011918Y-56010588D01*
X212892220Y-56046898D01*
X212781906Y-56105863D01*
X212685215Y-56185215D01*
X212605863Y-56281906D01*
X212546898Y-56392220D01*
X212510588Y-56511918D01*
X212498328Y-56636400D01*
X202765313Y-56636400D01*
X202704039Y-56544698D01*
X202495302Y-56335961D01*
X202249853Y-56171958D01*
X201977125Y-56058990D01*
X201687599Y-56001400D01*
X201392401Y-56001400D01*
X201102875Y-56058990D01*
X200830147Y-56171958D01*
X200584698Y-56335961D01*
X200470636Y-56450023D01*
X200453102Y-56392220D01*
X200394137Y-56281906D01*
X200314785Y-56185215D01*
X200218094Y-56105863D01*
X200107780Y-56046898D01*
X199988082Y-56010588D01*
X199863600Y-55998328D01*
X198136400Y-55998328D01*
X198011918Y-56010588D01*
X197892220Y-56046898D01*
X197781906Y-56105863D01*
X197685215Y-56185215D01*
X197605863Y-56281906D01*
X197546898Y-56392220D01*
X197510588Y-56511918D01*
X197498328Y-56636400D01*
X187765313Y-56636400D01*
X187704039Y-56544698D01*
X187495302Y-56335961D01*
X187249853Y-56171958D01*
X186977125Y-56058990D01*
X186687599Y-56001400D01*
X186392401Y-56001400D01*
X186102875Y-56058990D01*
X185830147Y-56171958D01*
X185584698Y-56335961D01*
X185470636Y-56450023D01*
X185453102Y-56392220D01*
X185394137Y-56281906D01*
X185314785Y-56185215D01*
X185218094Y-56105863D01*
X185107780Y-56046898D01*
X184988082Y-56010588D01*
X184863600Y-55998328D01*
X183136400Y-55998328D01*
X183011918Y-56010588D01*
X182892220Y-56046898D01*
X182781906Y-56105863D01*
X182685215Y-56185215D01*
X182605863Y-56281906D01*
X182546898Y-56392220D01*
X182510588Y-56511918D01*
X182498328Y-56636400D01*
X172765313Y-56636400D01*
X172704039Y-56544698D01*
X172495302Y-56335961D01*
X172249853Y-56171958D01*
X171977125Y-56058990D01*
X171687599Y-56001400D01*
X171392401Y-56001400D01*
X171102875Y-56058990D01*
X170830147Y-56171958D01*
X170584698Y-56335961D01*
X170470636Y-56450023D01*
X170453102Y-56392220D01*
X170394137Y-56281906D01*
X170314785Y-56185215D01*
X170218094Y-56105863D01*
X170107780Y-56046898D01*
X169988082Y-56010588D01*
X169863600Y-55998328D01*
X168136400Y-55998328D01*
X168011918Y-56010588D01*
X167892220Y-56046898D01*
X167781906Y-56105863D01*
X167685215Y-56185215D01*
X167605863Y-56281906D01*
X167546898Y-56392220D01*
X167510588Y-56511918D01*
X167498328Y-56636400D01*
X157765313Y-56636400D01*
X157704039Y-56544698D01*
X157495302Y-56335961D01*
X157249853Y-56171958D01*
X156977125Y-56058990D01*
X156687599Y-56001400D01*
X156392401Y-56001400D01*
X156102875Y-56058990D01*
X155830147Y-56171958D01*
X155584698Y-56335961D01*
X155470636Y-56450023D01*
X155453102Y-56392220D01*
X155394137Y-56281906D01*
X155314785Y-56185215D01*
X155218094Y-56105863D01*
X155107780Y-56046898D01*
X154988082Y-56010588D01*
X154863600Y-55998328D01*
X153136400Y-55998328D01*
X153011918Y-56010588D01*
X152892220Y-56046898D01*
X152781906Y-56105863D01*
X152685215Y-56185215D01*
X152605863Y-56281906D01*
X152546898Y-56392220D01*
X152510588Y-56511918D01*
X152498328Y-56636400D01*
X142765313Y-56636400D01*
X142704039Y-56544698D01*
X142495302Y-56335961D01*
X142249853Y-56171958D01*
X141977125Y-56058990D01*
X141687599Y-56001400D01*
X141392401Y-56001400D01*
X141102875Y-56058990D01*
X140830147Y-56171958D01*
X140584698Y-56335961D01*
X140470636Y-56450023D01*
X140453102Y-56392220D01*
X140394137Y-56281906D01*
X140314785Y-56185215D01*
X140218094Y-56105863D01*
X140107780Y-56046898D01*
X139988082Y-56010588D01*
X139863600Y-55998328D01*
X138136400Y-55998328D01*
X138011918Y-56010588D01*
X137892220Y-56046898D01*
X137781906Y-56105863D01*
X137685215Y-56185215D01*
X137605863Y-56281906D01*
X137546898Y-56392220D01*
X137510588Y-56511918D01*
X137498328Y-56636400D01*
X127765313Y-56636400D01*
X127704039Y-56544698D01*
X127495302Y-56335961D01*
X127249853Y-56171958D01*
X126977125Y-56058990D01*
X126687599Y-56001400D01*
X126392401Y-56001400D01*
X126102875Y-56058990D01*
X125830147Y-56171958D01*
X125584698Y-56335961D01*
X125470636Y-56450023D01*
X125453102Y-56392220D01*
X125394137Y-56281906D01*
X125314785Y-56185215D01*
X125218094Y-56105863D01*
X125107780Y-56046898D01*
X124988082Y-56010588D01*
X124863600Y-55998328D01*
X123136400Y-55998328D01*
X123011918Y-56010588D01*
X122892220Y-56046898D01*
X122781906Y-56105863D01*
X122685215Y-56185215D01*
X122605863Y-56281906D01*
X122546898Y-56392220D01*
X122510588Y-56511918D01*
X122498328Y-56636400D01*
X112765313Y-56636400D01*
X112704039Y-56544698D01*
X112495302Y-56335961D01*
X112249853Y-56171958D01*
X111977125Y-56058990D01*
X111687599Y-56001400D01*
X111392401Y-56001400D01*
X111102875Y-56058990D01*
X110830147Y-56171958D01*
X110584698Y-56335961D01*
X110470636Y-56450023D01*
X110453102Y-56392220D01*
X110394137Y-56281906D01*
X110314785Y-56185215D01*
X110218094Y-56105863D01*
X110107780Y-56046898D01*
X109988082Y-56010588D01*
X109863600Y-55998328D01*
X108136400Y-55998328D01*
X108011918Y-56010588D01*
X107892220Y-56046898D01*
X107781906Y-56105863D01*
X107685215Y-56185215D01*
X107605863Y-56281906D01*
X107546898Y-56392220D01*
X107510588Y-56511918D01*
X107498328Y-56636400D01*
X97765313Y-56636400D01*
X97704039Y-56544698D01*
X97495302Y-56335961D01*
X97249853Y-56171958D01*
X96977125Y-56058990D01*
X96687599Y-56001400D01*
X96392401Y-56001400D01*
X96102875Y-56058990D01*
X95830147Y-56171958D01*
X95584698Y-56335961D01*
X95470636Y-56450023D01*
X95453102Y-56392220D01*
X95394137Y-56281906D01*
X95314785Y-56185215D01*
X95218094Y-56105863D01*
X95107780Y-56046898D01*
X94988082Y-56010588D01*
X94863600Y-55998328D01*
X93136400Y-55998328D01*
X93011918Y-56010588D01*
X92892220Y-56046898D01*
X92781906Y-56105863D01*
X92685215Y-56185215D01*
X92605863Y-56281906D01*
X92546898Y-56392220D01*
X92510588Y-56511918D01*
X92498328Y-56636400D01*
X90575000Y-56636400D01*
X90575000Y-56348816D01*
X90516011Y-56052257D01*
X90400299Y-55772905D01*
X90232312Y-55521495D01*
X90018505Y-55307688D01*
X89767095Y-55139701D01*
X89487743Y-55023989D01*
X89191184Y-54965000D01*
X88888816Y-54965000D01*
X88592257Y-55023989D01*
X88312905Y-55139701D01*
X88061495Y-55307688D01*
X87995056Y-55374127D01*
X87989502Y-55355820D01*
X87930537Y-55245506D01*
X87851185Y-55148815D01*
X87754494Y-55069463D01*
X87644180Y-55010498D01*
X87524482Y-54974188D01*
X87400000Y-54961928D01*
X85600000Y-54961928D01*
X85475518Y-54974188D01*
X85355820Y-55010498D01*
X85245506Y-55069463D01*
X85148815Y-55148815D01*
X85069463Y-55245506D01*
X85010498Y-55355820D01*
X84974188Y-55475518D01*
X84961928Y-55600000D01*
X75284768Y-55600000D01*
X75232312Y-55521495D01*
X75018505Y-55307688D01*
X74767095Y-55139701D01*
X74487743Y-55023989D01*
X74191184Y-54965000D01*
X73888816Y-54965000D01*
X73592257Y-55023989D01*
X73312905Y-55139701D01*
X73061495Y-55307688D01*
X72995056Y-55374127D01*
X72989502Y-55355820D01*
X72930537Y-55245506D01*
X72851185Y-55148815D01*
X72754494Y-55069463D01*
X72644180Y-55010498D01*
X72524482Y-54974188D01*
X72400000Y-54961928D01*
X71785750Y-54965000D01*
X71627000Y-55123750D01*
X71373000Y-55123750D01*
X71214250Y-54965000D01*
X70600000Y-54961928D01*
X70475518Y-54974188D01*
X70355820Y-55010498D01*
X70245506Y-55069463D01*
X70148815Y-55148815D01*
X70069463Y-55245506D01*
X70010498Y-55355820D01*
X69974188Y-55475518D01*
X69961928Y-55600000D01*
X59310767Y-55600000D01*
X59486038Y-55424729D01*
X59730631Y-55058669D01*
X59899110Y-54651925D01*
X59985000Y-54220128D01*
X59985000Y-53779872D01*
X100515000Y-53779872D01*
X100515000Y-54220128D01*
X100600890Y-54651925D01*
X100769369Y-55058669D01*
X101013962Y-55424729D01*
X101325271Y-55736038D01*
X101691331Y-55980631D01*
X102098075Y-56149110D01*
X102529872Y-56235000D01*
X102970128Y-56235000D01*
X103401925Y-56149110D01*
X103808669Y-55980631D01*
X104174729Y-55736038D01*
X104486038Y-55424729D01*
X104730631Y-55058669D01*
X104899110Y-54651925D01*
X104985000Y-54220128D01*
X104985000Y-53779872D01*
X145515000Y-53779872D01*
X145515000Y-54220128D01*
X145600890Y-54651925D01*
X145769369Y-55058669D01*
X146013962Y-55424729D01*
X146325271Y-55736038D01*
X146691331Y-55980631D01*
X147098075Y-56149110D01*
X147529872Y-56235000D01*
X147970128Y-56235000D01*
X148401925Y-56149110D01*
X148808669Y-55980631D01*
X149174729Y-55736038D01*
X149486038Y-55424729D01*
X149730631Y-55058669D01*
X149899110Y-54651925D01*
X149985000Y-54220128D01*
X149985000Y-53779872D01*
X190515000Y-53779872D01*
X190515000Y-54220128D01*
X190600890Y-54651925D01*
X190769369Y-55058669D01*
X191013962Y-55424729D01*
X191325271Y-55736038D01*
X191691331Y-55980631D01*
X192098075Y-56149110D01*
X192529872Y-56235000D01*
X192970128Y-56235000D01*
X193401925Y-56149110D01*
X193808669Y-55980631D01*
X194174729Y-55736038D01*
X194486038Y-55424729D01*
X194730631Y-55058669D01*
X194899110Y-54651925D01*
X194985000Y-54220128D01*
X194985000Y-53779872D01*
X235515000Y-53779872D01*
X235515000Y-54220128D01*
X235600890Y-54651925D01*
X235769369Y-55058669D01*
X236013962Y-55424729D01*
X236325271Y-55736038D01*
X236691331Y-55980631D01*
X237098075Y-56149110D01*
X237529872Y-56235000D01*
X237970128Y-56235000D01*
X238401925Y-56149110D01*
X238808669Y-55980631D01*
X239174729Y-55736038D01*
X239486038Y-55424729D01*
X239730631Y-55058669D01*
X239899110Y-54651925D01*
X239985000Y-54220128D01*
X239985000Y-53779872D01*
X239899110Y-53348075D01*
X239730631Y-52941331D01*
X239486038Y-52575271D01*
X239174729Y-52263962D01*
X238808669Y-52019369D01*
X238401925Y-51850890D01*
X237970128Y-51765000D01*
X237529872Y-51765000D01*
X237098075Y-51850890D01*
X236691331Y-52019369D01*
X236325271Y-52263962D01*
X236013962Y-52575271D01*
X235769369Y-52941331D01*
X235600890Y-53348075D01*
X235515000Y-53779872D01*
X194985000Y-53779872D01*
X194899110Y-53348075D01*
X194730631Y-52941331D01*
X194486038Y-52575271D01*
X194174729Y-52263962D01*
X193808669Y-52019369D01*
X193401925Y-51850890D01*
X192970128Y-51765000D01*
X192529872Y-51765000D01*
X192098075Y-51850890D01*
X191691331Y-52019369D01*
X191325271Y-52263962D01*
X191013962Y-52575271D01*
X190769369Y-52941331D01*
X190600890Y-53348075D01*
X190515000Y-53779872D01*
X149985000Y-53779872D01*
X149899110Y-53348075D01*
X149730631Y-52941331D01*
X149486038Y-52575271D01*
X149174729Y-52263962D01*
X148808669Y-52019369D01*
X148401925Y-51850890D01*
X147970128Y-51765000D01*
X147529872Y-51765000D01*
X147098075Y-51850890D01*
X146691331Y-52019369D01*
X146325271Y-52263962D01*
X146013962Y-52575271D01*
X145769369Y-52941331D01*
X145600890Y-53348075D01*
X145515000Y-53779872D01*
X104985000Y-53779872D01*
X104899110Y-53348075D01*
X104730631Y-52941331D01*
X104486038Y-52575271D01*
X104174729Y-52263962D01*
X103808669Y-52019369D01*
X103401925Y-51850890D01*
X102970128Y-51765000D01*
X102529872Y-51765000D01*
X102098075Y-51850890D01*
X101691331Y-52019369D01*
X101325271Y-52263962D01*
X101013962Y-52575271D01*
X100769369Y-52941331D01*
X100600890Y-53348075D01*
X100515000Y-53779872D01*
X59985000Y-53779872D01*
X59899110Y-53348075D01*
X59730631Y-52941331D01*
X59486038Y-52575271D01*
X59174729Y-52263962D01*
X58808669Y-52019369D01*
X58401925Y-51850890D01*
X57970128Y-51765000D01*
X57529872Y-51765000D01*
X57098075Y-51850890D01*
X56691331Y-52019369D01*
X56325271Y-52263962D01*
X56013962Y-52575271D01*
X55769369Y-52941331D01*
X55600890Y-53348075D01*
X55515000Y-53779872D01*
X42710000Y-53779872D01*
X42710000Y-50710000D01*
X241290000Y-50710000D01*
X241290001Y-74290000D01*
G37*
X241290001Y-74290000D02*
X42710000Y-74290000D01*
X42710000Y-71029872D01*
X55515000Y-71029872D01*
X55515000Y-71470128D01*
X55600890Y-71901925D01*
X55769369Y-72308669D01*
X56013962Y-72674729D01*
X56325271Y-72986038D01*
X56691331Y-73230631D01*
X57098075Y-73399110D01*
X57529872Y-73485000D01*
X57970128Y-73485000D01*
X58401925Y-73399110D01*
X58808669Y-73230631D01*
X59174729Y-72986038D01*
X59486038Y-72674729D01*
X59730631Y-72308669D01*
X59899110Y-71901925D01*
X59985000Y-71470128D01*
X59985000Y-71029872D01*
X100515000Y-71029872D01*
X100515000Y-71470128D01*
X100600890Y-71901925D01*
X100769369Y-72308669D01*
X101013962Y-72674729D01*
X101325271Y-72986038D01*
X101691331Y-73230631D01*
X102098075Y-73399110D01*
X102529872Y-73485000D01*
X102970128Y-73485000D01*
X103401925Y-73399110D01*
X103808669Y-73230631D01*
X104174729Y-72986038D01*
X104486038Y-72674729D01*
X104730631Y-72308669D01*
X104899110Y-71901925D01*
X104985000Y-71470128D01*
X104985000Y-71029872D01*
X145515000Y-71029872D01*
X145515000Y-71470128D01*
X145600890Y-71901925D01*
X145769369Y-72308669D01*
X146013962Y-72674729D01*
X146325271Y-72986038D01*
X146691331Y-73230631D01*
X147098075Y-73399110D01*
X147529872Y-73485000D01*
X147970128Y-73485000D01*
X148401925Y-73399110D01*
X148808669Y-73230631D01*
X149174729Y-72986038D01*
X149486038Y-72674729D01*
X149730631Y-72308669D01*
X149899110Y-71901925D01*
X149985000Y-71470128D01*
X149985000Y-71029872D01*
X190515000Y-71029872D01*
X190515000Y-71470128D01*
X190600890Y-71901925D01*
X190769369Y-72308669D01*
X191013962Y-72674729D01*
X191325271Y-72986038D01*
X191691331Y-73230631D01*
X192098075Y-73399110D01*
X192529872Y-73485000D01*
X192970128Y-73485000D01*
X193401925Y-73399110D01*
X193808669Y-73230631D01*
X194174729Y-72986038D01*
X194486038Y-72674729D01*
X194730631Y-72308669D01*
X194899110Y-71901925D01*
X194985000Y-71470128D01*
X194985000Y-71029872D01*
X235515000Y-71029872D01*
X235515000Y-71470128D01*
X235600890Y-71901925D01*
X235769369Y-72308669D01*
X236013962Y-72674729D01*
X236325271Y-72986038D01*
X236691331Y-73230631D01*
X237098075Y-73399110D01*
X237529872Y-73485000D01*
X237970128Y-73485000D01*
X238401925Y-73399110D01*
X238808669Y-73230631D01*
X239174729Y-72986038D01*
X239486038Y-72674729D01*
X239730631Y-72308669D01*
X239899110Y-71901925D01*
X239985000Y-71470128D01*
X239985000Y-71029872D01*
X239899110Y-70598075D01*
X239730631Y-70191331D01*
X239486038Y-69825271D01*
X239174729Y-69513962D01*
X238808669Y-69269369D01*
X238401925Y-69100890D01*
X237970128Y-69015000D01*
X237529872Y-69015000D01*
X237098075Y-69100890D01*
X236691331Y-69269369D01*
X236325271Y-69513962D01*
X236013962Y-69825271D01*
X235769369Y-70191331D01*
X235600890Y-70598075D01*
X235515000Y-71029872D01*
X194985000Y-71029872D01*
X194899110Y-70598075D01*
X194730631Y-70191331D01*
X194486038Y-69825271D01*
X194174729Y-69513962D01*
X193808669Y-69269369D01*
X193401925Y-69100890D01*
X192970128Y-69015000D01*
X192529872Y-69015000D01*
X192098075Y-69100890D01*
X191691331Y-69269369D01*
X191325271Y-69513962D01*
X191013962Y-69825271D01*
X190769369Y-70191331D01*
X190600890Y-70598075D01*
X190515000Y-71029872D01*
X149985000Y-71029872D01*
X149899110Y-70598075D01*
X149730631Y-70191331D01*
X149486038Y-69825271D01*
X149174729Y-69513962D01*
X148808669Y-69269369D01*
X148401925Y-69100890D01*
X147970128Y-69015000D01*
X147529872Y-69015000D01*
X147098075Y-69100890D01*
X146691331Y-69269369D01*
X146325271Y-69513962D01*
X146013962Y-69825271D01*
X145769369Y-70191331D01*
X145600890Y-70598075D01*
X145515000Y-71029872D01*
X104985000Y-71029872D01*
X104899110Y-70598075D01*
X104730631Y-70191331D01*
X104486038Y-69825271D01*
X104174729Y-69513962D01*
X103808669Y-69269369D01*
X103401925Y-69100890D01*
X102970128Y-69015000D01*
X102529872Y-69015000D01*
X102098075Y-69100890D01*
X101691331Y-69269369D01*
X101325271Y-69513962D01*
X101013962Y-69825271D01*
X100769369Y-70191331D01*
X100600890Y-70598075D01*
X100515000Y-71029872D01*
X59985000Y-71029872D01*
X59899110Y-70598075D01*
X59730631Y-70191331D01*
X59486038Y-69825271D01*
X59174729Y-69513962D01*
X58808669Y-69269369D01*
X58401925Y-69100890D01*
X57970128Y-69015000D01*
X57529872Y-69015000D01*
X57098075Y-69100890D01*
X56691331Y-69269369D01*
X56325271Y-69513962D01*
X56013962Y-69825271D01*
X55769369Y-70191331D01*
X55600890Y-70598075D01*
X55515000Y-71029872D01*
X42710000Y-71029872D01*
X42710000Y-67314344D01*
X45615000Y-67314344D01*
X45615000Y-67685656D01*
X45687439Y-68049834D01*
X45829534Y-68392882D01*
X46035825Y-68701618D01*
X46298382Y-68964175D01*
X46607118Y-69170466D01*
X46950166Y-69312561D01*
X47314344Y-69385000D01*
X47685656Y-69385000D01*
X48049834Y-69312561D01*
X48392882Y-69170466D01*
X48701618Y-68964175D01*
X48964175Y-68701618D01*
X49170466Y-68392882D01*
X49312561Y-68049834D01*
X49385000Y-67685656D01*
X49385000Y-67512401D01*
X62501400Y-67512401D01*
X62501400Y-67807599D01*
X62558990Y-68097125D01*
X62671958Y-68369853D01*
X62835961Y-68615302D01*
X63044698Y-68824039D01*
X63290147Y-68988042D01*
X63562875Y-69101010D01*
X63852401Y-69158600D01*
X64147599Y-69158600D01*
X64437125Y-69101010D01*
X64709853Y-68988042D01*
X64955302Y-68824039D01*
X65164039Y-68615302D01*
X65270000Y-68456719D01*
X65375961Y-68615302D01*
X65584698Y-68824039D01*
X65830147Y-68988042D01*
X66102875Y-69101010D01*
X66392401Y-69158600D01*
X66687599Y-69158600D01*
X66977125Y-69101010D01*
X67249853Y-68988042D01*
X67495302Y-68824039D01*
X67704039Y-68615302D01*
X67868042Y-68369853D01*
X67981010Y-68097125D01*
X68038600Y-67807599D01*
X68038600Y-67512401D01*
X68031890Y-67478665D01*
X71065000Y-67478665D01*
X71065000Y-67761335D01*
X71120147Y-68038574D01*
X71228320Y-68299727D01*
X71385363Y-68534759D01*
X71585241Y-68734637D01*
X71820273Y-68891680D01*
X72081426Y-68999853D01*
X72358665Y-69055000D01*
X72641335Y-69055000D01*
X72918574Y-68999853D01*
X73179727Y-68891680D01*
X73414759Y-68734637D01*
X73614637Y-68534759D01*
X73771680Y-68299727D01*
X73879853Y-68038574D01*
X73935000Y-67761335D01*
X73935000Y-67512401D01*
X77501400Y-67512401D01*
X77501400Y-67807599D01*
X77558990Y-68097125D01*
X77671958Y-68369853D01*
X77835961Y-68615302D01*
X78044698Y-68824039D01*
X78290147Y-68988042D01*
X78562875Y-69101010D01*
X78852401Y-69158600D01*
X79147599Y-69158600D01*
X79437125Y-69101010D01*
X79709853Y-68988042D01*
X79955302Y-68824039D01*
X80164039Y-68615302D01*
X80270000Y-68456719D01*
X80375961Y-68615302D01*
X80584698Y-68824039D01*
X80830147Y-68988042D01*
X81102875Y-69101010D01*
X81392401Y-69158600D01*
X81687599Y-69158600D01*
X81977125Y-69101010D01*
X82249853Y-68988042D01*
X82495302Y-68824039D01*
X82686639Y-68632702D01*
X86676903Y-68632702D01*
X86748486Y-68876671D01*
X87003996Y-68997571D01*
X87278184Y-69066300D01*
X87560512Y-69080217D01*
X87840130Y-69038787D01*
X88106292Y-68943603D01*
X88231514Y-68876671D01*
X88303097Y-68632702D01*
X87490000Y-67819605D01*
X86676903Y-68632702D01*
X82686639Y-68632702D01*
X82704039Y-68615302D01*
X82868042Y-68369853D01*
X82981010Y-68097125D01*
X83038600Y-67807599D01*
X83038600Y-67710512D01*
X86049783Y-67710512D01*
X86091213Y-67990130D01*
X86186397Y-68256292D01*
X86253329Y-68381514D01*
X86497298Y-68453097D01*
X87310395Y-67640000D01*
X87669605Y-67640000D01*
X88482702Y-68453097D01*
X88726671Y-68381514D01*
X88847571Y-68126004D01*
X88916300Y-67851816D01*
X88930217Y-67569488D01*
X88921759Y-67512401D01*
X92501400Y-67512401D01*
X92501400Y-67807599D01*
X92558990Y-68097125D01*
X92671958Y-68369853D01*
X92835961Y-68615302D01*
X93044698Y-68824039D01*
X93290147Y-68988042D01*
X93562875Y-69101010D01*
X93852401Y-69158600D01*
X94147599Y-69158600D01*
X94437125Y-69101010D01*
X94709853Y-68988042D01*
X94955302Y-68824039D01*
X95164039Y-68615302D01*
X95270000Y-68456719D01*
X95375961Y-68615302D01*
X95584698Y-68824039D01*
X95830147Y-68988042D01*
X96102875Y-69101010D01*
X96392401Y-69158600D01*
X96687599Y-69158600D01*
X96977125Y-69101010D01*
X97249853Y-68988042D01*
X97495302Y-68824039D01*
X97704039Y-68615302D01*
X97868042Y-68369853D01*
X97981010Y-68097125D01*
X98038600Y-67807599D01*
X98038600Y-67512401D01*
X107501400Y-67512401D01*
X107501400Y-67807599D01*
X107558990Y-68097125D01*
X107671958Y-68369853D01*
X107835961Y-68615302D01*
X108044698Y-68824039D01*
X108290147Y-68988042D01*
X108562875Y-69101010D01*
X108852401Y-69158600D01*
X109147599Y-69158600D01*
X109437125Y-69101010D01*
X109709853Y-68988042D01*
X109955302Y-68824039D01*
X110164039Y-68615302D01*
X110270000Y-68456719D01*
X110375961Y-68615302D01*
X110584698Y-68824039D01*
X110830147Y-68988042D01*
X111102875Y-69101010D01*
X111392401Y-69158600D01*
X111687599Y-69158600D01*
X111977125Y-69101010D01*
X112249853Y-68988042D01*
X112495302Y-68824039D01*
X112704039Y-68615302D01*
X112868042Y-68369853D01*
X112981010Y-68097125D01*
X113038600Y-67807599D01*
X113038600Y-67512401D01*
X122501400Y-67512401D01*
X122501400Y-67807599D01*
X122558990Y-68097125D01*
X122671958Y-68369853D01*
X122835961Y-68615302D01*
X123044698Y-68824039D01*
X123290147Y-68988042D01*
X123562875Y-69101010D01*
X123852401Y-69158600D01*
X124147599Y-69158600D01*
X124437125Y-69101010D01*
X124709853Y-68988042D01*
X124955302Y-68824039D01*
X125164039Y-68615302D01*
X125270000Y-68456719D01*
X125375961Y-68615302D01*
X125584698Y-68824039D01*
X125830147Y-68988042D01*
X126102875Y-69101010D01*
X126392401Y-69158600D01*
X126687599Y-69158600D01*
X126977125Y-69101010D01*
X127249853Y-68988042D01*
X127495302Y-68824039D01*
X127704039Y-68615302D01*
X127868042Y-68369853D01*
X127981010Y-68097125D01*
X128038600Y-67807599D01*
X128038600Y-67512401D01*
X137501400Y-67512401D01*
X137501400Y-67807599D01*
X137558990Y-68097125D01*
X137671958Y-68369853D01*
X137835961Y-68615302D01*
X138044698Y-68824039D01*
X138290147Y-68988042D01*
X138562875Y-69101010D01*
X138852401Y-69158600D01*
X139147599Y-69158600D01*
X139437125Y-69101010D01*
X139709853Y-68988042D01*
X139955302Y-68824039D01*
X140164039Y-68615302D01*
X140270000Y-68456719D01*
X140375961Y-68615302D01*
X140584698Y-68824039D01*
X140830147Y-68988042D01*
X141102875Y-69101010D01*
X141392401Y-69158600D01*
X141687599Y-69158600D01*
X141977125Y-69101010D01*
X142249853Y-68988042D01*
X142495302Y-68824039D01*
X142704039Y-68615302D01*
X142868042Y-68369853D01*
X142981010Y-68097125D01*
X143038600Y-67807599D01*
X143038600Y-67512401D01*
X152501400Y-67512401D01*
X152501400Y-67807599D01*
X152558990Y-68097125D01*
X152671958Y-68369853D01*
X152835961Y-68615302D01*
X153044698Y-68824039D01*
X153290147Y-68988042D01*
X153562875Y-69101010D01*
X153852401Y-69158600D01*
X154147599Y-69158600D01*
X154437125Y-69101010D01*
X154709853Y-68988042D01*
X154955302Y-68824039D01*
X155164039Y-68615302D01*
X155270000Y-68456719D01*
X155375961Y-68615302D01*
X155584698Y-68824039D01*
X155830147Y-68988042D01*
X156102875Y-69101010D01*
X156392401Y-69158600D01*
X156687599Y-69158600D01*
X156977125Y-69101010D01*
X157249853Y-68988042D01*
X157495302Y-68824039D01*
X157704039Y-68615302D01*
X157868042Y-68369853D01*
X157981010Y-68097125D01*
X158038600Y-67807599D01*
X158038600Y-67512401D01*
X167501400Y-67512401D01*
X167501400Y-67807599D01*
X167558990Y-68097125D01*
X167671958Y-68369853D01*
X167835961Y-68615302D01*
X168044698Y-68824039D01*
X168290147Y-68988042D01*
X168562875Y-69101010D01*
X168852401Y-69158600D01*
X169147599Y-69158600D01*
X169437125Y-69101010D01*
X169709853Y-68988042D01*
X169955302Y-68824039D01*
X170164039Y-68615302D01*
X170270000Y-68456719D01*
X170375961Y-68615302D01*
X170584698Y-68824039D01*
X170830147Y-68988042D01*
X171102875Y-69101010D01*
X171392401Y-69158600D01*
X171687599Y-69158600D01*
X171977125Y-69101010D01*
X172249853Y-68988042D01*
X172495302Y-68824039D01*
X172704039Y-68615302D01*
X172868042Y-68369853D01*
X172981010Y-68097125D01*
X173038600Y-67807599D01*
X173038600Y-67512401D01*
X182501400Y-67512401D01*
X182501400Y-67807599D01*
X182558990Y-68097125D01*
X182671958Y-68369853D01*
X182835961Y-68615302D01*
X183044698Y-68824039D01*
X183290147Y-68988042D01*
X183562875Y-69101010D01*
X183852401Y-69158600D01*
X184147599Y-69158600D01*
X184437125Y-69101010D01*
X184709853Y-68988042D01*
X184955302Y-68824039D01*
X185164039Y-68615302D01*
X185270000Y-68456719D01*
X185375961Y-68615302D01*
X185584698Y-68824039D01*
X185830147Y-68988042D01*
X186102875Y-69101010D01*
X186392401Y-69158600D01*
X186687599Y-69158600D01*
X186977125Y-69101010D01*
X187249853Y-68988042D01*
X187495302Y-68824039D01*
X187704039Y-68615302D01*
X187868042Y-68369853D01*
X187981010Y-68097125D01*
X188038600Y-67807599D01*
X188038600Y-67512401D01*
X197501400Y-67512401D01*
X197501400Y-67807599D01*
X197558990Y-68097125D01*
X197671958Y-68369853D01*
X197835961Y-68615302D01*
X198044698Y-68824039D01*
X198290147Y-68988042D01*
X198562875Y-69101010D01*
X198852401Y-69158600D01*
X199147599Y-69158600D01*
X199437125Y-69101010D01*
X199709853Y-68988042D01*
X199955302Y-68824039D01*
X200164039Y-68615302D01*
X200270000Y-68456719D01*
X200375961Y-68615302D01*
X200584698Y-68824039D01*
X200830147Y-68988042D01*
X201102875Y-69101010D01*
X201392401Y-69158600D01*
X201687599Y-69158600D01*
X201977125Y-69101010D01*
X202249853Y-68988042D01*
X202495302Y-68824039D01*
X202704039Y-68615302D01*
X202868042Y-68369853D01*
X202981010Y-68097125D01*
X203038600Y-67807599D01*
X203038600Y-67512401D01*
X212501400Y-67512401D01*
X212501400Y-67807599D01*
X212558990Y-68097125D01*
X212671958Y-68369853D01*
X212835961Y-68615302D01*
X213044698Y-68824039D01*
X213290147Y-68988042D01*
X213562875Y-69101010D01*
X213852401Y-69158600D01*
X214147599Y-69158600D01*
X214437125Y-69101010D01*
X214709853Y-68988042D01*
X214955302Y-68824039D01*
X215164039Y-68615302D01*
X215270000Y-68456719D01*
X215375961Y-68615302D01*
X215584698Y-68824039D01*
X215830147Y-68988042D01*
X216102875Y-69101010D01*
X216392401Y-69158600D01*
X216687599Y-69158600D01*
X216977125Y-69101010D01*
X217249853Y-68988042D01*
X217495302Y-68824039D01*
X217704039Y-68615302D01*
X217868042Y-68369853D01*
X217981010Y-68097125D01*
X218038600Y-67807599D01*
X218038600Y-67512401D01*
X227501400Y-67512401D01*
X227501400Y-67807599D01*
X227558990Y-68097125D01*
X227671958Y-68369853D01*
X227835961Y-68615302D01*
X228044698Y-68824039D01*
X228290147Y-68988042D01*
X228562875Y-69101010D01*
X228852401Y-69158600D01*
X229147599Y-69158600D01*
X229437125Y-69101010D01*
X229709853Y-68988042D01*
X229955302Y-68824039D01*
X230164039Y-68615302D01*
X230270000Y-68456719D01*
X230375961Y-68615302D01*
X230584698Y-68824039D01*
X230830147Y-68988042D01*
X231102875Y-69101010D01*
X231392401Y-69158600D01*
X231687599Y-69158600D01*
X231977125Y-69101010D01*
X232249853Y-68988042D01*
X232495302Y-68824039D01*
X232704039Y-68615302D01*
X232868042Y-68369853D01*
X232981010Y-68097125D01*
X233038600Y-67807599D01*
X233038600Y-67512401D01*
X232981010Y-67222875D01*
X232868042Y-66950147D01*
X232704039Y-66704698D01*
X232495302Y-66495961D01*
X232329897Y-66385441D01*
X232428488Y-66326817D01*
X232646854Y-66130293D01*
X232822684Y-65894944D01*
X232949222Y-65629814D01*
X232994958Y-65479026D01*
X232873817Y-65247000D01*
X231667000Y-65247000D01*
X231667000Y-65267000D01*
X231413000Y-65267000D01*
X231413000Y-65247000D01*
X229127000Y-65247000D01*
X229127000Y-65267000D01*
X228873000Y-65267000D01*
X228873000Y-65247000D01*
X227666183Y-65247000D01*
X227545042Y-65479026D01*
X227590778Y-65629814D01*
X227717316Y-65894944D01*
X227893146Y-66130293D01*
X228111512Y-66326817D01*
X228210103Y-66385441D01*
X228044698Y-66495961D01*
X227835961Y-66704698D01*
X227671958Y-66950147D01*
X227558990Y-67222875D01*
X227501400Y-67512401D01*
X218038600Y-67512401D01*
X217981010Y-67222875D01*
X217868042Y-66950147D01*
X217704039Y-66704698D01*
X217495302Y-66495961D01*
X217329897Y-66385441D01*
X217428488Y-66326817D01*
X217646854Y-66130293D01*
X217822684Y-65894944D01*
X217949222Y-65629814D01*
X217994958Y-65479026D01*
X217873817Y-65247000D01*
X216667000Y-65247000D01*
X216667000Y-65267000D01*
X216413000Y-65267000D01*
X216413000Y-65247000D01*
X214127000Y-65247000D01*
X214127000Y-65267000D01*
X213873000Y-65267000D01*
X213873000Y-65247000D01*
X212666183Y-65247000D01*
X212545042Y-65479026D01*
X212590778Y-65629814D01*
X212717316Y-65894944D01*
X212893146Y-66130293D01*
X213111512Y-66326817D01*
X213210103Y-66385441D01*
X213044698Y-66495961D01*
X212835961Y-66704698D01*
X212671958Y-66950147D01*
X212558990Y-67222875D01*
X212501400Y-67512401D01*
X203038600Y-67512401D01*
X202981010Y-67222875D01*
X202868042Y-66950147D01*
X202704039Y-66704698D01*
X202495302Y-66495961D01*
X202329897Y-66385441D01*
X202428488Y-66326817D01*
X202646854Y-66130293D01*
X202822684Y-65894944D01*
X202949222Y-65629814D01*
X202994958Y-65479026D01*
X202873817Y-65247000D01*
X201667000Y-65247000D01*
X201667000Y-65267000D01*
X201413000Y-65267000D01*
X201413000Y-65247000D01*
X199127000Y-65247000D01*
X199127000Y-65267000D01*
X198873000Y-65267000D01*
X198873000Y-65247000D01*
X197666183Y-65247000D01*
X197545042Y-65479026D01*
X197590778Y-65629814D01*
X197717316Y-65894944D01*
X197893146Y-66130293D01*
X198111512Y-66326817D01*
X198210103Y-66385441D01*
X198044698Y-66495961D01*
X197835961Y-66704698D01*
X197671958Y-66950147D01*
X197558990Y-67222875D01*
X197501400Y-67512401D01*
X188038600Y-67512401D01*
X187981010Y-67222875D01*
X187868042Y-66950147D01*
X187704039Y-66704698D01*
X187495302Y-66495961D01*
X187329897Y-66385441D01*
X187428488Y-66326817D01*
X187646854Y-66130293D01*
X187822684Y-65894944D01*
X187949222Y-65629814D01*
X187994958Y-65479026D01*
X187873817Y-65247000D01*
X186667000Y-65247000D01*
X186667000Y-65267000D01*
X186413000Y-65267000D01*
X186413000Y-65247000D01*
X184127000Y-65247000D01*
X184127000Y-65267000D01*
X183873000Y-65267000D01*
X183873000Y-65247000D01*
X182666183Y-65247000D01*
X182545042Y-65479026D01*
X182590778Y-65629814D01*
X182717316Y-65894944D01*
X182893146Y-66130293D01*
X183111512Y-66326817D01*
X183210103Y-66385441D01*
X183044698Y-66495961D01*
X182835961Y-66704698D01*
X182671958Y-66950147D01*
X182558990Y-67222875D01*
X182501400Y-67512401D01*
X173038600Y-67512401D01*
X172981010Y-67222875D01*
X172868042Y-66950147D01*
X172704039Y-66704698D01*
X172495302Y-66495961D01*
X172329897Y-66385441D01*
X172428488Y-66326817D01*
X172646854Y-66130293D01*
X172822684Y-65894944D01*
X172949222Y-65629814D01*
X172994958Y-65479026D01*
X172873817Y-65247000D01*
X171667000Y-65247000D01*
X171667000Y-65267000D01*
X171413000Y-65267000D01*
X171413000Y-65247000D01*
X169127000Y-65247000D01*
X169127000Y-65267000D01*
X168873000Y-65267000D01*
X168873000Y-65247000D01*
X167666183Y-65247000D01*
X167545042Y-65479026D01*
X167590778Y-65629814D01*
X167717316Y-65894944D01*
X167893146Y-66130293D01*
X168111512Y-66326817D01*
X168210103Y-66385441D01*
X168044698Y-66495961D01*
X167835961Y-66704698D01*
X167671958Y-66950147D01*
X167558990Y-67222875D01*
X167501400Y-67512401D01*
X158038600Y-67512401D01*
X157981010Y-67222875D01*
X157868042Y-66950147D01*
X157704039Y-66704698D01*
X157495302Y-66495961D01*
X157329897Y-66385441D01*
X157428488Y-66326817D01*
X157646854Y-66130293D01*
X157822684Y-65894944D01*
X157949222Y-65629814D01*
X157994958Y-65479026D01*
X157873817Y-65247000D01*
X156667000Y-65247000D01*
X156667000Y-65267000D01*
X156413000Y-65267000D01*
X156413000Y-65247000D01*
X154127000Y-65247000D01*
X154127000Y-65267000D01*
X153873000Y-65267000D01*
X153873000Y-65247000D01*
X152666183Y-65247000D01*
X152545042Y-65479026D01*
X152590778Y-65629814D01*
X152717316Y-65894944D01*
X152893146Y-66130293D01*
X153111512Y-66326817D01*
X153210103Y-66385441D01*
X153044698Y-66495961D01*
X152835961Y-66704698D01*
X152671958Y-66950147D01*
X152558990Y-67222875D01*
X152501400Y-67512401D01*
X143038600Y-67512401D01*
X142981010Y-67222875D01*
X142868042Y-66950147D01*
X142704039Y-66704698D01*
X142495302Y-66495961D01*
X142329897Y-66385441D01*
X142428488Y-66326817D01*
X142646854Y-66130293D01*
X142822684Y-65894944D01*
X142949222Y-65629814D01*
X142994958Y-65479026D01*
X142873817Y-65247000D01*
X141667000Y-65247000D01*
X141667000Y-65267000D01*
X141413000Y-65267000D01*
X141413000Y-65247000D01*
X139127000Y-65247000D01*
X139127000Y-65267000D01*
X138873000Y-65267000D01*
X138873000Y-65247000D01*
X137666183Y-65247000D01*
X137545042Y-65479026D01*
X137590778Y-65629814D01*
X137717316Y-65894944D01*
X137893146Y-66130293D01*
X138111512Y-66326817D01*
X138210103Y-66385441D01*
X138044698Y-66495961D01*
X137835961Y-66704698D01*
X137671958Y-66950147D01*
X137558990Y-67222875D01*
X137501400Y-67512401D01*
X128038600Y-67512401D01*
X127981010Y-67222875D01*
X127868042Y-66950147D01*
X127704039Y-66704698D01*
X127495302Y-66495961D01*
X127329897Y-66385441D01*
X127428488Y-66326817D01*
X127646854Y-66130293D01*
X127822684Y-65894944D01*
X127949222Y-65629814D01*
X127994958Y-65479026D01*
X127873817Y-65247000D01*
X126667000Y-65247000D01*
X126667000Y-65267000D01*
X126413000Y-65267000D01*
X126413000Y-65247000D01*
X124127000Y-65247000D01*
X124127000Y-65267000D01*
X123873000Y-65267000D01*
X123873000Y-65247000D01*
X122666183Y-65247000D01*
X122545042Y-65479026D01*
X122590778Y-65629814D01*
X122717316Y-65894944D01*
X122893146Y-66130293D01*
X123111512Y-66326817D01*
X123210103Y-66385441D01*
X123044698Y-66495961D01*
X122835961Y-66704698D01*
X122671958Y-66950147D01*
X122558990Y-67222875D01*
X122501400Y-67512401D01*
X113038600Y-67512401D01*
X112981010Y-67222875D01*
X112868042Y-66950147D01*
X112704039Y-66704698D01*
X112495302Y-66495961D01*
X112329897Y-66385441D01*
X112428488Y-66326817D01*
X112646854Y-66130293D01*
X112822684Y-65894944D01*
X112949222Y-65629814D01*
X112994958Y-65479026D01*
X112873817Y-65247000D01*
X111667000Y-65247000D01*
X111667000Y-65267000D01*
X111413000Y-65267000D01*
X111413000Y-65247000D01*
X109127000Y-65247000D01*
X109127000Y-65267000D01*
X108873000Y-65267000D01*
X108873000Y-65247000D01*
X107666183Y-65247000D01*
X107545042Y-65479026D01*
X107590778Y-65629814D01*
X107717316Y-65894944D01*
X107893146Y-66130293D01*
X108111512Y-66326817D01*
X108210103Y-66385441D01*
X108044698Y-66495961D01*
X107835961Y-66704698D01*
X107671958Y-66950147D01*
X107558990Y-67222875D01*
X107501400Y-67512401D01*
X98038600Y-67512401D01*
X97981010Y-67222875D01*
X97868042Y-66950147D01*
X97704039Y-66704698D01*
X97495302Y-66495961D01*
X97329897Y-66385441D01*
X97428488Y-66326817D01*
X97646854Y-66130293D01*
X97822684Y-65894944D01*
X97949222Y-65629814D01*
X97994958Y-65479026D01*
X97873817Y-65247000D01*
X96667000Y-65247000D01*
X96667000Y-65267000D01*
X96413000Y-65267000D01*
X96413000Y-65247000D01*
X94127000Y-65247000D01*
X94127000Y-65267000D01*
X93873000Y-65267000D01*
X93873000Y-65247000D01*
X92666183Y-65247000D01*
X92545042Y-65479026D01*
X92590778Y-65629814D01*
X92717316Y-65894944D01*
X92893146Y-66130293D01*
X93111512Y-66326817D01*
X93210103Y-66385441D01*
X93044698Y-66495961D01*
X92835961Y-66704698D01*
X92671958Y-66950147D01*
X92558990Y-67222875D01*
X92501400Y-67512401D01*
X88921759Y-67512401D01*
X88888787Y-67289870D01*
X88793603Y-67023708D01*
X88726671Y-66898486D01*
X88482702Y-66826903D01*
X87669605Y-67640000D01*
X87310395Y-67640000D01*
X86497298Y-66826903D01*
X86253329Y-66898486D01*
X86132429Y-67153996D01*
X86063700Y-67428184D01*
X86049783Y-67710512D01*
X83038600Y-67710512D01*
X83038600Y-67512401D01*
X82981010Y-67222875D01*
X82868042Y-66950147D01*
X82704039Y-66704698D01*
X82646639Y-66647298D01*
X86676903Y-66647298D01*
X87490000Y-67460395D01*
X88303097Y-66647298D01*
X88231514Y-66403329D01*
X87976004Y-66282429D01*
X87701816Y-66213700D01*
X87419488Y-66199783D01*
X87139870Y-66241213D01*
X86873708Y-66336397D01*
X86748486Y-66403329D01*
X86676903Y-66647298D01*
X82646639Y-66647298D01*
X82495302Y-66495961D01*
X82329897Y-66385441D01*
X82428488Y-66326817D01*
X82646854Y-66130293D01*
X82822684Y-65894944D01*
X82949222Y-65629814D01*
X82994958Y-65479026D01*
X82873817Y-65247000D01*
X81667000Y-65247000D01*
X81667000Y-65267000D01*
X81413000Y-65267000D01*
X81413000Y-65247000D01*
X79127000Y-65247000D01*
X79127000Y-65267000D01*
X78873000Y-65267000D01*
X78873000Y-65247000D01*
X77666183Y-65247000D01*
X77545042Y-65479026D01*
X77590778Y-65629814D01*
X77717316Y-65894944D01*
X77893146Y-66130293D01*
X78111512Y-66326817D01*
X78210103Y-66385441D01*
X78044698Y-66495961D01*
X77835961Y-66704698D01*
X77671958Y-66950147D01*
X77558990Y-67222875D01*
X77501400Y-67512401D01*
X73935000Y-67512401D01*
X73935000Y-67478665D01*
X73879853Y-67201426D01*
X73771680Y-66940273D01*
X73614637Y-66705241D01*
X73414759Y-66505363D01*
X73179727Y-66348320D01*
X72918574Y-66240147D01*
X72641335Y-66185000D01*
X72358665Y-66185000D01*
X72081426Y-66240147D01*
X71820273Y-66348320D01*
X71585241Y-66505363D01*
X71385363Y-66705241D01*
X71228320Y-66940273D01*
X71120147Y-67201426D01*
X71065000Y-67478665D01*
X68031890Y-67478665D01*
X67981010Y-67222875D01*
X67868042Y-66950147D01*
X67704039Y-66704698D01*
X67495302Y-66495961D01*
X67329897Y-66385441D01*
X67428488Y-66326817D01*
X67646854Y-66130293D01*
X67822684Y-65894944D01*
X67949222Y-65629814D01*
X67994958Y-65479026D01*
X67873817Y-65247000D01*
X66667000Y-65247000D01*
X66667000Y-65267000D01*
X66413000Y-65267000D01*
X66413000Y-65247000D01*
X64127000Y-65247000D01*
X64127000Y-65267000D01*
X63873000Y-65267000D01*
X63873000Y-65247000D01*
X62666183Y-65247000D01*
X62545042Y-65479026D01*
X62590778Y-65629814D01*
X62717316Y-65894944D01*
X62893146Y-66130293D01*
X63111512Y-66326817D01*
X63210103Y-66385441D01*
X63044698Y-66495961D01*
X62835961Y-66704698D01*
X62671958Y-66950147D01*
X62558990Y-67222875D01*
X62501400Y-67512401D01*
X49385000Y-67512401D01*
X49385000Y-67314344D01*
X49312561Y-66950166D01*
X49170466Y-66607118D01*
X48964175Y-66298382D01*
X48701618Y-66035825D01*
X48392882Y-65829534D01*
X48049834Y-65687439D01*
X47685656Y-65615000D01*
X47314344Y-65615000D01*
X46950166Y-65687439D01*
X46607118Y-65829534D01*
X46298382Y-66035825D01*
X46035825Y-66298382D01*
X45829534Y-66607118D01*
X45687439Y-66950166D01*
X45615000Y-67314344D01*
X42710000Y-67314344D01*
X42710000Y-63813605D01*
X46366000Y-63813605D01*
X46491914Y-64103577D01*
X46824126Y-64269433D01*
X47182312Y-64367290D01*
X47552706Y-64393389D01*
X47921075Y-64346725D01*
X48273262Y-64229094D01*
X48508086Y-64103577D01*
X48634000Y-63813605D01*
X47500000Y-62679605D01*
X46366000Y-63813605D01*
X42710000Y-63813605D01*
X42710000Y-62552706D01*
X45606611Y-62552706D01*
X45653275Y-62921075D01*
X45770906Y-63273262D01*
X45896423Y-63508086D01*
X46186395Y-63634000D01*
X47320395Y-62500000D01*
X47679605Y-62500000D01*
X48813605Y-63634000D01*
X49103577Y-63508086D01*
X49269433Y-63175874D01*
X49334140Y-62939026D01*
X62545042Y-62939026D01*
X62590778Y-63089814D01*
X62717316Y-63354944D01*
X62893146Y-63590293D01*
X63111512Y-63786817D01*
X63217770Y-63850000D01*
X63111512Y-63913183D01*
X62893146Y-64109707D01*
X62717316Y-64345056D01*
X62590778Y-64610186D01*
X62545042Y-64760974D01*
X62666183Y-64993000D01*
X63873000Y-64993000D01*
X63873000Y-62707000D01*
X64127000Y-62707000D01*
X64127000Y-64993000D01*
X66413000Y-64993000D01*
X66413000Y-62707000D01*
X66667000Y-62707000D01*
X66667000Y-64993000D01*
X67873817Y-64993000D01*
X67994958Y-64760974D01*
X67949222Y-64610186D01*
X67822684Y-64345056D01*
X67646854Y-64109707D01*
X67428488Y-63913183D01*
X67322230Y-63850000D01*
X67428488Y-63786817D01*
X67646854Y-63590293D01*
X67822684Y-63354944D01*
X67949222Y-63089814D01*
X67994958Y-62939026D01*
X77545042Y-62939026D01*
X77590778Y-63089814D01*
X77717316Y-63354944D01*
X77893146Y-63590293D01*
X78111512Y-63786817D01*
X78217770Y-63850000D01*
X78111512Y-63913183D01*
X77893146Y-64109707D01*
X77717316Y-64345056D01*
X77590778Y-64610186D01*
X77545042Y-64760974D01*
X77666183Y-64993000D01*
X78873000Y-64993000D01*
X78873000Y-62707000D01*
X79127000Y-62707000D01*
X79127000Y-64993000D01*
X81413000Y-64993000D01*
X81413000Y-62707000D01*
X81667000Y-62707000D01*
X81667000Y-64993000D01*
X82873817Y-64993000D01*
X82994958Y-64760974D01*
X82949222Y-64610186D01*
X82822684Y-64345056D01*
X82646854Y-64109707D01*
X82428488Y-63913183D01*
X82322230Y-63850000D01*
X82428488Y-63786817D01*
X82646854Y-63590293D01*
X82822684Y-63354944D01*
X82949222Y-63089814D01*
X82994958Y-62939026D01*
X92545042Y-62939026D01*
X92590778Y-63089814D01*
X92717316Y-63354944D01*
X92893146Y-63590293D01*
X93111512Y-63786817D01*
X93217770Y-63850000D01*
X93111512Y-63913183D01*
X92893146Y-64109707D01*
X92717316Y-64345056D01*
X92590778Y-64610186D01*
X92545042Y-64760974D01*
X92666183Y-64993000D01*
X93873000Y-64993000D01*
X93873000Y-62707000D01*
X94127000Y-62707000D01*
X94127000Y-64993000D01*
X96413000Y-64993000D01*
X96413000Y-62707000D01*
X96667000Y-62707000D01*
X96667000Y-64993000D01*
X97873817Y-64993000D01*
X97994958Y-64760974D01*
X97949222Y-64610186D01*
X97822684Y-64345056D01*
X97646854Y-64109707D01*
X97428488Y-63913183D01*
X97322230Y-63850000D01*
X97428488Y-63786817D01*
X97646854Y-63590293D01*
X97822684Y-63354944D01*
X97949222Y-63089814D01*
X97994958Y-62939026D01*
X107545042Y-62939026D01*
X107590778Y-63089814D01*
X107717316Y-63354944D01*
X107893146Y-63590293D01*
X108111512Y-63786817D01*
X108217770Y-63850000D01*
X108111512Y-63913183D01*
X107893146Y-64109707D01*
X107717316Y-64345056D01*
X107590778Y-64610186D01*
X107545042Y-64760974D01*
X107666183Y-64993000D01*
X108873000Y-64993000D01*
X108873000Y-62707000D01*
X109127000Y-62707000D01*
X109127000Y-64993000D01*
X111413000Y-64993000D01*
X111413000Y-62707000D01*
X111667000Y-62707000D01*
X111667000Y-64993000D01*
X112873817Y-64993000D01*
X112994958Y-64760974D01*
X112949222Y-64610186D01*
X112822684Y-64345056D01*
X112646854Y-64109707D01*
X112428488Y-63913183D01*
X112322230Y-63850000D01*
X112428488Y-63786817D01*
X112646854Y-63590293D01*
X112822684Y-63354944D01*
X112949222Y-63089814D01*
X112994958Y-62939026D01*
X122545042Y-62939026D01*
X122590778Y-63089814D01*
X122717316Y-63354944D01*
X122893146Y-63590293D01*
X123111512Y-63786817D01*
X123217770Y-63850000D01*
X123111512Y-63913183D01*
X122893146Y-64109707D01*
X122717316Y-64345056D01*
X122590778Y-64610186D01*
X122545042Y-64760974D01*
X122666183Y-64993000D01*
X123873000Y-64993000D01*
X123873000Y-62707000D01*
X124127000Y-62707000D01*
X124127000Y-64993000D01*
X126413000Y-64993000D01*
X126413000Y-62707000D01*
X126667000Y-62707000D01*
X126667000Y-64993000D01*
X127873817Y-64993000D01*
X127994958Y-64760974D01*
X127949222Y-64610186D01*
X127822684Y-64345056D01*
X127646854Y-64109707D01*
X127428488Y-63913183D01*
X127322230Y-63850000D01*
X127428488Y-63786817D01*
X127646854Y-63590293D01*
X127822684Y-63354944D01*
X127949222Y-63089814D01*
X127994958Y-62939026D01*
X137545042Y-62939026D01*
X137590778Y-63089814D01*
X137717316Y-63354944D01*
X137893146Y-63590293D01*
X138111512Y-63786817D01*
X138217770Y-63850000D01*
X138111512Y-63913183D01*
X137893146Y-64109707D01*
X137717316Y-64345056D01*
X137590778Y-64610186D01*
X137545042Y-64760974D01*
X137666183Y-64993000D01*
X138873000Y-64993000D01*
X138873000Y-62707000D01*
X139127000Y-62707000D01*
X139127000Y-64993000D01*
X141413000Y-64993000D01*
X141413000Y-62707000D01*
X141667000Y-62707000D01*
X141667000Y-64993000D01*
X142873817Y-64993000D01*
X142994958Y-64760974D01*
X142949222Y-64610186D01*
X142822684Y-64345056D01*
X142646854Y-64109707D01*
X142428488Y-63913183D01*
X142322230Y-63850000D01*
X142428488Y-63786817D01*
X142646854Y-63590293D01*
X142822684Y-63354944D01*
X142949222Y-63089814D01*
X142994958Y-62939026D01*
X152545042Y-62939026D01*
X152590778Y-63089814D01*
X152717316Y-63354944D01*
X152893146Y-63590293D01*
X153111512Y-63786817D01*
X153217770Y-63850000D01*
X153111512Y-63913183D01*
X152893146Y-64109707D01*
X152717316Y-64345056D01*
X152590778Y-64610186D01*
X152545042Y-64760974D01*
X152666183Y-64993000D01*
X153873000Y-64993000D01*
X153873000Y-62707000D01*
X154127000Y-62707000D01*
X154127000Y-64993000D01*
X156413000Y-64993000D01*
X156413000Y-62707000D01*
X156667000Y-62707000D01*
X156667000Y-64993000D01*
X157873817Y-64993000D01*
X157994958Y-64760974D01*
X157949222Y-64610186D01*
X157822684Y-64345056D01*
X157646854Y-64109707D01*
X157428488Y-63913183D01*
X157322230Y-63850000D01*
X157428488Y-63786817D01*
X157646854Y-63590293D01*
X157822684Y-63354944D01*
X157949222Y-63089814D01*
X157994958Y-62939026D01*
X167545042Y-62939026D01*
X167590778Y-63089814D01*
X167717316Y-63354944D01*
X167893146Y-63590293D01*
X168111512Y-63786817D01*
X168217770Y-63850000D01*
X168111512Y-63913183D01*
X167893146Y-64109707D01*
X167717316Y-64345056D01*
X167590778Y-64610186D01*
X167545042Y-64760974D01*
X167666183Y-64993000D01*
X168873000Y-64993000D01*
X168873000Y-62707000D01*
X169127000Y-62707000D01*
X169127000Y-64993000D01*
X171413000Y-64993000D01*
X171413000Y-62707000D01*
X171667000Y-62707000D01*
X171667000Y-64993000D01*
X172873817Y-64993000D01*
X172994958Y-64760974D01*
X172949222Y-64610186D01*
X172822684Y-64345056D01*
X172646854Y-64109707D01*
X172428488Y-63913183D01*
X172322230Y-63850000D01*
X172428488Y-63786817D01*
X172646854Y-63590293D01*
X172822684Y-63354944D01*
X172949222Y-63089814D01*
X172994958Y-62939026D01*
X182545042Y-62939026D01*
X182590778Y-63089814D01*
X182717316Y-63354944D01*
X182893146Y-63590293D01*
X183111512Y-63786817D01*
X183217770Y-63850000D01*
X183111512Y-63913183D01*
X182893146Y-64109707D01*
X182717316Y-64345056D01*
X182590778Y-64610186D01*
X182545042Y-64760974D01*
X182666183Y-64993000D01*
X183873000Y-64993000D01*
X183873000Y-62707000D01*
X184127000Y-62707000D01*
X184127000Y-64993000D01*
X186413000Y-64993000D01*
X186413000Y-62707000D01*
X186667000Y-62707000D01*
X186667000Y-64993000D01*
X187873817Y-64993000D01*
X187994958Y-64760974D01*
X187949222Y-64610186D01*
X187822684Y-64345056D01*
X187646854Y-64109707D01*
X187428488Y-63913183D01*
X187322230Y-63850000D01*
X187428488Y-63786817D01*
X187646854Y-63590293D01*
X187822684Y-63354944D01*
X187949222Y-63089814D01*
X187994958Y-62939026D01*
X197545042Y-62939026D01*
X197590778Y-63089814D01*
X197717316Y-63354944D01*
X197893146Y-63590293D01*
X198111512Y-63786817D01*
X198217770Y-63850000D01*
X198111512Y-63913183D01*
X197893146Y-64109707D01*
X197717316Y-64345056D01*
X197590778Y-64610186D01*
X197545042Y-64760974D01*
X197666183Y-64993000D01*
X198873000Y-64993000D01*
X198873000Y-62707000D01*
X199127000Y-62707000D01*
X199127000Y-64993000D01*
X201413000Y-64993000D01*
X201413000Y-62707000D01*
X201667000Y-62707000D01*
X201667000Y-64993000D01*
X202873817Y-64993000D01*
X202994958Y-64760974D01*
X202949222Y-64610186D01*
X202822684Y-64345056D01*
X202646854Y-64109707D01*
X202428488Y-63913183D01*
X202322230Y-63850000D01*
X202428488Y-63786817D01*
X202646854Y-63590293D01*
X202822684Y-63354944D01*
X202949222Y-63089814D01*
X202994958Y-62939026D01*
X212545042Y-62939026D01*
X212590778Y-63089814D01*
X212717316Y-63354944D01*
X212893146Y-63590293D01*
X213111512Y-63786817D01*
X213217770Y-63850000D01*
X213111512Y-63913183D01*
X212893146Y-64109707D01*
X212717316Y-64345056D01*
X212590778Y-64610186D01*
X212545042Y-64760974D01*
X212666183Y-64993000D01*
X213873000Y-64993000D01*
X213873000Y-62707000D01*
X214127000Y-62707000D01*
X214127000Y-64993000D01*
X216413000Y-64993000D01*
X216413000Y-62707000D01*
X216667000Y-62707000D01*
X216667000Y-64993000D01*
X217873817Y-64993000D01*
X217994958Y-64760974D01*
X217949222Y-64610186D01*
X217822684Y-64345056D01*
X217646854Y-64109707D01*
X217428488Y-63913183D01*
X217322230Y-63850000D01*
X217428488Y-63786817D01*
X217646854Y-63590293D01*
X217822684Y-63354944D01*
X217949222Y-63089814D01*
X217994958Y-62939026D01*
X227545042Y-62939026D01*
X227590778Y-63089814D01*
X227717316Y-63354944D01*
X227893146Y-63590293D01*
X228111512Y-63786817D01*
X228217770Y-63850000D01*
X228111512Y-63913183D01*
X227893146Y-64109707D01*
X227717316Y-64345056D01*
X227590778Y-64610186D01*
X227545042Y-64760974D01*
X227666183Y-64993000D01*
X228873000Y-64993000D01*
X228873000Y-62707000D01*
X229127000Y-62707000D01*
X229127000Y-64993000D01*
X231413000Y-64993000D01*
X231413000Y-62707000D01*
X231667000Y-62707000D01*
X231667000Y-64993000D01*
X232873817Y-64993000D01*
X232994958Y-64760974D01*
X232949222Y-64610186D01*
X232822684Y-64345056D01*
X232646854Y-64109707D01*
X232428488Y-63913183D01*
X232322230Y-63850000D01*
X232428488Y-63786817D01*
X232646854Y-63590293D01*
X232822684Y-63354944D01*
X232949222Y-63089814D01*
X232994958Y-62939026D01*
X232873817Y-62707000D01*
X231667000Y-62707000D01*
X231413000Y-62707000D01*
X229127000Y-62707000D01*
X228873000Y-62707000D01*
X227666183Y-62707000D01*
X227545042Y-62939026D01*
X217994958Y-62939026D01*
X217873817Y-62707000D01*
X216667000Y-62707000D01*
X216413000Y-62707000D01*
X214127000Y-62707000D01*
X213873000Y-62707000D01*
X212666183Y-62707000D01*
X212545042Y-62939026D01*
X202994958Y-62939026D01*
X202873817Y-62707000D01*
X201667000Y-62707000D01*
X201413000Y-62707000D01*
X199127000Y-62707000D01*
X198873000Y-62707000D01*
X197666183Y-62707000D01*
X197545042Y-62939026D01*
X187994958Y-62939026D01*
X187873817Y-62707000D01*
X186667000Y-62707000D01*
X186413000Y-62707000D01*
X184127000Y-62707000D01*
X183873000Y-62707000D01*
X182666183Y-62707000D01*
X182545042Y-62939026D01*
X172994958Y-62939026D01*
X172873817Y-62707000D01*
X171667000Y-62707000D01*
X171413000Y-62707000D01*
X169127000Y-62707000D01*
X168873000Y-62707000D01*
X167666183Y-62707000D01*
X167545042Y-62939026D01*
X157994958Y-62939026D01*
X157873817Y-62707000D01*
X156667000Y-62707000D01*
X156413000Y-62707000D01*
X154127000Y-62707000D01*
X153873000Y-62707000D01*
X152666183Y-62707000D01*
X152545042Y-62939026D01*
X142994958Y-62939026D01*
X142873817Y-62707000D01*
X141667000Y-62707000D01*
X141413000Y-62707000D01*
X139127000Y-62707000D01*
X138873000Y-62707000D01*
X137666183Y-62707000D01*
X137545042Y-62939026D01*
X127994958Y-62939026D01*
X127873817Y-62707000D01*
X126667000Y-62707000D01*
X126413000Y-62707000D01*
X124127000Y-62707000D01*
X123873000Y-62707000D01*
X122666183Y-62707000D01*
X122545042Y-62939026D01*
X112994958Y-62939026D01*
X112873817Y-62707000D01*
X111667000Y-62707000D01*
X111413000Y-62707000D01*
X109127000Y-62707000D01*
X108873000Y-62707000D01*
X107666183Y-62707000D01*
X107545042Y-62939026D01*
X97994958Y-62939026D01*
X97873817Y-62707000D01*
X96667000Y-62707000D01*
X96413000Y-62707000D01*
X94127000Y-62707000D01*
X93873000Y-62707000D01*
X92666183Y-62707000D01*
X92545042Y-62939026D01*
X82994958Y-62939026D01*
X82873817Y-62707000D01*
X81667000Y-62707000D01*
X81413000Y-62707000D01*
X79127000Y-62707000D01*
X78873000Y-62707000D01*
X77666183Y-62707000D01*
X77545042Y-62939026D01*
X67994958Y-62939026D01*
X67873817Y-62707000D01*
X66667000Y-62707000D01*
X66413000Y-62707000D01*
X64127000Y-62707000D01*
X63873000Y-62707000D01*
X62666183Y-62707000D01*
X62545042Y-62939026D01*
X49334140Y-62939026D01*
X49367290Y-62817688D01*
X49393389Y-62447294D01*
X49346725Y-62078925D01*
X49229094Y-61726738D01*
X49103577Y-61491914D01*
X48813605Y-61366000D01*
X47679605Y-62500000D01*
X47320395Y-62500000D01*
X46186395Y-61366000D01*
X45896423Y-61491914D01*
X45730567Y-61824126D01*
X45632710Y-62182312D01*
X45606611Y-62552706D01*
X42710000Y-62552706D01*
X42710000Y-61186395D01*
X46366000Y-61186395D01*
X47500000Y-62320395D01*
X48634000Y-61186395D01*
X48508086Y-60896423D01*
X48175874Y-60730567D01*
X47817688Y-60632710D01*
X47447294Y-60606611D01*
X47078925Y-60653275D01*
X46726738Y-60770906D01*
X46491914Y-60896423D01*
X46366000Y-61186395D01*
X42710000Y-61186395D01*
X42710000Y-60399026D01*
X62545042Y-60399026D01*
X62590778Y-60549814D01*
X62717316Y-60814944D01*
X62893146Y-61050293D01*
X63111512Y-61246817D01*
X63217770Y-61310000D01*
X63111512Y-61373183D01*
X62893146Y-61569707D01*
X62717316Y-61805056D01*
X62590778Y-62070186D01*
X62545042Y-62220974D01*
X62666183Y-62453000D01*
X63873000Y-62453000D01*
X63873000Y-60167000D01*
X64127000Y-60167000D01*
X64127000Y-62453000D01*
X66413000Y-62453000D01*
X66413000Y-60167000D01*
X66667000Y-60167000D01*
X66667000Y-62453000D01*
X67873817Y-62453000D01*
X67994958Y-62220974D01*
X67949222Y-62070186D01*
X67822684Y-61805056D01*
X67646854Y-61569707D01*
X67428488Y-61373183D01*
X67322230Y-61310000D01*
X67428488Y-61246817D01*
X67646854Y-61050293D01*
X67822684Y-60814944D01*
X67949222Y-60549814D01*
X67994958Y-60399026D01*
X67873817Y-60167000D01*
X66667000Y-60167000D01*
X66413000Y-60167000D01*
X64127000Y-60167000D01*
X63873000Y-60167000D01*
X62666183Y-60167000D01*
X62545042Y-60399026D01*
X42710000Y-60399026D01*
X42710000Y-56250000D01*
X45611928Y-56250000D01*
X45611928Y-58750000D01*
X45624188Y-58874482D01*
X45660498Y-58994180D01*
X45719463Y-59104494D01*
X45798815Y-59201185D01*
X45895506Y-59280537D01*
X46005820Y-59339502D01*
X46125518Y-59375812D01*
X46250000Y-59388072D01*
X48750000Y-59388072D01*
X48874482Y-59375812D01*
X48994180Y-59339502D01*
X49104494Y-59280537D01*
X49201185Y-59201185D01*
X49280537Y-59104494D01*
X49339502Y-58994180D01*
X49375812Y-58874482D01*
X49388072Y-58750000D01*
X49388072Y-56636400D01*
X62498328Y-56636400D01*
X62498328Y-58363600D01*
X62510588Y-58488082D01*
X62546898Y-58607780D01*
X62605863Y-58718094D01*
X62685215Y-58814785D01*
X62781906Y-58894137D01*
X62892220Y-58953102D01*
X62956574Y-58972624D01*
X62893146Y-59029707D01*
X62717316Y-59265056D01*
X62590778Y-59530186D01*
X62545042Y-59680974D01*
X62666183Y-59913000D01*
X63873000Y-59913000D01*
X63873000Y-59893000D01*
X64127000Y-59893000D01*
X64127000Y-59913000D01*
X66413000Y-59913000D01*
X66413000Y-59893000D01*
X66667000Y-59893000D01*
X66667000Y-59913000D01*
X67873817Y-59913000D01*
X67902185Y-59858665D01*
X71065000Y-59858665D01*
X71065000Y-60141335D01*
X71120147Y-60418574D01*
X71228320Y-60679727D01*
X71385363Y-60914759D01*
X71585241Y-61114637D01*
X71820273Y-61271680D01*
X72081426Y-61379853D01*
X72358665Y-61435000D01*
X72641335Y-61435000D01*
X72918574Y-61379853D01*
X73179727Y-61271680D01*
X73414759Y-61114637D01*
X73614637Y-60914759D01*
X73771680Y-60679727D01*
X73879853Y-60418574D01*
X73883741Y-60399026D01*
X77545042Y-60399026D01*
X77590778Y-60549814D01*
X77717316Y-60814944D01*
X77893146Y-61050293D01*
X78111512Y-61246817D01*
X78217770Y-61310000D01*
X78111512Y-61373183D01*
X77893146Y-61569707D01*
X77717316Y-61805056D01*
X77590778Y-62070186D01*
X77545042Y-62220974D01*
X77666183Y-62453000D01*
X78873000Y-62453000D01*
X78873000Y-60167000D01*
X79127000Y-60167000D01*
X79127000Y-62453000D01*
X81413000Y-62453000D01*
X81413000Y-60167000D01*
X81667000Y-60167000D01*
X81667000Y-62453000D01*
X82873817Y-62453000D01*
X82994958Y-62220974D01*
X82949222Y-62070186D01*
X82822684Y-61805056D01*
X82646854Y-61569707D01*
X82428488Y-61373183D01*
X82322230Y-61310000D01*
X82428488Y-61246817D01*
X82646854Y-61050293D01*
X82822684Y-60814944D01*
X82949222Y-60549814D01*
X82994958Y-60399026D01*
X82873817Y-60167000D01*
X81667000Y-60167000D01*
X81413000Y-60167000D01*
X79127000Y-60167000D01*
X78873000Y-60167000D01*
X77666183Y-60167000D01*
X77545042Y-60399026D01*
X73883741Y-60399026D01*
X73935000Y-60141335D01*
X73935000Y-59858665D01*
X73879853Y-59581426D01*
X73771680Y-59320273D01*
X73614637Y-59085241D01*
X73414759Y-58885363D01*
X73179727Y-58728320D01*
X72918574Y-58620147D01*
X72641335Y-58565000D01*
X72358665Y-58565000D01*
X72081426Y-58620147D01*
X71820273Y-58728320D01*
X71585241Y-58885363D01*
X71385363Y-59085241D01*
X71228320Y-59320273D01*
X71120147Y-59581426D01*
X71065000Y-59858665D01*
X67902185Y-59858665D01*
X67994958Y-59680974D01*
X67949222Y-59530186D01*
X67822684Y-59265056D01*
X67646854Y-59029707D01*
X67428488Y-58833183D01*
X67329897Y-58774559D01*
X67495302Y-58664039D01*
X67704039Y-58455302D01*
X67868042Y-58209853D01*
X67981010Y-57937125D01*
X68038600Y-57647599D01*
X68038600Y-57400000D01*
X69961928Y-57400000D01*
X69974188Y-57524482D01*
X70010498Y-57644180D01*
X70069463Y-57754494D01*
X70148815Y-57851185D01*
X70245506Y-57930537D01*
X70355820Y-57989502D01*
X70475518Y-58025812D01*
X70600000Y-58038072D01*
X71214250Y-58035000D01*
X71373000Y-57876250D01*
X71373000Y-56627000D01*
X70123750Y-56627000D01*
X69965000Y-56785750D01*
X69961928Y-57400000D01*
X68038600Y-57400000D01*
X68038600Y-57352401D01*
X67981010Y-57062875D01*
X67868042Y-56790147D01*
X67704039Y-56544698D01*
X67495302Y-56335961D01*
X67249853Y-56171958D01*
X66977125Y-56058990D01*
X66687599Y-56001400D01*
X66392401Y-56001400D01*
X66102875Y-56058990D01*
X65830147Y-56171958D01*
X65584698Y-56335961D01*
X65470636Y-56450023D01*
X65453102Y-56392220D01*
X65394137Y-56281906D01*
X65314785Y-56185215D01*
X65218094Y-56105863D01*
X65107780Y-56046898D01*
X64988082Y-56010588D01*
X64863600Y-55998328D01*
X63136400Y-55998328D01*
X63011918Y-56010588D01*
X62892220Y-56046898D01*
X62781906Y-56105863D01*
X62685215Y-56185215D01*
X62605863Y-56281906D01*
X62546898Y-56392220D01*
X62510588Y-56511918D01*
X62498328Y-56636400D01*
X49388072Y-56636400D01*
X49388072Y-56250000D01*
X49375812Y-56125518D01*
X49339502Y-56005820D01*
X49280537Y-55895506D01*
X49201185Y-55798815D01*
X49104494Y-55719463D01*
X48994180Y-55660498D01*
X48874482Y-55624188D01*
X48750000Y-55611928D01*
X46250000Y-55611928D01*
X46125518Y-55624188D01*
X46005820Y-55660498D01*
X45895506Y-55719463D01*
X45798815Y-55798815D01*
X45719463Y-55895506D01*
X45660498Y-56005820D01*
X45624188Y-56125518D01*
X45611928Y-56250000D01*
X42710000Y-56250000D01*
X42710000Y-53779872D01*
X55515000Y-53779872D01*
X55515000Y-54220128D01*
X55600890Y-54651925D01*
X55769369Y-55058669D01*
X56013962Y-55424729D01*
X56325271Y-55736038D01*
X56691331Y-55980631D01*
X57098075Y-56149110D01*
X57529872Y-56235000D01*
X57970128Y-56235000D01*
X58401925Y-56149110D01*
X58808669Y-55980631D01*
X59174729Y-55736038D01*
X59310767Y-55600000D01*
X69961928Y-55600000D01*
X69965000Y-56214250D01*
X70123750Y-56373000D01*
X71373000Y-56373000D01*
X71373000Y-55123750D01*
X71627000Y-55123750D01*
X71627000Y-56373000D01*
X71647000Y-56373000D01*
X71647000Y-56627000D01*
X71627000Y-56627000D01*
X71627000Y-57876250D01*
X71785750Y-58035000D01*
X72400000Y-58038072D01*
X72524482Y-58025812D01*
X72644180Y-57989502D01*
X72754494Y-57930537D01*
X72851185Y-57851185D01*
X72930537Y-57754494D01*
X72989502Y-57644180D01*
X72995056Y-57625873D01*
X73061495Y-57692312D01*
X73312905Y-57860299D01*
X73592257Y-57976011D01*
X73888816Y-58035000D01*
X74191184Y-58035000D01*
X74487743Y-57976011D01*
X74767095Y-57860299D01*
X75018505Y-57692312D01*
X75232312Y-57478505D01*
X75400299Y-57227095D01*
X75516011Y-56947743D01*
X75575000Y-56651184D01*
X75575000Y-56636400D01*
X77498328Y-56636400D01*
X77498328Y-58363600D01*
X77510588Y-58488082D01*
X77546898Y-58607780D01*
X77605863Y-58718094D01*
X77685215Y-58814785D01*
X77781906Y-58894137D01*
X77892220Y-58953102D01*
X77956574Y-58972624D01*
X77893146Y-59029707D01*
X77717316Y-59265056D01*
X77590778Y-59530186D01*
X77545042Y-59680974D01*
X77666183Y-59913000D01*
X78873000Y-59913000D01*
X78873000Y-59893000D01*
X79127000Y-59893000D01*
X79127000Y-59913000D01*
X81413000Y-59913000D01*
X81413000Y-59893000D01*
X81667000Y-59893000D01*
X81667000Y-59913000D01*
X82873817Y-59913000D01*
X82891743Y-59878665D01*
X86055000Y-59878665D01*
X86055000Y-60161335D01*
X86110147Y-60438574D01*
X86218320Y-60699727D01*
X86375363Y-60934759D01*
X86575241Y-61134637D01*
X86810273Y-61291680D01*
X87071426Y-61399853D01*
X87348665Y-61455000D01*
X87631335Y-61455000D01*
X87908574Y-61399853D01*
X88169727Y-61291680D01*
X88404759Y-61134637D01*
X88604637Y-60934759D01*
X88761680Y-60699727D01*
X88869853Y-60438574D01*
X88877719Y-60399026D01*
X92545042Y-60399026D01*
X92590778Y-60549814D01*
X92717316Y-60814944D01*
X92893146Y-61050293D01*
X93111512Y-61246817D01*
X93217770Y-61310000D01*
X93111512Y-61373183D01*
X92893146Y-61569707D01*
X92717316Y-61805056D01*
X92590778Y-62070186D01*
X92545042Y-62220974D01*
X92666183Y-62453000D01*
X93873000Y-62453000D01*
X93873000Y-60167000D01*
X94127000Y-60167000D01*
X94127000Y-62453000D01*
X96413000Y-62453000D01*
X96413000Y-60167000D01*
X96667000Y-60167000D01*
X96667000Y-62453000D01*
X97873817Y-62453000D01*
X97994958Y-62220974D01*
X97949222Y-62070186D01*
X97822684Y-61805056D01*
X97646854Y-61569707D01*
X97428488Y-61373183D01*
X97322230Y-61310000D01*
X97428488Y-61246817D01*
X97646854Y-61050293D01*
X97822684Y-60814944D01*
X97949222Y-60549814D01*
X97994958Y-60399026D01*
X107545042Y-60399026D01*
X107590778Y-60549814D01*
X107717316Y-60814944D01*
X107893146Y-61050293D01*
X108111512Y-61246817D01*
X108217770Y-61310000D01*
X108111512Y-61373183D01*
X107893146Y-61569707D01*
X107717316Y-61805056D01*
X107590778Y-62070186D01*
X107545042Y-62220974D01*
X107666183Y-62453000D01*
X108873000Y-62453000D01*
X108873000Y-60167000D01*
X109127000Y-60167000D01*
X109127000Y-62453000D01*
X111413000Y-62453000D01*
X111413000Y-60167000D01*
X111667000Y-60167000D01*
X111667000Y-62453000D01*
X112873817Y-62453000D01*
X112994958Y-62220974D01*
X112949222Y-62070186D01*
X112822684Y-61805056D01*
X112646854Y-61569707D01*
X112428488Y-61373183D01*
X112322230Y-61310000D01*
X112428488Y-61246817D01*
X112646854Y-61050293D01*
X112822684Y-60814944D01*
X112949222Y-60549814D01*
X112994958Y-60399026D01*
X122545042Y-60399026D01*
X122590778Y-60549814D01*
X122717316Y-60814944D01*
X122893146Y-61050293D01*
X123111512Y-61246817D01*
X123217770Y-61310000D01*
X123111512Y-61373183D01*
X122893146Y-61569707D01*
X122717316Y-61805056D01*
X122590778Y-62070186D01*
X122545042Y-62220974D01*
X122666183Y-62453000D01*
X123873000Y-62453000D01*
X123873000Y-60167000D01*
X124127000Y-60167000D01*
X124127000Y-62453000D01*
X126413000Y-62453000D01*
X126413000Y-60167000D01*
X126667000Y-60167000D01*
X126667000Y-62453000D01*
X127873817Y-62453000D01*
X127994958Y-62220974D01*
X127949222Y-62070186D01*
X127822684Y-61805056D01*
X127646854Y-61569707D01*
X127428488Y-61373183D01*
X127322230Y-61310000D01*
X127428488Y-61246817D01*
X127646854Y-61050293D01*
X127822684Y-60814944D01*
X127949222Y-60549814D01*
X127994958Y-60399026D01*
X137545042Y-60399026D01*
X137590778Y-60549814D01*
X137717316Y-60814944D01*
X137893146Y-61050293D01*
X138111512Y-61246817D01*
X138217770Y-61310000D01*
X138111512Y-61373183D01*
X137893146Y-61569707D01*
X137717316Y-61805056D01*
X137590778Y-62070186D01*
X137545042Y-62220974D01*
X137666183Y-62453000D01*
X138873000Y-62453000D01*
X138873000Y-60167000D01*
X139127000Y-60167000D01*
X139127000Y-62453000D01*
X141413000Y-62453000D01*
X141413000Y-60167000D01*
X141667000Y-60167000D01*
X141667000Y-62453000D01*
X142873817Y-62453000D01*
X142994958Y-62220974D01*
X142949222Y-62070186D01*
X142822684Y-61805056D01*
X142646854Y-61569707D01*
X142428488Y-61373183D01*
X142322230Y-61310000D01*
X142428488Y-61246817D01*
X142646854Y-61050293D01*
X142822684Y-60814944D01*
X142949222Y-60549814D01*
X142994958Y-60399026D01*
X152545042Y-60399026D01*
X152590778Y-60549814D01*
X152717316Y-60814944D01*
X152893146Y-61050293D01*
X153111512Y-61246817D01*
X153217770Y-61310000D01*
X153111512Y-61373183D01*
X152893146Y-61569707D01*
X152717316Y-61805056D01*
X152590778Y-62070186D01*
X152545042Y-62220974D01*
X152666183Y-62453000D01*
X153873000Y-62453000D01*
X153873000Y-60167000D01*
X154127000Y-60167000D01*
X154127000Y-62453000D01*
X156413000Y-62453000D01*
X156413000Y-60167000D01*
X156667000Y-60167000D01*
X156667000Y-62453000D01*
X157873817Y-62453000D01*
X157994958Y-62220974D01*
X157949222Y-62070186D01*
X157822684Y-61805056D01*
X157646854Y-61569707D01*
X157428488Y-61373183D01*
X157322230Y-61310000D01*
X157428488Y-61246817D01*
X157646854Y-61050293D01*
X157822684Y-60814944D01*
X157949222Y-60549814D01*
X157994958Y-60399026D01*
X167545042Y-60399026D01*
X167590778Y-60549814D01*
X167717316Y-60814944D01*
X167893146Y-61050293D01*
X168111512Y-61246817D01*
X168217770Y-61310000D01*
X168111512Y-61373183D01*
X167893146Y-61569707D01*
X167717316Y-61805056D01*
X167590778Y-62070186D01*
X167545042Y-62220974D01*
X167666183Y-62453000D01*
X168873000Y-62453000D01*
X168873000Y-60167000D01*
X169127000Y-60167000D01*
X169127000Y-62453000D01*
X171413000Y-62453000D01*
X171413000Y-60167000D01*
X171667000Y-60167000D01*
X171667000Y-62453000D01*
X172873817Y-62453000D01*
X172994958Y-62220974D01*
X172949222Y-62070186D01*
X172822684Y-61805056D01*
X172646854Y-61569707D01*
X172428488Y-61373183D01*
X172322230Y-61310000D01*
X172428488Y-61246817D01*
X172646854Y-61050293D01*
X172822684Y-60814944D01*
X172949222Y-60549814D01*
X172994958Y-60399026D01*
X182545042Y-60399026D01*
X182590778Y-60549814D01*
X182717316Y-60814944D01*
X182893146Y-61050293D01*
X183111512Y-61246817D01*
X183217770Y-61310000D01*
X183111512Y-61373183D01*
X182893146Y-61569707D01*
X182717316Y-61805056D01*
X182590778Y-62070186D01*
X182545042Y-62220974D01*
X182666183Y-62453000D01*
X183873000Y-62453000D01*
X183873000Y-60167000D01*
X184127000Y-60167000D01*
X184127000Y-62453000D01*
X186413000Y-62453000D01*
X186413000Y-60167000D01*
X186667000Y-60167000D01*
X186667000Y-62453000D01*
X187873817Y-62453000D01*
X187994958Y-62220974D01*
X187949222Y-62070186D01*
X187822684Y-61805056D01*
X187646854Y-61569707D01*
X187428488Y-61373183D01*
X187322230Y-61310000D01*
X187428488Y-61246817D01*
X187646854Y-61050293D01*
X187822684Y-60814944D01*
X187949222Y-60549814D01*
X187994958Y-60399026D01*
X197545042Y-60399026D01*
X197590778Y-60549814D01*
X197717316Y-60814944D01*
X197893146Y-61050293D01*
X198111512Y-61246817D01*
X198217770Y-61310000D01*
X198111512Y-61373183D01*
X197893146Y-61569707D01*
X197717316Y-61805056D01*
X197590778Y-62070186D01*
X197545042Y-62220974D01*
X197666183Y-62453000D01*
X198873000Y-62453000D01*
X198873000Y-60167000D01*
X199127000Y-60167000D01*
X199127000Y-62453000D01*
X201413000Y-62453000D01*
X201413000Y-60167000D01*
X201667000Y-60167000D01*
X201667000Y-62453000D01*
X202873817Y-62453000D01*
X202994958Y-62220974D01*
X202949222Y-62070186D01*
X202822684Y-61805056D01*
X202646854Y-61569707D01*
X202428488Y-61373183D01*
X202322230Y-61310000D01*
X202428488Y-61246817D01*
X202646854Y-61050293D01*
X202822684Y-60814944D01*
X202949222Y-60549814D01*
X202994958Y-60399026D01*
X212545042Y-60399026D01*
X212590778Y-60549814D01*
X212717316Y-60814944D01*
X212893146Y-61050293D01*
X213111512Y-61246817D01*
X213217770Y-61310000D01*
X213111512Y-61373183D01*
X212893146Y-61569707D01*
X212717316Y-61805056D01*
X212590778Y-62070186D01*
X212545042Y-62220974D01*
X212666183Y-62453000D01*
X213873000Y-62453000D01*
X213873000Y-60167000D01*
X214127000Y-60167000D01*
X214127000Y-62453000D01*
X216413000Y-62453000D01*
X216413000Y-60167000D01*
X216667000Y-60167000D01*
X216667000Y-62453000D01*
X217873817Y-62453000D01*
X217994958Y-62220974D01*
X217949222Y-62070186D01*
X217822684Y-61805056D01*
X217646854Y-61569707D01*
X217428488Y-61373183D01*
X217322230Y-61310000D01*
X217428488Y-61246817D01*
X217646854Y-61050293D01*
X217822684Y-60814944D01*
X217949222Y-60549814D01*
X217994958Y-60399026D01*
X227545042Y-60399026D01*
X227590778Y-60549814D01*
X227717316Y-60814944D01*
X227893146Y-61050293D01*
X228111512Y-61246817D01*
X228217770Y-61310000D01*
X228111512Y-61373183D01*
X227893146Y-61569707D01*
X227717316Y-61805056D01*
X227590778Y-62070186D01*
X227545042Y-62220974D01*
X227666183Y-62453000D01*
X228873000Y-62453000D01*
X228873000Y-60167000D01*
X229127000Y-60167000D01*
X229127000Y-62453000D01*
X231413000Y-62453000D01*
X231413000Y-60167000D01*
X231667000Y-60167000D01*
X231667000Y-62453000D01*
X232873817Y-62453000D01*
X232994958Y-62220974D01*
X232949222Y-62070186D01*
X232822684Y-61805056D01*
X232646854Y-61569707D01*
X232428488Y-61373183D01*
X232322230Y-61310000D01*
X232428488Y-61246817D01*
X232646854Y-61050293D01*
X232822684Y-60814944D01*
X232949222Y-60549814D01*
X232994958Y-60399026D01*
X232873817Y-60167000D01*
X231667000Y-60167000D01*
X231413000Y-60167000D01*
X229127000Y-60167000D01*
X228873000Y-60167000D01*
X227666183Y-60167000D01*
X227545042Y-60399026D01*
X217994958Y-60399026D01*
X217873817Y-60167000D01*
X216667000Y-60167000D01*
X216413000Y-60167000D01*
X214127000Y-60167000D01*
X213873000Y-60167000D01*
X212666183Y-60167000D01*
X212545042Y-60399026D01*
X202994958Y-60399026D01*
X202873817Y-60167000D01*
X201667000Y-60167000D01*
X201413000Y-60167000D01*
X199127000Y-60167000D01*
X198873000Y-60167000D01*
X197666183Y-60167000D01*
X197545042Y-60399026D01*
X187994958Y-60399026D01*
X187873817Y-60167000D01*
X186667000Y-60167000D01*
X186413000Y-60167000D01*
X184127000Y-60167000D01*
X183873000Y-60167000D01*
X182666183Y-60167000D01*
X182545042Y-60399026D01*
X172994958Y-60399026D01*
X172873817Y-60167000D01*
X171667000Y-60167000D01*
X171413000Y-60167000D01*
X169127000Y-60167000D01*
X168873000Y-60167000D01*
X167666183Y-60167000D01*
X167545042Y-60399026D01*
X157994958Y-60399026D01*
X157873817Y-60167000D01*
X156667000Y-60167000D01*
X156413000Y-60167000D01*
X154127000Y-60167000D01*
X153873000Y-60167000D01*
X152666183Y-60167000D01*
X152545042Y-60399026D01*
X142994958Y-60399026D01*
X142873817Y-60167000D01*
X141667000Y-60167000D01*
X141413000Y-60167000D01*
X139127000Y-60167000D01*
X138873000Y-60167000D01*
X137666183Y-60167000D01*
X137545042Y-60399026D01*
X127994958Y-60399026D01*
X127873817Y-60167000D01*
X126667000Y-60167000D01*
X126413000Y-60167000D01*
X124127000Y-60167000D01*
X123873000Y-60167000D01*
X122666183Y-60167000D01*
X122545042Y-60399026D01*
X112994958Y-60399026D01*
X112873817Y-60167000D01*
X111667000Y-60167000D01*
X111413000Y-60167000D01*
X109127000Y-60167000D01*
X108873000Y-60167000D01*
X107666183Y-60167000D01*
X107545042Y-60399026D01*
X97994958Y-60399026D01*
X97873817Y-60167000D01*
X96667000Y-60167000D01*
X96413000Y-60167000D01*
X94127000Y-60167000D01*
X93873000Y-60167000D01*
X92666183Y-60167000D01*
X92545042Y-60399026D01*
X88877719Y-60399026D01*
X88925000Y-60161335D01*
X88925000Y-59878665D01*
X88869853Y-59601426D01*
X88761680Y-59340273D01*
X88604637Y-59105241D01*
X88404759Y-58905363D01*
X88169727Y-58748320D01*
X87908574Y-58640147D01*
X87631335Y-58585000D01*
X87348665Y-58585000D01*
X87071426Y-58640147D01*
X86810273Y-58748320D01*
X86575241Y-58905363D01*
X86375363Y-59105241D01*
X86218320Y-59340273D01*
X86110147Y-59601426D01*
X86055000Y-59878665D01*
X82891743Y-59878665D01*
X82994958Y-59680974D01*
X82949222Y-59530186D01*
X82822684Y-59265056D01*
X82646854Y-59029707D01*
X82428488Y-58833183D01*
X82329897Y-58774559D01*
X82495302Y-58664039D01*
X82704039Y-58455302D01*
X82868042Y-58209853D01*
X82981010Y-57937125D01*
X83038600Y-57647599D01*
X83038600Y-57352401D01*
X82981010Y-57062875D01*
X82868042Y-56790147D01*
X82704039Y-56544698D01*
X82495302Y-56335961D01*
X82249853Y-56171958D01*
X81977125Y-56058990D01*
X81687599Y-56001400D01*
X81392401Y-56001400D01*
X81102875Y-56058990D01*
X80830147Y-56171958D01*
X80584698Y-56335961D01*
X80470636Y-56450023D01*
X80453102Y-56392220D01*
X80394137Y-56281906D01*
X80314785Y-56185215D01*
X80218094Y-56105863D01*
X80107780Y-56046898D01*
X79988082Y-56010588D01*
X79863600Y-55998328D01*
X78136400Y-55998328D01*
X78011918Y-56010588D01*
X77892220Y-56046898D01*
X77781906Y-56105863D01*
X77685215Y-56185215D01*
X77605863Y-56281906D01*
X77546898Y-56392220D01*
X77510588Y-56511918D01*
X77498328Y-56636400D01*
X75575000Y-56636400D01*
X75575000Y-56348816D01*
X75516011Y-56052257D01*
X75400299Y-55772905D01*
X75284768Y-55600000D01*
X84961928Y-55600000D01*
X84961928Y-57400000D01*
X84974188Y-57524482D01*
X85010498Y-57644180D01*
X85069463Y-57754494D01*
X85148815Y-57851185D01*
X85245506Y-57930537D01*
X85355820Y-57989502D01*
X85475518Y-58025812D01*
X85600000Y-58038072D01*
X87400000Y-58038072D01*
X87524482Y-58025812D01*
X87644180Y-57989502D01*
X87754494Y-57930537D01*
X87851185Y-57851185D01*
X87930537Y-57754494D01*
X87989502Y-57644180D01*
X87995056Y-57625873D01*
X88061495Y-57692312D01*
X88312905Y-57860299D01*
X88592257Y-57976011D01*
X88888816Y-58035000D01*
X89191184Y-58035000D01*
X89487743Y-57976011D01*
X89767095Y-57860299D01*
X90018505Y-57692312D01*
X90232312Y-57478505D01*
X90400299Y-57227095D01*
X90516011Y-56947743D01*
X90575000Y-56651184D01*
X90575000Y-56636400D01*
X92498328Y-56636400D01*
X92498328Y-58363600D01*
X92510588Y-58488082D01*
X92546898Y-58607780D01*
X92605863Y-58718094D01*
X92685215Y-58814785D01*
X92781906Y-58894137D01*
X92892220Y-58953102D01*
X92956574Y-58972624D01*
X92893146Y-59029707D01*
X92717316Y-59265056D01*
X92590778Y-59530186D01*
X92545042Y-59680974D01*
X92666183Y-59913000D01*
X93873000Y-59913000D01*
X93873000Y-59893000D01*
X94127000Y-59893000D01*
X94127000Y-59913000D01*
X96413000Y-59913000D01*
X96413000Y-59893000D01*
X96667000Y-59893000D01*
X96667000Y-59913000D01*
X97873817Y-59913000D01*
X97994958Y-59680974D01*
X97949222Y-59530186D01*
X97822684Y-59265056D01*
X97646854Y-59029707D01*
X97428488Y-58833183D01*
X97329897Y-58774559D01*
X97495302Y-58664039D01*
X97704039Y-58455302D01*
X97868042Y-58209853D01*
X97981010Y-57937125D01*
X98038600Y-57647599D01*
X98038600Y-57352401D01*
X97981010Y-57062875D01*
X97868042Y-56790147D01*
X97765313Y-56636400D01*
X107498328Y-56636400D01*
X107498328Y-58363600D01*
X107510588Y-58488082D01*
X107546898Y-58607780D01*
X107605863Y-58718094D01*
X107685215Y-58814785D01*
X107781906Y-58894137D01*
X107892220Y-58953102D01*
X107956574Y-58972624D01*
X107893146Y-59029707D01*
X107717316Y-59265056D01*
X107590778Y-59530186D01*
X107545042Y-59680974D01*
X107666183Y-59913000D01*
X108873000Y-59913000D01*
X108873000Y-59893000D01*
X109127000Y-59893000D01*
X109127000Y-59913000D01*
X111413000Y-59913000D01*
X111413000Y-59893000D01*
X111667000Y-59893000D01*
X111667000Y-59913000D01*
X112873817Y-59913000D01*
X112994958Y-59680974D01*
X112949222Y-59530186D01*
X112822684Y-59265056D01*
X112646854Y-59029707D01*
X112428488Y-58833183D01*
X112329897Y-58774559D01*
X112495302Y-58664039D01*
X112704039Y-58455302D01*
X112868042Y-58209853D01*
X112981010Y-57937125D01*
X113038600Y-57647599D01*
X113038600Y-57352401D01*
X112981010Y-57062875D01*
X112868042Y-56790147D01*
X112765313Y-56636400D01*
X122498328Y-56636400D01*
X122498328Y-58363600D01*
X122510588Y-58488082D01*
X122546898Y-58607780D01*
X122605863Y-58718094D01*
X122685215Y-58814785D01*
X122781906Y-58894137D01*
X122892220Y-58953102D01*
X122956574Y-58972624D01*
X122893146Y-59029707D01*
X122717316Y-59265056D01*
X122590778Y-59530186D01*
X122545042Y-59680974D01*
X122666183Y-59913000D01*
X123873000Y-59913000D01*
X123873000Y-59893000D01*
X124127000Y-59893000D01*
X124127000Y-59913000D01*
X126413000Y-59913000D01*
X126413000Y-59893000D01*
X126667000Y-59893000D01*
X126667000Y-59913000D01*
X127873817Y-59913000D01*
X127994958Y-59680974D01*
X127949222Y-59530186D01*
X127822684Y-59265056D01*
X127646854Y-59029707D01*
X127428488Y-58833183D01*
X127329897Y-58774559D01*
X127495302Y-58664039D01*
X127704039Y-58455302D01*
X127868042Y-58209853D01*
X127981010Y-57937125D01*
X128038600Y-57647599D01*
X128038600Y-57352401D01*
X127981010Y-57062875D01*
X127868042Y-56790147D01*
X127765313Y-56636400D01*
X137498328Y-56636400D01*
X137498328Y-58363600D01*
X137510588Y-58488082D01*
X137546898Y-58607780D01*
X137605863Y-58718094D01*
X137685215Y-58814785D01*
X137781906Y-58894137D01*
X137892220Y-58953102D01*
X137956574Y-58972624D01*
X137893146Y-59029707D01*
X137717316Y-59265056D01*
X137590778Y-59530186D01*
X137545042Y-59680974D01*
X137666183Y-59913000D01*
X138873000Y-59913000D01*
X138873000Y-59893000D01*
X139127000Y-59893000D01*
X139127000Y-59913000D01*
X141413000Y-59913000D01*
X141413000Y-59893000D01*
X141667000Y-59893000D01*
X141667000Y-59913000D01*
X142873817Y-59913000D01*
X142994958Y-59680974D01*
X142949222Y-59530186D01*
X142822684Y-59265056D01*
X142646854Y-59029707D01*
X142428488Y-58833183D01*
X142329897Y-58774559D01*
X142495302Y-58664039D01*
X142704039Y-58455302D01*
X142868042Y-58209853D01*
X142981010Y-57937125D01*
X143038600Y-57647599D01*
X143038600Y-57352401D01*
X142981010Y-57062875D01*
X142868042Y-56790147D01*
X142765313Y-56636400D01*
X152498328Y-56636400D01*
X152498328Y-58363600D01*
X152510588Y-58488082D01*
X152546898Y-58607780D01*
X152605863Y-58718094D01*
X152685215Y-58814785D01*
X152781906Y-58894137D01*
X152892220Y-58953102D01*
X152956574Y-58972624D01*
X152893146Y-59029707D01*
X152717316Y-59265056D01*
X152590778Y-59530186D01*
X152545042Y-59680974D01*
X152666183Y-59913000D01*
X153873000Y-59913000D01*
X153873000Y-59893000D01*
X154127000Y-59893000D01*
X154127000Y-59913000D01*
X156413000Y-59913000D01*
X156413000Y-59893000D01*
X156667000Y-59893000D01*
X156667000Y-59913000D01*
X157873817Y-59913000D01*
X157994958Y-59680974D01*
X157949222Y-59530186D01*
X157822684Y-59265056D01*
X157646854Y-59029707D01*
X157428488Y-58833183D01*
X157329897Y-58774559D01*
X157495302Y-58664039D01*
X157704039Y-58455302D01*
X157868042Y-58209853D01*
X157981010Y-57937125D01*
X158038600Y-57647599D01*
X158038600Y-57352401D01*
X157981010Y-57062875D01*
X157868042Y-56790147D01*
X157765313Y-56636400D01*
X167498328Y-56636400D01*
X167498328Y-58363600D01*
X167510588Y-58488082D01*
X167546898Y-58607780D01*
X167605863Y-58718094D01*
X167685215Y-58814785D01*
X167781906Y-58894137D01*
X167892220Y-58953102D01*
X167956574Y-58972624D01*
X167893146Y-59029707D01*
X167717316Y-59265056D01*
X167590778Y-59530186D01*
X167545042Y-59680974D01*
X167666183Y-59913000D01*
X168873000Y-59913000D01*
X168873000Y-59893000D01*
X169127000Y-59893000D01*
X169127000Y-59913000D01*
X171413000Y-59913000D01*
X171413000Y-59893000D01*
X171667000Y-59893000D01*
X171667000Y-59913000D01*
X172873817Y-59913000D01*
X172994958Y-59680974D01*
X172949222Y-59530186D01*
X172822684Y-59265056D01*
X172646854Y-59029707D01*
X172428488Y-58833183D01*
X172329897Y-58774559D01*
X172495302Y-58664039D01*
X172704039Y-58455302D01*
X172868042Y-58209853D01*
X172981010Y-57937125D01*
X173038600Y-57647599D01*
X173038600Y-57352401D01*
X172981010Y-57062875D01*
X172868042Y-56790147D01*
X172765313Y-56636400D01*
X182498328Y-56636400D01*
X182498328Y-58363600D01*
X182510588Y-58488082D01*
X182546898Y-58607780D01*
X182605863Y-58718094D01*
X182685215Y-58814785D01*
X182781906Y-58894137D01*
X182892220Y-58953102D01*
X182956574Y-58972624D01*
X182893146Y-59029707D01*
X182717316Y-59265056D01*
X182590778Y-59530186D01*
X182545042Y-59680974D01*
X182666183Y-59913000D01*
X183873000Y-59913000D01*
X183873000Y-59893000D01*
X184127000Y-59893000D01*
X184127000Y-59913000D01*
X186413000Y-59913000D01*
X186413000Y-59893000D01*
X186667000Y-59893000D01*
X186667000Y-59913000D01*
X187873817Y-59913000D01*
X187994958Y-59680974D01*
X187949222Y-59530186D01*
X187822684Y-59265056D01*
X187646854Y-59029707D01*
X187428488Y-58833183D01*
X187329897Y-58774559D01*
X187495302Y-58664039D01*
X187704039Y-58455302D01*
X187868042Y-58209853D01*
X187981010Y-57937125D01*
X188038600Y-57647599D01*
X188038600Y-57352401D01*
X187981010Y-57062875D01*
X187868042Y-56790147D01*
X187765313Y-56636400D01*
X197498328Y-56636400D01*
X197498328Y-58363600D01*
X197510588Y-58488082D01*
X197546898Y-58607780D01*
X197605863Y-58718094D01*
X197685215Y-58814785D01*
X197781906Y-58894137D01*
X197892220Y-58953102D01*
X197956574Y-58972624D01*
X197893146Y-59029707D01*
X197717316Y-59265056D01*
X197590778Y-59530186D01*
X197545042Y-59680974D01*
X197666183Y-59913000D01*
X198873000Y-59913000D01*
X198873000Y-59893000D01*
X199127000Y-59893000D01*
X199127000Y-59913000D01*
X201413000Y-59913000D01*
X201413000Y-59893000D01*
X201667000Y-59893000D01*
X201667000Y-59913000D01*
X202873817Y-59913000D01*
X202994958Y-59680974D01*
X202949222Y-59530186D01*
X202822684Y-59265056D01*
X202646854Y-59029707D01*
X202428488Y-58833183D01*
X202329897Y-58774559D01*
X202495302Y-58664039D01*
X202704039Y-58455302D01*
X202868042Y-58209853D01*
X202981010Y-57937125D01*
X203038600Y-57647599D01*
X203038600Y-57352401D01*
X202981010Y-57062875D01*
X202868042Y-56790147D01*
X202765313Y-56636400D01*
X212498328Y-56636400D01*
X212498328Y-58363600D01*
X212510588Y-58488082D01*
X212546898Y-58607780D01*
X212605863Y-58718094D01*
X212685215Y-58814785D01*
X212781906Y-58894137D01*
X212892220Y-58953102D01*
X212956574Y-58972624D01*
X212893146Y-59029707D01*
X212717316Y-59265056D01*
X212590778Y-59530186D01*
X212545042Y-59680974D01*
X212666183Y-59913000D01*
X213873000Y-59913000D01*
X213873000Y-59893000D01*
X214127000Y-59893000D01*
X214127000Y-59913000D01*
X216413000Y-59913000D01*
X216413000Y-59893000D01*
X216667000Y-59893000D01*
X216667000Y-59913000D01*
X217873817Y-59913000D01*
X217994958Y-59680974D01*
X217949222Y-59530186D01*
X217822684Y-59265056D01*
X217646854Y-59029707D01*
X217428488Y-58833183D01*
X217329897Y-58774559D01*
X217495302Y-58664039D01*
X217704039Y-58455302D01*
X217868042Y-58209853D01*
X217981010Y-57937125D01*
X218038600Y-57647599D01*
X218038600Y-57352401D01*
X217981010Y-57062875D01*
X217868042Y-56790147D01*
X217765313Y-56636400D01*
X227498328Y-56636400D01*
X227498328Y-58363600D01*
X227510588Y-58488082D01*
X227546898Y-58607780D01*
X227605863Y-58718094D01*
X227685215Y-58814785D01*
X227781906Y-58894137D01*
X227892220Y-58953102D01*
X227956574Y-58972624D01*
X227893146Y-59029707D01*
X227717316Y-59265056D01*
X227590778Y-59530186D01*
X227545042Y-59680974D01*
X227666183Y-59913000D01*
X228873000Y-59913000D01*
X228873000Y-59893000D01*
X229127000Y-59893000D01*
X229127000Y-59913000D01*
X231413000Y-59913000D01*
X231413000Y-59893000D01*
X231667000Y-59893000D01*
X231667000Y-59913000D01*
X232873817Y-59913000D01*
X232994958Y-59680974D01*
X232949222Y-59530186D01*
X232822684Y-59265056D01*
X232646854Y-59029707D01*
X232428488Y-58833183D01*
X232329897Y-58774559D01*
X232495302Y-58664039D01*
X232704039Y-58455302D01*
X232868042Y-58209853D01*
X232981010Y-57937125D01*
X233038600Y-57647599D01*
X233038600Y-57352401D01*
X232981010Y-57062875D01*
X232868042Y-56790147D01*
X232704039Y-56544698D01*
X232495302Y-56335961D01*
X232249853Y-56171958D01*
X231977125Y-56058990D01*
X231687599Y-56001400D01*
X231392401Y-56001400D01*
X231102875Y-56058990D01*
X230830147Y-56171958D01*
X230584698Y-56335961D01*
X230470636Y-56450023D01*
X230453102Y-56392220D01*
X230394137Y-56281906D01*
X230314785Y-56185215D01*
X230218094Y-56105863D01*
X230107780Y-56046898D01*
X229988082Y-56010588D01*
X229863600Y-55998328D01*
X228136400Y-55998328D01*
X228011918Y-56010588D01*
X227892220Y-56046898D01*
X227781906Y-56105863D01*
X227685215Y-56185215D01*
X227605863Y-56281906D01*
X227546898Y-56392220D01*
X227510588Y-56511918D01*
X227498328Y-56636400D01*
X217765313Y-56636400D01*
X217704039Y-56544698D01*
X217495302Y-56335961D01*
X217249853Y-56171958D01*
X216977125Y-56058990D01*
X216687599Y-56001400D01*
X216392401Y-56001400D01*
X216102875Y-56058990D01*
X215830147Y-56171958D01*
X215584698Y-56335961D01*
X215470636Y-56450023D01*
X215453102Y-56392220D01*
X215394137Y-56281906D01*
X215314785Y-56185215D01*
X215218094Y-56105863D01*
X215107780Y-56046898D01*
X214988082Y-56010588D01*
X214863600Y-55998328D01*
X213136400Y-55998328D01*
X213011918Y-56010588D01*
X212892220Y-56046898D01*
X212781906Y-56105863D01*
X212685215Y-56185215D01*
X212605863Y-56281906D01*
X212546898Y-56392220D01*
X212510588Y-56511918D01*
X212498328Y-56636400D01*
X202765313Y-56636400D01*
X202704039Y-56544698D01*
X202495302Y-56335961D01*
X202249853Y-56171958D01*
X201977125Y-56058990D01*
X201687599Y-56001400D01*
X201392401Y-56001400D01*
X201102875Y-56058990D01*
X200830147Y-56171958D01*
X200584698Y-56335961D01*
X200470636Y-56450023D01*
X200453102Y-56392220D01*
X200394137Y-56281906D01*
X200314785Y-56185215D01*
X200218094Y-56105863D01*
X200107780Y-56046898D01*
X199988082Y-56010588D01*
X199863600Y-55998328D01*
X198136400Y-55998328D01*
X198011918Y-56010588D01*
X197892220Y-56046898D01*
X197781906Y-56105863D01*
X197685215Y-56185215D01*
X197605863Y-56281906D01*
X197546898Y-56392220D01*
X197510588Y-56511918D01*
X197498328Y-56636400D01*
X187765313Y-56636400D01*
X187704039Y-56544698D01*
X187495302Y-56335961D01*
X187249853Y-56171958D01*
X186977125Y-56058990D01*
X186687599Y-56001400D01*
X186392401Y-56001400D01*
X186102875Y-56058990D01*
X185830147Y-56171958D01*
X185584698Y-56335961D01*
X185470636Y-56450023D01*
X185453102Y-56392220D01*
X185394137Y-56281906D01*
X185314785Y-56185215D01*
X185218094Y-56105863D01*
X185107780Y-56046898D01*
X184988082Y-56010588D01*
X184863600Y-55998328D01*
X183136400Y-55998328D01*
X183011918Y-56010588D01*
X182892220Y-56046898D01*
X182781906Y-56105863D01*
X182685215Y-56185215D01*
X182605863Y-56281906D01*
X182546898Y-56392220D01*
X182510588Y-56511918D01*
X182498328Y-56636400D01*
X172765313Y-56636400D01*
X172704039Y-56544698D01*
X172495302Y-56335961D01*
X172249853Y-56171958D01*
X171977125Y-56058990D01*
X171687599Y-56001400D01*
X171392401Y-56001400D01*
X171102875Y-56058990D01*
X170830147Y-56171958D01*
X170584698Y-56335961D01*
X170470636Y-56450023D01*
X170453102Y-56392220D01*
X170394137Y-56281906D01*
X170314785Y-56185215D01*
X170218094Y-56105863D01*
X170107780Y-56046898D01*
X169988082Y-56010588D01*
X169863600Y-55998328D01*
X168136400Y-55998328D01*
X168011918Y-56010588D01*
X167892220Y-56046898D01*
X167781906Y-56105863D01*
X167685215Y-56185215D01*
X167605863Y-56281906D01*
X167546898Y-56392220D01*
X167510588Y-56511918D01*
X167498328Y-56636400D01*
X157765313Y-56636400D01*
X157704039Y-56544698D01*
X157495302Y-56335961D01*
X157249853Y-56171958D01*
X156977125Y-56058990D01*
X156687599Y-56001400D01*
X156392401Y-56001400D01*
X156102875Y-56058990D01*
X155830147Y-56171958D01*
X155584698Y-56335961D01*
X155470636Y-56450023D01*
X155453102Y-56392220D01*
X155394137Y-56281906D01*
X155314785Y-56185215D01*
X155218094Y-56105863D01*
X155107780Y-56046898D01*
X154988082Y-56010588D01*
X154863600Y-55998328D01*
X153136400Y-55998328D01*
X153011918Y-56010588D01*
X152892220Y-56046898D01*
X152781906Y-56105863D01*
X152685215Y-56185215D01*
X152605863Y-56281906D01*
X152546898Y-56392220D01*
X152510588Y-56511918D01*
X152498328Y-56636400D01*
X142765313Y-56636400D01*
X142704039Y-56544698D01*
X142495302Y-56335961D01*
X142249853Y-56171958D01*
X141977125Y-56058990D01*
X141687599Y-56001400D01*
X141392401Y-56001400D01*
X141102875Y-56058990D01*
X140830147Y-56171958D01*
X140584698Y-56335961D01*
X140470636Y-56450023D01*
X140453102Y-56392220D01*
X140394137Y-56281906D01*
X140314785Y-56185215D01*
X140218094Y-56105863D01*
X140107780Y-56046898D01*
X139988082Y-56010588D01*
X139863600Y-55998328D01*
X138136400Y-55998328D01*
X138011918Y-56010588D01*
X137892220Y-56046898D01*
X137781906Y-56105863D01*
X137685215Y-56185215D01*
X137605863Y-56281906D01*
X137546898Y-56392220D01*
X137510588Y-56511918D01*
X137498328Y-56636400D01*
X127765313Y-56636400D01*
X127704039Y-56544698D01*
X127495302Y-56335961D01*
X127249853Y-56171958D01*
X126977125Y-56058990D01*
X126687599Y-56001400D01*
X126392401Y-56001400D01*
X126102875Y-56058990D01*
X125830147Y-56171958D01*
X125584698Y-56335961D01*
X125470636Y-56450023D01*
X125453102Y-56392220D01*
X125394137Y-56281906D01*
X125314785Y-56185215D01*
X125218094Y-56105863D01*
X125107780Y-56046898D01*
X124988082Y-56010588D01*
X124863600Y-55998328D01*
X123136400Y-55998328D01*
X123011918Y-56010588D01*
X122892220Y-56046898D01*
X122781906Y-56105863D01*
X122685215Y-56185215D01*
X122605863Y-56281906D01*
X122546898Y-56392220D01*
X122510588Y-56511918D01*
X122498328Y-56636400D01*
X112765313Y-56636400D01*
X112704039Y-56544698D01*
X112495302Y-56335961D01*
X112249853Y-56171958D01*
X111977125Y-56058990D01*
X111687599Y-56001400D01*
X111392401Y-56001400D01*
X111102875Y-56058990D01*
X110830147Y-56171958D01*
X110584698Y-56335961D01*
X110470636Y-56450023D01*
X110453102Y-56392220D01*
X110394137Y-56281906D01*
X110314785Y-56185215D01*
X110218094Y-56105863D01*
X110107780Y-56046898D01*
X109988082Y-56010588D01*
X109863600Y-55998328D01*
X108136400Y-55998328D01*
X108011918Y-56010588D01*
X107892220Y-56046898D01*
X107781906Y-56105863D01*
X107685215Y-56185215D01*
X107605863Y-56281906D01*
X107546898Y-56392220D01*
X107510588Y-56511918D01*
X107498328Y-56636400D01*
X97765313Y-56636400D01*
X97704039Y-56544698D01*
X97495302Y-56335961D01*
X97249853Y-56171958D01*
X96977125Y-56058990D01*
X96687599Y-56001400D01*
X96392401Y-56001400D01*
X96102875Y-56058990D01*
X95830147Y-56171958D01*
X95584698Y-56335961D01*
X95470636Y-56450023D01*
X95453102Y-56392220D01*
X95394137Y-56281906D01*
X95314785Y-56185215D01*
X95218094Y-56105863D01*
X95107780Y-56046898D01*
X94988082Y-56010588D01*
X94863600Y-55998328D01*
X93136400Y-55998328D01*
X93011918Y-56010588D01*
X92892220Y-56046898D01*
X92781906Y-56105863D01*
X92685215Y-56185215D01*
X92605863Y-56281906D01*
X92546898Y-56392220D01*
X92510588Y-56511918D01*
X92498328Y-56636400D01*
X90575000Y-56636400D01*
X90575000Y-56348816D01*
X90516011Y-56052257D01*
X90400299Y-55772905D01*
X90232312Y-55521495D01*
X90018505Y-55307688D01*
X89767095Y-55139701D01*
X89487743Y-55023989D01*
X89191184Y-54965000D01*
X88888816Y-54965000D01*
X88592257Y-55023989D01*
X88312905Y-55139701D01*
X88061495Y-55307688D01*
X87995056Y-55374127D01*
X87989502Y-55355820D01*
X87930537Y-55245506D01*
X87851185Y-55148815D01*
X87754494Y-55069463D01*
X87644180Y-55010498D01*
X87524482Y-54974188D01*
X87400000Y-54961928D01*
X85600000Y-54961928D01*
X85475518Y-54974188D01*
X85355820Y-55010498D01*
X85245506Y-55069463D01*
X85148815Y-55148815D01*
X85069463Y-55245506D01*
X85010498Y-55355820D01*
X84974188Y-55475518D01*
X84961928Y-55600000D01*
X75284768Y-55600000D01*
X75232312Y-55521495D01*
X75018505Y-55307688D01*
X74767095Y-55139701D01*
X74487743Y-55023989D01*
X74191184Y-54965000D01*
X73888816Y-54965000D01*
X73592257Y-55023989D01*
X73312905Y-55139701D01*
X73061495Y-55307688D01*
X72995056Y-55374127D01*
X72989502Y-55355820D01*
X72930537Y-55245506D01*
X72851185Y-55148815D01*
X72754494Y-55069463D01*
X72644180Y-55010498D01*
X72524482Y-54974188D01*
X72400000Y-54961928D01*
X71785750Y-54965000D01*
X71627000Y-55123750D01*
X71373000Y-55123750D01*
X71214250Y-54965000D01*
X70600000Y-54961928D01*
X70475518Y-54974188D01*
X70355820Y-55010498D01*
X70245506Y-55069463D01*
X70148815Y-55148815D01*
X70069463Y-55245506D01*
X70010498Y-55355820D01*
X69974188Y-55475518D01*
X69961928Y-55600000D01*
X59310767Y-55600000D01*
X59486038Y-55424729D01*
X59730631Y-55058669D01*
X59899110Y-54651925D01*
X59985000Y-54220128D01*
X59985000Y-53779872D01*
X100515000Y-53779872D01*
X100515000Y-54220128D01*
X100600890Y-54651925D01*
X100769369Y-55058669D01*
X101013962Y-55424729D01*
X101325271Y-55736038D01*
X101691331Y-55980631D01*
X102098075Y-56149110D01*
X102529872Y-56235000D01*
X102970128Y-56235000D01*
X103401925Y-56149110D01*
X103808669Y-55980631D01*
X104174729Y-55736038D01*
X104486038Y-55424729D01*
X104730631Y-55058669D01*
X104899110Y-54651925D01*
X104985000Y-54220128D01*
X104985000Y-53779872D01*
X145515000Y-53779872D01*
X145515000Y-54220128D01*
X145600890Y-54651925D01*
X145769369Y-55058669D01*
X146013962Y-55424729D01*
X146325271Y-55736038D01*
X146691331Y-55980631D01*
X147098075Y-56149110D01*
X147529872Y-56235000D01*
X147970128Y-56235000D01*
X148401925Y-56149110D01*
X148808669Y-55980631D01*
X149174729Y-55736038D01*
X149486038Y-55424729D01*
X149730631Y-55058669D01*
X149899110Y-54651925D01*
X149985000Y-54220128D01*
X149985000Y-53779872D01*
X190515000Y-53779872D01*
X190515000Y-54220128D01*
X190600890Y-54651925D01*
X190769369Y-55058669D01*
X191013962Y-55424729D01*
X191325271Y-55736038D01*
X191691331Y-55980631D01*
X192098075Y-56149110D01*
X192529872Y-56235000D01*
X192970128Y-56235000D01*
X193401925Y-56149110D01*
X193808669Y-55980631D01*
X194174729Y-55736038D01*
X194486038Y-55424729D01*
X194730631Y-55058669D01*
X194899110Y-54651925D01*
X194985000Y-54220128D01*
X194985000Y-53779872D01*
X235515000Y-53779872D01*
X235515000Y-54220128D01*
X235600890Y-54651925D01*
X235769369Y-55058669D01*
X236013962Y-55424729D01*
X236325271Y-55736038D01*
X236691331Y-55980631D01*
X237098075Y-56149110D01*
X237529872Y-56235000D01*
X237970128Y-56235000D01*
X238401925Y-56149110D01*
X238808669Y-55980631D01*
X239174729Y-55736038D01*
X239486038Y-55424729D01*
X239730631Y-55058669D01*
X239899110Y-54651925D01*
X239985000Y-54220128D01*
X239985000Y-53779872D01*
X239899110Y-53348075D01*
X239730631Y-52941331D01*
X239486038Y-52575271D01*
X239174729Y-52263962D01*
X238808669Y-52019369D01*
X238401925Y-51850890D01*
X237970128Y-51765000D01*
X237529872Y-51765000D01*
X237098075Y-51850890D01*
X236691331Y-52019369D01*
X236325271Y-52263962D01*
X236013962Y-52575271D01*
X235769369Y-52941331D01*
X235600890Y-53348075D01*
X235515000Y-53779872D01*
X194985000Y-53779872D01*
X194899110Y-53348075D01*
X194730631Y-52941331D01*
X194486038Y-52575271D01*
X194174729Y-52263962D01*
X193808669Y-52019369D01*
X193401925Y-51850890D01*
X192970128Y-51765000D01*
X192529872Y-51765000D01*
X192098075Y-51850890D01*
X191691331Y-52019369D01*
X191325271Y-52263962D01*
X191013962Y-52575271D01*
X190769369Y-52941331D01*
X190600890Y-53348075D01*
X190515000Y-53779872D01*
X149985000Y-53779872D01*
X149899110Y-53348075D01*
X149730631Y-52941331D01*
X149486038Y-52575271D01*
X149174729Y-52263962D01*
X148808669Y-52019369D01*
X148401925Y-51850890D01*
X147970128Y-51765000D01*
X147529872Y-51765000D01*
X147098075Y-51850890D01*
X146691331Y-52019369D01*
X146325271Y-52263962D01*
X146013962Y-52575271D01*
X145769369Y-52941331D01*
X145600890Y-53348075D01*
X145515000Y-53779872D01*
X104985000Y-53779872D01*
X104899110Y-53348075D01*
X104730631Y-52941331D01*
X104486038Y-52575271D01*
X104174729Y-52263962D01*
X103808669Y-52019369D01*
X103401925Y-51850890D01*
X102970128Y-51765000D01*
X102529872Y-51765000D01*
X102098075Y-51850890D01*
X101691331Y-52019369D01*
X101325271Y-52263962D01*
X101013962Y-52575271D01*
X100769369Y-52941331D01*
X100600890Y-53348075D01*
X100515000Y-53779872D01*
X59985000Y-53779872D01*
X59899110Y-53348075D01*
X59730631Y-52941331D01*
X59486038Y-52575271D01*
X59174729Y-52263962D01*
X58808669Y-52019369D01*
X58401925Y-51850890D01*
X57970128Y-51765000D01*
X57529872Y-51765000D01*
X57098075Y-51850890D01*
X56691331Y-52019369D01*
X56325271Y-52263962D01*
X56013962Y-52575271D01*
X55769369Y-52941331D01*
X55600890Y-53348075D01*
X55515000Y-53779872D01*
X42710000Y-53779872D01*
X42710000Y-50710000D01*
X241290000Y-50710000D01*
X241290001Y-74290000D01*
M02*
