M48
; DRILL file {KiCad 5.1.6-c6e7f7d~86~ubuntu18.04.1} date Wed Aug  5 17:06:38 2020
; FORMAT={-:-/ absolute / inch / decimal}
; #@! TF.CreationDate,2020-08-05T17:06:38-04:00
; #@! TF.GenerationSoftware,Kicad,Pcbnew,5.1.6-c6e7f7d~86~ubuntu18.04.1
; #@! TF.FileFunction,Plated,1,2,PTH
FMAT,2
INCH
T1C0.0315
T2C0.0354
T3C0.0400
T4C0.0512
%
G90
G05
T1
X2.8543Y-2.3622
X2.8543Y-2.6622
X3.4445Y-2.363
X3.4445Y-2.663
T2
X3.4055Y-2.2244
X3.5055Y-2.2244
X2.815Y-2.2244
X2.915Y-2.2244
T3
X7.2441Y-2.2638
X7.2441Y-2.3638
X7.2441Y-2.4638
X7.2441Y-2.5638
X7.2441Y-2.6638
X7.3441Y-2.2638
X7.3441Y-2.3638
X7.3441Y-2.4638
X7.3441Y-2.5638
X7.3441Y-2.6638
X4.8819Y-2.2638
X4.8819Y-2.3638
X4.8819Y-2.4638
X4.8819Y-2.5638
X4.8819Y-2.6638
X4.9819Y-2.2638
X4.9819Y-2.3638
X4.9819Y-2.4638
X4.9819Y-2.5638
X4.9819Y-2.6638
X2.5197Y-2.2638
X2.5197Y-2.3638
X2.5197Y-2.4638
X2.5197Y-2.5638
X2.5197Y-2.6638
X2.6197Y-2.2638
X2.6197Y-2.3638
X2.6197Y-2.4638
X2.6197Y-2.5638
X2.6197Y-2.6638
X9.0157Y-2.2638
X9.0157Y-2.3638
X9.0157Y-2.4638
X9.0157Y-2.5638
X9.0157Y-2.6638
X9.1157Y-2.2638
X9.1157Y-2.3638
X9.1157Y-2.4638
X9.1157Y-2.5638
X9.1157Y-2.6638
X5.4724Y-2.2638
X5.4724Y-2.3638
X5.4724Y-2.4638
X5.4724Y-2.5638
X5.4724Y-2.6638
X5.5724Y-2.2638
X5.5724Y-2.3638
X5.5724Y-2.4638
X5.5724Y-2.5638
X5.5724Y-2.6638
X4.2913Y-2.2638
X4.2913Y-2.3638
X4.2913Y-2.4638
X4.2913Y-2.5638
X4.2913Y-2.6638
X4.3913Y-2.2638
X4.3913Y-2.3638
X4.3913Y-2.4638
X4.3913Y-2.5638
X4.3913Y-2.6638
X3.7008Y-2.2638
X3.7008Y-2.3638
X3.7008Y-2.4638
X3.7008Y-2.5638
X3.7008Y-2.6638
X3.8008Y-2.2638
X3.8008Y-2.3638
X3.8008Y-2.4638
X3.8008Y-2.5638
X3.8008Y-2.6638
X8.4252Y-2.2638
X8.4252Y-2.3638
X8.4252Y-2.4638
X8.4252Y-2.5638
X8.4252Y-2.6638
X8.5252Y-2.2638
X8.5252Y-2.3638
X8.5252Y-2.4638
X8.5252Y-2.5638
X8.5252Y-2.6638
X3.1102Y-2.2638
X3.1102Y-2.3638
X3.1102Y-2.4638
X3.1102Y-2.5638
X3.1102Y-2.6638
X3.2102Y-2.2638
X3.2102Y-2.3638
X3.2102Y-2.4638
X3.2102Y-2.5638
X3.2102Y-2.6638
X6.6535Y-2.2638
X6.6535Y-2.3638
X6.6535Y-2.4638
X6.6535Y-2.5638
X6.6535Y-2.6638
X6.7535Y-2.2638
X6.7535Y-2.3638
X6.7535Y-2.4638
X6.7535Y-2.5638
X6.7535Y-2.6638
X6.063Y-2.2638
X6.063Y-2.3638
X6.063Y-2.4638
X6.063Y-2.5638
X6.063Y-2.6638
X6.163Y-2.2638
X6.163Y-2.3638
X6.163Y-2.4638
X6.163Y-2.5638
X6.163Y-2.6638
X7.8346Y-2.2638
X7.8346Y-2.3638
X7.8346Y-2.4638
X7.8346Y-2.5638
X7.8346Y-2.6638
X7.9346Y-2.2638
X7.9346Y-2.3638
X7.9346Y-2.4638
X7.9346Y-2.5638
X7.9346Y-2.6638
T4
X1.8701Y-2.2638
X1.8701Y-2.4606
X1.8701Y-2.6575
T0
M30
