G04 #@! TF.GenerationSoftware,KiCad,Pcbnew,5.1.6-c6e7f7d~86~ubuntu18.04.1*
G04 #@! TF.CreationDate,2020-08-05T17:06:35-04:00*
G04 #@! TF.ProjectId,busboard10,62757362-6f61-4726-9431-302e6b696361,rev?*
G04 #@! TF.SameCoordinates,Original*
G04 #@! TF.FileFunction,Legend,Top*
G04 #@! TF.FilePolarity,Positive*
%FSLAX46Y46*%
G04 Gerber Fmt 4.6, Leading zero omitted, Abs format (unit mm)*
G04 Created by KiCad (PCBNEW 5.1.6-c6e7f7d~86~ubuntu18.04.1) date 2020-08-05 17:06:35*
%MOMM*%
%LPD*%
G01*
G04 APERTURE LIST*
%ADD10C,0.125000*%
%ADD11C,0.200000*%
%ADD12C,0.010000*%
%ADD13C,0.120000*%
%ADD14C,0.150000*%
G04 APERTURE END LIST*
D10*
X237741666Y-66733333D02*
X237741666Y-66200000D01*
X238008333Y-66466666D02*
X237475000Y-66466666D01*
X238141666Y-66200000D02*
X238141666Y-66733333D01*
X238141666Y-65500000D02*
X238141666Y-65900000D01*
X238141666Y-65700000D02*
X237441666Y-65700000D01*
X237541666Y-65766666D01*
X237608333Y-65833333D01*
X237641666Y-65900000D01*
X237508333Y-65233333D02*
X237475000Y-65200000D01*
X237441666Y-65133333D01*
X237441666Y-64966666D01*
X237475000Y-64900000D01*
X237508333Y-64866666D01*
X237575000Y-64833333D01*
X237641666Y-64833333D01*
X237741666Y-64866666D01*
X238141666Y-65266666D01*
X238141666Y-64833333D01*
X237441666Y-64633333D02*
X238141666Y-64400000D01*
X237441666Y-64166666D01*
X237775000Y-63166666D02*
X237808333Y-63066666D01*
X237841666Y-63033333D01*
X237908333Y-63000000D01*
X238008333Y-63000000D01*
X238075000Y-63033333D01*
X238108333Y-63066666D01*
X238141666Y-63133333D01*
X238141666Y-63400000D01*
X237441666Y-63400000D01*
X237441666Y-63166666D01*
X237475000Y-63100000D01*
X237508333Y-63066666D01*
X237575000Y-63033333D01*
X237641666Y-63033333D01*
X237708333Y-63066666D01*
X237741666Y-63100000D01*
X237775000Y-63166666D01*
X237775000Y-63400000D01*
X237675000Y-62400000D02*
X238141666Y-62400000D01*
X237675000Y-62700000D02*
X238041666Y-62700000D01*
X238108333Y-62666666D01*
X238141666Y-62600000D01*
X238141666Y-62500000D01*
X238108333Y-62433333D01*
X238075000Y-62400000D01*
X238108333Y-62100000D02*
X238141666Y-62033333D01*
X238141666Y-61900000D01*
X238108333Y-61833333D01*
X238041666Y-61800000D01*
X238008333Y-61800000D01*
X237941666Y-61833333D01*
X237908333Y-61900000D01*
X237908333Y-62000000D01*
X237875000Y-62066666D01*
X237808333Y-62100000D01*
X237775000Y-62100000D01*
X237708333Y-62066666D01*
X237675000Y-62000000D01*
X237675000Y-61900000D01*
X237708333Y-61833333D01*
X237775000Y-60733333D02*
X237808333Y-60633333D01*
X237841666Y-60600000D01*
X237908333Y-60566666D01*
X238008333Y-60566666D01*
X238075000Y-60600000D01*
X238108333Y-60633333D01*
X238141666Y-60700000D01*
X238141666Y-60966666D01*
X237441666Y-60966666D01*
X237441666Y-60733333D01*
X237475000Y-60666666D01*
X237508333Y-60633333D01*
X237575000Y-60600000D01*
X237641666Y-60600000D01*
X237708333Y-60633333D01*
X237741666Y-60666666D01*
X237775000Y-60733333D01*
X237775000Y-60966666D01*
X238141666Y-60166666D02*
X238108333Y-60233333D01*
X238075000Y-60266666D01*
X238008333Y-60300000D01*
X237808333Y-60300000D01*
X237741666Y-60266666D01*
X237708333Y-60233333D01*
X237675000Y-60166666D01*
X237675000Y-60066666D01*
X237708333Y-60000000D01*
X237741666Y-59966666D01*
X237808333Y-59933333D01*
X238008333Y-59933333D01*
X238075000Y-59966666D01*
X238108333Y-60000000D01*
X238141666Y-60066666D01*
X238141666Y-60166666D01*
X238141666Y-59333333D02*
X237775000Y-59333333D01*
X237708333Y-59366666D01*
X237675000Y-59433333D01*
X237675000Y-59566666D01*
X237708333Y-59633333D01*
X238108333Y-59333333D02*
X238141666Y-59400000D01*
X238141666Y-59566666D01*
X238108333Y-59633333D01*
X238041666Y-59666666D01*
X237975000Y-59666666D01*
X237908333Y-59633333D01*
X237875000Y-59566666D01*
X237875000Y-59400000D01*
X237841666Y-59333333D01*
X238141666Y-59000000D02*
X237675000Y-59000000D01*
X237808333Y-59000000D02*
X237741666Y-58966666D01*
X237708333Y-58933333D01*
X237675000Y-58866666D01*
X237675000Y-58800000D01*
X238141666Y-58266666D02*
X237441666Y-58266666D01*
X238108333Y-58266666D02*
X238141666Y-58333333D01*
X238141666Y-58466666D01*
X238108333Y-58533333D01*
X238075000Y-58566666D01*
X238008333Y-58600000D01*
X237808333Y-58600000D01*
X237741666Y-58566666D01*
X237708333Y-58533333D01*
X237675000Y-58466666D01*
X237675000Y-58333333D01*
X237708333Y-58266666D01*
X239316666Y-68683333D02*
X238983333Y-68916666D01*
X239316666Y-69083333D02*
X238616666Y-69083333D01*
X238616666Y-68816666D01*
X238650000Y-68750000D01*
X238683333Y-68716666D01*
X238750000Y-68683333D01*
X238850000Y-68683333D01*
X238916666Y-68716666D01*
X238950000Y-68750000D01*
X238983333Y-68816666D01*
X238983333Y-69083333D01*
X239316666Y-68383333D02*
X238850000Y-68383333D01*
X238616666Y-68383333D02*
X238650000Y-68416666D01*
X238683333Y-68383333D01*
X238650000Y-68350000D01*
X238616666Y-68383333D01*
X238683333Y-68383333D01*
X239283333Y-67750000D02*
X239316666Y-67816666D01*
X239316666Y-67950000D01*
X239283333Y-68016666D01*
X239250000Y-68050000D01*
X239183333Y-68083333D01*
X238983333Y-68083333D01*
X238916666Y-68050000D01*
X238883333Y-68016666D01*
X238850000Y-67950000D01*
X238850000Y-67816666D01*
X238883333Y-67750000D01*
X239316666Y-67450000D02*
X238616666Y-67450000D01*
X239316666Y-67150000D02*
X238950000Y-67150000D01*
X238883333Y-67183333D01*
X238850000Y-67250000D01*
X238850000Y-67350000D01*
X238883333Y-67416666D01*
X238916666Y-67450000D01*
X239316666Y-66283333D02*
X238616666Y-66283333D01*
X238950000Y-66283333D02*
X238950000Y-65883333D01*
X239316666Y-65883333D02*
X238616666Y-65883333D01*
X239316666Y-65450000D02*
X239283333Y-65516666D01*
X239250000Y-65550000D01*
X239183333Y-65583333D01*
X238983333Y-65583333D01*
X238916666Y-65550000D01*
X238883333Y-65516666D01*
X238850000Y-65450000D01*
X238850000Y-65350000D01*
X238883333Y-65283333D01*
X238916666Y-65250000D01*
X238983333Y-65216666D01*
X239183333Y-65216666D01*
X239250000Y-65250000D01*
X239283333Y-65283333D01*
X239316666Y-65350000D01*
X239316666Y-65450000D01*
X239316666Y-64816666D02*
X239283333Y-64883333D01*
X239216666Y-64916666D01*
X238616666Y-64916666D01*
X239316666Y-64550000D02*
X238850000Y-64550000D01*
X238916666Y-64550000D02*
X238883333Y-64516666D01*
X238850000Y-64450000D01*
X238850000Y-64350000D01*
X238883333Y-64283333D01*
X238950000Y-64250000D01*
X239316666Y-64250000D01*
X238950000Y-64250000D02*
X238883333Y-64216666D01*
X238850000Y-64150000D01*
X238850000Y-64050000D01*
X238883333Y-63983333D01*
X238950000Y-63950000D01*
X239316666Y-63950000D01*
X239283333Y-63350000D02*
X239316666Y-63416666D01*
X239316666Y-63550000D01*
X239283333Y-63616666D01*
X239216666Y-63650000D01*
X238950000Y-63650000D01*
X238883333Y-63616666D01*
X238850000Y-63550000D01*
X238850000Y-63416666D01*
X238883333Y-63350000D01*
X238950000Y-63316666D01*
X239016666Y-63316666D01*
X239083333Y-63650000D01*
X239283333Y-63050000D02*
X239316666Y-62983333D01*
X239316666Y-62850000D01*
X239283333Y-62783333D01*
X239216666Y-62750000D01*
X239183333Y-62750000D01*
X239116666Y-62783333D01*
X239083333Y-62850000D01*
X239083333Y-62950000D01*
X239050000Y-63016666D01*
X238983333Y-63050000D01*
X238950000Y-63050000D01*
X238883333Y-63016666D01*
X238850000Y-62950000D01*
X238850000Y-62850000D01*
X238883333Y-62783333D01*
X238583333Y-61416666D02*
X239483333Y-62016666D01*
X239116666Y-60683333D02*
X239116666Y-60350000D01*
X239316666Y-60750000D02*
X238616666Y-60516666D01*
X239316666Y-60283333D01*
X238850000Y-59750000D02*
X239316666Y-59750000D01*
X238850000Y-60050000D02*
X239216666Y-60050000D01*
X239283333Y-60016666D01*
X239316666Y-59950000D01*
X239316666Y-59850000D01*
X239283333Y-59783333D01*
X239250000Y-59750000D01*
X238850000Y-59116666D02*
X239416666Y-59116666D01*
X239483333Y-59150000D01*
X239516666Y-59183333D01*
X239550000Y-59250000D01*
X239550000Y-59350000D01*
X239516666Y-59416666D01*
X239283333Y-59116666D02*
X239316666Y-59183333D01*
X239316666Y-59316666D01*
X239283333Y-59383333D01*
X239250000Y-59416666D01*
X239183333Y-59450000D01*
X238983333Y-59450000D01*
X238916666Y-59416666D01*
X238883333Y-59383333D01*
X238850000Y-59316666D01*
X238850000Y-59183333D01*
X238883333Y-59116666D01*
X238683333Y-58283333D02*
X238650000Y-58250000D01*
X238616666Y-58183333D01*
X238616666Y-58016666D01*
X238650000Y-57950000D01*
X238683333Y-57916666D01*
X238750000Y-57883333D01*
X238816666Y-57883333D01*
X238916666Y-57916666D01*
X239316666Y-58316666D01*
X239316666Y-57883333D01*
X238616666Y-57450000D02*
X238616666Y-57383333D01*
X238650000Y-57316666D01*
X238683333Y-57283333D01*
X238750000Y-57250000D01*
X238883333Y-57216666D01*
X239050000Y-57216666D01*
X239183333Y-57250000D01*
X239250000Y-57283333D01*
X239283333Y-57316666D01*
X239316666Y-57383333D01*
X239316666Y-57450000D01*
X239283333Y-57516666D01*
X239250000Y-57550000D01*
X239183333Y-57583333D01*
X239050000Y-57616666D01*
X238883333Y-57616666D01*
X238750000Y-57583333D01*
X238683333Y-57550000D01*
X238650000Y-57516666D01*
X238616666Y-57450000D01*
X238683333Y-56950000D02*
X238650000Y-56916666D01*
X238616666Y-56850000D01*
X238616666Y-56683333D01*
X238650000Y-56616666D01*
X238683333Y-56583333D01*
X238750000Y-56550000D01*
X238816666Y-56550000D01*
X238916666Y-56583333D01*
X239316666Y-56983333D01*
X239316666Y-56550000D01*
X238616666Y-56116666D02*
X238616666Y-56050000D01*
X238650000Y-55983333D01*
X238683333Y-55950000D01*
X238750000Y-55916666D01*
X238883333Y-55883333D01*
X239050000Y-55883333D01*
X239183333Y-55916666D01*
X239250000Y-55950000D01*
X239283333Y-55983333D01*
X239316666Y-56050000D01*
X239316666Y-56116666D01*
X239283333Y-56183333D01*
X239250000Y-56216666D01*
X239183333Y-56250000D01*
X239050000Y-56283333D01*
X238883333Y-56283333D01*
X238750000Y-56250000D01*
X238683333Y-56216666D01*
X238650000Y-56183333D01*
X238616666Y-56116666D01*
X240491666Y-74566666D02*
X239791666Y-74566666D01*
X240491666Y-74266666D02*
X240125000Y-74266666D01*
X240058333Y-74300000D01*
X240025000Y-74366666D01*
X240025000Y-74466666D01*
X240058333Y-74533333D01*
X240091666Y-74566666D01*
X240025000Y-74033333D02*
X240025000Y-73766666D01*
X239791666Y-73933333D02*
X240391666Y-73933333D01*
X240458333Y-73900000D01*
X240491666Y-73833333D01*
X240491666Y-73766666D01*
X240025000Y-73633333D02*
X240025000Y-73366666D01*
X239791666Y-73533333D02*
X240391666Y-73533333D01*
X240458333Y-73500000D01*
X240491666Y-73433333D01*
X240491666Y-73366666D01*
X240025000Y-73133333D02*
X240725000Y-73133333D01*
X240058333Y-73133333D02*
X240025000Y-73066666D01*
X240025000Y-72933333D01*
X240058333Y-72866666D01*
X240091666Y-72833333D01*
X240158333Y-72800000D01*
X240358333Y-72800000D01*
X240425000Y-72833333D01*
X240458333Y-72866666D01*
X240491666Y-72933333D01*
X240491666Y-73066666D01*
X240458333Y-73133333D01*
X240458333Y-72533333D02*
X240491666Y-72466666D01*
X240491666Y-72333333D01*
X240458333Y-72266666D01*
X240391666Y-72233333D01*
X240358333Y-72233333D01*
X240291666Y-72266666D01*
X240258333Y-72333333D01*
X240258333Y-72433333D01*
X240225000Y-72500000D01*
X240158333Y-72533333D01*
X240125000Y-72533333D01*
X240058333Y-72500000D01*
X240025000Y-72433333D01*
X240025000Y-72333333D01*
X240058333Y-72266666D01*
X240425000Y-71933333D02*
X240458333Y-71900000D01*
X240491666Y-71933333D01*
X240458333Y-71966666D01*
X240425000Y-71933333D01*
X240491666Y-71933333D01*
X240058333Y-71933333D02*
X240091666Y-71900000D01*
X240125000Y-71933333D01*
X240091666Y-71966666D01*
X240058333Y-71933333D01*
X240125000Y-71933333D01*
X239758333Y-71100000D02*
X240658333Y-71700000D01*
X239758333Y-70366666D02*
X240658333Y-70966666D01*
X240025000Y-69833333D02*
X240591666Y-69833333D01*
X240658333Y-69866666D01*
X240691666Y-69900000D01*
X240725000Y-69966666D01*
X240725000Y-70066666D01*
X240691666Y-70133333D01*
X240458333Y-69833333D02*
X240491666Y-69900000D01*
X240491666Y-70033333D01*
X240458333Y-70100000D01*
X240425000Y-70133333D01*
X240358333Y-70166666D01*
X240158333Y-70166666D01*
X240091666Y-70133333D01*
X240058333Y-70100000D01*
X240025000Y-70033333D01*
X240025000Y-69900000D01*
X240058333Y-69833333D01*
X240491666Y-69500000D02*
X240025000Y-69500000D01*
X239791666Y-69500000D02*
X239825000Y-69533333D01*
X239858333Y-69500000D01*
X239825000Y-69466666D01*
X239791666Y-69500000D01*
X239858333Y-69500000D01*
X240025000Y-69266666D02*
X240025000Y-69000000D01*
X239791666Y-69166666D02*
X240391666Y-69166666D01*
X240458333Y-69133333D01*
X240491666Y-69066666D01*
X240491666Y-69000000D01*
X240491666Y-68766666D02*
X239791666Y-68766666D01*
X240491666Y-68466666D02*
X240125000Y-68466666D01*
X240058333Y-68500000D01*
X240025000Y-68566666D01*
X240025000Y-68666666D01*
X240058333Y-68733333D01*
X240091666Y-68766666D01*
X240025000Y-67833333D02*
X240491666Y-67833333D01*
X240025000Y-68133333D02*
X240391666Y-68133333D01*
X240458333Y-68100000D01*
X240491666Y-68033333D01*
X240491666Y-67933333D01*
X240458333Y-67866666D01*
X240425000Y-67833333D01*
X240491666Y-67500000D02*
X239791666Y-67500000D01*
X240058333Y-67500000D02*
X240025000Y-67433333D01*
X240025000Y-67300000D01*
X240058333Y-67233333D01*
X240091666Y-67200000D01*
X240158333Y-67166666D01*
X240358333Y-67166666D01*
X240425000Y-67200000D01*
X240458333Y-67233333D01*
X240491666Y-67300000D01*
X240491666Y-67433333D01*
X240458333Y-67500000D01*
X240425000Y-66866666D02*
X240458333Y-66833333D01*
X240491666Y-66866666D01*
X240458333Y-66900000D01*
X240425000Y-66866666D01*
X240491666Y-66866666D01*
X240458333Y-66233333D02*
X240491666Y-66300000D01*
X240491666Y-66433333D01*
X240458333Y-66500000D01*
X240425000Y-66533333D01*
X240358333Y-66566666D01*
X240158333Y-66566666D01*
X240091666Y-66533333D01*
X240058333Y-66500000D01*
X240025000Y-66433333D01*
X240025000Y-66300000D01*
X240058333Y-66233333D01*
X240491666Y-65833333D02*
X240458333Y-65900000D01*
X240425000Y-65933333D01*
X240358333Y-65966666D01*
X240158333Y-65966666D01*
X240091666Y-65933333D01*
X240058333Y-65900000D01*
X240025000Y-65833333D01*
X240025000Y-65733333D01*
X240058333Y-65666666D01*
X240091666Y-65633333D01*
X240158333Y-65600000D01*
X240358333Y-65600000D01*
X240425000Y-65633333D01*
X240458333Y-65666666D01*
X240491666Y-65733333D01*
X240491666Y-65833333D01*
X240491666Y-65300000D02*
X240025000Y-65300000D01*
X240091666Y-65300000D02*
X240058333Y-65266666D01*
X240025000Y-65200000D01*
X240025000Y-65100000D01*
X240058333Y-65033333D01*
X240125000Y-65000000D01*
X240491666Y-65000000D01*
X240125000Y-65000000D02*
X240058333Y-64966666D01*
X240025000Y-64900000D01*
X240025000Y-64800000D01*
X240058333Y-64733333D01*
X240125000Y-64700000D01*
X240491666Y-64700000D01*
X239758333Y-63866666D02*
X240658333Y-64466666D01*
X240491666Y-63633333D02*
X239791666Y-63633333D01*
X240491666Y-63333333D02*
X240125000Y-63333333D01*
X240058333Y-63366666D01*
X240025000Y-63433333D01*
X240025000Y-63533333D01*
X240058333Y-63600000D01*
X240091666Y-63633333D01*
X240491666Y-62900000D02*
X240458333Y-62966666D01*
X240425000Y-63000000D01*
X240358333Y-63033333D01*
X240158333Y-63033333D01*
X240091666Y-63000000D01*
X240058333Y-62966666D01*
X240025000Y-62900000D01*
X240025000Y-62800000D01*
X240058333Y-62733333D01*
X240091666Y-62700000D01*
X240158333Y-62666666D01*
X240358333Y-62666666D01*
X240425000Y-62700000D01*
X240458333Y-62733333D01*
X240491666Y-62800000D01*
X240491666Y-62900000D01*
X240491666Y-62266666D02*
X240458333Y-62333333D01*
X240391666Y-62366666D01*
X239791666Y-62366666D01*
X240491666Y-62000000D02*
X240025000Y-62000000D01*
X240091666Y-62000000D02*
X240058333Y-61966666D01*
X240025000Y-61900000D01*
X240025000Y-61800000D01*
X240058333Y-61733333D01*
X240125000Y-61700000D01*
X240491666Y-61700000D01*
X240125000Y-61700000D02*
X240058333Y-61666666D01*
X240025000Y-61600000D01*
X240025000Y-61500000D01*
X240058333Y-61433333D01*
X240125000Y-61400000D01*
X240491666Y-61400000D01*
X240458333Y-60800000D02*
X240491666Y-60866666D01*
X240491666Y-61000000D01*
X240458333Y-61066666D01*
X240391666Y-61100000D01*
X240125000Y-61100000D01*
X240058333Y-61066666D01*
X240025000Y-61000000D01*
X240025000Y-60866666D01*
X240058333Y-60800000D01*
X240125000Y-60766666D01*
X240191666Y-60766666D01*
X240258333Y-61100000D01*
X240458333Y-60500000D02*
X240491666Y-60433333D01*
X240491666Y-60300000D01*
X240458333Y-60233333D01*
X240391666Y-60200000D01*
X240358333Y-60200000D01*
X240291666Y-60233333D01*
X240258333Y-60300000D01*
X240258333Y-60400000D01*
X240225000Y-60466666D01*
X240158333Y-60500000D01*
X240125000Y-60500000D01*
X240058333Y-60466666D01*
X240025000Y-60400000D01*
X240025000Y-60300000D01*
X240058333Y-60233333D01*
X240491666Y-59900000D02*
X240025000Y-59900000D01*
X240158333Y-59900000D02*
X240091666Y-59866666D01*
X240058333Y-59833333D01*
X240025000Y-59766666D01*
X240025000Y-59700000D01*
X240491666Y-59466666D02*
X240025000Y-59466666D01*
X239791666Y-59466666D02*
X239825000Y-59500000D01*
X239858333Y-59466666D01*
X239825000Y-59433333D01*
X239791666Y-59466666D01*
X239858333Y-59466666D01*
X240458333Y-58833333D02*
X240491666Y-58900000D01*
X240491666Y-59033333D01*
X240458333Y-59100000D01*
X240425000Y-59133333D01*
X240358333Y-59166666D01*
X240158333Y-59166666D01*
X240091666Y-59133333D01*
X240058333Y-59100000D01*
X240025000Y-59033333D01*
X240025000Y-58900000D01*
X240058333Y-58833333D01*
X240491666Y-58533333D02*
X239791666Y-58533333D01*
X240491666Y-58233333D02*
X240125000Y-58233333D01*
X240058333Y-58266666D01*
X240025000Y-58333333D01*
X240025000Y-58433333D01*
X240058333Y-58500000D01*
X240091666Y-58533333D01*
X240491666Y-57600000D02*
X240125000Y-57600000D01*
X240058333Y-57633333D01*
X240025000Y-57700000D01*
X240025000Y-57833333D01*
X240058333Y-57900000D01*
X240458333Y-57600000D02*
X240491666Y-57666666D01*
X240491666Y-57833333D01*
X240458333Y-57900000D01*
X240391666Y-57933333D01*
X240325000Y-57933333D01*
X240258333Y-57900000D01*
X240225000Y-57833333D01*
X240225000Y-57666666D01*
X240191666Y-57600000D01*
X240491666Y-57266666D02*
X240025000Y-57266666D01*
X240158333Y-57266666D02*
X240091666Y-57233333D01*
X240058333Y-57200000D01*
X240025000Y-57133333D01*
X240025000Y-57066666D01*
X240491666Y-56533333D02*
X239791666Y-56533333D01*
X240458333Y-56533333D02*
X240491666Y-56600000D01*
X240491666Y-56733333D01*
X240458333Y-56800000D01*
X240425000Y-56833333D01*
X240358333Y-56866666D01*
X240158333Y-56866666D01*
X240091666Y-56833333D01*
X240058333Y-56800000D01*
X240025000Y-56733333D01*
X240025000Y-56600000D01*
X240058333Y-56533333D01*
X240458333Y-56233333D02*
X240491666Y-56166666D01*
X240491666Y-56033333D01*
X240458333Y-55966666D01*
X240391666Y-55933333D01*
X240358333Y-55933333D01*
X240291666Y-55966666D01*
X240258333Y-56033333D01*
X240258333Y-56133333D01*
X240225000Y-56200000D01*
X240158333Y-56233333D01*
X240125000Y-56233333D01*
X240058333Y-56200000D01*
X240025000Y-56133333D01*
X240025000Y-56033333D01*
X240058333Y-55966666D01*
X239758333Y-55133333D02*
X240658333Y-55733333D01*
X240491666Y-54900000D02*
X239791666Y-54900000D01*
X240058333Y-54900000D02*
X240025000Y-54833333D01*
X240025000Y-54700000D01*
X240058333Y-54633333D01*
X240091666Y-54600000D01*
X240158333Y-54566666D01*
X240358333Y-54566666D01*
X240425000Y-54600000D01*
X240458333Y-54633333D01*
X240491666Y-54700000D01*
X240491666Y-54833333D01*
X240458333Y-54900000D01*
X240025000Y-53966666D02*
X240491666Y-53966666D01*
X240025000Y-54266666D02*
X240391666Y-54266666D01*
X240458333Y-54233333D01*
X240491666Y-54166666D01*
X240491666Y-54066666D01*
X240458333Y-54000000D01*
X240425000Y-53966666D01*
X240458333Y-53666666D02*
X240491666Y-53600000D01*
X240491666Y-53466666D01*
X240458333Y-53400000D01*
X240391666Y-53366666D01*
X240358333Y-53366666D01*
X240291666Y-53400000D01*
X240258333Y-53466666D01*
X240258333Y-53566666D01*
X240225000Y-53633333D01*
X240158333Y-53666666D01*
X240125000Y-53666666D01*
X240058333Y-53633333D01*
X240025000Y-53566666D01*
X240025000Y-53466666D01*
X240058333Y-53400000D01*
X240491666Y-53066666D02*
X239791666Y-53066666D01*
X240058333Y-53066666D02*
X240025000Y-53000000D01*
X240025000Y-52866666D01*
X240058333Y-52800000D01*
X240091666Y-52766666D01*
X240158333Y-52733333D01*
X240358333Y-52733333D01*
X240425000Y-52766666D01*
X240458333Y-52800000D01*
X240491666Y-52866666D01*
X240491666Y-53000000D01*
X240458333Y-53066666D01*
X240491666Y-52333333D02*
X240458333Y-52400000D01*
X240425000Y-52433333D01*
X240358333Y-52466666D01*
X240158333Y-52466666D01*
X240091666Y-52433333D01*
X240058333Y-52400000D01*
X240025000Y-52333333D01*
X240025000Y-52233333D01*
X240058333Y-52166666D01*
X240091666Y-52133333D01*
X240158333Y-52100000D01*
X240358333Y-52100000D01*
X240425000Y-52133333D01*
X240458333Y-52166666D01*
X240491666Y-52233333D01*
X240491666Y-52333333D01*
X240491666Y-51500000D02*
X240125000Y-51500000D01*
X240058333Y-51533333D01*
X240025000Y-51600000D01*
X240025000Y-51733333D01*
X240058333Y-51800000D01*
X240458333Y-51500000D02*
X240491666Y-51566666D01*
X240491666Y-51733333D01*
X240458333Y-51800000D01*
X240391666Y-51833333D01*
X240325000Y-51833333D01*
X240258333Y-51800000D01*
X240225000Y-51733333D01*
X240225000Y-51566666D01*
X240191666Y-51500000D01*
X240491666Y-51166666D02*
X240025000Y-51166666D01*
X240158333Y-51166666D02*
X240091666Y-51133333D01*
X240058333Y-51100000D01*
X240025000Y-51033333D01*
X240025000Y-50966666D01*
X240491666Y-50433333D02*
X239791666Y-50433333D01*
X240458333Y-50433333D02*
X240491666Y-50500000D01*
X240491666Y-50633333D01*
X240458333Y-50700000D01*
X240425000Y-50733333D01*
X240358333Y-50766666D01*
X240158333Y-50766666D01*
X240091666Y-50733333D01*
X240058333Y-50700000D01*
X240025000Y-50633333D01*
X240025000Y-50500000D01*
X240058333Y-50433333D01*
D11*
X51000000Y-63415714D02*
X50952380Y-63510952D01*
X50952380Y-63653809D01*
X51000000Y-63796666D01*
X51095238Y-63891904D01*
X51190476Y-63939523D01*
X51380952Y-63987142D01*
X51523809Y-63987142D01*
X51714285Y-63939523D01*
X51809523Y-63891904D01*
X51904761Y-63796666D01*
X51952380Y-63653809D01*
X51952380Y-63558571D01*
X51904761Y-63415714D01*
X51857142Y-63368095D01*
X51523809Y-63368095D01*
X51523809Y-63558571D01*
X51952380Y-62939523D02*
X50952380Y-62939523D01*
X51952380Y-62368095D01*
X50952380Y-62368095D01*
X51952380Y-61891904D02*
X50952380Y-61891904D01*
X50952380Y-61653809D01*
X51000000Y-61510952D01*
X51095238Y-61415714D01*
X51190476Y-61368095D01*
X51380952Y-61320476D01*
X51523809Y-61320476D01*
X51714285Y-61368095D01*
X51809523Y-61415714D01*
X51904761Y-61510952D01*
X51952380Y-61653809D01*
X51952380Y-61891904D01*
X51571428Y-69391904D02*
X51571428Y-68630000D01*
X51952380Y-69010952D02*
X51190476Y-69010952D01*
X51952380Y-67630000D02*
X51952380Y-68201428D01*
X51952380Y-67915714D02*
X50952380Y-67915714D01*
X51095238Y-68010952D01*
X51190476Y-68106190D01*
X51238095Y-68201428D01*
X51047619Y-67249047D02*
X51000000Y-67201428D01*
X50952380Y-67106190D01*
X50952380Y-66868095D01*
X51000000Y-66772857D01*
X51047619Y-66725238D01*
X51142857Y-66677619D01*
X51238095Y-66677619D01*
X51380952Y-66725238D01*
X51952380Y-67296666D01*
X51952380Y-66677619D01*
X50952380Y-66391904D02*
X51952380Y-66058571D01*
X50952380Y-65725238D01*
X51571428Y-59391904D02*
X51571428Y-58630000D01*
X51952380Y-57630000D02*
X51952380Y-58201428D01*
X51952380Y-57915714D02*
X50952380Y-57915714D01*
X51095238Y-58010952D01*
X51190476Y-58106190D01*
X51238095Y-58201428D01*
X51047619Y-57249047D02*
X51000000Y-57201428D01*
X50952380Y-57106190D01*
X50952380Y-56868095D01*
X51000000Y-56772857D01*
X51047619Y-56725238D01*
X51142857Y-56677619D01*
X51238095Y-56677619D01*
X51380952Y-56725238D01*
X51952380Y-57296666D01*
X51952380Y-56677619D01*
X50952380Y-56391904D02*
X51952380Y-56058571D01*
X50952380Y-55725238D01*
D12*
G36*
X56337495Y-58487867D02*
G01*
X56445314Y-58491387D01*
X56549454Y-58497668D01*
X56554800Y-58498075D01*
X56714187Y-58513515D01*
X56872287Y-58535144D01*
X57028952Y-58562909D01*
X57184036Y-58596755D01*
X57337391Y-58636628D01*
X57488870Y-58682475D01*
X57638327Y-58734240D01*
X57785613Y-58791870D01*
X57930583Y-58855311D01*
X58073088Y-58924508D01*
X58212982Y-58999408D01*
X58350118Y-59079956D01*
X58484349Y-59166098D01*
X58612200Y-59255358D01*
X58736198Y-59349379D01*
X58856960Y-59448714D01*
X58974143Y-59553020D01*
X59087400Y-59661959D01*
X59196388Y-59775190D01*
X59300762Y-59892371D01*
X59400177Y-60013163D01*
X59466930Y-60100080D01*
X59559438Y-60229393D01*
X59646615Y-60362073D01*
X59728380Y-60497930D01*
X59804653Y-60636778D01*
X59875352Y-60778427D01*
X59940397Y-60922690D01*
X59999706Y-61069378D01*
X60053199Y-61218304D01*
X60100795Y-61369278D01*
X60142413Y-61522114D01*
X60177972Y-61676623D01*
X60204527Y-61815787D01*
X60218521Y-61902117D01*
X60230518Y-61987584D01*
X60240719Y-62073901D01*
X60249324Y-62162785D01*
X60256531Y-62255948D01*
X60257465Y-62269812D01*
X60258521Y-62289968D01*
X60259417Y-62315571D01*
X60260155Y-62345732D01*
X60260734Y-62379562D01*
X60261155Y-62416170D01*
X60261416Y-62454669D01*
X60261519Y-62494167D01*
X60261463Y-62533776D01*
X60261248Y-62572606D01*
X60260874Y-62609767D01*
X60260340Y-62644370D01*
X60259648Y-62675526D01*
X60258796Y-62702345D01*
X60257785Y-62723938D01*
X60257495Y-62728600D01*
X60246819Y-62862667D01*
X60232838Y-62992175D01*
X60215406Y-63118074D01*
X60194378Y-63241311D01*
X60169610Y-63362835D01*
X60143977Y-63471620D01*
X60101870Y-63626713D01*
X60053923Y-63779336D01*
X60000181Y-63929405D01*
X59940689Y-64076835D01*
X59875492Y-64221542D01*
X59804635Y-64363441D01*
X59728164Y-64502447D01*
X59646123Y-64638477D01*
X59558558Y-64771444D01*
X59465514Y-64901266D01*
X59367035Y-65027857D01*
X59263167Y-65151132D01*
X59227223Y-65191619D01*
X59211244Y-65209034D01*
X59191479Y-65230013D01*
X59168693Y-65253783D01*
X59143655Y-65279572D01*
X59117131Y-65306607D01*
X59089888Y-65334116D01*
X59062693Y-65361327D01*
X59036313Y-65387467D01*
X59011515Y-65411764D01*
X58989067Y-65433446D01*
X58969734Y-65451740D01*
X58959862Y-65460849D01*
X58838582Y-65567041D01*
X58713913Y-65667893D01*
X58585984Y-65763351D01*
X58454923Y-65853364D01*
X58320858Y-65937878D01*
X58183918Y-66016840D01*
X58044231Y-66090197D01*
X57901925Y-66157897D01*
X57757129Y-66219886D01*
X57609970Y-66276111D01*
X57460578Y-66326520D01*
X57309080Y-66371060D01*
X57155605Y-66409677D01*
X57000281Y-66442319D01*
X56843236Y-66468933D01*
X56684599Y-66489465D01*
X56524498Y-66503864D01*
X56416687Y-66510043D01*
X56397009Y-66510734D01*
X56372263Y-66511318D01*
X56343575Y-66511791D01*
X56312075Y-66512150D01*
X56278890Y-66512391D01*
X56245147Y-66512510D01*
X56211975Y-66512503D01*
X56180501Y-66512367D01*
X56151854Y-66512098D01*
X56127159Y-66511692D01*
X56107547Y-66511146D01*
X56105537Y-66511069D01*
X55944639Y-66501535D01*
X55785022Y-66485860D01*
X55626829Y-66464095D01*
X55470202Y-66436293D01*
X55315281Y-66402508D01*
X55162208Y-66362791D01*
X55011124Y-66317196D01*
X54862172Y-66265775D01*
X54715493Y-66208581D01*
X54571228Y-66145666D01*
X54429519Y-66077084D01*
X54290507Y-66002886D01*
X54154334Y-65923126D01*
X54021142Y-65837857D01*
X53891072Y-65747130D01*
X53764265Y-65651000D01*
X53736987Y-65629266D01*
X53631291Y-65541054D01*
X53526849Y-65447469D01*
X53424661Y-65349482D01*
X53325729Y-65248064D01*
X53231053Y-65144187D01*
X53197099Y-65105087D01*
X53098161Y-64984763D01*
X53003785Y-64860142D01*
X52914151Y-64731517D01*
X52829435Y-64599182D01*
X52749816Y-64463433D01*
X52675470Y-64324563D01*
X52606576Y-64182867D01*
X52543311Y-64038638D01*
X52522481Y-63987487D01*
X52466524Y-63838799D01*
X52416643Y-63688443D01*
X52372843Y-63536605D01*
X52335130Y-63383476D01*
X52303511Y-63229242D01*
X52277990Y-63074092D01*
X52258575Y-62918215D01*
X52245270Y-62761799D01*
X52238083Y-62605032D01*
X52237371Y-62500000D01*
X52279737Y-62500000D01*
X52279790Y-62548146D01*
X52279973Y-62590819D01*
X52280329Y-62628893D01*
X52280896Y-62663244D01*
X52281714Y-62694747D01*
X52282824Y-62724278D01*
X52284266Y-62752712D01*
X52286079Y-62780924D01*
X52288304Y-62809790D01*
X52290981Y-62840185D01*
X52294150Y-62872985D01*
X52297851Y-62909065D01*
X52298906Y-62919100D01*
X52318633Y-63075892D01*
X52344541Y-63231405D01*
X52376556Y-63385468D01*
X52414607Y-63537913D01*
X52458621Y-63688569D01*
X52508525Y-63837265D01*
X52564248Y-63983832D01*
X52625717Y-64128100D01*
X52692861Y-64269899D01*
X52765605Y-64409059D01*
X52843879Y-64545409D01*
X52927609Y-64678781D01*
X53016725Y-64809003D01*
X53111152Y-64935906D01*
X53207861Y-65055797D01*
X53237350Y-65090587D01*
X53265807Y-65123358D01*
X53294136Y-65155086D01*
X53323238Y-65186750D01*
X53354016Y-65219323D01*
X53387372Y-65253784D01*
X53424209Y-65291107D01*
X53439935Y-65306872D01*
X53504139Y-65370031D01*
X53566109Y-65428781D01*
X53626981Y-65484096D01*
X53687892Y-65536949D01*
X53749978Y-65588314D01*
X53814372Y-65639165D01*
X53882213Y-65690475D01*
X53918520Y-65717145D01*
X54039606Y-65801616D01*
X54165148Y-65882085D01*
X54294560Y-65958261D01*
X54427255Y-66029859D01*
X54562645Y-66096589D01*
X54700142Y-66158165D01*
X54839160Y-66214299D01*
X54979111Y-66264702D01*
X55119409Y-66309087D01*
X55137162Y-66314262D01*
X55251923Y-66345774D01*
X55364940Y-66373470D01*
X55477280Y-66397527D01*
X55590014Y-66418122D01*
X55704207Y-66435431D01*
X55820929Y-66449633D01*
X55941249Y-66460905D01*
X56066233Y-66469423D01*
X56075375Y-66469932D01*
X56089353Y-66470447D01*
X56108889Y-66470800D01*
X56133192Y-66471001D01*
X56161472Y-66471060D01*
X56192937Y-66470987D01*
X56226798Y-66470792D01*
X56262264Y-66470485D01*
X56298544Y-66470075D01*
X56334849Y-66469573D01*
X56370388Y-66468988D01*
X56404370Y-66468330D01*
X56436005Y-66467610D01*
X56464502Y-66466837D01*
X56489072Y-66466021D01*
X56508923Y-66465173D01*
X56523050Y-66464317D01*
X56595279Y-66458332D01*
X56662920Y-66451785D01*
X56727727Y-66444461D01*
X56791451Y-66436150D01*
X56855846Y-66426638D01*
X56919925Y-66416179D01*
X57074745Y-66386647D01*
X57228065Y-66350987D01*
X57379696Y-66309284D01*
X57529447Y-66261624D01*
X57677131Y-66208092D01*
X57822558Y-66148773D01*
X57965538Y-66083753D01*
X58105883Y-66013116D01*
X58243403Y-65936949D01*
X58377909Y-65855336D01*
X58509212Y-65768362D01*
X58637123Y-65676113D01*
X58740787Y-65595433D01*
X58844858Y-65508521D01*
X58947226Y-65416902D01*
X59046815Y-65321613D01*
X59142551Y-65223696D01*
X59233357Y-65124190D01*
X59261084Y-65092316D01*
X59362570Y-64969406D01*
X59458818Y-64842937D01*
X59549766Y-64713018D01*
X59635347Y-64579755D01*
X59715495Y-64443255D01*
X59790147Y-64303627D01*
X59859236Y-64160978D01*
X59922698Y-64015416D01*
X59938177Y-63977333D01*
X59994318Y-63828662D01*
X60044396Y-63678204D01*
X60088374Y-63526113D01*
X60126214Y-63372546D01*
X60157878Y-63217658D01*
X60183329Y-63061605D01*
X60202529Y-62904543D01*
X60205908Y-62869887D01*
X60208896Y-62837232D01*
X60211446Y-62807838D01*
X60213592Y-62780832D01*
X60215368Y-62755343D01*
X60216809Y-62730502D01*
X60217947Y-62705436D01*
X60218817Y-62679275D01*
X60219453Y-62651148D01*
X60219889Y-62620183D01*
X60220159Y-62585511D01*
X60220297Y-62546259D01*
X60220337Y-62501556D01*
X60220337Y-62500000D01*
X60220300Y-62455105D01*
X60220166Y-62415689D01*
X60219900Y-62380881D01*
X60219470Y-62349810D01*
X60218841Y-62321604D01*
X60217979Y-62295392D01*
X60216850Y-62270305D01*
X60215420Y-62245470D01*
X60213656Y-62220016D01*
X60211522Y-62193073D01*
X60208986Y-62163770D01*
X60206013Y-62131235D01*
X60205908Y-62130112D01*
X60188135Y-61973293D01*
X60164142Y-61817524D01*
X60133999Y-61662998D01*
X60097779Y-61509909D01*
X60055554Y-61358451D01*
X60007395Y-61208817D01*
X59953374Y-61061203D01*
X59893562Y-60915800D01*
X59828030Y-60772804D01*
X59756852Y-60632407D01*
X59680098Y-60494805D01*
X59597839Y-60360189D01*
X59510148Y-60228755D01*
X59495347Y-60207650D01*
X59401904Y-60080822D01*
X59303323Y-59957670D01*
X59199743Y-59838345D01*
X59091305Y-59722995D01*
X58978152Y-59611769D01*
X58860423Y-59504818D01*
X58738259Y-59402291D01*
X58726500Y-59392843D01*
X58604716Y-59299382D01*
X58478596Y-59210411D01*
X58348471Y-59126116D01*
X58214674Y-59046683D01*
X58077537Y-58972300D01*
X57937393Y-58903152D01*
X57794574Y-58839426D01*
X57649412Y-58781308D01*
X57608900Y-58766251D01*
X57467236Y-58717512D01*
X57324149Y-58674369D01*
X57179266Y-58636743D01*
X57032213Y-58604554D01*
X56882617Y-58577723D01*
X56730104Y-58556172D01*
X56574302Y-58539820D01*
X56519875Y-58535383D01*
X56494315Y-58533797D01*
X56463296Y-58532449D01*
X56427703Y-58531339D01*
X56388423Y-58530467D01*
X56346342Y-58529833D01*
X56302345Y-58529438D01*
X56257319Y-58529280D01*
X56212150Y-58529361D01*
X56167723Y-58529679D01*
X56124925Y-58530236D01*
X56084642Y-58531031D01*
X56047760Y-58532064D01*
X56015164Y-58533335D01*
X55987741Y-58534844D01*
X55980125Y-58535383D01*
X55842227Y-58547799D01*
X55708581Y-58563921D01*
X55578157Y-58583929D01*
X55449928Y-58608001D01*
X55322864Y-58636315D01*
X55195938Y-58669052D01*
X55171340Y-58675902D01*
X55021436Y-58721426D01*
X54873286Y-58772974D01*
X54727152Y-58830409D01*
X54583296Y-58893593D01*
X54441981Y-58962389D01*
X54303470Y-59036658D01*
X54168024Y-59116263D01*
X54035906Y-59201067D01*
X53907378Y-59290930D01*
X53782702Y-59385717D01*
X53715186Y-59440464D01*
X53642718Y-59502268D01*
X53569435Y-59567995D01*
X53496540Y-59636474D01*
X53425235Y-59706536D01*
X53356723Y-59777011D01*
X53292208Y-59846731D01*
X53260715Y-59882212D01*
X53158778Y-60003619D01*
X53062004Y-60128622D01*
X52970467Y-60257048D01*
X52884244Y-60388724D01*
X52803408Y-60523479D01*
X52728036Y-60661141D01*
X52658204Y-60801538D01*
X52593985Y-60944497D01*
X52535456Y-61089847D01*
X52482691Y-61237415D01*
X52435767Y-61387029D01*
X52394757Y-61538517D01*
X52359739Y-61691707D01*
X52330786Y-61846428D01*
X52307974Y-62002506D01*
X52298906Y-62080900D01*
X52295060Y-62117976D01*
X52291757Y-62151545D01*
X52288956Y-62182482D01*
X52286617Y-62211662D01*
X52284700Y-62239960D01*
X52283166Y-62268252D01*
X52281973Y-62297413D01*
X52281083Y-62328319D01*
X52280454Y-62361844D01*
X52280048Y-62398865D01*
X52279823Y-62440257D01*
X52279740Y-62486895D01*
X52279737Y-62500000D01*
X52237371Y-62500000D01*
X52237019Y-62448103D01*
X52242084Y-62291199D01*
X52253284Y-62134509D01*
X52270626Y-61978222D01*
X52294114Y-61822526D01*
X52323756Y-61667608D01*
X52359556Y-61513658D01*
X52401522Y-61360864D01*
X52435378Y-61252225D01*
X52487963Y-61101743D01*
X52546372Y-60953731D01*
X52610524Y-60808331D01*
X52680332Y-60665688D01*
X52755714Y-60525944D01*
X52836587Y-60389242D01*
X52922865Y-60255727D01*
X53014466Y-60125542D01*
X53111305Y-59998830D01*
X53213299Y-59875735D01*
X53289231Y-59790137D01*
X53304108Y-59774147D01*
X53322797Y-59754558D01*
X53344514Y-59732153D01*
X53368477Y-59707716D01*
X53393901Y-59682030D01*
X53420004Y-59655878D01*
X53446002Y-59630045D01*
X53471111Y-59605312D01*
X53494548Y-59582464D01*
X53515531Y-59562284D01*
X53533274Y-59545555D01*
X53540137Y-59539231D01*
X53660523Y-59433638D01*
X53784592Y-59333160D01*
X53912198Y-59237880D01*
X54043197Y-59147876D01*
X54177445Y-59063232D01*
X54314797Y-58984027D01*
X54455108Y-58910342D01*
X54598234Y-58842260D01*
X54744030Y-58779860D01*
X54892352Y-58723223D01*
X55043055Y-58672431D01*
X55138750Y-58643587D01*
X55293198Y-58602423D01*
X55449055Y-58567450D01*
X55606294Y-58538672D01*
X55764887Y-58516095D01*
X55907100Y-58501225D01*
X56010798Y-58493789D01*
X56118353Y-58489078D01*
X56227880Y-58487101D01*
X56337495Y-58487867D01*
G37*
X56337495Y-58487867D02*
X56445314Y-58491387D01*
X56549454Y-58497668D01*
X56554800Y-58498075D01*
X56714187Y-58513515D01*
X56872287Y-58535144D01*
X57028952Y-58562909D01*
X57184036Y-58596755D01*
X57337391Y-58636628D01*
X57488870Y-58682475D01*
X57638327Y-58734240D01*
X57785613Y-58791870D01*
X57930583Y-58855311D01*
X58073088Y-58924508D01*
X58212982Y-58999408D01*
X58350118Y-59079956D01*
X58484349Y-59166098D01*
X58612200Y-59255358D01*
X58736198Y-59349379D01*
X58856960Y-59448714D01*
X58974143Y-59553020D01*
X59087400Y-59661959D01*
X59196388Y-59775190D01*
X59300762Y-59892371D01*
X59400177Y-60013163D01*
X59466930Y-60100080D01*
X59559438Y-60229393D01*
X59646615Y-60362073D01*
X59728380Y-60497930D01*
X59804653Y-60636778D01*
X59875352Y-60778427D01*
X59940397Y-60922690D01*
X59999706Y-61069378D01*
X60053199Y-61218304D01*
X60100795Y-61369278D01*
X60142413Y-61522114D01*
X60177972Y-61676623D01*
X60204527Y-61815787D01*
X60218521Y-61902117D01*
X60230518Y-61987584D01*
X60240719Y-62073901D01*
X60249324Y-62162785D01*
X60256531Y-62255948D01*
X60257465Y-62269812D01*
X60258521Y-62289968D01*
X60259417Y-62315571D01*
X60260155Y-62345732D01*
X60260734Y-62379562D01*
X60261155Y-62416170D01*
X60261416Y-62454669D01*
X60261519Y-62494167D01*
X60261463Y-62533776D01*
X60261248Y-62572606D01*
X60260874Y-62609767D01*
X60260340Y-62644370D01*
X60259648Y-62675526D01*
X60258796Y-62702345D01*
X60257785Y-62723938D01*
X60257495Y-62728600D01*
X60246819Y-62862667D01*
X60232838Y-62992175D01*
X60215406Y-63118074D01*
X60194378Y-63241311D01*
X60169610Y-63362835D01*
X60143977Y-63471620D01*
X60101870Y-63626713D01*
X60053923Y-63779336D01*
X60000181Y-63929405D01*
X59940689Y-64076835D01*
X59875492Y-64221542D01*
X59804635Y-64363441D01*
X59728164Y-64502447D01*
X59646123Y-64638477D01*
X59558558Y-64771444D01*
X59465514Y-64901266D01*
X59367035Y-65027857D01*
X59263167Y-65151132D01*
X59227223Y-65191619D01*
X59211244Y-65209034D01*
X59191479Y-65230013D01*
X59168693Y-65253783D01*
X59143655Y-65279572D01*
X59117131Y-65306607D01*
X59089888Y-65334116D01*
X59062693Y-65361327D01*
X59036313Y-65387467D01*
X59011515Y-65411764D01*
X58989067Y-65433446D01*
X58969734Y-65451740D01*
X58959862Y-65460849D01*
X58838582Y-65567041D01*
X58713913Y-65667893D01*
X58585984Y-65763351D01*
X58454923Y-65853364D01*
X58320858Y-65937878D01*
X58183918Y-66016840D01*
X58044231Y-66090197D01*
X57901925Y-66157897D01*
X57757129Y-66219886D01*
X57609970Y-66276111D01*
X57460578Y-66326520D01*
X57309080Y-66371060D01*
X57155605Y-66409677D01*
X57000281Y-66442319D01*
X56843236Y-66468933D01*
X56684599Y-66489465D01*
X56524498Y-66503864D01*
X56416687Y-66510043D01*
X56397009Y-66510734D01*
X56372263Y-66511318D01*
X56343575Y-66511791D01*
X56312075Y-66512150D01*
X56278890Y-66512391D01*
X56245147Y-66512510D01*
X56211975Y-66512503D01*
X56180501Y-66512367D01*
X56151854Y-66512098D01*
X56127159Y-66511692D01*
X56107547Y-66511146D01*
X56105537Y-66511069D01*
X55944639Y-66501535D01*
X55785022Y-66485860D01*
X55626829Y-66464095D01*
X55470202Y-66436293D01*
X55315281Y-66402508D01*
X55162208Y-66362791D01*
X55011124Y-66317196D01*
X54862172Y-66265775D01*
X54715493Y-66208581D01*
X54571228Y-66145666D01*
X54429519Y-66077084D01*
X54290507Y-66002886D01*
X54154334Y-65923126D01*
X54021142Y-65837857D01*
X53891072Y-65747130D01*
X53764265Y-65651000D01*
X53736987Y-65629266D01*
X53631291Y-65541054D01*
X53526849Y-65447469D01*
X53424661Y-65349482D01*
X53325729Y-65248064D01*
X53231053Y-65144187D01*
X53197099Y-65105087D01*
X53098161Y-64984763D01*
X53003785Y-64860142D01*
X52914151Y-64731517D01*
X52829435Y-64599182D01*
X52749816Y-64463433D01*
X52675470Y-64324563D01*
X52606576Y-64182867D01*
X52543311Y-64038638D01*
X52522481Y-63987487D01*
X52466524Y-63838799D01*
X52416643Y-63688443D01*
X52372843Y-63536605D01*
X52335130Y-63383476D01*
X52303511Y-63229242D01*
X52277990Y-63074092D01*
X52258575Y-62918215D01*
X52245270Y-62761799D01*
X52238083Y-62605032D01*
X52237371Y-62500000D01*
X52279737Y-62500000D01*
X52279790Y-62548146D01*
X52279973Y-62590819D01*
X52280329Y-62628893D01*
X52280896Y-62663244D01*
X52281714Y-62694747D01*
X52282824Y-62724278D01*
X52284266Y-62752712D01*
X52286079Y-62780924D01*
X52288304Y-62809790D01*
X52290981Y-62840185D01*
X52294150Y-62872985D01*
X52297851Y-62909065D01*
X52298906Y-62919100D01*
X52318633Y-63075892D01*
X52344541Y-63231405D01*
X52376556Y-63385468D01*
X52414607Y-63537913D01*
X52458621Y-63688569D01*
X52508525Y-63837265D01*
X52564248Y-63983832D01*
X52625717Y-64128100D01*
X52692861Y-64269899D01*
X52765605Y-64409059D01*
X52843879Y-64545409D01*
X52927609Y-64678781D01*
X53016725Y-64809003D01*
X53111152Y-64935906D01*
X53207861Y-65055797D01*
X53237350Y-65090587D01*
X53265807Y-65123358D01*
X53294136Y-65155086D01*
X53323238Y-65186750D01*
X53354016Y-65219323D01*
X53387372Y-65253784D01*
X53424209Y-65291107D01*
X53439935Y-65306872D01*
X53504139Y-65370031D01*
X53566109Y-65428781D01*
X53626981Y-65484096D01*
X53687892Y-65536949D01*
X53749978Y-65588314D01*
X53814372Y-65639165D01*
X53882213Y-65690475D01*
X53918520Y-65717145D01*
X54039606Y-65801616D01*
X54165148Y-65882085D01*
X54294560Y-65958261D01*
X54427255Y-66029859D01*
X54562645Y-66096589D01*
X54700142Y-66158165D01*
X54839160Y-66214299D01*
X54979111Y-66264702D01*
X55119409Y-66309087D01*
X55137162Y-66314262D01*
X55251923Y-66345774D01*
X55364940Y-66373470D01*
X55477280Y-66397527D01*
X55590014Y-66418122D01*
X55704207Y-66435431D01*
X55820929Y-66449633D01*
X55941249Y-66460905D01*
X56066233Y-66469423D01*
X56075375Y-66469932D01*
X56089353Y-66470447D01*
X56108889Y-66470800D01*
X56133192Y-66471001D01*
X56161472Y-66471060D01*
X56192937Y-66470987D01*
X56226798Y-66470792D01*
X56262264Y-66470485D01*
X56298544Y-66470075D01*
X56334849Y-66469573D01*
X56370388Y-66468988D01*
X56404370Y-66468330D01*
X56436005Y-66467610D01*
X56464502Y-66466837D01*
X56489072Y-66466021D01*
X56508923Y-66465173D01*
X56523050Y-66464317D01*
X56595279Y-66458332D01*
X56662920Y-66451785D01*
X56727727Y-66444461D01*
X56791451Y-66436150D01*
X56855846Y-66426638D01*
X56919925Y-66416179D01*
X57074745Y-66386647D01*
X57228065Y-66350987D01*
X57379696Y-66309284D01*
X57529447Y-66261624D01*
X57677131Y-66208092D01*
X57822558Y-66148773D01*
X57965538Y-66083753D01*
X58105883Y-66013116D01*
X58243403Y-65936949D01*
X58377909Y-65855336D01*
X58509212Y-65768362D01*
X58637123Y-65676113D01*
X58740787Y-65595433D01*
X58844858Y-65508521D01*
X58947226Y-65416902D01*
X59046815Y-65321613D01*
X59142551Y-65223696D01*
X59233357Y-65124190D01*
X59261084Y-65092316D01*
X59362570Y-64969406D01*
X59458818Y-64842937D01*
X59549766Y-64713018D01*
X59635347Y-64579755D01*
X59715495Y-64443255D01*
X59790147Y-64303627D01*
X59859236Y-64160978D01*
X59922698Y-64015416D01*
X59938177Y-63977333D01*
X59994318Y-63828662D01*
X60044396Y-63678204D01*
X60088374Y-63526113D01*
X60126214Y-63372546D01*
X60157878Y-63217658D01*
X60183329Y-63061605D01*
X60202529Y-62904543D01*
X60205908Y-62869887D01*
X60208896Y-62837232D01*
X60211446Y-62807838D01*
X60213592Y-62780832D01*
X60215368Y-62755343D01*
X60216809Y-62730502D01*
X60217947Y-62705436D01*
X60218817Y-62679275D01*
X60219453Y-62651148D01*
X60219889Y-62620183D01*
X60220159Y-62585511D01*
X60220297Y-62546259D01*
X60220337Y-62501556D01*
X60220337Y-62500000D01*
X60220300Y-62455105D01*
X60220166Y-62415689D01*
X60219900Y-62380881D01*
X60219470Y-62349810D01*
X60218841Y-62321604D01*
X60217979Y-62295392D01*
X60216850Y-62270305D01*
X60215420Y-62245470D01*
X60213656Y-62220016D01*
X60211522Y-62193073D01*
X60208986Y-62163770D01*
X60206013Y-62131235D01*
X60205908Y-62130112D01*
X60188135Y-61973293D01*
X60164142Y-61817524D01*
X60133999Y-61662998D01*
X60097779Y-61509909D01*
X60055554Y-61358451D01*
X60007395Y-61208817D01*
X59953374Y-61061203D01*
X59893562Y-60915800D01*
X59828030Y-60772804D01*
X59756852Y-60632407D01*
X59680098Y-60494805D01*
X59597839Y-60360189D01*
X59510148Y-60228755D01*
X59495347Y-60207650D01*
X59401904Y-60080822D01*
X59303323Y-59957670D01*
X59199743Y-59838345D01*
X59091305Y-59722995D01*
X58978152Y-59611769D01*
X58860423Y-59504818D01*
X58738259Y-59402291D01*
X58726500Y-59392843D01*
X58604716Y-59299382D01*
X58478596Y-59210411D01*
X58348471Y-59126116D01*
X58214674Y-59046683D01*
X58077537Y-58972300D01*
X57937393Y-58903152D01*
X57794574Y-58839426D01*
X57649412Y-58781308D01*
X57608900Y-58766251D01*
X57467236Y-58717512D01*
X57324149Y-58674369D01*
X57179266Y-58636743D01*
X57032213Y-58604554D01*
X56882617Y-58577723D01*
X56730104Y-58556172D01*
X56574302Y-58539820D01*
X56519875Y-58535383D01*
X56494315Y-58533797D01*
X56463296Y-58532449D01*
X56427703Y-58531339D01*
X56388423Y-58530467D01*
X56346342Y-58529833D01*
X56302345Y-58529438D01*
X56257319Y-58529280D01*
X56212150Y-58529361D01*
X56167723Y-58529679D01*
X56124925Y-58530236D01*
X56084642Y-58531031D01*
X56047760Y-58532064D01*
X56015164Y-58533335D01*
X55987741Y-58534844D01*
X55980125Y-58535383D01*
X55842227Y-58547799D01*
X55708581Y-58563921D01*
X55578157Y-58583929D01*
X55449928Y-58608001D01*
X55322864Y-58636315D01*
X55195938Y-58669052D01*
X55171340Y-58675902D01*
X55021436Y-58721426D01*
X54873286Y-58772974D01*
X54727152Y-58830409D01*
X54583296Y-58893593D01*
X54441981Y-58962389D01*
X54303470Y-59036658D01*
X54168024Y-59116263D01*
X54035906Y-59201067D01*
X53907378Y-59290930D01*
X53782702Y-59385717D01*
X53715186Y-59440464D01*
X53642718Y-59502268D01*
X53569435Y-59567995D01*
X53496540Y-59636474D01*
X53425235Y-59706536D01*
X53356723Y-59777011D01*
X53292208Y-59846731D01*
X53260715Y-59882212D01*
X53158778Y-60003619D01*
X53062004Y-60128622D01*
X52970467Y-60257048D01*
X52884244Y-60388724D01*
X52803408Y-60523479D01*
X52728036Y-60661141D01*
X52658204Y-60801538D01*
X52593985Y-60944497D01*
X52535456Y-61089847D01*
X52482691Y-61237415D01*
X52435767Y-61387029D01*
X52394757Y-61538517D01*
X52359739Y-61691707D01*
X52330786Y-61846428D01*
X52307974Y-62002506D01*
X52298906Y-62080900D01*
X52295060Y-62117976D01*
X52291757Y-62151545D01*
X52288956Y-62182482D01*
X52286617Y-62211662D01*
X52284700Y-62239960D01*
X52283166Y-62268252D01*
X52281973Y-62297413D01*
X52281083Y-62328319D01*
X52280454Y-62361844D01*
X52280048Y-62398865D01*
X52279823Y-62440257D01*
X52279740Y-62486895D01*
X52279737Y-62500000D01*
X52237371Y-62500000D01*
X52237019Y-62448103D01*
X52242084Y-62291199D01*
X52253284Y-62134509D01*
X52270626Y-61978222D01*
X52294114Y-61822526D01*
X52323756Y-61667608D01*
X52359556Y-61513658D01*
X52401522Y-61360864D01*
X52435378Y-61252225D01*
X52487963Y-61101743D01*
X52546372Y-60953731D01*
X52610524Y-60808331D01*
X52680332Y-60665688D01*
X52755714Y-60525944D01*
X52836587Y-60389242D01*
X52922865Y-60255727D01*
X53014466Y-60125542D01*
X53111305Y-59998830D01*
X53213299Y-59875735D01*
X53289231Y-59790137D01*
X53304108Y-59774147D01*
X53322797Y-59754558D01*
X53344514Y-59732153D01*
X53368477Y-59707716D01*
X53393901Y-59682030D01*
X53420004Y-59655878D01*
X53446002Y-59630045D01*
X53471111Y-59605312D01*
X53494548Y-59582464D01*
X53515531Y-59562284D01*
X53533274Y-59545555D01*
X53540137Y-59539231D01*
X53660523Y-59433638D01*
X53784592Y-59333160D01*
X53912198Y-59237880D01*
X54043197Y-59147876D01*
X54177445Y-59063232D01*
X54314797Y-58984027D01*
X54455108Y-58910342D01*
X54598234Y-58842260D01*
X54744030Y-58779860D01*
X54892352Y-58723223D01*
X55043055Y-58672431D01*
X55138750Y-58643587D01*
X55293198Y-58602423D01*
X55449055Y-58567450D01*
X55606294Y-58538672D01*
X55764887Y-58516095D01*
X55907100Y-58501225D01*
X56010798Y-58493789D01*
X56118353Y-58489078D01*
X56227880Y-58487101D01*
X56337495Y-58487867D01*
G36*
X54427550Y-65074925D02*
G01*
X54085179Y-65074925D01*
X54039082Y-65074905D01*
X53994771Y-65074849D01*
X53952659Y-65074759D01*
X53913160Y-65074637D01*
X53876685Y-65074486D01*
X53843647Y-65074308D01*
X53814460Y-65074106D01*
X53789535Y-65073883D01*
X53769286Y-65073640D01*
X53754125Y-65073382D01*
X53744464Y-65073109D01*
X53740718Y-65072824D01*
X53740691Y-65072808D01*
X53740539Y-65069516D01*
X53740391Y-65060091D01*
X53740245Y-65044749D01*
X53740103Y-65023708D01*
X53739965Y-64997184D01*
X53739831Y-64965393D01*
X53739701Y-64928554D01*
X53739577Y-64886881D01*
X53739459Y-64840593D01*
X53739346Y-64789905D01*
X53739239Y-64735035D01*
X53739139Y-64676199D01*
X53739045Y-64613615D01*
X53738959Y-64547498D01*
X53738881Y-64478066D01*
X53738811Y-64405536D01*
X53738749Y-64330123D01*
X53738696Y-64252046D01*
X53738652Y-64171520D01*
X53738617Y-64088763D01*
X53738593Y-64003990D01*
X53738578Y-63917420D01*
X53738575Y-63844083D01*
X53738575Y-62820675D01*
X53935425Y-62820675D01*
X53935425Y-64868550D01*
X54233875Y-64868550D01*
X54233875Y-62820675D01*
X53935425Y-62820675D01*
X53738575Y-62820675D01*
X53738575Y-62617475D01*
X54427550Y-62617475D01*
X54427550Y-65074925D01*
G37*
X54427550Y-65074925D02*
X54085179Y-65074925D01*
X54039082Y-65074905D01*
X53994771Y-65074849D01*
X53952659Y-65074759D01*
X53913160Y-65074637D01*
X53876685Y-65074486D01*
X53843647Y-65074308D01*
X53814460Y-65074106D01*
X53789535Y-65073883D01*
X53769286Y-65073640D01*
X53754125Y-65073382D01*
X53744464Y-65073109D01*
X53740718Y-65072824D01*
X53740691Y-65072808D01*
X53740539Y-65069516D01*
X53740391Y-65060091D01*
X53740245Y-65044749D01*
X53740103Y-65023708D01*
X53739965Y-64997184D01*
X53739831Y-64965393D01*
X53739701Y-64928554D01*
X53739577Y-64886881D01*
X53739459Y-64840593D01*
X53739346Y-64789905D01*
X53739239Y-64735035D01*
X53739139Y-64676199D01*
X53739045Y-64613615D01*
X53738959Y-64547498D01*
X53738881Y-64478066D01*
X53738811Y-64405536D01*
X53738749Y-64330123D01*
X53738696Y-64252046D01*
X53738652Y-64171520D01*
X53738617Y-64088763D01*
X53738593Y-64003990D01*
X53738578Y-63917420D01*
X53738575Y-63844083D01*
X53738575Y-62820675D01*
X53935425Y-62820675D01*
X53935425Y-64868550D01*
X54233875Y-64868550D01*
X54233875Y-62820675D01*
X53935425Y-62820675D01*
X53738575Y-62820675D01*
X53738575Y-62617475D01*
X54427550Y-62617475D01*
X54427550Y-65074925D01*
G36*
X54802200Y-64868550D02*
G01*
X55100650Y-64868550D01*
X55100650Y-62617475D01*
X55294325Y-62617475D01*
X55294325Y-65073547D01*
X54951186Y-65073547D01*
X54905073Y-65073532D01*
X54860770Y-65073487D01*
X54818688Y-65073415D01*
X54779236Y-65073318D01*
X54742824Y-65073198D01*
X54709862Y-65073056D01*
X54680760Y-65072895D01*
X54655927Y-65072717D01*
X54635773Y-65072523D01*
X54620709Y-65072317D01*
X54611144Y-65072099D01*
X54607487Y-65071872D01*
X54607462Y-65071855D01*
X54607423Y-65068593D01*
X54607390Y-65059199D01*
X54607362Y-65043888D01*
X54607341Y-65022877D01*
X54607325Y-64996382D01*
X54607315Y-64964621D01*
X54607311Y-64927811D01*
X54607312Y-64886166D01*
X54607319Y-64839906D01*
X54607331Y-64789246D01*
X54607349Y-64734402D01*
X54607372Y-64675592D01*
X54607399Y-64613032D01*
X54607432Y-64546939D01*
X54607470Y-64477530D01*
X54607513Y-64405021D01*
X54607560Y-64329629D01*
X54607613Y-64251570D01*
X54607670Y-64171062D01*
X54607731Y-64088321D01*
X54607797Y-64003563D01*
X54607867Y-63917006D01*
X54607929Y-63843818D01*
X54608982Y-62617475D01*
X54802200Y-62617475D01*
X54802200Y-64868550D01*
G37*
X54802200Y-64868550D02*
X55100650Y-64868550D01*
X55100650Y-62617475D01*
X55294325Y-62617475D01*
X55294325Y-65073547D01*
X54951186Y-65073547D01*
X54905073Y-65073532D01*
X54860770Y-65073487D01*
X54818688Y-65073415D01*
X54779236Y-65073318D01*
X54742824Y-65073198D01*
X54709862Y-65073056D01*
X54680760Y-65072895D01*
X54655927Y-65072717D01*
X54635773Y-65072523D01*
X54620709Y-65072317D01*
X54611144Y-65072099D01*
X54607487Y-65071872D01*
X54607462Y-65071855D01*
X54607423Y-65068593D01*
X54607390Y-65059199D01*
X54607362Y-65043888D01*
X54607341Y-65022877D01*
X54607325Y-64996382D01*
X54607315Y-64964621D01*
X54607311Y-64927811D01*
X54607312Y-64886166D01*
X54607319Y-64839906D01*
X54607331Y-64789246D01*
X54607349Y-64734402D01*
X54607372Y-64675592D01*
X54607399Y-64613032D01*
X54607432Y-64546939D01*
X54607470Y-64477530D01*
X54607513Y-64405021D01*
X54607560Y-64329629D01*
X54607613Y-64251570D01*
X54607670Y-64171062D01*
X54607731Y-64088321D01*
X54607797Y-64003563D01*
X54607867Y-63917006D01*
X54607929Y-63843818D01*
X54608982Y-62617475D01*
X54802200Y-62617475D01*
X54802200Y-64868550D01*
G36*
X57399350Y-64868550D02*
G01*
X57697800Y-64868550D01*
X57697800Y-62617475D01*
X57891475Y-62617475D01*
X57892245Y-63743012D01*
X57892303Y-63828308D01*
X57892360Y-63912500D01*
X57892416Y-63995333D01*
X57892471Y-64076553D01*
X57892524Y-64155907D01*
X57892575Y-64233140D01*
X57892625Y-64308000D01*
X57892673Y-64380230D01*
X57892718Y-64449579D01*
X57892762Y-64515791D01*
X57892802Y-64578612D01*
X57892840Y-64637790D01*
X57892876Y-64693069D01*
X57892908Y-64744197D01*
X57892937Y-64790918D01*
X57892963Y-64832979D01*
X57892985Y-64870125D01*
X57893004Y-64902104D01*
X57893019Y-64928661D01*
X57893029Y-64949542D01*
X57893036Y-64964493D01*
X57893038Y-64970943D01*
X57893062Y-65073337D01*
X57549368Y-65073450D01*
X57205675Y-65073563D01*
X57205675Y-62617475D01*
X57399350Y-62617475D01*
X57399350Y-64868550D01*
G37*
X57399350Y-64868550D02*
X57697800Y-64868550D01*
X57697800Y-62617475D01*
X57891475Y-62617475D01*
X57892245Y-63743012D01*
X57892303Y-63828308D01*
X57892360Y-63912500D01*
X57892416Y-63995333D01*
X57892471Y-64076553D01*
X57892524Y-64155907D01*
X57892575Y-64233140D01*
X57892625Y-64308000D01*
X57892673Y-64380230D01*
X57892718Y-64449579D01*
X57892762Y-64515791D01*
X57892802Y-64578612D01*
X57892840Y-64637790D01*
X57892876Y-64693069D01*
X57892908Y-64744197D01*
X57892937Y-64790918D01*
X57892963Y-64832979D01*
X57892985Y-64870125D01*
X57893004Y-64902104D01*
X57893019Y-64928661D01*
X57893029Y-64949542D01*
X57893036Y-64964493D01*
X57893038Y-64970943D01*
X57893062Y-65073337D01*
X57549368Y-65073450D01*
X57205675Y-65073563D01*
X57205675Y-62617475D01*
X57399350Y-62617475D01*
X57399350Y-64868550D01*
G36*
X56161100Y-62820675D02*
G01*
X55913450Y-62820675D01*
X55913450Y-65071750D01*
X55719775Y-65071750D01*
X55719775Y-62820675D01*
X55472125Y-62820675D01*
X55472125Y-62617475D01*
X56161100Y-62617475D01*
X56161100Y-62820675D01*
G37*
X56161100Y-62820675D02*
X55913450Y-62820675D01*
X55913450Y-65071750D01*
X55719775Y-65071750D01*
X55719775Y-62820675D01*
X55472125Y-62820675D01*
X55472125Y-62617475D01*
X56161100Y-62617475D01*
X56161100Y-62820675D01*
G36*
X57027875Y-63249261D02*
G01*
X56781018Y-63250074D01*
X56534162Y-63250887D01*
X56533363Y-64161318D01*
X56532564Y-65071750D01*
X56338900Y-65071750D01*
X56338900Y-62979590D01*
X56533113Y-62979590D01*
X56533148Y-63000597D01*
X56533271Y-63018122D01*
X56533476Y-63031400D01*
X56533759Y-63039665D01*
X56534019Y-63042110D01*
X56535688Y-63043082D01*
X56540184Y-63043894D01*
X56547952Y-63044558D01*
X56559443Y-63045086D01*
X56575102Y-63045489D01*
X56595378Y-63045780D01*
X56620718Y-63045971D01*
X56651570Y-63046073D01*
X56683287Y-63046100D01*
X56831025Y-63046100D01*
X56831025Y-62820612D01*
X56682593Y-62821437D01*
X56534162Y-62822262D01*
X56533325Y-62930191D01*
X56533171Y-62955866D01*
X56533113Y-62979590D01*
X56338900Y-62979590D01*
X56338900Y-62617475D01*
X57027875Y-62617475D01*
X57027875Y-63249261D01*
G37*
X57027875Y-63249261D02*
X56781018Y-63250074D01*
X56534162Y-63250887D01*
X56533363Y-64161318D01*
X56532564Y-65071750D01*
X56338900Y-65071750D01*
X56338900Y-62979590D01*
X56533113Y-62979590D01*
X56533148Y-63000597D01*
X56533271Y-63018122D01*
X56533476Y-63031400D01*
X56533759Y-63039665D01*
X56534019Y-63042110D01*
X56535688Y-63043082D01*
X56540184Y-63043894D01*
X56547952Y-63044558D01*
X56559443Y-63045086D01*
X56575102Y-63045489D01*
X56595378Y-63045780D01*
X56620718Y-63045971D01*
X56651570Y-63046073D01*
X56683287Y-63046100D01*
X56831025Y-63046100D01*
X56831025Y-62820612D01*
X56682593Y-62821437D01*
X56534162Y-62822262D01*
X56533325Y-62930191D01*
X56533171Y-62955866D01*
X56533113Y-62979590D01*
X56338900Y-62979590D01*
X56338900Y-62617475D01*
X57027875Y-62617475D01*
X57027875Y-63249261D01*
G36*
X58758250Y-62820675D02*
G01*
X58513775Y-62820675D01*
X58513775Y-65071750D01*
X58316925Y-65071750D01*
X58316925Y-62820675D01*
X58072450Y-62820675D01*
X58072450Y-62617475D01*
X58758250Y-62617475D01*
X58758250Y-62820675D01*
G37*
X58758250Y-62820675D02*
X58513775Y-62820675D01*
X58513775Y-65071750D01*
X58316925Y-65071750D01*
X58316925Y-62820675D01*
X58072450Y-62820675D01*
X58072450Y-62617475D01*
X58758250Y-62617475D01*
X58758250Y-62820675D01*
G36*
X54427550Y-62382525D02*
G01*
X54233875Y-62382525D01*
X54233875Y-62179325D01*
X53935425Y-62179325D01*
X53935425Y-62382525D01*
X53741750Y-62382525D01*
X53741686Y-62281718D01*
X53741680Y-62270911D01*
X53741673Y-62254007D01*
X53741664Y-62231260D01*
X53741654Y-62202922D01*
X53741643Y-62169248D01*
X53741631Y-62130490D01*
X53741617Y-62086902D01*
X53741602Y-62038737D01*
X53741587Y-61986248D01*
X53741570Y-61929689D01*
X53741553Y-61869313D01*
X53741535Y-61805374D01*
X53741516Y-61738123D01*
X53741496Y-61667816D01*
X53741476Y-61594705D01*
X53741456Y-61519043D01*
X53741435Y-61441084D01*
X53741413Y-61361081D01*
X53741392Y-61279287D01*
X53741370Y-61195956D01*
X53741348Y-61111341D01*
X53741333Y-61053787D01*
X53741098Y-60131450D01*
X53935425Y-60131450D01*
X53935425Y-62042862D01*
X54232287Y-62041212D01*
X54233885Y-60131450D01*
X53935425Y-60131450D01*
X53741098Y-60131450D01*
X53741045Y-59926662D01*
X54084297Y-59926549D01*
X54427550Y-59926436D01*
X54427550Y-62382525D01*
G37*
X54427550Y-62382525D02*
X54233875Y-62382525D01*
X54233875Y-62179325D01*
X53935425Y-62179325D01*
X53935425Y-62382525D01*
X53741750Y-62382525D01*
X53741686Y-62281718D01*
X53741680Y-62270911D01*
X53741673Y-62254007D01*
X53741664Y-62231260D01*
X53741654Y-62202922D01*
X53741643Y-62169248D01*
X53741631Y-62130490D01*
X53741617Y-62086902D01*
X53741602Y-62038737D01*
X53741587Y-61986248D01*
X53741570Y-61929689D01*
X53741553Y-61869313D01*
X53741535Y-61805374D01*
X53741516Y-61738123D01*
X53741496Y-61667816D01*
X53741476Y-61594705D01*
X53741456Y-61519043D01*
X53741435Y-61441084D01*
X53741413Y-61361081D01*
X53741392Y-61279287D01*
X53741370Y-61195956D01*
X53741348Y-61111341D01*
X53741333Y-61053787D01*
X53741098Y-60131450D01*
X53935425Y-60131450D01*
X53935425Y-62042862D01*
X54232287Y-62041212D01*
X54233885Y-60131450D01*
X53935425Y-60131450D01*
X53741098Y-60131450D01*
X53741045Y-59926662D01*
X54084297Y-59926549D01*
X54427550Y-59926436D01*
X54427550Y-62382525D01*
G36*
X55294325Y-62382525D02*
G01*
X55100650Y-62382525D01*
X55100650Y-60131450D01*
X54802200Y-60131450D01*
X54802200Y-62382525D01*
X54608525Y-62382525D01*
X54607754Y-61256987D01*
X54607696Y-61171691D01*
X54607639Y-61087499D01*
X54607583Y-61004666D01*
X54607528Y-60923446D01*
X54607475Y-60844092D01*
X54607424Y-60766859D01*
X54607374Y-60691999D01*
X54607326Y-60619769D01*
X54607281Y-60550420D01*
X54607237Y-60484208D01*
X54607197Y-60421387D01*
X54607159Y-60362209D01*
X54607123Y-60306930D01*
X54607091Y-60255802D01*
X54607062Y-60209081D01*
X54607036Y-60167020D01*
X54607014Y-60129874D01*
X54606995Y-60097895D01*
X54606980Y-60071338D01*
X54606970Y-60050457D01*
X54606963Y-60035506D01*
X54606961Y-60029056D01*
X54606937Y-59926662D01*
X55294325Y-59926436D01*
X55294325Y-62382525D01*
G37*
X55294325Y-62382525D02*
X55100650Y-62382525D01*
X55100650Y-60131450D01*
X54802200Y-60131450D01*
X54802200Y-62382525D01*
X54608525Y-62382525D01*
X54607754Y-61256987D01*
X54607696Y-61171691D01*
X54607639Y-61087499D01*
X54607583Y-61004666D01*
X54607528Y-60923446D01*
X54607475Y-60844092D01*
X54607424Y-60766859D01*
X54607374Y-60691999D01*
X54607326Y-60619769D01*
X54607281Y-60550420D01*
X54607237Y-60484208D01*
X54607197Y-60421387D01*
X54607159Y-60362209D01*
X54607123Y-60306930D01*
X54607091Y-60255802D01*
X54607062Y-60209081D01*
X54607036Y-60167020D01*
X54607014Y-60129874D01*
X54606995Y-60097895D01*
X54606980Y-60071338D01*
X54606970Y-60050457D01*
X54606963Y-60035506D01*
X54606961Y-60029056D01*
X54606937Y-59926662D01*
X55294325Y-59926436D01*
X55294325Y-62382525D01*
G36*
X56160310Y-61154593D02*
G01*
X56161108Y-62382525D01*
X55967425Y-62382525D01*
X55967425Y-62179325D01*
X55668975Y-62179325D01*
X55668975Y-62382525D01*
X55472116Y-62382525D01*
X55472914Y-61154593D01*
X55473578Y-60131450D01*
X55668975Y-60131450D01*
X55668975Y-62042862D01*
X55965837Y-62041212D01*
X55967435Y-60131450D01*
X55668975Y-60131450D01*
X55473578Y-60131450D01*
X55473712Y-59926662D01*
X56159512Y-59926662D01*
X56160310Y-61154593D01*
G37*
X56160310Y-61154593D02*
X56161108Y-62382525D01*
X55967425Y-62382525D01*
X55967425Y-62179325D01*
X55668975Y-62179325D01*
X55668975Y-62382525D01*
X55472116Y-62382525D01*
X55472914Y-61154593D01*
X55473578Y-60131450D01*
X55668975Y-60131450D01*
X55668975Y-62042862D01*
X55965837Y-62041212D01*
X55967435Y-60131450D01*
X55668975Y-60131450D01*
X55473578Y-60131450D01*
X55473712Y-59926662D01*
X56159512Y-59926662D01*
X56160310Y-61154593D01*
G36*
X56533364Y-61052993D02*
G01*
X56534162Y-62177737D01*
X56781018Y-62178550D01*
X57027875Y-62179363D01*
X57027875Y-62382525D01*
X56338900Y-62382525D01*
X56338900Y-59928250D01*
X56532566Y-59928250D01*
X56533364Y-61052993D01*
G37*
X56533364Y-61052993D02*
X56534162Y-62177737D01*
X56781018Y-62178550D01*
X57027875Y-62179363D01*
X57027875Y-62382525D01*
X56338900Y-62382525D01*
X56338900Y-59928250D01*
X56532566Y-59928250D01*
X56533364Y-61052993D01*
G36*
X57549368Y-59925854D02*
G01*
X57893062Y-59926662D01*
X57893860Y-61154593D01*
X57894658Y-62382525D01*
X57205675Y-62382525D01*
X57205675Y-60131450D01*
X57402525Y-60131450D01*
X57402525Y-62179325D01*
X57697800Y-62179325D01*
X57697800Y-60131450D01*
X57402525Y-60131450D01*
X57205675Y-60131450D01*
X57205675Y-59925046D01*
X57549368Y-59925854D01*
G37*
X57549368Y-59925854D02*
X57893062Y-59926662D01*
X57893860Y-61154593D01*
X57894658Y-62382525D01*
X57205675Y-62382525D01*
X57205675Y-60131450D01*
X57402525Y-60131450D01*
X57402525Y-62179325D01*
X57697800Y-62179325D01*
X57697800Y-60131450D01*
X57402525Y-60131450D01*
X57205675Y-60131450D01*
X57205675Y-59925046D01*
X57549368Y-59925854D01*
G36*
X58217706Y-59926140D02*
G01*
X58249260Y-59926544D01*
X58285942Y-59926922D01*
X58326532Y-59927267D01*
X58369808Y-59927572D01*
X58414549Y-59927829D01*
X58459533Y-59928031D01*
X58503539Y-59928171D01*
X58545345Y-59928240D01*
X58560606Y-59928246D01*
X58758250Y-59928250D01*
X58758250Y-60131450D01*
X58266125Y-60131450D01*
X58266125Y-62179325D01*
X58564575Y-62179325D01*
X58564575Y-60423669D01*
X58492343Y-60422815D01*
X58420112Y-60421962D01*
X58419256Y-60352878D01*
X58418401Y-60283794D01*
X58588451Y-60284616D01*
X58758502Y-60285437D01*
X58759170Y-61333981D01*
X58759837Y-62382525D01*
X58072450Y-62382525D01*
X58072450Y-59924039D01*
X58217706Y-59926140D01*
G37*
X58217706Y-59926140D02*
X58249260Y-59926544D01*
X58285942Y-59926922D01*
X58326532Y-59927267D01*
X58369808Y-59927572D01*
X58414549Y-59927829D01*
X58459533Y-59928031D01*
X58503539Y-59928171D01*
X58545345Y-59928240D01*
X58560606Y-59928246D01*
X58758250Y-59928250D01*
X58758250Y-60131450D01*
X58266125Y-60131450D01*
X58266125Y-62179325D01*
X58564575Y-62179325D01*
X58564575Y-60423669D01*
X58492343Y-60422815D01*
X58420112Y-60421962D01*
X58419256Y-60352878D01*
X58418401Y-60283794D01*
X58588451Y-60284616D01*
X58758502Y-60285437D01*
X58759170Y-61333981D01*
X58759837Y-62382525D01*
X58072450Y-62382525D01*
X58072450Y-59924039D01*
X58217706Y-59926140D01*
D13*
X42800000Y-54200000D02*
X42800000Y-56200000D01*
X45100000Y-54200000D02*
X42800000Y-54200000D01*
X48800000Y-69550000D02*
X43400000Y-69550000D01*
X48800000Y-65450000D02*
X43400000Y-65450000D01*
X43400000Y-65450000D02*
X43400000Y-69550000D01*
X48800000Y-68384000D02*
X48800000Y-69550000D01*
X48800000Y-65450000D02*
X48800000Y-66617000D01*
X48800000Y-64550000D02*
X43400000Y-64550000D01*
X48800000Y-60450000D02*
X43400000Y-60450000D01*
X43400000Y-60450000D02*
X43400000Y-64550000D01*
X48800000Y-63384000D02*
X48800000Y-64550000D01*
X48800000Y-60450000D02*
X48800000Y-61617000D01*
X48800000Y-59550000D02*
X43400000Y-59550000D01*
X48800000Y-55450000D02*
X43400000Y-55450000D01*
X43400000Y-55450000D02*
X43400000Y-59550000D01*
X48800000Y-58990000D02*
X48800000Y-59550000D01*
X48800000Y-55450000D02*
X48800000Y-56010000D01*
X50600000Y-70000000D02*
X43000000Y-70000000D01*
X50600000Y-54400000D02*
X43000000Y-54400000D01*
X50600000Y-54400000D02*
X50600000Y-70000000D01*
X43000000Y-54400000D02*
X43000000Y-70000000D01*
X88860000Y-60560000D02*
X88530000Y-60560000D01*
X88860000Y-67100000D02*
X88860000Y-60560000D01*
X88530000Y-67100000D02*
X88860000Y-67100000D01*
X86120000Y-60560000D02*
X86450000Y-60560000D01*
X86120000Y-67100000D02*
X86120000Y-60560000D01*
X86450000Y-67100000D02*
X86120000Y-67100000D01*
X234945000Y-52150000D02*
X234945000Y-73010000D01*
X234945000Y-73010000D02*
X225595000Y-73010000D01*
X225595000Y-73010000D02*
X225595000Y-52150000D01*
X225595000Y-52150000D02*
X234945000Y-52150000D01*
X225850000Y-52400000D02*
X234700000Y-52400000D01*
X234700000Y-52400000D02*
X234700000Y-72750000D01*
X234700000Y-72750000D02*
X225850000Y-72750000D01*
X225850000Y-72750000D02*
X225850000Y-52400000D01*
X225850000Y-52400000D02*
X226400000Y-52950000D01*
X226400000Y-52950000D02*
X234150000Y-52950000D01*
X234150000Y-52950000D02*
X234700000Y-52400000D01*
X234150000Y-52950000D02*
X234150000Y-72200000D01*
X234150000Y-72200000D02*
X234700000Y-72750000D01*
X234150000Y-72200000D02*
X226400000Y-72200000D01*
X226400000Y-72200000D02*
X225900000Y-72700000D01*
X226400000Y-72200000D02*
X226400000Y-64850000D01*
X226400000Y-64830000D02*
X225890000Y-64830000D01*
X225900000Y-60330000D02*
X226380000Y-60330000D01*
X226400000Y-60330000D02*
X226400000Y-52950000D01*
X144945000Y-52150000D02*
X144945000Y-73010000D01*
X144945000Y-73010000D02*
X135595000Y-73010000D01*
X135595000Y-73010000D02*
X135595000Y-52150000D01*
X135595000Y-52150000D02*
X144945000Y-52150000D01*
X135850000Y-52400000D02*
X144700000Y-52400000D01*
X144700000Y-52400000D02*
X144700000Y-72750000D01*
X144700000Y-72750000D02*
X135850000Y-72750000D01*
X135850000Y-72750000D02*
X135850000Y-52400000D01*
X135850000Y-52400000D02*
X136400000Y-52950000D01*
X136400000Y-52950000D02*
X144150000Y-52950000D01*
X144150000Y-52950000D02*
X144700000Y-52400000D01*
X144150000Y-52950000D02*
X144150000Y-72200000D01*
X144150000Y-72200000D02*
X144700000Y-72750000D01*
X144150000Y-72200000D02*
X136400000Y-72200000D01*
X136400000Y-72200000D02*
X135900000Y-72700000D01*
X136400000Y-72200000D02*
X136400000Y-64850000D01*
X136400000Y-64830000D02*
X135890000Y-64830000D01*
X135900000Y-60330000D02*
X136380000Y-60330000D01*
X136400000Y-60330000D02*
X136400000Y-52950000D01*
X204945000Y-52150000D02*
X204945000Y-73010000D01*
X204945000Y-73010000D02*
X195595000Y-73010000D01*
X195595000Y-73010000D02*
X195595000Y-52150000D01*
X195595000Y-52150000D02*
X204945000Y-52150000D01*
X195850000Y-52400000D02*
X204700000Y-52400000D01*
X204700000Y-52400000D02*
X204700000Y-72750000D01*
X204700000Y-72750000D02*
X195850000Y-72750000D01*
X195850000Y-72750000D02*
X195850000Y-52400000D01*
X195850000Y-52400000D02*
X196400000Y-52950000D01*
X196400000Y-52950000D02*
X204150000Y-52950000D01*
X204150000Y-52950000D02*
X204700000Y-52400000D01*
X204150000Y-52950000D02*
X204150000Y-72200000D01*
X204150000Y-72200000D02*
X204700000Y-72750000D01*
X204150000Y-72200000D02*
X196400000Y-72200000D01*
X196400000Y-72200000D02*
X195900000Y-72700000D01*
X196400000Y-72200000D02*
X196400000Y-64850000D01*
X196400000Y-64830000D02*
X195890000Y-64830000D01*
X195900000Y-60330000D02*
X196380000Y-60330000D01*
X196400000Y-60330000D02*
X196400000Y-52950000D01*
X114945000Y-52150000D02*
X114945000Y-73010000D01*
X114945000Y-73010000D02*
X105595000Y-73010000D01*
X105595000Y-73010000D02*
X105595000Y-52150000D01*
X105595000Y-52150000D02*
X114945000Y-52150000D01*
X105850000Y-52400000D02*
X114700000Y-52400000D01*
X114700000Y-52400000D02*
X114700000Y-72750000D01*
X114700000Y-72750000D02*
X105850000Y-72750000D01*
X105850000Y-72750000D02*
X105850000Y-52400000D01*
X105850000Y-52400000D02*
X106400000Y-52950000D01*
X106400000Y-52950000D02*
X114150000Y-52950000D01*
X114150000Y-52950000D02*
X114700000Y-52400000D01*
X114150000Y-52950000D02*
X114150000Y-72200000D01*
X114150000Y-72200000D02*
X114700000Y-72750000D01*
X114150000Y-72200000D02*
X106400000Y-72200000D01*
X106400000Y-72200000D02*
X105900000Y-72700000D01*
X106400000Y-72200000D02*
X106400000Y-64850000D01*
X106400000Y-64830000D02*
X105890000Y-64830000D01*
X105900000Y-60330000D02*
X106380000Y-60330000D01*
X106400000Y-60330000D02*
X106400000Y-52950000D01*
X174945000Y-52150000D02*
X174945000Y-73010000D01*
X174945000Y-73010000D02*
X165595000Y-73010000D01*
X165595000Y-73010000D02*
X165595000Y-52150000D01*
X165595000Y-52150000D02*
X174945000Y-52150000D01*
X165850000Y-52400000D02*
X174700000Y-52400000D01*
X174700000Y-52400000D02*
X174700000Y-72750000D01*
X174700000Y-72750000D02*
X165850000Y-72750000D01*
X165850000Y-72750000D02*
X165850000Y-52400000D01*
X165850000Y-52400000D02*
X166400000Y-52950000D01*
X166400000Y-52950000D02*
X174150000Y-52950000D01*
X174150000Y-52950000D02*
X174700000Y-52400000D01*
X174150000Y-52950000D02*
X174150000Y-72200000D01*
X174150000Y-72200000D02*
X174700000Y-72750000D01*
X174150000Y-72200000D02*
X166400000Y-72200000D01*
X166400000Y-72200000D02*
X165900000Y-72700000D01*
X166400000Y-72200000D02*
X166400000Y-64850000D01*
X166400000Y-64830000D02*
X165890000Y-64830000D01*
X165900000Y-60330000D02*
X166380000Y-60330000D01*
X166400000Y-60330000D02*
X166400000Y-52950000D01*
X84945000Y-52150000D02*
X84945000Y-73010000D01*
X84945000Y-73010000D02*
X75595000Y-73010000D01*
X75595000Y-73010000D02*
X75595000Y-52150000D01*
X75595000Y-52150000D02*
X84945000Y-52150000D01*
X75850000Y-52400000D02*
X84700000Y-52400000D01*
X84700000Y-52400000D02*
X84700000Y-72750000D01*
X84700000Y-72750000D02*
X75850000Y-72750000D01*
X75850000Y-72750000D02*
X75850000Y-52400000D01*
X75850000Y-52400000D02*
X76400000Y-52950000D01*
X76400000Y-52950000D02*
X84150000Y-52950000D01*
X84150000Y-52950000D02*
X84700000Y-52400000D01*
X84150000Y-52950000D02*
X84150000Y-72200000D01*
X84150000Y-72200000D02*
X84700000Y-72750000D01*
X84150000Y-72200000D02*
X76400000Y-72200000D01*
X76400000Y-72200000D02*
X75900000Y-72700000D01*
X76400000Y-72200000D02*
X76400000Y-64850000D01*
X76400000Y-64830000D02*
X75890000Y-64830000D01*
X75900000Y-60330000D02*
X76380000Y-60330000D01*
X76400000Y-60330000D02*
X76400000Y-52950000D01*
X219945000Y-52150000D02*
X219945000Y-73010000D01*
X219945000Y-73010000D02*
X210595000Y-73010000D01*
X210595000Y-73010000D02*
X210595000Y-52150000D01*
X210595000Y-52150000D02*
X219945000Y-52150000D01*
X210850000Y-52400000D02*
X219700000Y-52400000D01*
X219700000Y-52400000D02*
X219700000Y-72750000D01*
X219700000Y-72750000D02*
X210850000Y-72750000D01*
X210850000Y-72750000D02*
X210850000Y-52400000D01*
X210850000Y-52400000D02*
X211400000Y-52950000D01*
X211400000Y-52950000D02*
X219150000Y-52950000D01*
X219150000Y-52950000D02*
X219700000Y-52400000D01*
X219150000Y-52950000D02*
X219150000Y-72200000D01*
X219150000Y-72200000D02*
X219700000Y-72750000D01*
X219150000Y-72200000D02*
X211400000Y-72200000D01*
X211400000Y-72200000D02*
X210900000Y-72700000D01*
X211400000Y-72200000D02*
X211400000Y-64850000D01*
X211400000Y-64830000D02*
X210890000Y-64830000D01*
X210900000Y-60330000D02*
X211380000Y-60330000D01*
X211400000Y-60330000D02*
X211400000Y-52950000D01*
X129945000Y-52150000D02*
X129945000Y-73010000D01*
X129945000Y-73010000D02*
X120595000Y-73010000D01*
X120595000Y-73010000D02*
X120595000Y-52150000D01*
X120595000Y-52150000D02*
X129945000Y-52150000D01*
X120850000Y-52400000D02*
X129700000Y-52400000D01*
X129700000Y-52400000D02*
X129700000Y-72750000D01*
X129700000Y-72750000D02*
X120850000Y-72750000D01*
X120850000Y-72750000D02*
X120850000Y-52400000D01*
X120850000Y-52400000D02*
X121400000Y-52950000D01*
X121400000Y-52950000D02*
X129150000Y-52950000D01*
X129150000Y-52950000D02*
X129700000Y-52400000D01*
X129150000Y-52950000D02*
X129150000Y-72200000D01*
X129150000Y-72200000D02*
X129700000Y-72750000D01*
X129150000Y-72200000D02*
X121400000Y-72200000D01*
X121400000Y-72200000D02*
X120900000Y-72700000D01*
X121400000Y-72200000D02*
X121400000Y-64850000D01*
X121400000Y-64830000D02*
X120890000Y-64830000D01*
X120900000Y-60330000D02*
X121380000Y-60330000D01*
X121400000Y-60330000D02*
X121400000Y-52950000D01*
X189945000Y-52150000D02*
X189945000Y-73010000D01*
X189945000Y-73010000D02*
X180595000Y-73010000D01*
X180595000Y-73010000D02*
X180595000Y-52150000D01*
X180595000Y-52150000D02*
X189945000Y-52150000D01*
X180850000Y-52400000D02*
X189700000Y-52400000D01*
X189700000Y-52400000D02*
X189700000Y-72750000D01*
X189700000Y-72750000D02*
X180850000Y-72750000D01*
X180850000Y-72750000D02*
X180850000Y-52400000D01*
X180850000Y-52400000D02*
X181400000Y-52950000D01*
X181400000Y-52950000D02*
X189150000Y-52950000D01*
X189150000Y-52950000D02*
X189700000Y-52400000D01*
X189150000Y-52950000D02*
X189150000Y-72200000D01*
X189150000Y-72200000D02*
X189700000Y-72750000D01*
X189150000Y-72200000D02*
X181400000Y-72200000D01*
X181400000Y-72200000D02*
X180900000Y-72700000D01*
X181400000Y-72200000D02*
X181400000Y-64850000D01*
X181400000Y-64830000D02*
X180890000Y-64830000D01*
X180900000Y-60330000D02*
X181380000Y-60330000D01*
X181400000Y-60330000D02*
X181400000Y-52950000D01*
X99945000Y-52150000D02*
X99945000Y-73010000D01*
X99945000Y-73010000D02*
X90595000Y-73010000D01*
X90595000Y-73010000D02*
X90595000Y-52150000D01*
X90595000Y-52150000D02*
X99945000Y-52150000D01*
X90850000Y-52400000D02*
X99700000Y-52400000D01*
X99700000Y-52400000D02*
X99700000Y-72750000D01*
X99700000Y-72750000D02*
X90850000Y-72750000D01*
X90850000Y-72750000D02*
X90850000Y-52400000D01*
X90850000Y-52400000D02*
X91400000Y-52950000D01*
X91400000Y-52950000D02*
X99150000Y-52950000D01*
X99150000Y-52950000D02*
X99700000Y-52400000D01*
X99150000Y-52950000D02*
X99150000Y-72200000D01*
X99150000Y-72200000D02*
X99700000Y-72750000D01*
X99150000Y-72200000D02*
X91400000Y-72200000D01*
X91400000Y-72200000D02*
X90900000Y-72700000D01*
X91400000Y-72200000D02*
X91400000Y-64850000D01*
X91400000Y-64830000D02*
X90890000Y-64830000D01*
X90900000Y-60330000D02*
X91380000Y-60330000D01*
X91400000Y-60330000D02*
X91400000Y-52950000D01*
X159945000Y-52150000D02*
X159945000Y-73010000D01*
X159945000Y-73010000D02*
X150595000Y-73010000D01*
X150595000Y-73010000D02*
X150595000Y-52150000D01*
X150595000Y-52150000D02*
X159945000Y-52150000D01*
X150850000Y-52400000D02*
X159700000Y-52400000D01*
X159700000Y-52400000D02*
X159700000Y-72750000D01*
X159700000Y-72750000D02*
X150850000Y-72750000D01*
X150850000Y-72750000D02*
X150850000Y-52400000D01*
X150850000Y-52400000D02*
X151400000Y-52950000D01*
X151400000Y-52950000D02*
X159150000Y-52950000D01*
X159150000Y-52950000D02*
X159700000Y-52400000D01*
X159150000Y-52950000D02*
X159150000Y-72200000D01*
X159150000Y-72200000D02*
X159700000Y-72750000D01*
X159150000Y-72200000D02*
X151400000Y-72200000D01*
X151400000Y-72200000D02*
X150900000Y-72700000D01*
X151400000Y-72200000D02*
X151400000Y-64850000D01*
X151400000Y-64830000D02*
X150890000Y-64830000D01*
X150900000Y-60330000D02*
X151380000Y-60330000D01*
X151400000Y-60330000D02*
X151400000Y-52950000D01*
X69945000Y-52150000D02*
X69945000Y-73010000D01*
X69945000Y-73010000D02*
X60595000Y-73010000D01*
X60595000Y-73010000D02*
X60595000Y-52150000D01*
X60595000Y-52150000D02*
X69945000Y-52150000D01*
X60850000Y-52400000D02*
X69700000Y-52400000D01*
X69700000Y-52400000D02*
X69700000Y-72750000D01*
X69700000Y-72750000D02*
X60850000Y-72750000D01*
X60850000Y-72750000D02*
X60850000Y-52400000D01*
X60850000Y-52400000D02*
X61400000Y-52950000D01*
X61400000Y-52950000D02*
X69150000Y-52950000D01*
X69150000Y-52950000D02*
X69700000Y-52400000D01*
X69150000Y-52950000D02*
X69150000Y-72200000D01*
X69150000Y-72200000D02*
X69700000Y-72750000D01*
X69150000Y-72200000D02*
X61400000Y-72200000D01*
X61400000Y-72200000D02*
X60900000Y-72700000D01*
X61400000Y-72200000D02*
X61400000Y-64850000D01*
X61400000Y-64830000D02*
X60890000Y-64830000D01*
X60900000Y-60330000D02*
X61380000Y-60330000D01*
X61400000Y-60330000D02*
X61400000Y-52950000D01*
X71210000Y-55264000D02*
X71210000Y-55420000D01*
X71210000Y-57580000D02*
X71210000Y-57736000D01*
X73811130Y-57579837D02*
G75*
G02*
X71729039Y-57580000I-1041130J1079837D01*
G01*
X73811130Y-55420163D02*
G75*
G03*
X71729039Y-55420000I-1041130J-1079837D01*
G01*
X74442335Y-57578608D02*
G75*
G02*
X71210000Y-57735516I-1672335J1078608D01*
G01*
X74442335Y-55421392D02*
G75*
G03*
X71210000Y-55264484I-1672335J-1078608D01*
G01*
X86210000Y-57580000D02*
X86210000Y-57736000D01*
X86210000Y-55264000D02*
X86210000Y-55420000D01*
X89442335Y-55421392D02*
G75*
G03*
X86210000Y-55264484I-1672335J-1078608D01*
G01*
X89442335Y-57578608D02*
G75*
G02*
X86210000Y-57735516I-1672335J1078608D01*
G01*
X88811130Y-55420163D02*
G75*
G03*
X86729039Y-55420000I-1041130J-1079837D01*
G01*
X88811130Y-57579837D02*
G75*
G02*
X86729039Y-57580000I-1041130J1079837D01*
G01*
X73540000Y-60540000D02*
X73870000Y-60540000D01*
X73870000Y-60540000D02*
X73870000Y-67080000D01*
X73870000Y-67080000D02*
X73540000Y-67080000D01*
X71460000Y-60540000D02*
X71130000Y-60540000D01*
X71130000Y-60540000D02*
X71130000Y-67080000D01*
X71130000Y-67080000D02*
X71460000Y-67080000D01*
D14*
X45690476Y-52452380D02*
X45690476Y-53166666D01*
X45642857Y-53309523D01*
X45547619Y-53404761D01*
X45404761Y-53452380D01*
X45309523Y-53452380D01*
X46690476Y-53452380D02*
X46119047Y-53452380D01*
X46404761Y-53452380D02*
X46404761Y-52452380D01*
X46309523Y-52595238D01*
X46214285Y-52690476D01*
X46119047Y-52738095D01*
X47023809Y-52452380D02*
X47642857Y-52452380D01*
X47309523Y-52833333D01*
X47452380Y-52833333D01*
X47547619Y-52880952D01*
X47595238Y-52928571D01*
X47642857Y-53023809D01*
X47642857Y-53261904D01*
X47595238Y-53357142D01*
X47547619Y-53404761D01*
X47452380Y-53452380D01*
X47166666Y-53452380D01*
X47071428Y-53404761D01*
X47023809Y-53357142D01*
X87942380Y-63996666D02*
X87466190Y-64330000D01*
X87942380Y-64568095D02*
X86942380Y-64568095D01*
X86942380Y-64187142D01*
X86990000Y-64091904D01*
X87037619Y-64044285D01*
X87132857Y-63996666D01*
X87275714Y-63996666D01*
X87370952Y-64044285D01*
X87418571Y-64091904D01*
X87466190Y-64187142D01*
X87466190Y-64568095D01*
X87037619Y-63615714D02*
X86990000Y-63568095D01*
X86942380Y-63472857D01*
X86942380Y-63234761D01*
X86990000Y-63139523D01*
X87037619Y-63091904D01*
X87132857Y-63044285D01*
X87228095Y-63044285D01*
X87370952Y-63091904D01*
X87942380Y-63663333D01*
X87942380Y-63044285D01*
X222542857Y-62759285D02*
X222542857Y-63295000D01*
X222507142Y-63402142D01*
X222435714Y-63473571D01*
X222328571Y-63509285D01*
X222257142Y-63509285D01*
X223292857Y-63509285D02*
X222864285Y-63509285D01*
X223078571Y-63509285D02*
X223078571Y-62759285D01*
X223007142Y-62866428D01*
X222935714Y-62937857D01*
X222864285Y-62973571D01*
X223578571Y-62830714D02*
X223614285Y-62795000D01*
X223685714Y-62759285D01*
X223864285Y-62759285D01*
X223935714Y-62795000D01*
X223971428Y-62830714D01*
X224007142Y-62902142D01*
X224007142Y-62973571D01*
X223971428Y-63080714D01*
X223542857Y-63509285D01*
X224007142Y-63509285D01*
X228678571Y-51702380D02*
X228345238Y-51226190D01*
X228107142Y-51702380D02*
X228107142Y-50702380D01*
X228488095Y-50702380D01*
X228583333Y-50750000D01*
X228630952Y-50797619D01*
X228678571Y-50892857D01*
X228678571Y-51035714D01*
X228630952Y-51130952D01*
X228583333Y-51178571D01*
X228488095Y-51226190D01*
X228107142Y-51226190D01*
X229107142Y-51178571D02*
X229440476Y-51178571D01*
X229583333Y-51702380D02*
X229107142Y-51702380D01*
X229107142Y-50702380D01*
X229583333Y-50702380D01*
X230011904Y-51702380D02*
X230011904Y-50702380D01*
X230250000Y-50702380D01*
X230392857Y-50750000D01*
X230488095Y-50845238D01*
X230535714Y-50940476D01*
X230583333Y-51130952D01*
X230583333Y-51273809D01*
X230535714Y-51464285D01*
X230488095Y-51559523D01*
X230392857Y-51654761D01*
X230250000Y-51702380D01*
X230011904Y-51702380D01*
X231726190Y-51654761D02*
X231869047Y-51702380D01*
X232107142Y-51702380D01*
X232202380Y-51654761D01*
X232250000Y-51607142D01*
X232297619Y-51511904D01*
X232297619Y-51416666D01*
X232250000Y-51321428D01*
X232202380Y-51273809D01*
X232107142Y-51226190D01*
X231916666Y-51178571D01*
X231821428Y-51130952D01*
X231773809Y-51083333D01*
X231726190Y-50988095D01*
X231726190Y-50892857D01*
X231773809Y-50797619D01*
X231821428Y-50750000D01*
X231916666Y-50702380D01*
X232154761Y-50702380D01*
X232297619Y-50750000D01*
X232583333Y-50702380D02*
X233154761Y-50702380D01*
X232869047Y-51702380D02*
X232869047Y-50702380D01*
X234059523Y-51702380D02*
X233726190Y-51226190D01*
X233488095Y-51702380D02*
X233488095Y-50702380D01*
X233869047Y-50702380D01*
X233964285Y-50750000D01*
X234011904Y-50797619D01*
X234059523Y-50892857D01*
X234059523Y-51035714D01*
X234011904Y-51130952D01*
X233964285Y-51178571D01*
X233869047Y-51226190D01*
X233488095Y-51226190D01*
X234488095Y-51702380D02*
X234488095Y-50702380D01*
X234964285Y-51702380D02*
X234964285Y-50702380D01*
X235345238Y-50702380D01*
X235440476Y-50750000D01*
X235488095Y-50797619D01*
X235535714Y-50892857D01*
X235535714Y-51035714D01*
X235488095Y-51130952D01*
X235440476Y-51178571D01*
X235345238Y-51226190D01*
X234964285Y-51226190D01*
X235964285Y-51178571D02*
X236297619Y-51178571D01*
X236440476Y-51702380D02*
X235964285Y-51702380D01*
X235964285Y-50702380D01*
X236440476Y-50702380D01*
X223488095Y-51321428D02*
X224250000Y-51321428D01*
X225250000Y-51702380D02*
X224678571Y-51702380D01*
X224964285Y-51702380D02*
X224964285Y-50702380D01*
X224869047Y-50845238D01*
X224773809Y-50940476D01*
X224678571Y-50988095D01*
X225630952Y-50797619D02*
X225678571Y-50750000D01*
X225773809Y-50702380D01*
X226011904Y-50702380D01*
X226107142Y-50750000D01*
X226154761Y-50797619D01*
X226202380Y-50892857D01*
X226202380Y-50988095D01*
X226154761Y-51130952D01*
X225583333Y-51702380D01*
X226202380Y-51702380D01*
X226488095Y-50702380D02*
X226821428Y-51702380D01*
X227154761Y-50702380D01*
X228238095Y-74071428D02*
X229000000Y-74071428D01*
X228619047Y-74452380D02*
X228619047Y-73690476D01*
X230000000Y-74452380D02*
X229428571Y-74452380D01*
X229714285Y-74452380D02*
X229714285Y-73452380D01*
X229619047Y-73595238D01*
X229523809Y-73690476D01*
X229428571Y-73738095D01*
X230380952Y-73547619D02*
X230428571Y-73500000D01*
X230523809Y-73452380D01*
X230761904Y-73452380D01*
X230857142Y-73500000D01*
X230904761Y-73547619D01*
X230952380Y-73642857D01*
X230952380Y-73738095D01*
X230904761Y-73880952D01*
X230333333Y-74452380D01*
X230952380Y-74452380D01*
X231238095Y-73452380D02*
X231571428Y-74452380D01*
X231904761Y-73452380D01*
X132900000Y-62759285D02*
X132900000Y-63295000D01*
X132864285Y-63402142D01*
X132792857Y-63473571D01*
X132685714Y-63509285D01*
X132614285Y-63509285D01*
X133578571Y-62759285D02*
X133435714Y-62759285D01*
X133364285Y-62795000D01*
X133328571Y-62830714D01*
X133257142Y-62937857D01*
X133221428Y-63080714D01*
X133221428Y-63366428D01*
X133257142Y-63437857D01*
X133292857Y-63473571D01*
X133364285Y-63509285D01*
X133507142Y-63509285D01*
X133578571Y-63473571D01*
X133614285Y-63437857D01*
X133650000Y-63366428D01*
X133650000Y-63187857D01*
X133614285Y-63116428D01*
X133578571Y-63080714D01*
X133507142Y-63045000D01*
X133364285Y-63045000D01*
X133292857Y-63080714D01*
X133257142Y-63116428D01*
X133221428Y-63187857D01*
X138678571Y-51702380D02*
X138345238Y-51226190D01*
X138107142Y-51702380D02*
X138107142Y-50702380D01*
X138488095Y-50702380D01*
X138583333Y-50750000D01*
X138630952Y-50797619D01*
X138678571Y-50892857D01*
X138678571Y-51035714D01*
X138630952Y-51130952D01*
X138583333Y-51178571D01*
X138488095Y-51226190D01*
X138107142Y-51226190D01*
X139107142Y-51178571D02*
X139440476Y-51178571D01*
X139583333Y-51702380D02*
X139107142Y-51702380D01*
X139107142Y-50702380D01*
X139583333Y-50702380D01*
X140011904Y-51702380D02*
X140011904Y-50702380D01*
X140250000Y-50702380D01*
X140392857Y-50750000D01*
X140488095Y-50845238D01*
X140535714Y-50940476D01*
X140583333Y-51130952D01*
X140583333Y-51273809D01*
X140535714Y-51464285D01*
X140488095Y-51559523D01*
X140392857Y-51654761D01*
X140250000Y-51702380D01*
X140011904Y-51702380D01*
X141726190Y-51654761D02*
X141869047Y-51702380D01*
X142107142Y-51702380D01*
X142202380Y-51654761D01*
X142250000Y-51607142D01*
X142297619Y-51511904D01*
X142297619Y-51416666D01*
X142250000Y-51321428D01*
X142202380Y-51273809D01*
X142107142Y-51226190D01*
X141916666Y-51178571D01*
X141821428Y-51130952D01*
X141773809Y-51083333D01*
X141726190Y-50988095D01*
X141726190Y-50892857D01*
X141773809Y-50797619D01*
X141821428Y-50750000D01*
X141916666Y-50702380D01*
X142154761Y-50702380D01*
X142297619Y-50750000D01*
X142583333Y-50702380D02*
X143154761Y-50702380D01*
X142869047Y-51702380D02*
X142869047Y-50702380D01*
X144059523Y-51702380D02*
X143726190Y-51226190D01*
X143488095Y-51702380D02*
X143488095Y-50702380D01*
X143869047Y-50702380D01*
X143964285Y-50750000D01*
X144011904Y-50797619D01*
X144059523Y-50892857D01*
X144059523Y-51035714D01*
X144011904Y-51130952D01*
X143964285Y-51178571D01*
X143869047Y-51226190D01*
X143488095Y-51226190D01*
X144488095Y-51702380D02*
X144488095Y-50702380D01*
X144964285Y-51702380D02*
X144964285Y-50702380D01*
X145345238Y-50702380D01*
X145440476Y-50750000D01*
X145488095Y-50797619D01*
X145535714Y-50892857D01*
X145535714Y-51035714D01*
X145488095Y-51130952D01*
X145440476Y-51178571D01*
X145345238Y-51226190D01*
X144964285Y-51226190D01*
X145964285Y-51178571D02*
X146297619Y-51178571D01*
X146440476Y-51702380D02*
X145964285Y-51702380D01*
X145964285Y-50702380D01*
X146440476Y-50702380D01*
X133488095Y-51321428D02*
X134250000Y-51321428D01*
X135250000Y-51702380D02*
X134678571Y-51702380D01*
X134964285Y-51702380D02*
X134964285Y-50702380D01*
X134869047Y-50845238D01*
X134773809Y-50940476D01*
X134678571Y-50988095D01*
X135630952Y-50797619D02*
X135678571Y-50750000D01*
X135773809Y-50702380D01*
X136011904Y-50702380D01*
X136107142Y-50750000D01*
X136154761Y-50797619D01*
X136202380Y-50892857D01*
X136202380Y-50988095D01*
X136154761Y-51130952D01*
X135583333Y-51702380D01*
X136202380Y-51702380D01*
X136488095Y-50702380D02*
X136821428Y-51702380D01*
X137154761Y-50702380D01*
X138238095Y-74071428D02*
X139000000Y-74071428D01*
X138619047Y-74452380D02*
X138619047Y-73690476D01*
X140000000Y-74452380D02*
X139428571Y-74452380D01*
X139714285Y-74452380D02*
X139714285Y-73452380D01*
X139619047Y-73595238D01*
X139523809Y-73690476D01*
X139428571Y-73738095D01*
X140380952Y-73547619D02*
X140428571Y-73500000D01*
X140523809Y-73452380D01*
X140761904Y-73452380D01*
X140857142Y-73500000D01*
X140904761Y-73547619D01*
X140952380Y-73642857D01*
X140952380Y-73738095D01*
X140904761Y-73880952D01*
X140333333Y-74452380D01*
X140952380Y-74452380D01*
X141238095Y-73452380D02*
X141571428Y-74452380D01*
X141904761Y-73452380D01*
X192542857Y-62759285D02*
X192542857Y-63295000D01*
X192507142Y-63402142D01*
X192435714Y-63473571D01*
X192328571Y-63509285D01*
X192257142Y-63509285D01*
X193292857Y-63509285D02*
X192864285Y-63509285D01*
X193078571Y-63509285D02*
X193078571Y-62759285D01*
X193007142Y-62866428D01*
X192935714Y-62937857D01*
X192864285Y-62973571D01*
X193757142Y-62759285D02*
X193828571Y-62759285D01*
X193900000Y-62795000D01*
X193935714Y-62830714D01*
X193971428Y-62902142D01*
X194007142Y-63045000D01*
X194007142Y-63223571D01*
X193971428Y-63366428D01*
X193935714Y-63437857D01*
X193900000Y-63473571D01*
X193828571Y-63509285D01*
X193757142Y-63509285D01*
X193685714Y-63473571D01*
X193650000Y-63437857D01*
X193614285Y-63366428D01*
X193578571Y-63223571D01*
X193578571Y-63045000D01*
X193614285Y-62902142D01*
X193650000Y-62830714D01*
X193685714Y-62795000D01*
X193757142Y-62759285D01*
X198678571Y-51702380D02*
X198345238Y-51226190D01*
X198107142Y-51702380D02*
X198107142Y-50702380D01*
X198488095Y-50702380D01*
X198583333Y-50750000D01*
X198630952Y-50797619D01*
X198678571Y-50892857D01*
X198678571Y-51035714D01*
X198630952Y-51130952D01*
X198583333Y-51178571D01*
X198488095Y-51226190D01*
X198107142Y-51226190D01*
X199107142Y-51178571D02*
X199440476Y-51178571D01*
X199583333Y-51702380D02*
X199107142Y-51702380D01*
X199107142Y-50702380D01*
X199583333Y-50702380D01*
X200011904Y-51702380D02*
X200011904Y-50702380D01*
X200250000Y-50702380D01*
X200392857Y-50750000D01*
X200488095Y-50845238D01*
X200535714Y-50940476D01*
X200583333Y-51130952D01*
X200583333Y-51273809D01*
X200535714Y-51464285D01*
X200488095Y-51559523D01*
X200392857Y-51654761D01*
X200250000Y-51702380D01*
X200011904Y-51702380D01*
X201726190Y-51654761D02*
X201869047Y-51702380D01*
X202107142Y-51702380D01*
X202202380Y-51654761D01*
X202250000Y-51607142D01*
X202297619Y-51511904D01*
X202297619Y-51416666D01*
X202250000Y-51321428D01*
X202202380Y-51273809D01*
X202107142Y-51226190D01*
X201916666Y-51178571D01*
X201821428Y-51130952D01*
X201773809Y-51083333D01*
X201726190Y-50988095D01*
X201726190Y-50892857D01*
X201773809Y-50797619D01*
X201821428Y-50750000D01*
X201916666Y-50702380D01*
X202154761Y-50702380D01*
X202297619Y-50750000D01*
X202583333Y-50702380D02*
X203154761Y-50702380D01*
X202869047Y-51702380D02*
X202869047Y-50702380D01*
X204059523Y-51702380D02*
X203726190Y-51226190D01*
X203488095Y-51702380D02*
X203488095Y-50702380D01*
X203869047Y-50702380D01*
X203964285Y-50750000D01*
X204011904Y-50797619D01*
X204059523Y-50892857D01*
X204059523Y-51035714D01*
X204011904Y-51130952D01*
X203964285Y-51178571D01*
X203869047Y-51226190D01*
X203488095Y-51226190D01*
X204488095Y-51702380D02*
X204488095Y-50702380D01*
X204964285Y-51702380D02*
X204964285Y-50702380D01*
X205345238Y-50702380D01*
X205440476Y-50750000D01*
X205488095Y-50797619D01*
X205535714Y-50892857D01*
X205535714Y-51035714D01*
X205488095Y-51130952D01*
X205440476Y-51178571D01*
X205345238Y-51226190D01*
X204964285Y-51226190D01*
X205964285Y-51178571D02*
X206297619Y-51178571D01*
X206440476Y-51702380D02*
X205964285Y-51702380D01*
X205964285Y-50702380D01*
X206440476Y-50702380D01*
X193488095Y-51321428D02*
X194250000Y-51321428D01*
X195250000Y-51702380D02*
X194678571Y-51702380D01*
X194964285Y-51702380D02*
X194964285Y-50702380D01*
X194869047Y-50845238D01*
X194773809Y-50940476D01*
X194678571Y-50988095D01*
X195630952Y-50797619D02*
X195678571Y-50750000D01*
X195773809Y-50702380D01*
X196011904Y-50702380D01*
X196107142Y-50750000D01*
X196154761Y-50797619D01*
X196202380Y-50892857D01*
X196202380Y-50988095D01*
X196154761Y-51130952D01*
X195583333Y-51702380D01*
X196202380Y-51702380D01*
X196488095Y-50702380D02*
X196821428Y-51702380D01*
X197154761Y-50702380D01*
X198238095Y-74071428D02*
X199000000Y-74071428D01*
X198619047Y-74452380D02*
X198619047Y-73690476D01*
X200000000Y-74452380D02*
X199428571Y-74452380D01*
X199714285Y-74452380D02*
X199714285Y-73452380D01*
X199619047Y-73595238D01*
X199523809Y-73690476D01*
X199428571Y-73738095D01*
X200380952Y-73547619D02*
X200428571Y-73500000D01*
X200523809Y-73452380D01*
X200761904Y-73452380D01*
X200857142Y-73500000D01*
X200904761Y-73547619D01*
X200952380Y-73642857D01*
X200952380Y-73738095D01*
X200904761Y-73880952D01*
X200333333Y-74452380D01*
X200952380Y-74452380D01*
X201238095Y-73452380D02*
X201571428Y-74452380D01*
X201904761Y-73452380D01*
X102900000Y-62759285D02*
X102900000Y-63295000D01*
X102864285Y-63402142D01*
X102792857Y-63473571D01*
X102685714Y-63509285D01*
X102614285Y-63509285D01*
X103578571Y-63009285D02*
X103578571Y-63509285D01*
X103400000Y-62723571D02*
X103221428Y-63259285D01*
X103685714Y-63259285D01*
X108678571Y-51702380D02*
X108345238Y-51226190D01*
X108107142Y-51702380D02*
X108107142Y-50702380D01*
X108488095Y-50702380D01*
X108583333Y-50750000D01*
X108630952Y-50797619D01*
X108678571Y-50892857D01*
X108678571Y-51035714D01*
X108630952Y-51130952D01*
X108583333Y-51178571D01*
X108488095Y-51226190D01*
X108107142Y-51226190D01*
X109107142Y-51178571D02*
X109440476Y-51178571D01*
X109583333Y-51702380D02*
X109107142Y-51702380D01*
X109107142Y-50702380D01*
X109583333Y-50702380D01*
X110011904Y-51702380D02*
X110011904Y-50702380D01*
X110250000Y-50702380D01*
X110392857Y-50750000D01*
X110488095Y-50845238D01*
X110535714Y-50940476D01*
X110583333Y-51130952D01*
X110583333Y-51273809D01*
X110535714Y-51464285D01*
X110488095Y-51559523D01*
X110392857Y-51654761D01*
X110250000Y-51702380D01*
X110011904Y-51702380D01*
X111726190Y-51654761D02*
X111869047Y-51702380D01*
X112107142Y-51702380D01*
X112202380Y-51654761D01*
X112250000Y-51607142D01*
X112297619Y-51511904D01*
X112297619Y-51416666D01*
X112250000Y-51321428D01*
X112202380Y-51273809D01*
X112107142Y-51226190D01*
X111916666Y-51178571D01*
X111821428Y-51130952D01*
X111773809Y-51083333D01*
X111726190Y-50988095D01*
X111726190Y-50892857D01*
X111773809Y-50797619D01*
X111821428Y-50750000D01*
X111916666Y-50702380D01*
X112154761Y-50702380D01*
X112297619Y-50750000D01*
X112583333Y-50702380D02*
X113154761Y-50702380D01*
X112869047Y-51702380D02*
X112869047Y-50702380D01*
X114059523Y-51702380D02*
X113726190Y-51226190D01*
X113488095Y-51702380D02*
X113488095Y-50702380D01*
X113869047Y-50702380D01*
X113964285Y-50750000D01*
X114011904Y-50797619D01*
X114059523Y-50892857D01*
X114059523Y-51035714D01*
X114011904Y-51130952D01*
X113964285Y-51178571D01*
X113869047Y-51226190D01*
X113488095Y-51226190D01*
X114488095Y-51702380D02*
X114488095Y-50702380D01*
X114964285Y-51702380D02*
X114964285Y-50702380D01*
X115345238Y-50702380D01*
X115440476Y-50750000D01*
X115488095Y-50797619D01*
X115535714Y-50892857D01*
X115535714Y-51035714D01*
X115488095Y-51130952D01*
X115440476Y-51178571D01*
X115345238Y-51226190D01*
X114964285Y-51226190D01*
X115964285Y-51178571D02*
X116297619Y-51178571D01*
X116440476Y-51702380D02*
X115964285Y-51702380D01*
X115964285Y-50702380D01*
X116440476Y-50702380D01*
X103488095Y-51321428D02*
X104250000Y-51321428D01*
X105250000Y-51702380D02*
X104678571Y-51702380D01*
X104964285Y-51702380D02*
X104964285Y-50702380D01*
X104869047Y-50845238D01*
X104773809Y-50940476D01*
X104678571Y-50988095D01*
X105630952Y-50797619D02*
X105678571Y-50750000D01*
X105773809Y-50702380D01*
X106011904Y-50702380D01*
X106107142Y-50750000D01*
X106154761Y-50797619D01*
X106202380Y-50892857D01*
X106202380Y-50988095D01*
X106154761Y-51130952D01*
X105583333Y-51702380D01*
X106202380Y-51702380D01*
X106488095Y-50702380D02*
X106821428Y-51702380D01*
X107154761Y-50702380D01*
X108238095Y-74071428D02*
X109000000Y-74071428D01*
X108619047Y-74452380D02*
X108619047Y-73690476D01*
X110000000Y-74452380D02*
X109428571Y-74452380D01*
X109714285Y-74452380D02*
X109714285Y-73452380D01*
X109619047Y-73595238D01*
X109523809Y-73690476D01*
X109428571Y-73738095D01*
X110380952Y-73547619D02*
X110428571Y-73500000D01*
X110523809Y-73452380D01*
X110761904Y-73452380D01*
X110857142Y-73500000D01*
X110904761Y-73547619D01*
X110952380Y-73642857D01*
X110952380Y-73738095D01*
X110904761Y-73880952D01*
X110333333Y-74452380D01*
X110952380Y-74452380D01*
X111238095Y-73452380D02*
X111571428Y-74452380D01*
X111904761Y-73452380D01*
X162900000Y-62759285D02*
X162900000Y-63295000D01*
X162864285Y-63402142D01*
X162792857Y-63473571D01*
X162685714Y-63509285D01*
X162614285Y-63509285D01*
X163364285Y-63080714D02*
X163292857Y-63045000D01*
X163257142Y-63009285D01*
X163221428Y-62937857D01*
X163221428Y-62902142D01*
X163257142Y-62830714D01*
X163292857Y-62795000D01*
X163364285Y-62759285D01*
X163507142Y-62759285D01*
X163578571Y-62795000D01*
X163614285Y-62830714D01*
X163650000Y-62902142D01*
X163650000Y-62937857D01*
X163614285Y-63009285D01*
X163578571Y-63045000D01*
X163507142Y-63080714D01*
X163364285Y-63080714D01*
X163292857Y-63116428D01*
X163257142Y-63152142D01*
X163221428Y-63223571D01*
X163221428Y-63366428D01*
X163257142Y-63437857D01*
X163292857Y-63473571D01*
X163364285Y-63509285D01*
X163507142Y-63509285D01*
X163578571Y-63473571D01*
X163614285Y-63437857D01*
X163650000Y-63366428D01*
X163650000Y-63223571D01*
X163614285Y-63152142D01*
X163578571Y-63116428D01*
X163507142Y-63080714D01*
X168678571Y-51702380D02*
X168345238Y-51226190D01*
X168107142Y-51702380D02*
X168107142Y-50702380D01*
X168488095Y-50702380D01*
X168583333Y-50750000D01*
X168630952Y-50797619D01*
X168678571Y-50892857D01*
X168678571Y-51035714D01*
X168630952Y-51130952D01*
X168583333Y-51178571D01*
X168488095Y-51226190D01*
X168107142Y-51226190D01*
X169107142Y-51178571D02*
X169440476Y-51178571D01*
X169583333Y-51702380D02*
X169107142Y-51702380D01*
X169107142Y-50702380D01*
X169583333Y-50702380D01*
X170011904Y-51702380D02*
X170011904Y-50702380D01*
X170250000Y-50702380D01*
X170392857Y-50750000D01*
X170488095Y-50845238D01*
X170535714Y-50940476D01*
X170583333Y-51130952D01*
X170583333Y-51273809D01*
X170535714Y-51464285D01*
X170488095Y-51559523D01*
X170392857Y-51654761D01*
X170250000Y-51702380D01*
X170011904Y-51702380D01*
X171726190Y-51654761D02*
X171869047Y-51702380D01*
X172107142Y-51702380D01*
X172202380Y-51654761D01*
X172250000Y-51607142D01*
X172297619Y-51511904D01*
X172297619Y-51416666D01*
X172250000Y-51321428D01*
X172202380Y-51273809D01*
X172107142Y-51226190D01*
X171916666Y-51178571D01*
X171821428Y-51130952D01*
X171773809Y-51083333D01*
X171726190Y-50988095D01*
X171726190Y-50892857D01*
X171773809Y-50797619D01*
X171821428Y-50750000D01*
X171916666Y-50702380D01*
X172154761Y-50702380D01*
X172297619Y-50750000D01*
X172583333Y-50702380D02*
X173154761Y-50702380D01*
X172869047Y-51702380D02*
X172869047Y-50702380D01*
X174059523Y-51702380D02*
X173726190Y-51226190D01*
X173488095Y-51702380D02*
X173488095Y-50702380D01*
X173869047Y-50702380D01*
X173964285Y-50750000D01*
X174011904Y-50797619D01*
X174059523Y-50892857D01*
X174059523Y-51035714D01*
X174011904Y-51130952D01*
X173964285Y-51178571D01*
X173869047Y-51226190D01*
X173488095Y-51226190D01*
X174488095Y-51702380D02*
X174488095Y-50702380D01*
X174964285Y-51702380D02*
X174964285Y-50702380D01*
X175345238Y-50702380D01*
X175440476Y-50750000D01*
X175488095Y-50797619D01*
X175535714Y-50892857D01*
X175535714Y-51035714D01*
X175488095Y-51130952D01*
X175440476Y-51178571D01*
X175345238Y-51226190D01*
X174964285Y-51226190D01*
X175964285Y-51178571D02*
X176297619Y-51178571D01*
X176440476Y-51702380D02*
X175964285Y-51702380D01*
X175964285Y-50702380D01*
X176440476Y-50702380D01*
X163488095Y-51321428D02*
X164250000Y-51321428D01*
X165250000Y-51702380D02*
X164678571Y-51702380D01*
X164964285Y-51702380D02*
X164964285Y-50702380D01*
X164869047Y-50845238D01*
X164773809Y-50940476D01*
X164678571Y-50988095D01*
X165630952Y-50797619D02*
X165678571Y-50750000D01*
X165773809Y-50702380D01*
X166011904Y-50702380D01*
X166107142Y-50750000D01*
X166154761Y-50797619D01*
X166202380Y-50892857D01*
X166202380Y-50988095D01*
X166154761Y-51130952D01*
X165583333Y-51702380D01*
X166202380Y-51702380D01*
X166488095Y-50702380D02*
X166821428Y-51702380D01*
X167154761Y-50702380D01*
X168238095Y-74071428D02*
X169000000Y-74071428D01*
X168619047Y-74452380D02*
X168619047Y-73690476D01*
X170000000Y-74452380D02*
X169428571Y-74452380D01*
X169714285Y-74452380D02*
X169714285Y-73452380D01*
X169619047Y-73595238D01*
X169523809Y-73690476D01*
X169428571Y-73738095D01*
X170380952Y-73547619D02*
X170428571Y-73500000D01*
X170523809Y-73452380D01*
X170761904Y-73452380D01*
X170857142Y-73500000D01*
X170904761Y-73547619D01*
X170952380Y-73642857D01*
X170952380Y-73738095D01*
X170904761Y-73880952D01*
X170333333Y-74452380D01*
X170952380Y-74452380D01*
X171238095Y-73452380D02*
X171571428Y-74452380D01*
X171904761Y-73452380D01*
X72900000Y-62759285D02*
X72900000Y-63295000D01*
X72864285Y-63402142D01*
X72792857Y-63473571D01*
X72685714Y-63509285D01*
X72614285Y-63509285D01*
X73221428Y-62830714D02*
X73257142Y-62795000D01*
X73328571Y-62759285D01*
X73507142Y-62759285D01*
X73578571Y-62795000D01*
X73614285Y-62830714D01*
X73650000Y-62902142D01*
X73650000Y-62973571D01*
X73614285Y-63080714D01*
X73185714Y-63509285D01*
X73650000Y-63509285D01*
X78678571Y-51702380D02*
X78345238Y-51226190D01*
X78107142Y-51702380D02*
X78107142Y-50702380D01*
X78488095Y-50702380D01*
X78583333Y-50750000D01*
X78630952Y-50797619D01*
X78678571Y-50892857D01*
X78678571Y-51035714D01*
X78630952Y-51130952D01*
X78583333Y-51178571D01*
X78488095Y-51226190D01*
X78107142Y-51226190D01*
X79107142Y-51178571D02*
X79440476Y-51178571D01*
X79583333Y-51702380D02*
X79107142Y-51702380D01*
X79107142Y-50702380D01*
X79583333Y-50702380D01*
X80011904Y-51702380D02*
X80011904Y-50702380D01*
X80250000Y-50702380D01*
X80392857Y-50750000D01*
X80488095Y-50845238D01*
X80535714Y-50940476D01*
X80583333Y-51130952D01*
X80583333Y-51273809D01*
X80535714Y-51464285D01*
X80488095Y-51559523D01*
X80392857Y-51654761D01*
X80250000Y-51702380D01*
X80011904Y-51702380D01*
X81726190Y-51654761D02*
X81869047Y-51702380D01*
X82107142Y-51702380D01*
X82202380Y-51654761D01*
X82250000Y-51607142D01*
X82297619Y-51511904D01*
X82297619Y-51416666D01*
X82250000Y-51321428D01*
X82202380Y-51273809D01*
X82107142Y-51226190D01*
X81916666Y-51178571D01*
X81821428Y-51130952D01*
X81773809Y-51083333D01*
X81726190Y-50988095D01*
X81726190Y-50892857D01*
X81773809Y-50797619D01*
X81821428Y-50750000D01*
X81916666Y-50702380D01*
X82154761Y-50702380D01*
X82297619Y-50750000D01*
X82583333Y-50702380D02*
X83154761Y-50702380D01*
X82869047Y-51702380D02*
X82869047Y-50702380D01*
X84059523Y-51702380D02*
X83726190Y-51226190D01*
X83488095Y-51702380D02*
X83488095Y-50702380D01*
X83869047Y-50702380D01*
X83964285Y-50750000D01*
X84011904Y-50797619D01*
X84059523Y-50892857D01*
X84059523Y-51035714D01*
X84011904Y-51130952D01*
X83964285Y-51178571D01*
X83869047Y-51226190D01*
X83488095Y-51226190D01*
X84488095Y-51702380D02*
X84488095Y-50702380D01*
X84964285Y-51702380D02*
X84964285Y-50702380D01*
X85345238Y-50702380D01*
X85440476Y-50750000D01*
X85488095Y-50797619D01*
X85535714Y-50892857D01*
X85535714Y-51035714D01*
X85488095Y-51130952D01*
X85440476Y-51178571D01*
X85345238Y-51226190D01*
X84964285Y-51226190D01*
X85964285Y-51178571D02*
X86297619Y-51178571D01*
X86440476Y-51702380D02*
X85964285Y-51702380D01*
X85964285Y-50702380D01*
X86440476Y-50702380D01*
X73488095Y-51321428D02*
X74250000Y-51321428D01*
X75250000Y-51702380D02*
X74678571Y-51702380D01*
X74964285Y-51702380D02*
X74964285Y-50702380D01*
X74869047Y-50845238D01*
X74773809Y-50940476D01*
X74678571Y-50988095D01*
X75630952Y-50797619D02*
X75678571Y-50750000D01*
X75773809Y-50702380D01*
X76011904Y-50702380D01*
X76107142Y-50750000D01*
X76154761Y-50797619D01*
X76202380Y-50892857D01*
X76202380Y-50988095D01*
X76154761Y-51130952D01*
X75583333Y-51702380D01*
X76202380Y-51702380D01*
X76488095Y-50702380D02*
X76821428Y-51702380D01*
X77154761Y-50702380D01*
X78238095Y-74071428D02*
X79000000Y-74071428D01*
X78619047Y-74452380D02*
X78619047Y-73690476D01*
X80000000Y-74452380D02*
X79428571Y-74452380D01*
X79714285Y-74452380D02*
X79714285Y-73452380D01*
X79619047Y-73595238D01*
X79523809Y-73690476D01*
X79428571Y-73738095D01*
X80380952Y-73547619D02*
X80428571Y-73500000D01*
X80523809Y-73452380D01*
X80761904Y-73452380D01*
X80857142Y-73500000D01*
X80904761Y-73547619D01*
X80952380Y-73642857D01*
X80952380Y-73738095D01*
X80904761Y-73880952D01*
X80333333Y-74452380D01*
X80952380Y-74452380D01*
X81238095Y-73452380D02*
X81571428Y-74452380D01*
X81904761Y-73452380D01*
X207542857Y-62759285D02*
X207542857Y-63295000D01*
X207507142Y-63402142D01*
X207435714Y-63473571D01*
X207328571Y-63509285D01*
X207257142Y-63509285D01*
X208292857Y-63509285D02*
X207864285Y-63509285D01*
X208078571Y-63509285D02*
X208078571Y-62759285D01*
X208007142Y-62866428D01*
X207935714Y-62937857D01*
X207864285Y-62973571D01*
X209007142Y-63509285D02*
X208578571Y-63509285D01*
X208792857Y-63509285D02*
X208792857Y-62759285D01*
X208721428Y-62866428D01*
X208650000Y-62937857D01*
X208578571Y-62973571D01*
X213678571Y-51702380D02*
X213345238Y-51226190D01*
X213107142Y-51702380D02*
X213107142Y-50702380D01*
X213488095Y-50702380D01*
X213583333Y-50750000D01*
X213630952Y-50797619D01*
X213678571Y-50892857D01*
X213678571Y-51035714D01*
X213630952Y-51130952D01*
X213583333Y-51178571D01*
X213488095Y-51226190D01*
X213107142Y-51226190D01*
X214107142Y-51178571D02*
X214440476Y-51178571D01*
X214583333Y-51702380D02*
X214107142Y-51702380D01*
X214107142Y-50702380D01*
X214583333Y-50702380D01*
X215011904Y-51702380D02*
X215011904Y-50702380D01*
X215250000Y-50702380D01*
X215392857Y-50750000D01*
X215488095Y-50845238D01*
X215535714Y-50940476D01*
X215583333Y-51130952D01*
X215583333Y-51273809D01*
X215535714Y-51464285D01*
X215488095Y-51559523D01*
X215392857Y-51654761D01*
X215250000Y-51702380D01*
X215011904Y-51702380D01*
X216726190Y-51654761D02*
X216869047Y-51702380D01*
X217107142Y-51702380D01*
X217202380Y-51654761D01*
X217250000Y-51607142D01*
X217297619Y-51511904D01*
X217297619Y-51416666D01*
X217250000Y-51321428D01*
X217202380Y-51273809D01*
X217107142Y-51226190D01*
X216916666Y-51178571D01*
X216821428Y-51130952D01*
X216773809Y-51083333D01*
X216726190Y-50988095D01*
X216726190Y-50892857D01*
X216773809Y-50797619D01*
X216821428Y-50750000D01*
X216916666Y-50702380D01*
X217154761Y-50702380D01*
X217297619Y-50750000D01*
X217583333Y-50702380D02*
X218154761Y-50702380D01*
X217869047Y-51702380D02*
X217869047Y-50702380D01*
X219059523Y-51702380D02*
X218726190Y-51226190D01*
X218488095Y-51702380D02*
X218488095Y-50702380D01*
X218869047Y-50702380D01*
X218964285Y-50750000D01*
X219011904Y-50797619D01*
X219059523Y-50892857D01*
X219059523Y-51035714D01*
X219011904Y-51130952D01*
X218964285Y-51178571D01*
X218869047Y-51226190D01*
X218488095Y-51226190D01*
X219488095Y-51702380D02*
X219488095Y-50702380D01*
X219964285Y-51702380D02*
X219964285Y-50702380D01*
X220345238Y-50702380D01*
X220440476Y-50750000D01*
X220488095Y-50797619D01*
X220535714Y-50892857D01*
X220535714Y-51035714D01*
X220488095Y-51130952D01*
X220440476Y-51178571D01*
X220345238Y-51226190D01*
X219964285Y-51226190D01*
X220964285Y-51178571D02*
X221297619Y-51178571D01*
X221440476Y-51702380D02*
X220964285Y-51702380D01*
X220964285Y-50702380D01*
X221440476Y-50702380D01*
X208488095Y-51321428D02*
X209250000Y-51321428D01*
X210250000Y-51702380D02*
X209678571Y-51702380D01*
X209964285Y-51702380D02*
X209964285Y-50702380D01*
X209869047Y-50845238D01*
X209773809Y-50940476D01*
X209678571Y-50988095D01*
X210630952Y-50797619D02*
X210678571Y-50750000D01*
X210773809Y-50702380D01*
X211011904Y-50702380D01*
X211107142Y-50750000D01*
X211154761Y-50797619D01*
X211202380Y-50892857D01*
X211202380Y-50988095D01*
X211154761Y-51130952D01*
X210583333Y-51702380D01*
X211202380Y-51702380D01*
X211488095Y-50702380D02*
X211821428Y-51702380D01*
X212154761Y-50702380D01*
X213238095Y-74071428D02*
X214000000Y-74071428D01*
X213619047Y-74452380D02*
X213619047Y-73690476D01*
X215000000Y-74452380D02*
X214428571Y-74452380D01*
X214714285Y-74452380D02*
X214714285Y-73452380D01*
X214619047Y-73595238D01*
X214523809Y-73690476D01*
X214428571Y-73738095D01*
X215380952Y-73547619D02*
X215428571Y-73500000D01*
X215523809Y-73452380D01*
X215761904Y-73452380D01*
X215857142Y-73500000D01*
X215904761Y-73547619D01*
X215952380Y-73642857D01*
X215952380Y-73738095D01*
X215904761Y-73880952D01*
X215333333Y-74452380D01*
X215952380Y-74452380D01*
X216238095Y-73452380D02*
X216571428Y-74452380D01*
X216904761Y-73452380D01*
X117900000Y-62759285D02*
X117900000Y-63295000D01*
X117864285Y-63402142D01*
X117792857Y-63473571D01*
X117685714Y-63509285D01*
X117614285Y-63509285D01*
X118614285Y-62759285D02*
X118257142Y-62759285D01*
X118221428Y-63116428D01*
X118257142Y-63080714D01*
X118328571Y-63045000D01*
X118507142Y-63045000D01*
X118578571Y-63080714D01*
X118614285Y-63116428D01*
X118650000Y-63187857D01*
X118650000Y-63366428D01*
X118614285Y-63437857D01*
X118578571Y-63473571D01*
X118507142Y-63509285D01*
X118328571Y-63509285D01*
X118257142Y-63473571D01*
X118221428Y-63437857D01*
X123678571Y-51702380D02*
X123345238Y-51226190D01*
X123107142Y-51702380D02*
X123107142Y-50702380D01*
X123488095Y-50702380D01*
X123583333Y-50750000D01*
X123630952Y-50797619D01*
X123678571Y-50892857D01*
X123678571Y-51035714D01*
X123630952Y-51130952D01*
X123583333Y-51178571D01*
X123488095Y-51226190D01*
X123107142Y-51226190D01*
X124107142Y-51178571D02*
X124440476Y-51178571D01*
X124583333Y-51702380D02*
X124107142Y-51702380D01*
X124107142Y-50702380D01*
X124583333Y-50702380D01*
X125011904Y-51702380D02*
X125011904Y-50702380D01*
X125250000Y-50702380D01*
X125392857Y-50750000D01*
X125488095Y-50845238D01*
X125535714Y-50940476D01*
X125583333Y-51130952D01*
X125583333Y-51273809D01*
X125535714Y-51464285D01*
X125488095Y-51559523D01*
X125392857Y-51654761D01*
X125250000Y-51702380D01*
X125011904Y-51702380D01*
X126726190Y-51654761D02*
X126869047Y-51702380D01*
X127107142Y-51702380D01*
X127202380Y-51654761D01*
X127250000Y-51607142D01*
X127297619Y-51511904D01*
X127297619Y-51416666D01*
X127250000Y-51321428D01*
X127202380Y-51273809D01*
X127107142Y-51226190D01*
X126916666Y-51178571D01*
X126821428Y-51130952D01*
X126773809Y-51083333D01*
X126726190Y-50988095D01*
X126726190Y-50892857D01*
X126773809Y-50797619D01*
X126821428Y-50750000D01*
X126916666Y-50702380D01*
X127154761Y-50702380D01*
X127297619Y-50750000D01*
X127583333Y-50702380D02*
X128154761Y-50702380D01*
X127869047Y-51702380D02*
X127869047Y-50702380D01*
X129059523Y-51702380D02*
X128726190Y-51226190D01*
X128488095Y-51702380D02*
X128488095Y-50702380D01*
X128869047Y-50702380D01*
X128964285Y-50750000D01*
X129011904Y-50797619D01*
X129059523Y-50892857D01*
X129059523Y-51035714D01*
X129011904Y-51130952D01*
X128964285Y-51178571D01*
X128869047Y-51226190D01*
X128488095Y-51226190D01*
X129488095Y-51702380D02*
X129488095Y-50702380D01*
X129964285Y-51702380D02*
X129964285Y-50702380D01*
X130345238Y-50702380D01*
X130440476Y-50750000D01*
X130488095Y-50797619D01*
X130535714Y-50892857D01*
X130535714Y-51035714D01*
X130488095Y-51130952D01*
X130440476Y-51178571D01*
X130345238Y-51226190D01*
X129964285Y-51226190D01*
X130964285Y-51178571D02*
X131297619Y-51178571D01*
X131440476Y-51702380D02*
X130964285Y-51702380D01*
X130964285Y-50702380D01*
X131440476Y-50702380D01*
X118488095Y-51321428D02*
X119250000Y-51321428D01*
X120250000Y-51702380D02*
X119678571Y-51702380D01*
X119964285Y-51702380D02*
X119964285Y-50702380D01*
X119869047Y-50845238D01*
X119773809Y-50940476D01*
X119678571Y-50988095D01*
X120630952Y-50797619D02*
X120678571Y-50750000D01*
X120773809Y-50702380D01*
X121011904Y-50702380D01*
X121107142Y-50750000D01*
X121154761Y-50797619D01*
X121202380Y-50892857D01*
X121202380Y-50988095D01*
X121154761Y-51130952D01*
X120583333Y-51702380D01*
X121202380Y-51702380D01*
X121488095Y-50702380D02*
X121821428Y-51702380D01*
X122154761Y-50702380D01*
X123238095Y-74071428D02*
X124000000Y-74071428D01*
X123619047Y-74452380D02*
X123619047Y-73690476D01*
X125000000Y-74452380D02*
X124428571Y-74452380D01*
X124714285Y-74452380D02*
X124714285Y-73452380D01*
X124619047Y-73595238D01*
X124523809Y-73690476D01*
X124428571Y-73738095D01*
X125380952Y-73547619D02*
X125428571Y-73500000D01*
X125523809Y-73452380D01*
X125761904Y-73452380D01*
X125857142Y-73500000D01*
X125904761Y-73547619D01*
X125952380Y-73642857D01*
X125952380Y-73738095D01*
X125904761Y-73880952D01*
X125333333Y-74452380D01*
X125952380Y-74452380D01*
X126238095Y-73452380D02*
X126571428Y-74452380D01*
X126904761Y-73452380D01*
X177900000Y-62759285D02*
X177900000Y-63295000D01*
X177864285Y-63402142D01*
X177792857Y-63473571D01*
X177685714Y-63509285D01*
X177614285Y-63509285D01*
X178292857Y-63509285D02*
X178435714Y-63509285D01*
X178507142Y-63473571D01*
X178542857Y-63437857D01*
X178614285Y-63330714D01*
X178650000Y-63187857D01*
X178650000Y-62902142D01*
X178614285Y-62830714D01*
X178578571Y-62795000D01*
X178507142Y-62759285D01*
X178364285Y-62759285D01*
X178292857Y-62795000D01*
X178257142Y-62830714D01*
X178221428Y-62902142D01*
X178221428Y-63080714D01*
X178257142Y-63152142D01*
X178292857Y-63187857D01*
X178364285Y-63223571D01*
X178507142Y-63223571D01*
X178578571Y-63187857D01*
X178614285Y-63152142D01*
X178650000Y-63080714D01*
X183678571Y-51702380D02*
X183345238Y-51226190D01*
X183107142Y-51702380D02*
X183107142Y-50702380D01*
X183488095Y-50702380D01*
X183583333Y-50750000D01*
X183630952Y-50797619D01*
X183678571Y-50892857D01*
X183678571Y-51035714D01*
X183630952Y-51130952D01*
X183583333Y-51178571D01*
X183488095Y-51226190D01*
X183107142Y-51226190D01*
X184107142Y-51178571D02*
X184440476Y-51178571D01*
X184583333Y-51702380D02*
X184107142Y-51702380D01*
X184107142Y-50702380D01*
X184583333Y-50702380D01*
X185011904Y-51702380D02*
X185011904Y-50702380D01*
X185250000Y-50702380D01*
X185392857Y-50750000D01*
X185488095Y-50845238D01*
X185535714Y-50940476D01*
X185583333Y-51130952D01*
X185583333Y-51273809D01*
X185535714Y-51464285D01*
X185488095Y-51559523D01*
X185392857Y-51654761D01*
X185250000Y-51702380D01*
X185011904Y-51702380D01*
X186726190Y-51654761D02*
X186869047Y-51702380D01*
X187107142Y-51702380D01*
X187202380Y-51654761D01*
X187250000Y-51607142D01*
X187297619Y-51511904D01*
X187297619Y-51416666D01*
X187250000Y-51321428D01*
X187202380Y-51273809D01*
X187107142Y-51226190D01*
X186916666Y-51178571D01*
X186821428Y-51130952D01*
X186773809Y-51083333D01*
X186726190Y-50988095D01*
X186726190Y-50892857D01*
X186773809Y-50797619D01*
X186821428Y-50750000D01*
X186916666Y-50702380D01*
X187154761Y-50702380D01*
X187297619Y-50750000D01*
X187583333Y-50702380D02*
X188154761Y-50702380D01*
X187869047Y-51702380D02*
X187869047Y-50702380D01*
X189059523Y-51702380D02*
X188726190Y-51226190D01*
X188488095Y-51702380D02*
X188488095Y-50702380D01*
X188869047Y-50702380D01*
X188964285Y-50750000D01*
X189011904Y-50797619D01*
X189059523Y-50892857D01*
X189059523Y-51035714D01*
X189011904Y-51130952D01*
X188964285Y-51178571D01*
X188869047Y-51226190D01*
X188488095Y-51226190D01*
X189488095Y-51702380D02*
X189488095Y-50702380D01*
X189964285Y-51702380D02*
X189964285Y-50702380D01*
X190345238Y-50702380D01*
X190440476Y-50750000D01*
X190488095Y-50797619D01*
X190535714Y-50892857D01*
X190535714Y-51035714D01*
X190488095Y-51130952D01*
X190440476Y-51178571D01*
X190345238Y-51226190D01*
X189964285Y-51226190D01*
X190964285Y-51178571D02*
X191297619Y-51178571D01*
X191440476Y-51702380D02*
X190964285Y-51702380D01*
X190964285Y-50702380D01*
X191440476Y-50702380D01*
X178488095Y-51321428D02*
X179250000Y-51321428D01*
X180250000Y-51702380D02*
X179678571Y-51702380D01*
X179964285Y-51702380D02*
X179964285Y-50702380D01*
X179869047Y-50845238D01*
X179773809Y-50940476D01*
X179678571Y-50988095D01*
X180630952Y-50797619D02*
X180678571Y-50750000D01*
X180773809Y-50702380D01*
X181011904Y-50702380D01*
X181107142Y-50750000D01*
X181154761Y-50797619D01*
X181202380Y-50892857D01*
X181202380Y-50988095D01*
X181154761Y-51130952D01*
X180583333Y-51702380D01*
X181202380Y-51702380D01*
X181488095Y-50702380D02*
X181821428Y-51702380D01*
X182154761Y-50702380D01*
X183238095Y-74071428D02*
X184000000Y-74071428D01*
X183619047Y-74452380D02*
X183619047Y-73690476D01*
X185000000Y-74452380D02*
X184428571Y-74452380D01*
X184714285Y-74452380D02*
X184714285Y-73452380D01*
X184619047Y-73595238D01*
X184523809Y-73690476D01*
X184428571Y-73738095D01*
X185380952Y-73547619D02*
X185428571Y-73500000D01*
X185523809Y-73452380D01*
X185761904Y-73452380D01*
X185857142Y-73500000D01*
X185904761Y-73547619D01*
X185952380Y-73642857D01*
X185952380Y-73738095D01*
X185904761Y-73880952D01*
X185333333Y-74452380D01*
X185952380Y-74452380D01*
X186238095Y-73452380D02*
X186571428Y-74452380D01*
X186904761Y-73452380D01*
X87900000Y-62759285D02*
X87900000Y-63295000D01*
X87864285Y-63402142D01*
X87792857Y-63473571D01*
X87685714Y-63509285D01*
X87614285Y-63509285D01*
X88185714Y-62759285D02*
X88650000Y-62759285D01*
X88400000Y-63045000D01*
X88507142Y-63045000D01*
X88578571Y-63080714D01*
X88614285Y-63116428D01*
X88650000Y-63187857D01*
X88650000Y-63366428D01*
X88614285Y-63437857D01*
X88578571Y-63473571D01*
X88507142Y-63509285D01*
X88292857Y-63509285D01*
X88221428Y-63473571D01*
X88185714Y-63437857D01*
X93678571Y-51702380D02*
X93345238Y-51226190D01*
X93107142Y-51702380D02*
X93107142Y-50702380D01*
X93488095Y-50702380D01*
X93583333Y-50750000D01*
X93630952Y-50797619D01*
X93678571Y-50892857D01*
X93678571Y-51035714D01*
X93630952Y-51130952D01*
X93583333Y-51178571D01*
X93488095Y-51226190D01*
X93107142Y-51226190D01*
X94107142Y-51178571D02*
X94440476Y-51178571D01*
X94583333Y-51702380D02*
X94107142Y-51702380D01*
X94107142Y-50702380D01*
X94583333Y-50702380D01*
X95011904Y-51702380D02*
X95011904Y-50702380D01*
X95250000Y-50702380D01*
X95392857Y-50750000D01*
X95488095Y-50845238D01*
X95535714Y-50940476D01*
X95583333Y-51130952D01*
X95583333Y-51273809D01*
X95535714Y-51464285D01*
X95488095Y-51559523D01*
X95392857Y-51654761D01*
X95250000Y-51702380D01*
X95011904Y-51702380D01*
X96726190Y-51654761D02*
X96869047Y-51702380D01*
X97107142Y-51702380D01*
X97202380Y-51654761D01*
X97250000Y-51607142D01*
X97297619Y-51511904D01*
X97297619Y-51416666D01*
X97250000Y-51321428D01*
X97202380Y-51273809D01*
X97107142Y-51226190D01*
X96916666Y-51178571D01*
X96821428Y-51130952D01*
X96773809Y-51083333D01*
X96726190Y-50988095D01*
X96726190Y-50892857D01*
X96773809Y-50797619D01*
X96821428Y-50750000D01*
X96916666Y-50702380D01*
X97154761Y-50702380D01*
X97297619Y-50750000D01*
X97583333Y-50702380D02*
X98154761Y-50702380D01*
X97869047Y-51702380D02*
X97869047Y-50702380D01*
X99059523Y-51702380D02*
X98726190Y-51226190D01*
X98488095Y-51702380D02*
X98488095Y-50702380D01*
X98869047Y-50702380D01*
X98964285Y-50750000D01*
X99011904Y-50797619D01*
X99059523Y-50892857D01*
X99059523Y-51035714D01*
X99011904Y-51130952D01*
X98964285Y-51178571D01*
X98869047Y-51226190D01*
X98488095Y-51226190D01*
X99488095Y-51702380D02*
X99488095Y-50702380D01*
X99964285Y-51702380D02*
X99964285Y-50702380D01*
X100345238Y-50702380D01*
X100440476Y-50750000D01*
X100488095Y-50797619D01*
X100535714Y-50892857D01*
X100535714Y-51035714D01*
X100488095Y-51130952D01*
X100440476Y-51178571D01*
X100345238Y-51226190D01*
X99964285Y-51226190D01*
X100964285Y-51178571D02*
X101297619Y-51178571D01*
X101440476Y-51702380D02*
X100964285Y-51702380D01*
X100964285Y-50702380D01*
X101440476Y-50702380D01*
X88488095Y-51321428D02*
X89250000Y-51321428D01*
X90250000Y-51702380D02*
X89678571Y-51702380D01*
X89964285Y-51702380D02*
X89964285Y-50702380D01*
X89869047Y-50845238D01*
X89773809Y-50940476D01*
X89678571Y-50988095D01*
X90630952Y-50797619D02*
X90678571Y-50750000D01*
X90773809Y-50702380D01*
X91011904Y-50702380D01*
X91107142Y-50750000D01*
X91154761Y-50797619D01*
X91202380Y-50892857D01*
X91202380Y-50988095D01*
X91154761Y-51130952D01*
X90583333Y-51702380D01*
X91202380Y-51702380D01*
X91488095Y-50702380D02*
X91821428Y-51702380D01*
X92154761Y-50702380D01*
X93238095Y-74071428D02*
X94000000Y-74071428D01*
X93619047Y-74452380D02*
X93619047Y-73690476D01*
X95000000Y-74452380D02*
X94428571Y-74452380D01*
X94714285Y-74452380D02*
X94714285Y-73452380D01*
X94619047Y-73595238D01*
X94523809Y-73690476D01*
X94428571Y-73738095D01*
X95380952Y-73547619D02*
X95428571Y-73500000D01*
X95523809Y-73452380D01*
X95761904Y-73452380D01*
X95857142Y-73500000D01*
X95904761Y-73547619D01*
X95952380Y-73642857D01*
X95952380Y-73738095D01*
X95904761Y-73880952D01*
X95333333Y-74452380D01*
X95952380Y-74452380D01*
X96238095Y-73452380D02*
X96571428Y-74452380D01*
X96904761Y-73452380D01*
X147900000Y-62759285D02*
X147900000Y-63295000D01*
X147864285Y-63402142D01*
X147792857Y-63473571D01*
X147685714Y-63509285D01*
X147614285Y-63509285D01*
X148185714Y-62759285D02*
X148685714Y-62759285D01*
X148364285Y-63509285D01*
X153678571Y-51702380D02*
X153345238Y-51226190D01*
X153107142Y-51702380D02*
X153107142Y-50702380D01*
X153488095Y-50702380D01*
X153583333Y-50750000D01*
X153630952Y-50797619D01*
X153678571Y-50892857D01*
X153678571Y-51035714D01*
X153630952Y-51130952D01*
X153583333Y-51178571D01*
X153488095Y-51226190D01*
X153107142Y-51226190D01*
X154107142Y-51178571D02*
X154440476Y-51178571D01*
X154583333Y-51702380D02*
X154107142Y-51702380D01*
X154107142Y-50702380D01*
X154583333Y-50702380D01*
X155011904Y-51702380D02*
X155011904Y-50702380D01*
X155250000Y-50702380D01*
X155392857Y-50750000D01*
X155488095Y-50845238D01*
X155535714Y-50940476D01*
X155583333Y-51130952D01*
X155583333Y-51273809D01*
X155535714Y-51464285D01*
X155488095Y-51559523D01*
X155392857Y-51654761D01*
X155250000Y-51702380D01*
X155011904Y-51702380D01*
X156726190Y-51654761D02*
X156869047Y-51702380D01*
X157107142Y-51702380D01*
X157202380Y-51654761D01*
X157250000Y-51607142D01*
X157297619Y-51511904D01*
X157297619Y-51416666D01*
X157250000Y-51321428D01*
X157202380Y-51273809D01*
X157107142Y-51226190D01*
X156916666Y-51178571D01*
X156821428Y-51130952D01*
X156773809Y-51083333D01*
X156726190Y-50988095D01*
X156726190Y-50892857D01*
X156773809Y-50797619D01*
X156821428Y-50750000D01*
X156916666Y-50702380D01*
X157154761Y-50702380D01*
X157297619Y-50750000D01*
X157583333Y-50702380D02*
X158154761Y-50702380D01*
X157869047Y-51702380D02*
X157869047Y-50702380D01*
X159059523Y-51702380D02*
X158726190Y-51226190D01*
X158488095Y-51702380D02*
X158488095Y-50702380D01*
X158869047Y-50702380D01*
X158964285Y-50750000D01*
X159011904Y-50797619D01*
X159059523Y-50892857D01*
X159059523Y-51035714D01*
X159011904Y-51130952D01*
X158964285Y-51178571D01*
X158869047Y-51226190D01*
X158488095Y-51226190D01*
X159488095Y-51702380D02*
X159488095Y-50702380D01*
X159964285Y-51702380D02*
X159964285Y-50702380D01*
X160345238Y-50702380D01*
X160440476Y-50750000D01*
X160488095Y-50797619D01*
X160535714Y-50892857D01*
X160535714Y-51035714D01*
X160488095Y-51130952D01*
X160440476Y-51178571D01*
X160345238Y-51226190D01*
X159964285Y-51226190D01*
X160964285Y-51178571D02*
X161297619Y-51178571D01*
X161440476Y-51702380D02*
X160964285Y-51702380D01*
X160964285Y-50702380D01*
X161440476Y-50702380D01*
X148488095Y-51321428D02*
X149250000Y-51321428D01*
X150250000Y-51702380D02*
X149678571Y-51702380D01*
X149964285Y-51702380D02*
X149964285Y-50702380D01*
X149869047Y-50845238D01*
X149773809Y-50940476D01*
X149678571Y-50988095D01*
X150630952Y-50797619D02*
X150678571Y-50750000D01*
X150773809Y-50702380D01*
X151011904Y-50702380D01*
X151107142Y-50750000D01*
X151154761Y-50797619D01*
X151202380Y-50892857D01*
X151202380Y-50988095D01*
X151154761Y-51130952D01*
X150583333Y-51702380D01*
X151202380Y-51702380D01*
X151488095Y-50702380D02*
X151821428Y-51702380D01*
X152154761Y-50702380D01*
X153238095Y-74071428D02*
X154000000Y-74071428D01*
X153619047Y-74452380D02*
X153619047Y-73690476D01*
X155000000Y-74452380D02*
X154428571Y-74452380D01*
X154714285Y-74452380D02*
X154714285Y-73452380D01*
X154619047Y-73595238D01*
X154523809Y-73690476D01*
X154428571Y-73738095D01*
X155380952Y-73547619D02*
X155428571Y-73500000D01*
X155523809Y-73452380D01*
X155761904Y-73452380D01*
X155857142Y-73500000D01*
X155904761Y-73547619D01*
X155952380Y-73642857D01*
X155952380Y-73738095D01*
X155904761Y-73880952D01*
X155333333Y-74452380D01*
X155952380Y-74452380D01*
X156238095Y-73452380D02*
X156571428Y-74452380D01*
X156904761Y-73452380D01*
X57900000Y-62759285D02*
X57900000Y-63295000D01*
X57864285Y-63402142D01*
X57792857Y-63473571D01*
X57685714Y-63509285D01*
X57614285Y-63509285D01*
X58650000Y-63509285D02*
X58221428Y-63509285D01*
X58435714Y-63509285D02*
X58435714Y-62759285D01*
X58364285Y-62866428D01*
X58292857Y-62937857D01*
X58221428Y-62973571D01*
X63678571Y-51702380D02*
X63345238Y-51226190D01*
X63107142Y-51702380D02*
X63107142Y-50702380D01*
X63488095Y-50702380D01*
X63583333Y-50750000D01*
X63630952Y-50797619D01*
X63678571Y-50892857D01*
X63678571Y-51035714D01*
X63630952Y-51130952D01*
X63583333Y-51178571D01*
X63488095Y-51226190D01*
X63107142Y-51226190D01*
X64107142Y-51178571D02*
X64440476Y-51178571D01*
X64583333Y-51702380D02*
X64107142Y-51702380D01*
X64107142Y-50702380D01*
X64583333Y-50702380D01*
X65011904Y-51702380D02*
X65011904Y-50702380D01*
X65250000Y-50702380D01*
X65392857Y-50750000D01*
X65488095Y-50845238D01*
X65535714Y-50940476D01*
X65583333Y-51130952D01*
X65583333Y-51273809D01*
X65535714Y-51464285D01*
X65488095Y-51559523D01*
X65392857Y-51654761D01*
X65250000Y-51702380D01*
X65011904Y-51702380D01*
X66726190Y-51654761D02*
X66869047Y-51702380D01*
X67107142Y-51702380D01*
X67202380Y-51654761D01*
X67250000Y-51607142D01*
X67297619Y-51511904D01*
X67297619Y-51416666D01*
X67250000Y-51321428D01*
X67202380Y-51273809D01*
X67107142Y-51226190D01*
X66916666Y-51178571D01*
X66821428Y-51130952D01*
X66773809Y-51083333D01*
X66726190Y-50988095D01*
X66726190Y-50892857D01*
X66773809Y-50797619D01*
X66821428Y-50750000D01*
X66916666Y-50702380D01*
X67154761Y-50702380D01*
X67297619Y-50750000D01*
X67583333Y-50702380D02*
X68154761Y-50702380D01*
X67869047Y-51702380D02*
X67869047Y-50702380D01*
X69059523Y-51702380D02*
X68726190Y-51226190D01*
X68488095Y-51702380D02*
X68488095Y-50702380D01*
X68869047Y-50702380D01*
X68964285Y-50750000D01*
X69011904Y-50797619D01*
X69059523Y-50892857D01*
X69059523Y-51035714D01*
X69011904Y-51130952D01*
X68964285Y-51178571D01*
X68869047Y-51226190D01*
X68488095Y-51226190D01*
X69488095Y-51702380D02*
X69488095Y-50702380D01*
X69964285Y-51702380D02*
X69964285Y-50702380D01*
X70345238Y-50702380D01*
X70440476Y-50750000D01*
X70488095Y-50797619D01*
X70535714Y-50892857D01*
X70535714Y-51035714D01*
X70488095Y-51130952D01*
X70440476Y-51178571D01*
X70345238Y-51226190D01*
X69964285Y-51226190D01*
X70964285Y-51178571D02*
X71297619Y-51178571D01*
X71440476Y-51702380D02*
X70964285Y-51702380D01*
X70964285Y-50702380D01*
X71440476Y-50702380D01*
X58488095Y-51321428D02*
X59250000Y-51321428D01*
X60250000Y-51702380D02*
X59678571Y-51702380D01*
X59964285Y-51702380D02*
X59964285Y-50702380D01*
X59869047Y-50845238D01*
X59773809Y-50940476D01*
X59678571Y-50988095D01*
X60630952Y-50797619D02*
X60678571Y-50750000D01*
X60773809Y-50702380D01*
X61011904Y-50702380D01*
X61107142Y-50750000D01*
X61154761Y-50797619D01*
X61202380Y-50892857D01*
X61202380Y-50988095D01*
X61154761Y-51130952D01*
X60583333Y-51702380D01*
X61202380Y-51702380D01*
X61488095Y-50702380D02*
X61821428Y-51702380D01*
X62154761Y-50702380D01*
X63238095Y-74071428D02*
X64000000Y-74071428D01*
X63619047Y-74452380D02*
X63619047Y-73690476D01*
X65000000Y-74452380D02*
X64428571Y-74452380D01*
X64714285Y-74452380D02*
X64714285Y-73452380D01*
X64619047Y-73595238D01*
X64523809Y-73690476D01*
X64428571Y-73738095D01*
X65380952Y-73547619D02*
X65428571Y-73500000D01*
X65523809Y-73452380D01*
X65761904Y-73452380D01*
X65857142Y-73500000D01*
X65904761Y-73547619D01*
X65952380Y-73642857D01*
X65952380Y-73738095D01*
X65904761Y-73880952D01*
X65333333Y-74452380D01*
X65952380Y-74452380D01*
X66238095Y-73452380D02*
X66571428Y-74452380D01*
X66904761Y-73452380D01*
X70738095Y-53571428D02*
X71500000Y-53571428D01*
X71119047Y-53952380D02*
X71119047Y-53190476D01*
X72500000Y-53952380D02*
X71928571Y-53952380D01*
X72214285Y-53952380D02*
X72214285Y-52952380D01*
X72119047Y-53095238D01*
X72023809Y-53190476D01*
X71928571Y-53238095D01*
X72880952Y-53047619D02*
X72928571Y-53000000D01*
X73023809Y-52952380D01*
X73261904Y-52952380D01*
X73357142Y-53000000D01*
X73404761Y-53047619D01*
X73452380Y-53142857D01*
X73452380Y-53238095D01*
X73404761Y-53380952D01*
X72833333Y-53952380D01*
X73452380Y-53952380D01*
X73738095Y-52952380D02*
X74071428Y-53952380D01*
X74404761Y-52952380D01*
X85738095Y-53571428D02*
X86500000Y-53571428D01*
X87500000Y-53952380D02*
X86928571Y-53952380D01*
X87214285Y-53952380D02*
X87214285Y-52952380D01*
X87119047Y-53095238D01*
X87023809Y-53190476D01*
X86928571Y-53238095D01*
X87880952Y-53047619D02*
X87928571Y-53000000D01*
X88023809Y-52952380D01*
X88261904Y-52952380D01*
X88357142Y-53000000D01*
X88404761Y-53047619D01*
X88452380Y-53142857D01*
X88452380Y-53238095D01*
X88404761Y-53380952D01*
X87833333Y-53952380D01*
X88452380Y-53952380D01*
X88738095Y-52952380D02*
X89071428Y-53952380D01*
X89404761Y-52952380D01*
X72952380Y-63976666D02*
X72476190Y-64310000D01*
X72952380Y-64548095D02*
X71952380Y-64548095D01*
X71952380Y-64167142D01*
X72000000Y-64071904D01*
X72047619Y-64024285D01*
X72142857Y-63976666D01*
X72285714Y-63976666D01*
X72380952Y-64024285D01*
X72428571Y-64071904D01*
X72476190Y-64167142D01*
X72476190Y-64548095D01*
X72952380Y-63024285D02*
X72952380Y-63595714D01*
X72952380Y-63310000D02*
X71952380Y-63310000D01*
X72095238Y-63405238D01*
X72190476Y-63500476D01*
X72238095Y-63595714D01*
M02*
